<svg xmlns="http://www.w3.org/2000/svg">
<defs>
<font id="Tuffy-Bold" horiz-adv-x="1674" >
  <font-face 
    font-family="Tuffy"
    font-weight="700"
    font-stretch="normal"
    units-per-em="2048"
    panose-1="2 11 8 3 6 1 0 0 0 0"
    ascent="1638"
    descent="-410"
    x-height="1073"
    cap-height="1456"
    bbox="-994 -697 2729 2340"
    underline-thickness="102"
    underline-position="-306"
    unicode-range="U+0020-F8F3"
  />
<missing-glyph horiz-adv-x="1409" 
d="M766 621v-64h-131v95q0 24 9 45q8 18 24 36q12 14 31 29q26 21 35 28q15 11 31 29q14 16 23 35q10 22 10 43q0 28 -15 46q-14 17 -37 25q-20 7 -45 7q-38 0 -64 -26t-29 -64l-131 20q9 83 68 136q60 54 154 54q33 0 70 -8q35 -8 65 -24q29 -16 52 -39q22 -22 36 -55
t14 -70q0 -32 -10 -67q-9 -31 -24 -52q-16 -22 -33 -38q-18 -16 -36 -30t-33 -27t-24 -30q-10 -18 -10 -34zM622 425q0 34 23 57q24 24 57 24t57 -24t24 -57q0 -32 -24 -56t-57 -24t-57 24q-23 23 -23 56zM1047 754q0 89 -17 174t-52 158q-34 72 -104 118q-68 45 -159 45
q-75 0 -133 -30q-56 -29 -94 -79q-40 -53 -62 -114q-26 -71 -34 -133q-9 -67 -9 -139q0 -82 10 -152q11 -75 34 -145q25 -74 61 -125q38 -53 96 -86t131 -33q75 0 133 33q57 32 94 86q40 58 62 125q26 77 34 145q9 73 9 152zM100 754q0 98 20 200q19 95 67 196
q45 95 116 172q69 75 175 121q105 46 237 46t237 -46q106 -46 175 -120q67 -71 115 -172t67 -197q20 -102 20 -200q0 -104 -20 -212q-19 -101 -67 -210q-46 -103 -116 -184q-68 -78 -175 -128q-105 -49 -236 -49q-130 0 -235 49q-109 51 -176 128q-70 81 -116 183
q-47 105 -68 210q-20 101 -20 213z" />
    <glyph glyph-name="IJ" unicode="IJ" horiz-adv-x="1707" 
d="M558 586h241q0 -69 14 -133q13 -60 45 -117q31 -55 85 -86q55 -31 129 -31q70 0 119 31q51 32 76 86q25 53 37 115q12 61 12 135v870h268v-870q0 -184 -56 -323q-56 -138 -173 -218q-118 -80 -283 -80q-106 0 -190 31q-88 32 -146 86q-59 54 -100 134q-39 75 -59 170
q-19 91 -19 200zM143 0v1456h268v-1456h-268z" />
    <glyph glyph-name="ij" unicode="ij" horiz-adv-x="929" 
d="M516 1334q0 63 44 112q44 48 103 48t103 -48q44 -49 44 -112t-44 -112q-44 -48 -103 -48t-103 48q-44 49 -44 112zM159 -333l169 172q12 -17 38 -29q28 -13 52 -13q51 0 83 31q33 32 33 80v1165h258v-1108q0 -99 -56 -193t-144 -148q-91 -56 -185 -56q-81 0 -139 20
q-55 19 -109 79zM121 1334q0 65 43.5 112.5t103.5 47.5t103.5 -47.5t43.5 -112.5t-43.5 -112.5t-103.5 -47.5t-103.5 47.5t-43.5 112.5zM139 1073h258v-1073h-258v1073z" />
    <glyph glyph-name=".notdef" horiz-adv-x="1409" 
d="M766 621v-64h-131v95q0 24 9 45q8 18 24 36q12 14 31 29q26 21 35 28q15 11 31 29q14 16 23 35q10 22 10 43q0 28 -15 46q-14 17 -37 25q-20 7 -45 7q-38 0 -64 -26t-29 -64l-131 20q9 83 68 136q60 54 154 54q33 0 70 -8q35 -8 65 -24q29 -16 52 -39q22 -22 36 -55
t14 -70q0 -32 -10 -67q-9 -31 -24 -52q-16 -22 -33 -38q-18 -16 -36 -30t-33 -27t-24 -30q-10 -18 -10 -34zM622 425q0 34 23 57q24 24 57 24t57 -24t24 -57q0 -32 -24 -56t-57 -24t-57 24q-23 23 -23 56zM1047 754q0 89 -17 174t-52 158q-34 72 -104 118q-68 45 -159 45
q-75 0 -133 -30q-56 -29 -94 -79q-40 -53 -62 -114q-26 -71 -34 -133q-9 -67 -9 -139q0 -82 10 -152q11 -75 34 -145q25 -74 61 -125q38 -53 96 -86t131 -33q75 0 133 33q57 32 94 86q40 58 62 125q26 77 34 145q9 73 9 152zM100 754q0 98 20 200q19 95 67 196
q45 95 116 172q69 75 175 121q105 46 237 46t237 -46q106 -46 175 -120q67 -71 115 -172t67 -197q20 -102 20 -200q0 -104 -20 -212q-19 -101 -67 -210q-46 -103 -116 -184q-68 -78 -175 -128q-105 -49 -236 -49q-130 0 -235 49q-109 51 -176 128q-70 81 -116 183
q-47 105 -68 210q-20 101 -20 213z" />
    <glyph glyph-name=".null" horiz-adv-x="0" 
 />
    <glyph glyph-name="nonmarkingreturn" horiz-adv-x="682" 
 />
    <glyph glyph-name="space" unicode=" " horiz-adv-x="616" 
 />
    <glyph glyph-name="exclam" unicode="!" horiz-adv-x="457" 
d="M69 131q0 68 48 116t116 48t116 -48t48 -116t-48 -116t-116 -48q-67 0 -115.5 48.5t-48.5 115.5zM332 440q0 -23 -36 -41t-63 -18q-29 0 -64.5 18t-35.5 41l-41 949q0 37 48 65.5t91 28.5q44 0 92.5 -28.5t48.5 -63.5z" />
    <glyph glyph-name="quotedbl" unicode="&#x22;" horiz-adv-x="874" 
d="M524 1092l-20 374q0 34 39.5 55t73.5 21h4q30 0 68.5 -15.5t43.5 -40.5q2 -6 2 -20l-20 -374q-1 -21 -36.5 -34.5t-60.5 -13.5q-23 0 -56 10.5t-37 28.5q0 1 -0.5 4t-0.5 5zM150 1092l-21 374q0 34 39.5 55t73.5 21h4q31 0 69 -15t43 -41q2 -6 2 -20l-20 -374
q-1 -21 -36 -34.5t-60 -13.5q-24 0 -57 10.5t-36 28.5q-1 3 -1 9z" />
    <glyph glyph-name="numbersign" unicode="#" horiz-adv-x="1565" 
d="M876 596v240h-185v-240h185zM1130 356v-309h-254v309h-185v-309h-254v309h-318v240h318v240h-318v237h318v330h254v-330h185v330h254v-330h311v-237h-311v-240h311v-240h-311z" />
    <glyph glyph-name="dollar" unicode="$" horiz-adv-x="927" 
d="M432 1537h170v-133q125 -10 215 -71.5t154 -177.5l-264 -82q-31 46 -48 61t-57 25v-336q71 -24 121 -45t109.5 -58.5t96.5 -80.5t62 -108.5t25 -145.5q0 -165 -110 -278.5t-304 -132.5v-129h-168v129q-79 6 -149.5 42.5t-121.5 91t-86.5 114t-56.5 122.5l246 82
q52 -110 85 -149q39 -45 83 -52v414q-391 86 -391 412q0 147 115.5 246t273.5 108v132zM434 885v282q-59 -7 -87 -47t-28 -76q0 -66 27 -100.5t88 -58.5zM602 578v-361q139 31 139 170q0 21 -4.5 42t-17.5 49.5t-43 55t-74 44.5z" />
    <glyph glyph-name="percent" unicode="%" horiz-adv-x="1435" 
d="M940 371q0 -46 25 -73.5t63 -27.5t62 26.5t24 74.5q0 44 -25.5 76t-62.5 32q-35 0 -60.5 -32t-25.5 -76zM725 370q0 131 88 222.5t215 91.5q125 0 214 -91.5t89 -221.5q0 -128 -89 -218t-214 -90q-127 0 -215 89.5t-88 217.5zM309 1075q0 -46 25 -73t63 -27t62 26t24 74
q0 44 -25.5 76.5t-62.5 32.5q-34 0 -60 -32.5t-26 -76.5zM94 1076q0 130 88.5 221.5t214.5 91.5q127 0 216 -92t89 -222q0 -128 -89 -217.5t-216 -89.5q-126 0 -214.5 89.5t-88.5 218.5zM485 119h-210l671 1218h201z" />
    <glyph glyph-name="ampersand" unicode="&#x26;" horiz-adv-x="1284" 
d="M711 1167q-21 42 -66 76.5t-104 34.5q-67 0 -116.5 -41.5t-49.5 -118.5q0 -82 51.5 -127t130.5 -45h170v-239h-166q-106 0 -173.5 -80t-67.5 -199q0 -100 65 -170t166 -70q111 0 166 49.5t55 120.5h-174v217h586v-215h-158q0 -51 -17 -105.5t-54.5 -110t-91.5 -99
t-135 -71t-177 -27.5q-131 0 -243.5 56.5t-180.5 159t-68 228.5q0 329 239 437q-29 12 -59.5 34.5t-61.5 57.5t-51 87t-20 111q0 180 126 291t311 111q139 0 235.5 -68t143.5 -178z" />
    <glyph glyph-name="quotesingle" unicode="'" horiz-adv-x="464" 
d="M150 1092l-21 374q0 34 39.5 55t73.5 21h4q31 0 69 -15t43 -41q2 -6 2 -20l-20 -374q-1 -21 -36 -34.5t-60 -13.5q-24 0 -57 10.5t-36 28.5q-1 3 -1 9z" />
    <glyph glyph-name="parenleft" unicode="(" horiz-adv-x="653" 
d="M289 -84q-145 183 -201.5 383t-56.5 440q0 492 258 824h264q-133 -195 -198.5 -410t-65.5 -424q0 -200 68 -413t196 -400h-264z" />
    <glyph glyph-name="parenright" unicode=")" horiz-adv-x="643" 
d="M340 -96h-260q127 185 195.5 403.5t68.5 419.5q0 192 -69 414t-195 408h261q261 -336 261 -822q0 -234 -59 -438.5t-203 -384.5z" />
    <glyph glyph-name="asterisk" unicode="*" horiz-adv-x="1172" 
d="M763 821l244 14q34 0 55 -39.5t21 -73.5v-4q0 -31 -15 -69t-41 -43q-6 -2 -20 -2l-246 13l134 -205q6 -12 6 -25q0 -27 -22 -56t-44 -41q-1 0 -1 -1l-2 -1q-40 -22 -83 -22q-29 0 -42 14q-7 5 -12 16l-112 220l-110 -219q-16 -27 -61 -27q-43 0 -75 18q-1 0 -3 2
q-23 13 -47 41t-24 52q0 8 2 11q1 9 8 19l133 205l-243 -14q-34 0 -55 39.5t-21 73.5v4q0 31 15 69t41 43q6 2 20 2l248 -13l-136 206q-6 12 -6 25q0 27 22 56t44 42l4 2q37 22 82 22q29 0 43 -15q6 -6 11 -16l112 -219l110 218q16 28 62 28q42 0 74 -18l4 -2
q23 -14 46.5 -41.5t23.5 -51.5q0 -8 -1 -12q-3 -9 -9 -18z" />
    <glyph glyph-name="plus" unicode="+" horiz-adv-x="972" 
d="M68 760h266v302h240v-302h287v-240h-288v-287h-239v287h-266v240z" />
    <glyph glyph-name="comma" unicode="," horiz-adv-x="444" 
d="M382 137q0 -57 -21 -116t-52 -104t-58 -75t-48 -47l-74 43q11 18 28 59t17 63q0 5 -2 11q-47 11 -81.5 53.5t-34.5 112.5q0 60 48 110.5t111 50.5q79 0 123 -50.5t44 -110.5z" />
    <glyph glyph-name="hyphen" unicode="-" horiz-adv-x="960" 
d="M98 754h772v-240h-772v240z" />
    <glyph glyph-name="period" unicode="." horiz-adv-x="451" 
d="M64 131q0 68 48 116t116 48t116 -48t48 -116t-48 -116t-116 -48t-116 48.5t-48 115.5z" />
    <glyph glyph-name="slash" unicode="/" horiz-adv-x="847" 
d="M245 0h-287l655 1544h268z" />
    <glyph glyph-name="zero" unicode="0" horiz-adv-x="1177" 
d="M80 756q0 345 135 539.5t375 194.5q239 0 369 -193.5t130 -540.5q0 -230 -58.5 -406.5t-173.5 -277t-272 -100.5h-1q-157 0 -272 100.5t-173.5 276.5t-58.5 407zM348 756q0 -110 6.5 -191.5t22 -150t42 -111t68 -66t97.5 -23.5q70 0 117 34.5t73 106.5t36.5 167.5
t10.5 233.5q0 274 -46.5 383t-184.5 109q-139 0 -190.5 -111t-51.5 -381z" />
    <glyph glyph-name="one" unicode="1" horiz-adv-x="1177" 
d="M502 1184v22h-273l32 30l244 220h265v-1456h-268v1184z" />
    <glyph glyph-name="two" unicode="2" horiz-adv-x="1177" 
d="M358 1076l-238 71q29 145 162 245t285 100q64 0 124 -12.5t121.5 -44.5t106.5 -81.5t73.5 -130t28.5 -182.5q0 -121 -35.5 -204t-127.5 -174q-46 -46 -125 -107t-140 -106t-116.5 -102.5t-74.5 -107.5h659v-240h-969q0 172 41.5 291t164.5 243q41 41 98.5 86.5t105 78
t97 73.5t83.5 78.5t55.5 86.5t21.5 104q0 102 -53 156.5t-139 54.5q-82 0 -132.5 -43t-76.5 -133z" />
    <glyph glyph-name="three" unicode="3" horiz-adv-x="1177" 
d="M93 323l258 70q37 -93 105 -136t142 -43q102 0 167.5 61.5t65.5 153.5q0 91 -70.5 156.5t-162.5 65.5h-165v213h142q75 0 130 59.5t55 130.5q0 96 -54.5 147.5t-136.5 51.5q-59 0 -103.5 -33t-63.5 -78l-250 66q108 282 416 282q89 0 166 -22.5t140.5 -67.5t100.5 -123
t37 -181q0 -172 -145 -276q49 -33 84 -64t72 -78.5t57 -110.5t20 -138q0 -91 -38 -174.5t-103.5 -146t-160 -99.5t-200.5 -37q-113 0 -207.5 34.5t-174 115t-123.5 201.5z" />
    <glyph glyph-name="four" unicode="4" horiz-adv-x="1177" 
d="M944 585h138v-237h-138v-348h-269v348h-585v204l565 904h289v-871zM683 1105l-335 -517h335v517z" />
    <glyph glyph-name="five" unicode="5" horiz-adv-x="1177" 
d="M598 719q-110 0 -167 -59l-257 90l118 706h683v-239h-469l-55 -291q38 22 147 22q143 0 258 -59.5t182.5 -171.5t67.5 -256t-67.5 -256t-182.5 -171.5t-258 -59.5q-90 0 -169.5 26.5t-135 68t-98.5 95t-67 104t-34 98.5l265 46q4 -19 14.5 -43.5t31.5 -51.5t47 -49.5
t64.5 -37t81.5 -14.5q110 0 177 70t67 175q0 107 -67.5 182.5t-176.5 75.5z" />
    <glyph glyph-name="six" unicode="6" horiz-adv-x="1177" 
d="M798 429q0 96 -60 163.5t-154 67.5q-92 0 -149.5 -68.5t-57.5 -158.5q0 -97 61 -161t148 -64q94 0 153 67.5t59 153.5zM536 897q5 5 54 5q212 0 344.5 -133t132.5 -340q0 -84 -35.5 -166t-97.5 -146.5t-154 -104.5t-196 -40q-135 0 -245.5 65.5t-170 170.5t-59.5 223
q0 81 20.5 163.5t41 128t58.5 116.5t45 85l273 532h287z" />
    <glyph glyph-name="seven" unicode="7" horiz-adv-x="1177" 
d="M1158 1456l-736 -1456h-324l605 1202h-603v254h1058z" />
    <glyph glyph-name="eight" unicode="8" horiz-adv-x="1177" 
d="M590 193q113 0 183.5 67t70.5 173q0 104 -76.5 173.5t-177.5 69.5q-120 0 -187 -67.5t-67 -175.5q0 -106 70 -173t184 -67zM393 1095q0 -87 52 -129.5t145 -42.5q89 0 142.5 42.5t53.5 129.5q0 78 -50.5 126.5t-147.5 48.5t-146 -49t-49 -126zM588 1489q206 0 336.5 -111
t130.5 -283q0 -36 -8.5 -70t-17.5 -57.5t-31 -50.5t-32 -38.5t-38 -33t-31.5 -24t-29.5 -19.5q87 -23 166 -130.5t79 -238.5q0 -111 -41 -200t-113 -145.5t-167 -86t-205 -29.5q-239 0 -378.5 127t-139.5 334q0 127 81 238t164 131q-29 17 -55.5 38t-59.5 57t-53 87.5
t-20 110.5q0 178 126.5 286t336.5 108z" />
    <glyph glyph-name="nine" unicode="9" horiz-adv-x="1177" 
d="M376 1027q0 -96 60 -163.5t154 -67.5q92 0 149.5 68.5t57.5 158.5q0 97 -61 161t-148 64q-94 0 -153 -67.5t-59 -153.5zM638 559q-5 -5 -54 -5q-212 0 -344.5 133t-132.5 340q0 84 35.5 166t97.5 146.5t154 104.5t196 40q135 0 245.5 -65.5t170 -170.5t59.5 -223
q0 -81 -20.5 -163.5t-41 -128t-58.5 -116.5t-45 -85l-273 -532h-287z" />
    <glyph glyph-name="colon" unicode=":" horiz-adv-x="440" 
d="M64 859q0 68 48 116t116 48t116 -48t48 -116t-48 -116t-116 -48t-116 48.5t-48 115.5zM64 131q0 68 48 116t116 48t116 -48t48 -116t-48 -116t-116 -48t-116 48.5t-48 115.5z" />
    <glyph glyph-name="semicolon" unicode=";" horiz-adv-x="440" 
d="M392 137q0 -57 -21 -116t-52 -104t-58 -75t-48 -47l-74 43q11 18 28 59t17 63q0 5 -2 11q-47 11 -81.5 53.5t-34.5 112.5q0 60 48 110.5t111 50.5q79 0 123 -50.5t44 -110.5zM64 860q0 68 48 116t116 48t116 -48t48 -116t-48 -116t-116 -48t-116 48t-48 116z" />
    <glyph glyph-name="less" unicode="&#x3c;" horiz-adv-x="864" 
d="M463 24l-418 612l418 601h332l-419 -604l417 -609h-330z" />
    <glyph glyph-name="equal" unicode="=" horiz-adv-x="907" 
d="M55 549h801v-240h-801v240zM55 915h801v-239h-801v239z" />
    <glyph glyph-name="greater" unicode="&#x3e;" horiz-adv-x="864" 
d="M393 20h-338l422 612l-422 603h339l413 -599z" />
    <glyph glyph-name="question" unicode="?" horiz-adv-x="1034" 
d="M343 131q0 68 48 116t116 48t116 -48t48 -116t-48 -116t-116 -48q-67 0 -115.5 48.5t-48.5 115.5zM639 530v-131h-268v195q0 49 18.5 91t47.5 73t64 59.5t70.5 57t64.5 59t47.5 71.5t18.5 89q0 56 -31 93t-73.5 51.5t-93.5 14.5q-79 0 -130.5 -52.5t-58.5 -131.5l-268 41
q19 169 140.5 278t312.5 109q74 0 144 -16t131.5 -49t108 -79.5t73 -112t26.5 -142.5q0 -75 -19 -138t-49.5 -105t-67 -77t-73 -63t-67 -55t-49.5 -59.5t-19 -70.5z" />
    <glyph glyph-name="at" unicode="@" horiz-adv-x="1737" 
d="M1224 260l112 -147q-104 -74 -211 -110t-250 -36q-163 0 -310.5 59.5t-254 160.5t-169 243t-62.5 301q0 158 62.5 300t169 243.5t254 161t310.5 59.5q162 0 307.5 -57t250.5 -155t166 -234t61 -289q0 -160 -93.5 -273.5t-211.5 -113.5q-56 0 -111 32t-91 95
q-85 -154 -278 -154q-166 0 -284.5 113t-118.5 272q0 149 118.5 256t284.5 107q163 0 273 -104t110 -244q0 -56 28 -105t65 -49q41 0 71.5 49t30.5 119q0 152 -76 281.5t-209 205.5t-293 76q-120 0 -230.5 -47t-190.5 -127t-127.5 -190t-47.5 -230q0 -121 47.5 -231.5
t127.5 -190.5t190.5 -127t230.5 -47q98 0 194.5 38t154.5 89zM691 731q0 -78 54 -130t130 -52q77 0 123.5 57t46.5 139q0 69 -51 114.5t-119 45.5q-75 0 -129.5 -47.5t-54.5 -126.5z" />
    <glyph glyph-name="A" unicode="A" horiz-adv-x="1421" 
d="M700 1124l-174 -503h347zM854 1456l523 -1456h-311l-136 382h-463l-136 -382h-311l523 1456h311z" />
    <glyph glyph-name="B" unicode="B" horiz-adv-x="1222" 
d="M383 638v-398h227q281 0 281 199t-281 199h-227zM383 1216v-338h168q138 0 197 48.5t59 118.5q0 71 -59.5 121t-196.5 50h-168zM115 1456h436q93 0 170 -14t130 -36.5t94 -55t65 -66t39 -73t20.5 -73t5.5 -68.5q0 -109 -57.5 -176.5t-151.5 -96.5q96 -23 165.5 -89
t98.5 -136t29 -133q0 -53 -10.5 -105.5t-44.5 -115t-88 -109t-151.5 -78t-224.5 -31.5h-525v1456z" />
    <glyph glyph-name="C" unicode="C" horiz-adv-x="1409" 
d="M1002 969q-14 67 -50 127.5t-99 104.5t-138 44q-74 0 -132 -30.5t-95 -80.5t-61 -119t-34 -140t-10 -149q0 -77 10 -147.5t34 -138.5t61 -118t95.5 -80.5t131.5 -30.5q110 0 187 83t100 189h294q-9 -71 -38 -142.5t-79.5 -138t-117 -118t-156.5 -82.5t-190 -31
q-130 0 -236 46.5t-175 122t-116 175.5t-67.5 203t-20.5 208q0 107 20.5 210.5t67.5 204t116 176t175 122t236 46.5q101 0 191 -31.5t156 -83.5t117 -119.5t80 -139t38 -142.5h-295z" />
    <glyph glyph-name="D" unicode="D" horiz-adv-x="1273" 
d="M913 752q0 204 -107 334.5t-284 130.5h-139v-977h139q179 0 285 139.5t106 372.5zM1196 752q0 -213 -77 -384.5t-217.5 -269.5t-319.5 -98h-467v1456h467q181 0 322 -95t216.5 -255t75.5 -354z" />
    <glyph glyph-name="E" unicode="E" horiz-adv-x="1211" 
d="M115 1456h982v-240h-714v-350h651v-240h-651v-386h714v-240h-982v1456z" />
    <glyph glyph-name="F" unicode="F" horiz-adv-x="1191" 
d="M115 1456h982v-239h-714v-351h651v-239h-651v-627h-268v1456z" />
    <glyph glyph-name="G" unicode="G" horiz-adv-x="1421" 
d="M713 -27q-132 0 -239 47.5t-177 125t-118 181.5t-68.5 212.5t-20.5 222.5q0 106 20.5 207t68.5 197.5t118 169t178 117t240 44.5q154 0 281 -79.5t188 -217.5l-258 -86q-15 52 -88.5 97.5t-122.5 45.5q-84 0 -152 -45t-108 -118t-61 -158.5t-21 -173.5q0 -99 21 -194
t61 -176t107 -131t151 -50q71 0 125.5 24t86 60.5t51.5 86.5t27 94.5t7 90.5h-303v240h581v-146q0 -101 -17.5 -195t-60.5 -185t-107 -158.5t-164.5 -108.5t-225.5 -41z" />
    <glyph glyph-name="H" unicode="H" horiz-adv-x="1253" 
d="M115 1456h268v-592h485v592h270v-1456h-270v624h-485v-624h-268v1456z" />
    <glyph glyph-name="I" unicode="I" horiz-adv-x="555" 
d="M143 0v1456h268v-1456h-268z" />
    <glyph glyph-name="J" unicode="J" horiz-adv-x="1243" 
d="M102 586h268q0 -381 246 -381q69 0 119 33t76 90t37.5 120.5t11.5 137.5v870h268v-870q0 -185 -56 -323t-173 -218t-283 -80q-105 0 -190.5 31t-145 86.5t-100 133.5t-59.5 170.5t-19 199.5z" />
    <glyph glyph-name="K" unicode="K" horiz-adv-x="1333" 
d="M115 1456h268v-623l543 623h335l-556 -648l585 -808h-336l-454 628l-117 -132v-496h-268v1456z" />
    <glyph glyph-name="L" unicode="L" horiz-adv-x="1170" 
d="M115 1456h268v-1216h716v-240h-984v1456z" />
    <glyph glyph-name="M" unicode="M" horiz-adv-x="1655" 
d="M115 0v1456h360l350 -1032l356 1032h359v-1456h-268v962l-312 -962h-270l-307 962v-962h-268z" />
    <glyph glyph-name="N" unicode="N" horiz-adv-x="1331" 
d="M115 0v1456h260l573 -940v940h268v-1456h-264l-569 973v-973h-268z" />
    <glyph glyph-name="O" unicode="O" horiz-adv-x="1409" 
d="M1047 726q0 99 -16.5 186.5t-53 164.5t-104 122.5t-158.5 45.5q-74 0 -132 -30.5t-95 -80.5t-61 -119t-34 -140t-10 -149q0 -77 10 -147.5t34 -138.5t61 -118t95.5 -80.5t131.5 -30.5q74 0 132.5 30.5t95 80.5t60.5 118t34 138.5t10 147.5zM100 726q0 107 20.5 210.5
t67.5 204t116 176t175 122t236 46.5t236 -46.5t175 -122t116 -176t67 -204t20 -210.5q0 -106 -20 -208.5t-67 -202.5t-116 -175.5t-175 -122t-236 -46.5t-236 46.5t-175 122t-116 175.5t-67.5 203t-20.5 208z" />
    <glyph glyph-name="P" unicode="P" horiz-adv-x="1194" 
d="M383 824h71q79 0 131.5 3.5t102.5 15t78.5 33t45.5 57t17 87.5t-17 87.5t-45.5 57t-78.5 33t-102.5 15t-131.5 3.5h-71v-392zM115 1456h268q80 0 130 -1.5t134 -10t138.5 -24.5t120.5 -48t105 -77t65.5 -115.5t26.5 -159.5t-26.5 -159t-65.5 -115t-104.5 -77.5
t-121 -48.5t-139 -24.5t-134 -10t-129.5 -1.5v-584h-268v1456z" />
    <glyph glyph-name="Q" unicode="Q" horiz-adv-x="1437" 
d="M1047 754q0 138 -33.5 248.5t-109.5 181.5t-185 71q-91 0 -158 -43t-104 -116.5t-54.5 -159t-17.5 -182.5q0 -60 6.5 -119.5t21 -122.5t40 -116.5t60.5 -96.5t86.5 -67.5t113.5 -24.5q94 0 133 37l-160 118l147 197l158 -131q23 43 39.5 145t16.5 181zM98 754
q0 95 19.5 192t66 197t115.5 177t177.5 126t242.5 49q125 0 228.5 -43.5t172 -116t116 -169t68.5 -200t21 -212.5q0 -162 -36 -289.5t-89 -204.5l136 -99l-150 -190l-133 109q-58 -52 -148 -83.5t-196 -31.5q-121 0 -223.5 46.5t-172.5 124.5t-119.5 181t-72.5 213.5
t-23 223.5z" />
    <glyph glyph-name="R" unicode="R" horiz-adv-x="1224" 
d="M383 824h71q79 0 131.5 3.5t102.5 15t78.5 32.5t45.5 57t17 87t-17 87t-45.5 57.5t-78.5 33.5t-102.5 15.5t-131.5 3.5h-71v-392zM852 -1l-319 583q-26 -2 -59 -2q-17 0 -49 0.5t-42 0.5v-582h-268v1456h268q79 0 129.5 -1.5t134 -10t139 -24.5t121 -48.5t104.5 -77.5
t65.5 -115t26.5 -159q0 -152 -76.5 -252.5t-228.5 -140.5l360 -627h-306z" />
    <glyph glyph-name="S" unicode="S" horiz-adv-x="1202" 
d="M83 404l268 43q25 -101 92 -167.5t177 -66.5q111 0 171.5 53t60.5 138q0 46 -19 83.5t-47.5 62t-76 49t-90 40.5t-105.5 41t-108 46q-60 29 -101 55.5t-83.5 69t-64.5 102.5t-22 137q0 98 40.5 176.5t109.5 127t154.5 73.5t180.5 25q168 0 296.5 -87t172.5 -219l-273 -51
q-49 116 -196 116q-93 0 -152 -37.5t-59 -123.5q0 -40 27 -74t76.5 -60.5t97 -46t110 -43t94.5 -38.5q57 -27 100 -53t85 -63.5t68.5 -80t42.5 -100.5t16 -127q0 -197 -145 -315t-361 -118q-209 0 -358.5 119.5t-178.5 313.5z" />
    <glyph glyph-name="T" unicode="T" horiz-adv-x="1353" 
d="M78 1456h1202v-240h-457v-1216h-268v1216h-477v240z" />
    <glyph glyph-name="U" unicode="U" horiz-adv-x="1275" 
d="M637 -35q-166 0 -285.5 80t-178 218.5t-58.5 322.5v870h268v-870q0 -73 13 -137t41 -121t79.5 -90t120.5 -33q56 0 100.5 22.5t73 59t47.5 87t26.5 103t7.5 109.5v870h268v-870q0 -184 -59 -322.5t-178 -218.5t-286 -80z" />
    <glyph glyph-name="V" unicode="V" horiz-adv-x="1302" 
d="M953 1456h278l-417 -1456h-317l-427 1456h289l295 -1045z" />
    <glyph glyph-name="W" unicode="W" horiz-adv-x="1708" 
d="M74 1456h271l127 -958l181 931h314l181 -937l127 964h271l-238 -1456h-320l-178 975l-178 -975h-320z" />
    <glyph glyph-name="X" unicode="X" horiz-adv-x="1326" 
d="M67 1455h340l256 -475l256 475h340l-436 -725l439 -730h-340l-259 480l-259 -480h-340l439 730z" />
    <glyph glyph-name="Y" unicode="Y" horiz-adv-x="1326" 
d="M67 1455h340l256 -475l256 475h340l-461 -765v-690h-268v690z" />
    <glyph glyph-name="Z" unicode="Z" horiz-adv-x="1378" 
d="M139 1456h1167l-778 -1216h772v-240h-1228l780 1216h-713v240z" />
    <glyph glyph-name="bracketleft" unicode="[" horiz-adv-x="743" 
d="M623 -98h-502v1630h502v-240h-248v-1153h248v-237z" />
    <glyph glyph-name="backslash" unicode="\" horiz-adv-x="856" 
d="M585 0l-624 1543h292l642 -1543h-310z" />
    <glyph glyph-name="bracketright" unicode="]" horiz-adv-x="743" 
d="M119 -98v239h246v1151h-246v240h500v-1630h-500z" />
    <glyph glyph-name="asciicircum" unicode="^" horiz-adv-x="1081" 
d="M926 1148h-271l-132 161l-124 -158h-277l284 341h236z" />
    <glyph glyph-name="underscore" unicode="_" horiz-adv-x="1241" 
d="M78 -281v240h1089v-240h-1089z" />
    <glyph glyph-name="grave" unicode="`" horiz-adv-x="536" 
d="M406 1533l-307 213q-15 11 -19 30q-3 12 -3 26q0 18 4 34q7 31 25 52q16 19 35 33q20 15 43 21q11 3 19 3q17 0 28 -10l283 -247q5 -4 7 -13q2 -10 2 -18q0 -16 -5 -31q-9 -30 -21 -45t-31 -31q-18 -15 -36 -20q-8 -2 -10 -2q-7 0 -14 5z" />
    <glyph glyph-name="a" unicode="a" horiz-adv-x="1080" 
d="M535 524q-88 0 -145.5 -50.5t-57.5 -117.5t57 -116t146 -49q88 0 140 48.5t52 116.5t-52 118t-140 50zM450 741q99 0 174 -50.5t95 -114.5v82q0 59 -16.5 103t-41.5 69.5t-59.5 41t-65 20.5t-64.5 5q-46 0 -90.5 -9.5t-65.5 -18t-60 -25.5l-103 164q45 36 142 65t177 29
q82 0 153.5 -15.5t137.5 -52.5t113 -92.5t74.5 -140.5t27.5 -192v-304v-305h-257v136q-21 -64 -94.5 -114.5t-172.5 -50.5q-153 0 -258.5 111t-105.5 276t105 274t255 109z" />
    <glyph glyph-name="b" unicode="b" horiz-adv-x="1122" 
d="M377 0h-258v1454h258v-537q52 82 136 132.5t171 50.5q96 0 170 -45.5t119 -125t67.5 -180t22.5 -217.5t-23 -216.5t-68 -177t-119 -122t-169 -44.5q-86 0 -170.5 51.5t-136.5 133.5v-157zM803 537q0 88 -19 154t-51 103t-67.5 54.5t-74.5 17.5t-76 -16.5t-71 -52
t-54.5 -103t-20.5 -157.5q0 -91 20.5 -158.5t54.5 -103.5t71 -52.5t76 -16.5q36 0 72.5 21t68.5 60t51.5 104.5t19.5 145.5z" />
    <glyph glyph-name="c" unicode="c" horiz-adv-x="1047" 
d="M766 756q-65 114 -180 114q-99 0 -168.5 -95.5t-69.5 -242.5q0 -146 74.5 -237.5t183.5 -91.5q20 0 36.5 3t28.5 6.5t24 12.5l18 13.5t15 18l12 18t11.5 21t10.5 19.5l214 -111q-59 -98 -155 -165.5t-215 -67.5q-239 0 -379.5 153t-140.5 408q0 252 141 410t359 158
q116 0 225.5 -63.5t167.5 -168.5z" />
    <glyph glyph-name="d" unicode="d" horiz-adv-x="1122" 
d="M760 0v157q-52 -82 -136.5 -133.5t-170.5 -51.5q-95 0 -169 44.5t-119 122t-68 177t-23 216.5t22.5 217.5t67.5 180t119 125t170 45.5q87 0 171 -50.5t136 -132.5v537h258v-1454h-258zM334 537q0 -80 19.5 -145.5t51.5 -104.5t68.5 -60t72.5 -21q39 0 76 16.5t71 52.5
t54.5 103.5t20.5 158.5q0 90 -20.5 157.5t-54.5 103t-71 52t-76 16.5t-74.5 -17.5t-67.5 -54.5t-51 -103t-19 -154z" />
    <glyph glyph-name="e" unicode="e" horiz-adv-x="1093" 
d="M363 651h413q-7 90 -62 153.5t-145 63.5q-89 0 -144.5 -64.5t-61.5 -152.5zM578 201q99 0 154 66l228 -98q-62 -94 -169 -146t-213 -52q-99 0 -189 43t-156.5 117t-105.5 180t-39 226q0 240 140 400.5t341 160.5q132 0 236.5 -72.5t162.5 -200.5t58 -288v-68h-664
q1 -65 17 -115.5t39 -78.5t53 -45.5t55.5 -23t51.5 -5.5z" />
    <glyph glyph-name="f" unicode="f" horiz-adv-x="782" 
d="M471 844v-844h-258v844h-139v229h139v80q0 50 27.5 108.5t73 109.5t112 84.5t137.5 33.5q136 0 227 -89l-149 -179q-16 19 -42.5 29t-45.5 10q-43 0 -62.5 -21t-19.5 -66v-100h165v-229h-165z" />
    <glyph glyph-name="g" unicode="g" horiz-adv-x="1137" 
d="M760 -70v227q-52 -82 -136.5 -133.5t-170.5 -51.5q-95 0 -169 44.5t-119 122t-68 177t-23 216.5t22.5 217.5t67.5 180t119 125t170 45.5q87 0 171 -50.5t136 -132.5v156h258v-1123q0 -81 -30 -154t-86.5 -131t-147 -92t-202.5 -34q-89 0 -163.5 24t-124 61.5t-85 86.5
t-53 96t-22.5 94q148 7 243 11q9 -67 59.5 -108t144.5 -41t151.5 44.5t57.5 122.5zM334 537q0 -80 19.5 -145.5t51.5 -104.5t68.5 -60t72.5 -21q39 0 76 16.5t71 52.5t54.5 103.5t20.5 158.5q0 90 -20.5 157.5t-54.5 103t-71 52t-76 16.5t-74.5 -17.5t-67.5 -54.5t-51 -103
t-19 -154z" />
    <glyph glyph-name="h" unicode="h" horiz-adv-x="1121" 
d="M377 0h-258v1454h258v-542q45 82 132.5 136t190.5 54q55 0 109.5 -28.5t101 -81t75 -137.5t28.5 -187v-668h-258v537q0 100 -12.5 167t-37.5 101.5t-55.5 48t-74.5 13.5q-35 0 -62.5 -8t-54 -30t-44 -58t-28 -95.5t-10.5 -139.5v-536z" />
    <glyph glyph-name="i" unicode="i" horiz-adv-x="534" 
d="M121 1334q0 65 43.5 112.5t103.5 47.5t103.5 -47.5t43.5 -112.5t-43.5 -112.5t-103.5 -47.5t-103.5 47.5t-43.5 112.5zM139 1073h258v-1073h-258v1073z" />
    <glyph glyph-name="j" unicode="j" horiz-adv-x="534" 
d="M121 1334q0 65 43.5 112.5t103.5 47.5t103.5 -47.5t43.5 -112.5t-43.5 -112.5t-103.5 -47.5t-103.5 47.5t-43.5 112.5zM-236 -333l169 172q12 -17 38 -29.5t52 -12.5q50 0 83 31.5t33 79.5v1165h258v-1108q0 -100 -55.5 -192.5t-145 -148.5t-184.5 -56q-83 0 -139.5 20
t-108.5 79z" />
    <glyph glyph-name="k" unicode="k" horiz-adv-x="999" 
d="M578 597l418 -597h-294l-311 467l-14 -23v-444h-258v1454h258v-738l281 357h315z" />
    <glyph glyph-name="l" unicode="l" horiz-adv-x="561" 
d="M397 281q0 -87 93 -87v-223q-185 0 -268 67t-83 238v1178h258v-1173z" />
    <glyph glyph-name="m" unicode="m" horiz-adv-x="1575" 
d="M924 0h-258v539q0 163 -32 246t-113 83q-82 0 -113 -82.5t-31 -246.5v-539h-258v1073h258v-158q17 30 41.5 59.5t58.5 60t78.5 49t90.5 18.5q48 0 88 -17t64.5 -40.5t44 -55.5t27.5 -56t15 -47l7 -24q26 52 66 103.5t102 94t122 42.5q132 0 210 -112.5t78 -321.5v-668
h-258v539q0 163 -31.5 246t-112.5 83t-112.5 -83t-31.5 -246v-539z" />
    <glyph glyph-name="n" unicode="n" horiz-adv-x="1121" 
d="M377 0h-258v1074h258v-162q45 82 132.5 136t190.5 54q55 0 109.5 -28.5t101 -81t75 -137.5t28.5 -187v-668h-258v537q0 100 -12.5 167t-37.5 101.5t-55.5 48t-74.5 13.5q-35 0 -62.5 -8t-54 -30t-44 -58t-28 -95.5t-10.5 -139.5v-536z" />
    <glyph glyph-name="o" unicode="o" horiz-adv-x="1105" 
d="M344 537q0 -331 222 -331t222 331q0 329 -222 329t-222 -329zM92 537q0 260 124 411.5t349 151.5t348 -151t123 -412t-123 -413.5t-348 -152.5q-226 0 -349.5 151t-123.5 415z" />
    <glyph glyph-name="p" unicode="p" horiz-adv-x="1132" 
d="M377 -426h-258v1499h258v-156q52 82 136 132.5t171 50.5q96 0 170 -45.5t119 -125t67.5 -180t22.5 -217.5t-23 -216.5t-68 -177t-119 -122t-169 -44.5q-86 0 -170.5 51.5t-136.5 133.5v-583zM803 537q0 88 -19 154t-51 103t-67.5 54.5t-74.5 17.5t-76 -16.5t-71 -52
t-54.5 -103t-20.5 -157.5q0 -91 20.5 -158.5t54.5 -103.5t71 -52.5t76 -16.5q36 0 72.5 21t68.5 60t51.5 104.5t19.5 145.5z" />
    <glyph glyph-name="q" unicode="q" horiz-adv-x="1132" 
d="M760 -141v298q-52 -82 -136.5 -133.5t-170.5 -51.5q-95 0 -169 44.5t-119 122t-68 177t-23 216.5t22.5 217.5t67.5 180t119 125t170 45.5q87 0 171 -50.5t136 -132.5v156h258v-1210q0 -44 20.5 -59t86.5 -15v-238q-182 0 -273.5 74t-91.5 234zM334 537q0 -80 19.5 -145.5
t51.5 -104.5t68.5 -60t72.5 -21q39 0 76 16.5t71 52.5t54.5 103.5t20.5 158.5q0 90 -20.5 157.5t-54.5 103t-71 52t-76 16.5t-74.5 -17.5t-67.5 -54.5t-51 -103t-19 -154z" />
    <glyph glyph-name="r" unicode="r" horiz-adv-x="858" 
d="M736 807q-108 61 -156 61q-55 0 -96 -29t-62.5 -77.5t-31.5 -100.5t-10 -108v-553h-258v1073h258v-161q42 80 115 135t134 55q50 0 105.5 -26.5t98.5 -67.5z" />
    <glyph glyph-name="s" unicode="s" horiz-adv-x="958" 
d="M342 491q-61 32 -95.5 56t-65.5 60.5t-44 85t-13 117.5q0 133 100.5 211.5t269.5 78.5q157 0 259 -90t121 -209l-240 -43q-11 65 -45 88.5t-91 23.5q-60 0 -93 -18t-33 -69q0 -33 25 -57t57.5 -36.5l97.5 -37.5t113 -48q115 -56 167.5 -132t52.5 -202q0 -129 -117.5 -214
t-282.5 -85q-162 0 -268.5 86t-138.5 233l232 39q11 -60 60 -94t113 -34q35 0 59 3t47.5 12t35.5 29t12 50q0 27 -16.5 49.5t-49 40.5t-66 32.5t-82 35t-81.5 38.5z" />
    <glyph glyph-name="t" unicode="t" horiz-adv-x="706" 
d="M213 844h-141v229h141v250h258v-250h154v-229h-154v-547q0 -95 111 -95h39v-217h-39q-107 0 -178.5 18.5t-113.5 58t-59.5 95t-17.5 136.5v551z" />
    <glyph glyph-name="u" unicode="u" horiz-adv-x="1112" 
d="M1003 0h-258v161q-45 -81 -131.5 -135.5t-185.5 -54.5q-148 0 -234 143.5t-86 420.5v538h258v-537q0 -79 11.5 -139.5t29 -96t42 -57.5t48 -29.5t49.5 -7.5q27 0 52 8t52 30t47.5 57.5t33.5 96t13 139.5v536h259v-1073z" />
    <glyph glyph-name="v" unicode="v" horiz-adv-x="1060" 
d="M411 0l-339 1073h271l180 -686l193 686h247l-339 -1073h-213z" />
    <glyph glyph-name="w" unicode="w" horiz-adv-x="1449" 
d="M715 664l-142 -664h-201l-315 1073h255l168 -669l130 673h232l130 -670l170 666h243l-315 -1073h-219z" />
    <glyph glyph-name="x" unicode="x" horiz-adv-x="1054" 
d="M1021 0h-307l-190 335l-190 -335h-307l341 536l-323 537h290l190 -330l187 330h314l-346 -528z" />
    <glyph glyph-name="y" unicode="y" horiz-adv-x="1106" 
d="M1003 -29q0 -79 -40 -159t-103 -140.5t-144.5 -98.5t-160.5 -38q-149 0 -258.5 70t-156.5 171l204 112q19 -54 72.5 -87.5t132.5 -33.5q84 0 140 47t56 127v220q-45 -81 -131.5 -135.5t-185.5 -54.5q-148 0 -234 143.5t-86 420.5v538h258v-537q0 -79 11.5 -139.5t29 -96
t42 -57.5t48 -29.5t49.5 -7.5q27 0 52 8t52 30t47.5 57.5t33.5 96t13 139.5v536h259v-1044v-58z" />
    <glyph glyph-name="z" unicode="z" horiz-adv-x="1005" 
d="M483 240h406v-240h-823l436 834h-387v239h806z" />
    <glyph glyph-name="braceleft" unicode="{" horiz-adv-x="747" 
d="M80 729q69 23 111 93.5t56 161.5t19 180.5t11 169.5t22 110q45 84 160 105q48 8 186 12v-213q-86 0 -122 -32t-36 -120q0 -409 -133 -467q133 -56 133 -467q0 -88 36 -119.5t122 -31.5v-213q-152 3 -205 15q-99 23 -141 101q-16 30 -22 110.5t-11 170t-19 180.5
t-56 161.5t-111 92.5z" />
    <glyph glyph-name="bar" unicode="|" horiz-adv-x="468" 
d="M115 0v1454h243v-1454h-243z" />
    <glyph glyph-name="braceright" unicode="}" horiz-adv-x="747" 
d="M686 729q-69 -22 -111 -92.5t-56 -161.5t-19 -180.5t-11 -170t-22 -110.5q-17 -32 -43 -54t-55 -34t-68 -18t-76.5 -7.5t-86.5 -2.5h-17v213q86 0 122 31.5t36 119.5q0 411 133 467q-133 58 -133 467q0 88 -36 120t-122 32v213q151 -4 203 -15q101 -23 143 -102
q16 -30 22 -110t11 -169.5t19 -180.5t56 -161.5t111 -93.5z" />
    <glyph glyph-name="asciitilde" unicode="~" horiz-adv-x="759" 
d="M53 808q6 5 27.5 24t35 29t34.5 23.5t42.5 20t43.5 6.5q27 0 56 -15.5t54.5 -38l51 -45t55.5 -38t59 -15.5q32 0 70.5 21.5t55 36.5t52.5 49v-260q-5 -4 -30.5 -25.5t-42 -33t-46.5 -23.5t-59 -12q-39 0 -80.5 24t-71.5 52t-65 52t-62 24t-53 -10t-41.5 -20.5
t-43.5 -33.5t-42 -33v241z" />
    <glyph glyph-name="exclamdown" unicode="&#xa1;" horiz-adv-x="309" 
d="M8 1014q0 23 36 41t63 18q29 0 64.5 -18t35.5 -41l41 -949q0 -37 -48 -65.5t-91 -28.5q-44 0 -92.5 28.5t-48.5 63.5zM271 1323q0 -68 -48 -116t-116 -48t-116 48t-48 116t48 116t116 48q67 0 115.5 -48.5t48.5 -115.5z" />
    <glyph glyph-name="cent" unicode="&#xa2;" horiz-adv-x="884" 
d="M313 293q-104 17 -173.5 108t-69.5 230q0 70 22.5 132t58.5 104t76.5 70t79.5 39v232h230v-231q42 -9 100 -49t95 -91l-159 -128h-1q-1 0 -15 12.5t-42.5 25.5t-66.5 13q-56 0 -95.5 -40t-39.5 -91q0 -61 36 -105.5t97 -44.5q30 0 53 7.5t30 11.5t25 24t20 22l161 -136
q-42 -52 -93 -85.5t-99 -37.5v-207h-230v215z" />
    <glyph glyph-name="sterling" unicode="&#xa3;" horiz-adv-x="1267" 
d="M294 549h-220v229h237q0 349 87 523t294 174q125 0 209.5 -81t139.5 -256l-230 -22q-14 61 -39.5 96t-79.5 35q-32 0 -56 -29t-37 -75t-19.5 -94.5t-6.5 -96.5v-106v-68h357v-229h-355q-2 -10 -12.5 -77t-16 -92.5t-18.5 -71t-30 -77.5h463q29 0 54.5 24.5t38.5 52.5
l146 -152q-70 -156 -242 -156h-823q10 38 50 142.5t71.5 211.5t37.5 195z" />
    <glyph glyph-name="currency" unicode="&#xa4;" horiz-adv-x="987" 
d="M393 752q0 -43 30.5 -70t70.5 -27q38 0 67 29.5t29 67.5q0 43 -29 71.5t-67 28.5q-42 0 -71.5 -28t-29.5 -72zM600 424q-40 -18 -106 -18q-68 0 -107 16v-117h-334v334h111q-21 51 -21 111q0 62 17 108h-107v334h334v-108q42 19 107 19q17 0 54 -5.5t52 -13.5v108h334
v-334h-111q17 -66 17 -108q0 -43 -21 -111h115v-334h-334v119z" />
    <glyph glyph-name="yen" unicode="&#xa5;" horiz-adv-x="1136" 
d="M420 635h-277v229h170l-268 533h283l231 -509l248 509h262l-286 -533h155v-229h-260v-121h260v-229h-260v-285h-258v285h-277v229h277v121z" />
    <glyph glyph-name="brokenbar" unicode="&#xa6;" horiz-adv-x="405" 
d="M324 666v-666h-244v666h244zM80 768v666h244v-666h-244z" />
    <glyph glyph-name="section" unicode="&#xa7;" horiz-adv-x="694" 
d="M279 1005q13 9 30 9q66 0 130.5 -35t114.5 -95t81 -147.5t31 -184.5q0 -128 -43 -242t-119 -183.5t-164 -69.5q-91 0 -163 60t-130 196l215 43q4 -30 29.5 -49.5t40.5 -19.5h4q32 0 54 32.5t29 84.5q-19 -19 -44 -19q-64 0 -124.5 30t-109.5 86t-78.5 148t-29.5 205
q0 126 38 237t110.5 180.5t162.5 69.5q95 0 153.5 -53.5t126.5 -188.5l-214 -50q-2 21 -17 36.5t-27.5 21t-17.5 5.5q-53 0 -69 -107zM413 592q0 85 -34.5 157t-83.5 72q-17 0 -26 -11q0 -83 38 -158t80 -75q1 0 3.5 -0.5t4.5 -0.5q18 0 18 16z" />
    <glyph glyph-name="dieresis" unicode="&#xa8;" horiz-adv-x="933" 
d="M67 1757q0 68 48 116t116 48t116 -48t48 -116t-48 -116t-116 -48q-67 0 -116 49q-48 48 -48 115zM538 1757q0 68 48 116t116 48t116 -48t48 -116t-48 -116t-116 -48q-67 0 -116 49q-48 48 -48 115z" />
    <glyph glyph-name="copyright" unicode="&#xa9;" horiz-adv-x="1089" 
d="M-78 745q0 151 72.5 278t197 201t271.5 74t271.5 -74t197 -201.5t72.5 -277.5t-72.5 -277t-197 -201t-271.5 -74t-271.5 74t-197 201t-72.5 277zM654 579q-83 -83 -184 -83q-106 0 -180 74.5t-74 180.5t74 180t180 74q111 0 184 -73l-113 -117q-34 29 -72 29t-66 -28
t-28 -66q0 -39 28 -67t66 -28q44 0 76 27zM100 750q0 -154 108 -263t261 -109q154 0 262 109t108 263t-108 263t-262 109q-153 0 -261 -109t-108 -263z" />
    <glyph glyph-name="ordfeminine" unicode="&#xaa;" horiz-adv-x="584" 
d="M277 1336q-34 0 -55 -18t-21 -41q0 -22 21 -40q20 -17 56 -17q33 0 52 17q18 17 18 40t-18 41t-53 18zM346 1095l-9 -6q-42 -29 -100 -29q-87 0 -147 63t-60 155q0 94 59 154q60 62 146 62q59 0 101 -29l5 -3l-3 9q-6 17 -15 26t-22 15q-17 7 -27 8q-18 2 -28 2
q-23 0 -40 -4q-23 -5 -28 -7l-50 -21l-75 119l18 14q24 19 79 36q52 15 96 15q52 0 82 -7q43 -10 76 -29q35 -20 63 -52q26 -31 42 -79q15 -47 15 -103v-330h-178v21z" />
    <glyph glyph-name="guillemotleft" unicode="&#xab;" horiz-adv-x="907" 
d="M592 1118h215l-192 -291l192 -291h-215l-193 291zM240 1118h219l-192 -291l188 -291h-215l-189 291z" />
    <glyph glyph-name="logicalnot" unicode="&#xac;" horiz-adv-x="1120" 
d="M1004 350h-230v348h-631v244h861v-592z" />
    <glyph glyph-name="softhyphen" unicode="&#xad;" horiz-adv-x="950" 
d="M88 926h772v-240h-772v240z" />
    <glyph glyph-name="registered" unicode="&#xae;" horiz-adv-x="1224" 
d="M283 963q0 -85 30.5 -153t79.5 -108.5t105.5 -61.5t113.5 -21t114 23.5t104.5 66t77.5 109t30 145.5q0 88 -32.5 159.5t-83 113.5t-105 64t-105.5 22q-58 0 -115 -22.5t-105.5 -65t-78.5 -113.5t-30 -158zM84 963q0 111 32.5 205t86.5 157.5t123 108.5t141.5 65.5
t144.5 20.5q106 0 202 -42t167.5 -115t113.5 -177.5t42 -222.5q0 -156 -76.5 -282t-196 -193t-252.5 -67q-75 0 -149 21.5t-142.5 66.5t-121 108t-84 152.5t-31.5 193.5zM562 982q6 0 19.5 -0.5t21.5 -0.5q48 0 61 9.5t13 48.5q0 38 -19.5 48t-73.5 10h-22v-115zM422 1230
h140q123 0 186.5 -44.5t63.5 -146.5q0 -17 -1.5 -31.5t-5.5 -26.5t-7 -20.5t-11 -17t-11 -13t-14 -11.5t-14 -9t-16.5 -9t-15.5 -8l95 -182h-151l-71 167l-27 5v-171h-140v518z" />
    <glyph glyph-name="macron" unicode="&#xaf;" horiz-adv-x="960" 
d="M98 1813h772v-127h-772v127z" />
    <glyph glyph-name="degree" unicode="&#xb0;" horiz-adv-x="763" 
d="M156 1178q0 -63 42 -106.5t103 -43.5t102.5 43.5t41.5 106.5q0 62 -41.5 106t-102.5 44t-103 -44t-42 -106zM-17 1178q0 130 93 221t225 91t224.5 -91t92.5 -221t-92.5 -221t-224.5 -91t-225 91t-93 221z" />
    <glyph glyph-name="plusminus" unicode="&#xb1;" horiz-adv-x="983" 
d="M129 1047h266v302h240v-302h287v-240h-288v-287h-239v287h-266v240zM131 432h772v-240h-772v240z" />
    <glyph glyph-name="twosuperior" unicode="&#xb2;" horiz-adv-x="728" 
d="M239 1418l-156 47l4 17q17 82 88 135q72 54 155 54q28 0 66 -7q33 -6 66 -24q34 -19 59 -45q26 -28 41 -71q15 -44 15 -98q0 -66 -19 -110q-20 -46 -68 -94q-24 -24 -45 -39l-70 -53q-51 -39 -67 -56q-19 -20 -26 -29h315v-160h-525v20q0 40 5 77q5 36 16 69q13 40 33 69
q24 35 55 66q16 16 51 44q32 25 53 40q24 16 48 36q21 17 39 37q16 18 25 38q9 21 9 45q0 43 -21 64t-55 21t-54 -17q-18 -15 -31 -57z" />
    <glyph glyph-name="threesuperior" unicode="&#xb3;" horiz-adv-x="667" 
d="M48 1094l167 45l7 -16q17 -41 45 -59q29 -18 60 -18q44 0 70 25q27 25 27 63q0 35 -30 63q-28 27 -67 27h-103v146h92q27 0 50 25q22 23 22 51q0 40 -21 59q-23 21 -55 21q-23 0 -40 -13q-18 -13 -25 -31l-6 -16l-164 43l8 21q58 154 227 154q47 0 89 -12t77 -37
q33 -23 55 -69q21 -44 21 -99q0 -84 -59 -137q9 -7 26 -22t35 -39q21 -28 31 -60q11 -36 11 -75q0 -51 -21 -96q-21 -46 -56 -79q-37 -35 -86 -54q-52 -20 -108 -20q-57 0 -111 19q-49 17 -94 62q-41 41 -66 108z" />
    <glyph glyph-name="acute" unicode="&#xb4;" horiz-adv-x="577" 
d="M195 1533q-7 -5 -13 -5q-2 0 -10 2q-18 5 -36 20q-19 16 -31 31t-21 45q-6 20 -6 34q0 5 2 15q2 8 8 13l282 247q11 10 29 10q9 0 19 -3q23 -6 43 -21q19 -14 35 -33q17 -20 24 -52q4 -16 4 -34q0 -14 -3 -26q-5 -20 -18 -30z" />
    <glyph glyph-name="microsign" unicode="&#xb5;" horiz-adv-x="1128" 
d="M387 78v-475h-244v1286h248v-422q0 -72 20 -126t51.5 -82t63 -41t60.5 -13q67 0 121.5 86.5t54.5 175.5v422h244v-889h-244v84q-24 -52 -76.5 -82.5t-93.5 -30.5q-55 0 -120 33t-85 74z" />
    <glyph glyph-name="paragraph" unicode="&#xb6;" horiz-adv-x="1286" 
d="M735 1221v-426q5 0 74 -7t74 -7v448q-5 0 -74 -4t-74 -4zM492 1144q-2 -1 -16 -7t-19.5 -9t-19.5 -10t-21 -12.5t-18.5 -13.5t-18 -16.5t-13 -19t-9.5 -23t-3 -25.5q0 -23 4.5 -43t15.5 -35t19.5 -26t25.5 -21t25 -14.5t26.5 -12.5t21.5 -9v297zM735 229h148v336
q-6 0 -74.5 2.5t-73.5 2.5v-341zM492 0v618q-66 18 -115 36.5t-102 50t-86.5 71t-55.5 99t-22 133.5q0 84 47.5 156.5t124.5 122.5t176.5 85.5t203.5 52t205 16.5h272v-1441h-648z" />
    <glyph glyph-name="periodcentered" unicode="&#xb7;" horiz-adv-x="495" 
d="M93 766q0 68 48 116t116 48t116 -48t48 -116t-48 -116t-116 -48q-67 0 -115.5 48t-48.5 116z" />
    <glyph glyph-name="cedilla" unicode="&#xb8;" horiz-adv-x="528" 
d="M57 -238q3 1 16 8.5t18.5 11t18.5 11t20 12.5t17.5 13t16.5 14t12.5 13t9 14t2.5 14q0 22 -1.5 34.5t-11.5 34t-30 42.5l162 90q108 -96 108 -207q0 -30 -17 -60t-36 -50t-59 -46.5t-57.5 -36t-60.5 -31.5q-3 -2 -5 -3l-5 -2.5l-5 -2.5z" />
    <glyph glyph-name="onesuperior" unicode="&#xb9;" horiz-adv-x="502" 
d="M216 1488h-167l181 165h160v-768h-174v603z" />
    <glyph glyph-name="ordmasculine" unicode="&#xba;" horiz-adv-x="763" 
d="M156 1178q0 -62 42 -106t103 -44t103 44q41 42 41 106t-41 106q-42 44 -103 44t-103 -44q-42 -43 -42 -106zM-17 1178q0 130 93 221q92 91 225 91t225 -91t92 -221t-92 -221t-225 -91t-225 91q-93 91 -93 221z" />
    <glyph glyph-name="guillemotright" unicode="&#xbb;" horiz-adv-x="983" 
d="M342 1119l193 -292l-193 -290h-215l192 290l-192 291zM694 1119l189 -292l-189 -290h-215l188 290l-192 291z" />
    <glyph glyph-name="onequarter" unicode="&#xbc;" horiz-adv-x="1250" 
d="M1136 104h69v-158h-69v-174h-174v174h-293v128l291 466h176v-436zM966 277l-111 -171h111v171zM198 1488h-167l181 165h160v-768h-174v603zM260 -144h-210l949 1740h201z" />
    <glyph glyph-name="onehalf" unicode="&#xbd;" horiz-adv-x="1250" 
d="M198 1488h-167l181 165h160v-768h-174v603zM850 305l-156 47l4 17q17 82 88 135q72 54 155 54q27 0 66 -7q33 -6 66 -24q34 -19 59 -45q24 -26 40 -71q16 -46 16 -99q0 -65 -19 -109q-20 -46 -68 -94q-24 -24 -45 -39l-70 -53q-51 -39 -67 -56q-19 -20 -26 -29h315v-160
h-524v20q0 48 4 77q5 36 16 69q13 40 33 69q24 35 55 66q16 16 51 44q32 25 53 40q24 17 48 36q21 17 39 37q16 18 25 38q9 21 9 44q0 44 -21 65t-55 21t-54 -17q-18 -15 -31 -57zM260 -144h-210l949 1740h201z" />
    <glyph glyph-name="threequarters" unicode="&#xbe;" horiz-adv-x="1314" 
d="M29 1094l167 45l7 -16q17 -41 45 -59t60 -18q44 0 70 25t26 63q0 36 -29 63q-28 27 -67 27h-102v146h90q28 0 51 25q22 23 22 51q0 40 -21 59q-23 21 -54 21q-24 0 -41 -13q-18 -13 -25 -31l-6 -16l-164 43l8 21q58 154 227 154q47 0 89 -12t77 -37q33 -23 55 -69
q21 -44 21 -99q0 -84 -59 -137q9 -7 26 -22t35 -39q21 -28 31 -60q10 -33 10 -75q0 -53 -20 -96q-21 -46 -56 -79q-37 -35 -86 -54q-52 -20 -108 -20q-57 0 -111 19q-49 17 -94 62q-41 41 -66 108zM1208 104h69v-158h-69v-174h-174v174h-293v128l291 466h176v-436zM1038 277
l-111 -171h111v171zM332 -144h-210l949 1740h201z" />
    <glyph glyph-name="questiondown" unicode="&#xbf;" horiz-adv-x="954" 
d="M301 932v131h268v-195q0 -49 -18.5 -91t-47.5 -73t-64 -59.5t-70.5 -57t-64.5 -59t-47.5 -71.5t-18.5 -89q0 -56 31 -93t73.5 -51.5t93.5 -14.5q79 0 130.5 52.5t58.5 131.5l268 -41q-19 -169 -140.5 -278t-312.5 -109q-74 0 -144 16t-131.5 49t-108 79.5t-73 112
t-26.5 142.5q0 75 19 138t49.5 105t67 77t73 63t67 55t49.5 59.5t19 70.5zM597 1331q0 -68 -48 -116t-116 -48t-116 48t-48 116t48 116t116 48q67 0 115.5 -48.5t48.5 -115.5z" />
    <glyph glyph-name="Agrave" unicode="&#xc0;" horiz-adv-x="1421" 
d="M700 1124l-174 -503h347zM854 1456l523 -1456h-311l-136 382h-463l-136 -382h-311l523 1456h311zM751 1533l-307 213q-15 11 -19 30q-3 12 -3 26q0 18 4 34q7 31 25 52q16 19 35 33q20 15 43 21q10 3 19 3q17 0 28 -10l283 -247q5 -4 7 -13q2 -10 2 -18q0 -16 -5 -31
q-9 -30 -21 -45t-31 -31q-18 -15 -36 -20q-8 -2 -10 -2q-7 0 -14 5z" />
    <glyph glyph-name="Aacute" unicode="&#xc1;" horiz-adv-x="1421" 
d="M700 1124l-174 -503h347zM854 1456l523 -1456h-311l-136 382h-463l-136 -382h-311l523 1456h311zM725 1533q-7 -5 -13 -5q-2 0 -10 2q-18 5 -36 20q-19 16 -31 31t-21 45q-6 20 -6 34q0 5 2 15q2 8 8 13l282 247q11 10 29 10q9 0 19 -3q23 -6 43 -21q19 -14 35 -33
q17 -20 24 -52q4 -16 4 -34q0 -14 -3 -26q-5 -20 -18 -30z" />
    <glyph glyph-name="Acircumflex" unicode="&#xc2;" horiz-adv-x="1292" 
d="M1104 1560h-271l-132 161l-124 -158h-277l284 341h236zM700 1124l-174 -503h347zM854 1456l523 -1456h-311l-136 382h-463l-136 -382h-311l523 1456h311z" />
    <glyph glyph-name="Atilde" unicode="&#xc3;" horiz-adv-x="1292" 
d="M381 1814q6 5 27.5 24t35 29t34.5 23.5t42.5 20t43.5 6.5q27 0 56 -15.5t54.5 -38l51 -45t55.5 -38t59 -15.5q32 0 70.5 21.5t55 36.5t52.5 49v-260q-5 -4 -30.5 -25.5t-42 -33t-46.5 -23.5t-59 -12q-39 0 -80.5 24t-71.5 52t-65 52t-62 24t-53 -10t-41.5 -20.5
t-43.5 -33.5t-42 -33v241zM700 1124l-174 -503h347zM854 1456l523 -1456h-311l-136 382h-463l-136 -382h-311l523 1456h311z" />
    <glyph glyph-name="Adieresis" unicode="&#xc4;" horiz-adv-x="1292" 
d="M303 1663q0 68 48 116t116 48t116 -48t48 -116t-48 -116t-116 -48q-67 0 -116 49q-48 48 -48 115zM774 1663q0 68 48 116t116 48t116 -48t48 -116t-48 -116t-116 -48q-67 0 -116 49q-48 48 -48 115zM700 1124l-174 -503h347zM854 1456l523 -1456h-311l-136 382h-463
l-136 -382h-311l523 1456h311z" />
    <glyph glyph-name="Aring" unicode="&#xc5;" horiz-adv-x="1292" 
d="M562 1784q0 -63 42 -106.5t103 -43.5t102.5 43.5t41.5 106.5q0 62 -41.5 106t-102.5 44t-103 -44t-42 -106zM389 1784q0 130 93 221t225 91t224.5 -91t92.5 -221t-92.5 -221t-224.5 -91t-225 91t-93 221zM700 1124l-174 -503h347zM854 1456l523 -1456h-311l-136 382h-463
l-136 -382h-311l523 1456h311z" />
    <glyph glyph-name="AE" unicode="&#xc6;" horiz-adv-x="1589" 
d="M819 596h-278l-233 -596h-298l576 1456h887v-253h-388v-363h388v-250h-389v-340h389v-250h-654v596zM819 1286l-198 -447h198v447z" />
    <glyph glyph-name="Ccedilla" unicode="&#xc7;" horiz-adv-x="1220" 
d="M503 -347q3 1 16 8.5t18.5 11t18.5 11t20 12.5t17.5 13t16.5 14t12.5 13t9 14t2.5 14q0 22 -1.5 34.5t-11.5 34t-30 42.5l162 90q108 -96 108 -207q0 -30 -17 -60t-36 -50t-59 -46.5t-57.5 -36t-60.5 -31.5q-10 -5 -15 -8zM1012 969q-14 67 -50 127.5t-99 104.5t-138 44
q-74 0 -132 -30.5t-95 -80.5t-61 -119t-34 -140t-10 -149q0 -77 10 -147.5t34 -138.5t61 -118t95.5 -80.5t131.5 -30.5q110 0 187 83t100 189h294q-9 -71 -38 -142.5t-79.5 -138t-117 -118t-156.5 -82.5t-190 -31q-130 0 -236 46.5t-175 122t-116 175.5t-67.5 203t-20.5 208
q0 107 20.5 210.5t67.5 204t116 176t175 122t236 46.5q101 0 191 -31.5t156 -83.5t117 -119.5t80 -139t38 -142.5h-295z" />
    <glyph glyph-name="Egrave" unicode="&#xc8;" horiz-adv-x="1211" 
d="M115 1456h982v-240h-714v-350h651v-240h-651v-386h714v-240h-982v1456zM706 1533l-307 213q-15 11 -19 30q-3 12 -3 26q0 18 4 34q7 31 25 52q16 19 35 33q20 15 43 21q10 3 19 3q17 0 28 -10l283 -247q5 -4 7 -13q2 -10 2 -18q0 -16 -5 -31q-9 -30 -21 -45t-31 -31
q-18 -15 -36 -20q-8 -2 -10 -2q-7 0 -14 5z" />
    <glyph glyph-name="Eacute" unicode="&#xc9;" horiz-adv-x="1211" 
d="M115 1456h982v-240h-714v-350h651v-240h-651v-386h714v-240h-982v1456zM635 1533q-7 -5 -13 -5q-2 0 -10 2q-18 5 -36 20q-19 16 -31 31t-21 45q-6 20 -6 34q0 5 2 15q2 8 8 13l282 247q11 10 29 10q9 0 19 -3q23 -6 43 -21q19 -14 35 -33q17 -20 24 -52q4 -16 4 -34
q0 -14 -3 -26q-5 -20 -18 -30z" />
    <glyph glyph-name="Ecircumflex" unicode="&#xca;" horiz-adv-x="1150" 
d="M1049 1537h-271l-132 161l-124 -158h-277l284 341h236zM115 1456h982v-240h-714v-350h651v-240h-651v-386h714v-240h-982v1456z" />
    <glyph glyph-name="Edieresis" unicode="&#xcb;" horiz-adv-x="1150" 
d="M251 1683q0 68 48 116t116 48t116 -48t48 -116t-48 -116t-116 -48q-67 0 -116 49q-48 48 -48 115zM722 1683q0 68 48 116t116 48t116 -48t48 -116t-48 -116t-116 -48q-67 0 -116 49q-48 48 -48 115zM115 1456h982v-240h-714v-350h651v-240h-651v-386h714v-240h-982v1456z
" />
    <glyph glyph-name="Igrave" unicode="&#xcc;" horiz-adv-x="667" 
d="M143 0v1456h268v-1456h-268zM289 1533l-307 213q-15 11 -19 30q-3 12 -3 26q0 18 4 34q7 31 25 52q16 19 35 33q20 15 43 21q10 3 19 3q17 0 28 -10l283 -247q5 -4 7 -13q2 -10 2 -18q0 -16 -5 -31q-9 -30 -21 -45t-31 -31q-18 -15 -36 -20q-8 -2 -10 -2q-7 0 -14 5z" />
    <glyph glyph-name="Iacute" unicode="&#xcd;" horiz-adv-x="667" 
d="M143 0v1456h268v-1456h-268zM261 1533q-7 -5 -13 -5q-2 0 -10 2q-18 5 -36 20q-19 16 -31 31t-21 45q-6 20 -6 34q0 5 2 15q2 8 8 13l282 247q11 10 29 10q9 0 19 -3q23 -6 43 -21q19 -14 35 -33q17 -20 24 -52q4 -16 4 -34q0 -14 -3 -26q-5 -20 -18 -30z" />
    <glyph glyph-name="Icircumflex" unicode="&#xce;" horiz-adv-x="667" 
d="M674 1537h-271l-132 161l-124 -158h-277l284 341h236zM143 0v1456h268v-1456h-268z" />
    <glyph glyph-name="Idieresis" unicode="&#xcf;" horiz-adv-x="667" 
d="M-123 1698q0 68 48 116t116 48t116 -48t48 -116t-48 -116t-116 -48q-67 0 -116 49q-48 48 -48 115zM348 1698q0 68 48 116t116 48t116 -48t48 -116t-48 -116t-116 -48q-67 0 -116 49q-48 48 -48 115zM143 0v1456h268v-1456h-268z" />
    <glyph glyph-name="Eth" unicode="&#xd0;" horiz-adv-x="1480" 
d="M260 612h-125v239h125v605h436q147 0 272 -57t209.5 -155t132 -232t47.5 -285t-48.5 -285t-134 -231.5t-209.5 -154t-269 -56.5h-225h-211v612zM528 612v-369h168q172 0 283 135t111 349t-111.5 349t-282.5 135h-169v-360h247v-239h-246z" />
    <glyph glyph-name="Ntilde" unicode="&#xd1;" horiz-adv-x="1292" 
d="M321 1793q6 5 27.5 24t35 29t34.5 23.5t42.5 20t43.5 6.5q33 0 70 -24t65.5 -52t67 -52t73.5 -24q32 0 70.5 21.5t55 36.5t52.5 49v-260q-5 -4 -30.5 -25.5t-42 -33t-46.5 -23.5t-59 -12q-39 0 -80.5 23.5t-71.5 52.5t-65 52.5t-62 23.5t-53 -10t-41.5 -20.5t-43.5 -33.5
t-42 -33v241zM115 0v1456h260l573 -940v940h268v-1456h-264l-569 973v-973h-268z" />
    <glyph glyph-name="Ograve" unicode="&#xd2;" horiz-adv-x="1347" 
d="M730 1928l-307 213q-15 11 -19 30q-3 12 -3 26q0 18 4 34q7 31 25 52q16 19 35 33q20 15 43 21q11 3 19 3q17 0 28 -10l283 -247q5 -4 7 -13q2 -10 2 -18q0 -16 -5 -31q-9 -30 -21 -45t-31 -31q-18 -15 -36 -20q-8 -2 -10 -2q-7 0 -14 5zM1047 726q0 99 -16.5 186.5
t-53 164.5t-104 122.5t-158.5 45.5q-74 0 -132 -30.5t-95 -80.5t-61 -119t-34 -140t-10 -149q0 -77 10 -147.5t34 -138.5t61 -118t95.5 -80.5t131.5 -30.5q74 0 132.5 30.5t95 80.5t60.5 118t34 138.5t10 147.5zM100 726q0 107 20.5 210.5t67.5 204t116 176t175 122
t236 46.5t236 -46.5t175 -122t116 -176t67 -204t20 -210.5q0 -106 -20 -208.5t-67 -202.5t-116 -175.5t-175 -122t-236 -46.5t-236 46.5t-175 122t-116 175.5t-67.5 203t-20.5 208z" />
    <glyph glyph-name="Oacute" unicode="&#xd3;" horiz-adv-x="1347" 
d="M1047 726q0 99 -16.5 186.5t-53 164.5t-104 122.5t-158.5 45.5q-74 0 -132 -30.5t-95 -80.5t-61 -119t-34 -140t-10 -149q0 -77 10 -147.5t34 -138.5t61 -118t95.5 -80.5t131.5 -30.5q74 0 132.5 30.5t95 80.5t60.5 118t34 138.5t10 147.5zM100 726q0 107 20.5 210.5
t67.5 204t116 176t175 122t236 46.5t236 -46.5t175 -122t116 -176t67 -204t20 -210.5q0 -106 -20 -208.5t-67 -202.5t-116 -175.5t-175 -122t-236 -46.5t-236 46.5t-175 122t-116 175.5t-67.5 203t-20.5 208zM710 1533l-307 213q-15 11 -19 30q-3 12 -3 26q0 18 4 34
q7 31 25 52q16 19 35 33q20 15 43 21q10 3 19 3q17 0 28 -10l283 -247q5 -4 7 -13q2 -10 2 -18q0 -16 -5 -31q-9 -30 -21 -45t-31 -31q-18 -15 -36 -20q-8 -2 -10 -2q-7 0 -14 5z" />
    <glyph glyph-name="Ocircumflex" unicode="&#xd4;" horiz-adv-x="1347" 
d="M1047 726q0 99 -16.5 186.5t-53 164.5t-104 122.5t-158.5 45.5q-74 0 -132 -30.5t-95 -80.5t-61 -119t-34 -140t-10 -149q0 -77 10 -147.5t34 -138.5t61 -118t95.5 -80.5t131.5 -30.5q74 0 132.5 30.5t95 80.5t60.5 118t34 138.5t10 147.5zM100 726q0 107 20.5 210.5
t67.5 204t116 176t175 122t236 46.5t236 -46.5t175 -122t116 -176t67 -204t20 -210.5q0 -106 -20 -208.5t-67 -202.5t-116 -175.5t-175 -122t-236 -46.5t-236 46.5t-175 122t-116 175.5t-67.5 203t-20.5 208zM719 1533q-7 -5 -13 -5q-2 0 -10 2q-18 5 -36 20q-19 16 -31 31
t-21 45q-6 20 -6 34q0 5 2 15q2 8 8 13l282 247q11 10 29 10q8 0 19 -3q23 -6 43 -21q19 -14 35 -33q17 -20 24 -52q4 -16 4 -34q0 -14 -3 -26q-5 -20 -18 -30z" />
    <glyph glyph-name="Otilde" unicode="&#xd5;" horiz-adv-x="1347" 
d="M405 1844q6 5 27.5 24t35 29t34.5 23.5t42.5 20t43.5 6.5q27 0 56 -15.5t54.5 -38l51 -45t55.5 -38t59 -15.5q32 0 70.5 21.5t55 36.5t52.5 49v-260q-5 -4 -30.5 -25.5t-42 -33t-46.5 -23.5t-59 -12q-39 0 -80.5 24t-71.5 52t-65 52t-62 24t-53 -10t-41.5 -20.5
t-43.5 -33.5t-42 -33v241zM1047 726q0 99 -16.5 186.5t-53 164.5t-104 122.5t-158.5 45.5q-74 0 -132 -30.5t-95 -80.5t-61 -119t-34 -140t-10 -149q0 -77 10 -147.5t34 -138.5t61 -118t95.5 -80.5t131.5 -30.5q74 0 132.5 30.5t95 80.5t60.5 118t34 138.5t10 147.5z
M100 726q0 107 20.5 210.5t67.5 204t116 176t175 122t236 46.5t236 -46.5t175 -122t116 -176t67 -204t20 -210.5q0 -106 -20 -208.5t-67 -202.5t-116 -175.5t-175 -122t-236 -46.5t-236 46.5t-175 122t-116 175.5t-67.5 203t-20.5 208z" />
    <glyph glyph-name="Odieresis" unicode="&#xd6;" horiz-adv-x="1347" 
d="M311 1738q0 68 48 116t116 48t116 -48t48 -116t-48 -116t-116 -48q-67 0 -116 49q-48 48 -48 115zM782 1738q0 68 48 116t116 48t116 -48t48 -116t-48 -116t-116 -48q-67 0 -116 49q-48 48 -48 115zM1047 726q0 99 -16.5 186.5t-53 164.5t-104 122.5t-158.5 45.5
q-74 0 -132 -30.5t-95 -80.5t-61 -119t-34 -140t-10 -149q0 -77 10 -147.5t34 -138.5t61 -118t95.5 -80.5t131.5 -30.5q74 0 132.5 30.5t95 80.5t60.5 118t34 138.5t10 147.5zM100 726q0 107 20.5 210.5t67.5 204t116 176t175 122t236 46.5t236 -46.5t175 -122t116 -176
t67 -204t20 -210.5q0 -106 -20 -208.5t-67 -202.5t-116 -175.5t-175 -122t-236 -46.5t-236 46.5t-175 122t-116 175.5t-67.5 203t-20.5 208z" />
    <glyph glyph-name="multiply" unicode="&#xd7;" horiz-adv-x="833" 
d="M62 458l187 189l-216 212l169 171l215 -212l201 205l171 -169l-202 -205l205 -201l-168 -171l-204 202l-187 -190z" />
    <glyph glyph-name="Oslash" unicode="&#xd8;" horiz-adv-x="1425" 
d="M545 -6l-13 -23h-284l67 164q-101 101 -158 273t-57 319q0 115 21 221.5t68.5 206t117.5 173t176.5 117.5t237.5 44q100 0 160 -23l8 27h272l-61 -145q121 -110 175 -272.5t54 -348.5q0 -86 -17.5 -180.5t-62.5 -199t-112 -186.5t-176.5 -136t-245.5 -54q-86 0 -170 23z
M637 223q9 -1 21 -4t24 -4.5t31 -1.5q64 0 117 24.5t88 67t61.5 94t40.5 111t20.5 113t6.5 104.5q0 200 -62 340zM440 426l344 815q-3 0 -22 4t-41 4q-79 0 -140.5 -32.5t-98.5 -83.5t-60.5 -122t-32 -139.5t-8.5 -144.5q0 -57 17 -151.5t42 -149.5z" />
    <glyph glyph-name="Ugrave" unicode="&#xd9;" horiz-adv-x="1298" 
d="M637 -35q-166 0 -285.5 80t-178 218.5t-58.5 322.5v870h268v-870q0 -73 13 -137t41 -121t79.5 -90t120.5 -33q56 0 100.5 22.5t73 59t47.5 87t26.5 103t7.5 109.5v870h268v-870q0 -184 -59 -322.5t-178 -218.5t-286 -80zM666 1533l-307 213q-15 11 -19 30q-3 12 -3 26
q0 18 4 34q7 31 25 52q16 19 35 33q20 15 43 21q11 3 19 3q17 0 28 -10l283 -247q5 -4 7 -13q2 -10 2 -18q0 -16 -5 -31q-9 -30 -21 -45t-31 -31q-18 -15 -36 -20q-8 -2 -10 -2q-7 0 -14 5z" />
    <glyph glyph-name="Uacute" unicode="&#xda;" horiz-adv-x="1298" 
d="M637 -35q-166 0 -285.5 80t-178 218.5t-58.5 322.5v870h268v-870q0 -73 13 -137t41 -121t79.5 -90t120.5 -33q56 0 100.5 22.5t73 59t47.5 87t26.5 103t7.5 109.5v870h268v-870q0 -184 -59 -322.5t-178 -218.5t-286 -80zM655 1533q-7 -5 -13 -5q-2 0 -10 2q-18 5 -36 20
q-19 16 -31 31t-21 45q-6 20 -6 34q0 5 2 15q2 8 8 13l282 247q11 10 29 10q9 0 19 -3q23 -6 43 -21q19 -14 35 -33q17 -20 24 -52q4 -16 4 -34q0 -14 -3 -26q-5 -20 -18 -30z" />
    <glyph glyph-name="Ucircumflex" unicode="&#xdb;" horiz-adv-x="1298" 
d="M1059 1566h-271l-132 161l-124 -158h-277l284 341h236zM637 -35q-166 0 -285.5 80t-178 218.5t-58.5 322.5v870h268v-870q0 -73 13 -137t41 -121t79.5 -90t120.5 -33q56 0 100.5 22.5t73 59t47.5 87t26.5 103t7.5 109.5v870h268v-870q0 -184 -59 -322.5t-178 -218.5
t-286 -80z" />
    <glyph glyph-name="Udieresis" unicode="&#xdc;" horiz-adv-x="1298" 
d="M257 1701q0 68 48 116t116 48t116 -48t48 -116t-48 -116t-116 -48q-67 0 -116 49q-48 48 -48 115zM728 1701q0 68 48 116t116 48t116 -48t48 -116t-48 -116t-116 -48q-67 0 -116 49q-48 48 -48 115zM637 -35q-166 0 -285.5 80t-178 218.5t-58.5 322.5v870h268v-870
q0 -73 13 -137t41 -121t79.5 -90t120.5 -33q56 0 100.5 22.5t73 59t47.5 87t26.5 103t7.5 109.5v870h268v-870q0 -184 -59 -322.5t-178 -218.5t-286 -80z" />
    <glyph glyph-name="Yacute" unicode="&#xdd;" horiz-adv-x="1179" 
d="M633 1900q-7 -5 -13 -5q-2 0 -10 2q-18 5 -36 20q-19 16 -31 31t-21 45q-6 19 -6 34q0 5 2 15q2 8 8 13l282 247q11 10 29 10q9 0 19 -3q23 -6 43 -21q19 -14 35 -33q17 -20 24 -52q4 -16 4 -34q0 -14 -3 -26q-5 -19 -18 -30zM67 1455h340l256 -475l256 475h340
l-461 -765v-690h-268v690z" />
    <glyph glyph-name="Thorn" unicode="&#xde;" horiz-adv-x="1384" 
d="M403 526q62 0 116 5.5t108 21t92 40t62 65t24 92.5q0 211 -402 211v-435zM135 1456h268v-257q91 0 170 -9t156.5 -28.5t138 -54t107.5 -82.5t72 -118t25 -157q0 -112 -38 -196t-99 -134t-150.5 -80.5t-180 -41.5t-201.5 -11v-287h-268v1456z" />
    <glyph glyph-name="germandbls" unicode="&#xdf;" horiz-adv-x="1261" 
d="M159 1260q140 268 486 268q207 0 332 -127t125 -328q0 -130 -52 -206.5t-117 -99.5q28 -6 65 -36t73.5 -76t61.5 -115t25 -141q0 -210 -145.5 -319t-394.5 -109q-153 0 -203 52l98 203q33 -31 80 -31q90 0 158 19t112 66t44 119q0 104 -100 177t-266 73h-35h3t1.5 0.5
t1 2t0.5 3.5t0.5 6l1 8t2.5 10.5t4 14.5l15 150q54 0 104 10.5t99.5 34t79.5 71t30 113.5q0 114 -50.5 167.5t-152.5 53.5q-192 0 -266 -154q-26 -56 -35.5 -306.5t-17.5 -509t-31 -324.5h-233q22 52 29.5 237.5t7 382.5t13.5 387t47 253z" />
    <glyph glyph-name="agrave" unicode="&#xe0;" horiz-adv-x="1036" 
d="M535 524q-88 0 -145.5 -50.5t-57.5 -117.5t57 -116t146 -49q88 0 140 48.5t52 116.5t-52 118t-140 50zM450 741q99 0 174 -50.5t95 -114.5v82q0 59 -16.5 103t-41.5 69.5t-59.5 41t-65 20.5t-64.5 5q-46 0 -90.5 -9.5t-65.5 -18t-60 -25.5l-103 164q45 36 142 65t177 29
q82 0 153.5 -15.5t137.5 -52.5t113 -92.5t74.5 -140.5t27.5 -192v-304v-305h-257v136q-21 -64 -94.5 -114.5t-172.5 -50.5q-153 0 -258.5 111t-105.5 276t105 274t255 109zM562 1185l-307 213q-15 11 -19 30q-3 12 -3 26q0 18 4 34q7 31 25 52q16 19 35 33q20 15 43 21
q10 3 19 3q17 0 28 -10l283 -247q5 -4 7 -13q2 -10 2 -18q0 -16 -5 -31q-9 -30 -21 -45t-31 -31q-18 -15 -36 -20q-8 -2 -10 -2q-7 0 -14 5z" />
    <glyph glyph-name="aacute" unicode="&#xe1;" horiz-adv-x="1036" 
d="M535 524q-88 0 -145.5 -50.5t-57.5 -117.5t57 -116t146 -49q88 0 140 48.5t52 116.5t-52 118t-140 50zM450 741q99 0 174 -50.5t95 -114.5v82q0 59 -16.5 103t-41.5 69.5t-59.5 41t-65 20.5t-64.5 5q-46 0 -90.5 -9.5t-65.5 -18t-60 -25.5l-103 164q45 36 142 65t177 29
q82 0 153.5 -15.5t137.5 -52.5t113 -92.5t74.5 -140.5t27.5 -192v-304v-305h-257v136q-21 -64 -94.5 -114.5t-172.5 -50.5q-153 0 -258.5 111t-105.5 276t105 274t255 109zM473 1183q-7 -5 -13 -5q-2 0 -10 2q-18 5 -36 20q-19 16 -31 31t-21 45q-6 20 -6 34q0 5 2 15
q2 8 8 13l282 247q11 10 29 10q9 0 19 -3q23 -6 43 -21q19 -14 35 -33q17 -20 24 -52q4 -16 4 -34q0 -14 -3 -26q-5 -20 -18 -30z" />
    <glyph glyph-name="acircumflex" unicode="&#xe2;" horiz-adv-x="1036" 
d="M930 1138h-271l-132 161l-124 -158h-277l284 341h236zM535 524q-88 0 -145.5 -50.5t-57.5 -117.5t57 -116t146 -49q88 0 140 48.5t52 116.5t-52 118t-140 50zM450 741q99 0 174 -50.5t95 -114.5v82q0 59 -16.5 103t-41.5 69.5t-59.5 41t-65 20.5t-64.5 5
q-46 0 -90.5 -9.5t-65.5 -18t-60 -25.5l-103 164q45 36 142 65t177 29q82 0 153.5 -15.5t137.5 -52.5t113 -92.5t74.5 -140.5t27.5 -192v-304v-305h-257v136q-21 -64 -94.5 -114.5t-172.5 -50.5q-153 0 -258.5 111t-105.5 276t105 274t255 109z" />
    <glyph glyph-name="atilde" unicode="&#xe3;" horiz-adv-x="1036" 
d="M252 1439q6 5 27.5 24t35 29t34.5 23.5t42.5 20t43.5 6.5q33 0 70 -24t65.5 -52t67 -52t73.5 -24q32 0 70.5 21.5t55 36.5t52.5 49v-260q-5 -4 -30.5 -25.5t-42 -33t-46.5 -23.5t-59 -12q-39 0 -80.5 23.5t-71.5 52.5t-65 52.5t-62 23.5t-53 -10t-41.5 -20.5t-43.5 -33.5
t-42 -33v241zM535 524q-88 0 -145.5 -50.5t-57.5 -117.5t57 -116t146 -49q88 0 140 48.5t52 116.5t-52 118t-140 50zM450 741q99 0 174 -50.5t95 -114.5v82q0 59 -16.5 103t-41.5 69.5t-59.5 41t-65 20.5t-64.5 5q-46 0 -90.5 -9.5t-65.5 -18t-60 -25.5l-103 164
q45 36 142 65t177 29q82 0 153.5 -15.5t137.5 -52.5t113 -92.5t74.5 -140.5t27.5 -192v-304v-305h-257v136q-21 -64 -94.5 -114.5t-172.5 -50.5q-153 0 -258.5 111t-105.5 276t105 274t255 109z" />
    <glyph glyph-name="adieresis" unicode="&#xe4;" horiz-adv-x="1036" 
d="M158 1331q0 68 48 116t116 48t116 -48t48 -116t-48 -116t-116 -48q-67 0 -116 49q-48 48 -48 115zM629 1331q0 68 48 116t116 48t116 -48t48 -116t-48 -116t-116 -48q-67 0 -116 49q-48 48 -48 115zM535 524q-88 0 -145.5 -50.5t-57.5 -117.5t57 -116t146 -49
q88 0 140 48.5t52 116.5t-52 118t-140 50zM450 741q99 0 174 -50.5t95 -114.5v82q0 59 -16.5 103t-41.5 69.5t-59.5 41t-65 20.5t-64.5 5q-46 0 -90.5 -9.5t-65.5 -18t-60 -25.5l-103 164q45 36 142 65t177 29q82 0 153.5 -15.5t137.5 -52.5t113 -92.5t74.5 -140.5
t27.5 -192v-304v-305h-257v136q-21 -64 -94.5 -114.5t-172.5 -50.5q-153 0 -258.5 111t-105.5 276t105 274t255 109z" />
    <glyph glyph-name="aring" unicode="&#xe5;" horiz-adv-x="1036" 
d="M391 1426q0 -63 42 -106.5t103 -43.5t102.5 43.5t41.5 106.5q0 62 -41.5 106t-102.5 44t-103 -44t-42 -106zM218 1426q0 130 93 221t225 91t224.5 -91t92.5 -221t-92.5 -221t-224.5 -91t-225 91t-93 221zM535 524q-88 0 -145.5 -50.5t-57.5 -117.5t57 -116t146 -49
q88 0 140 48.5t52 116.5t-52 118t-140 50zM450 741q99 0 174 -50.5t95 -114.5v82q0 59 -16.5 103t-41.5 69.5t-59.5 41t-65 20.5t-64.5 5q-46 0 -90.5 -9.5t-65.5 -18t-60 -25.5l-103 164q45 36 142 65t177 29q82 0 153.5 -15.5t137.5 -52.5t113 -92.5t74.5 -140.5
t27.5 -192v-304v-305h-257v136q-21 -64 -94.5 -114.5t-172.5 -50.5q-153 0 -258.5 111t-105.5 276t105 274t255 109z" />
    <glyph glyph-name="ae" unicode="&#xe6;" horiz-adv-x="1764" 
d="M535 524q-88 0 -145.5 -50.5t-57.5 -117.5t57 -116t146 -49q88 0 140 48.5t52 116.5t-52 118t-140 50zM1208 201q99 0 154 66l228 -98q-62 -94 -169 -146t-213 -52q-122 0 -230 64v-35h-257v136q-21 -64 -94.5 -114.5t-172.5 -50.5q-153 0 -258.5 111t-105.5 276t105 274
t255 109q98 0 173.5 -50t95.5 -114v15v66q0 59 -16.5 103t-41.5 69.5t-59.5 41t-65 20.5t-64.5 5q-46 0 -90.5 -9.5t-65.5 -18t-60 -25.5l-103 164q45 36 142 65t177 29q264 0 396 -153q65 71 150.5 110t180.5 39q132 0 236.5 -72.5t162.5 -200.5t58 -288v-68h-664
q1 -65 17 -115.5t39 -78.5t53 -45.5t55.5 -23t51.5 -5.5zM993 651h413q-7 90 -62 153.5t-145 63.5q-89 0 -144.5 -64.5t-61.5 -152.5z" />
    <glyph glyph-name="ccedilla" unicode="&#xe7;" horiz-adv-x="847" 
d="M315 -342q3 1 16 8.5t18.5 11t18.5 11t20 12.5t17.5 13t16.5 14t12.5 13t9 14t2.5 14q0 22 -1.5 34.5t-11.5 34t-30 42.5l162 90q108 -96 108 -207q0 -30 -17 -60t-36 -50t-59 -46.5t-57.5 -36t-60.5 -31.5q-10 -5 -15 -8zM766 756q-65 114 -180 114q-99 0 -168.5 -95.5
t-69.5 -242.5q0 -146 74.5 -237.5t183.5 -91.5q20 0 36.5 3t28.5 6.5t24 12.5l18 13.5t15 18l12 18t11.5 21t10.5 19.5l214 -111q-59 -98 -155 -165.5t-215 -67.5q-239 0 -379.5 153t-140.5 408q0 252 141 410t359 158q116 0 225.5 -63.5t167.5 -168.5z" />
    <glyph glyph-name="egrave" unicode="&#xe8;" horiz-adv-x="1093" 
d="M363 651h413q-7 90 -62 153.5t-145 63.5q-89 0 -144.5 -64.5t-61.5 -152.5zM578 201q99 0 154 66l228 -98q-62 -94 -169 -146t-213 -52q-99 0 -189 43t-156.5 117t-105.5 180t-39 226q0 240 140 400.5t341 160.5q132 0 236.5 -72.5t162.5 -200.5t58 -288v-68h-664
q1 -65 17 -115.5t39 -78.5t53 -45.5t55.5 -23t51.5 -5.5zM568 1185l-307 213q-15 11 -19 30q-3 12 -3 26q0 18 4 34q7 31 25 52q16 19 35 33q20 15 43 21q11 3 19 3q17 0 28 -10l283 -247q5 -4 7 -13q2 -10 2 -18q0 -16 -5 -31q-9 -30 -21 -45t-31 -31q-18 -15 -36 -20
q-8 -2 -10 -2q-7 0 -14 5z" />
    <glyph glyph-name="eacute" unicode="&#xe9;" horiz-adv-x="1093" 
d="M363 651h413q-7 90 -62 153.5t-145 63.5q-89 0 -144.5 -64.5t-61.5 -152.5zM578 201q99 0 154 66l228 -98q-62 -94 -169 -146t-213 -52q-99 0 -189 43t-156.5 117t-105.5 180t-39 226q0 240 140 400.5t341 160.5q132 0 236.5 -72.5t162.5 -200.5t58 -288v-68h-664
q1 -65 17 -115.5t39 -78.5t53 -45.5t55.5 -23t51.5 -5.5zM507 1183q-7 -5 -13 -5q-2 0 -10 2q-18 5 -36 20q-19 16 -31 31t-21 45q-6 20 -6 34q0 5 2 15q2 8 8 13l282 247q11 10 29 10q9 0 19 -3q23 -6 43 -21q19 -14 35 -33q17 -20 24 -52q4 -16 4 -34q0 -14 -3 -26
q-5 -20 -18 -30z" />
    <glyph glyph-name="ecircumflex" unicode="&#xea;" horiz-adv-x="964" 
d="M985 1152h-271l-132 161l-124 -158h-277l284 341h236zM363 651h413q-7 90 -62 153.5t-145 63.5q-89 0 -144.5 -64.5t-61.5 -152.5zM578 201q99 0 154 66l228 -98q-62 -94 -169 -146t-213 -52q-99 0 -189 43t-156.5 117t-105.5 180t-39 226q0 240 140 400.5t341 160.5
q132 0 236.5 -72.5t162.5 -200.5t58 -288v-68h-664q1 -65 17 -115.5t39 -78.5t53 -45.5t55.5 -23t51.5 -5.5z" />
    <glyph glyph-name="edieresis" unicode="&#xeb;" horiz-adv-x="964" 
d="M171 1308q0 68 48 116t116 48t116 -48t48 -116t-48 -116t-116 -48q-67 0 -116 49q-48 48 -48 115zM642 1308q0 68 48 116t116 48t116 -48t48 -116t-48 -116t-116 -48q-67 0 -116 49q-48 48 -48 115zM363 651h413q-7 90 -62 153.5t-145 63.5q-89 0 -144.5 -64.5
t-61.5 -152.5zM578 201q99 0 154 66l228 -98q-62 -94 -169 -146t-213 -52q-99 0 -189 43t-156.5 117t-105.5 180t-39 226q0 240 140 400.5t341 160.5q132 0 236.5 -72.5t162.5 -200.5t58 -288v-68h-664q1 -65 17 -115.5t39 -78.5t53 -45.5t55.5 -23t51.5 -5.5z" />
    <glyph glyph-name="igrave" unicode="&#xec;" horiz-adv-x="550" 
d="M285 1185l-307 213q-15 11 -19 30q-3 12 -3 26q0 18 4 34q7 31 25 52q16 19 35 33q20 15 43 21q11 3 19 3q17 0 28 -10l283 -247q5 -4 7 -13q2 -10 2 -18q0 -16 -5 -31q-9 -30 -21 -45t-31 -31q-18 -15 -36 -20q-8 -2 -10 -2q-7 0 -14 5zM139 1073h258v-1073h-258v1073z
" />
    <glyph glyph-name="iacute" unicode="&#xed;" horiz-adv-x="544" 
d="M255 1185q-7 -5 -13 -5q-2 0 -10 2q-18 5 -36 20q-19 16 -31 31t-21 45q-6 20 -6 34q0 5 2 15q2 8 8 13l282 247q11 10 29 10q8 0 19 -3q23 -6 43 -21q19 -14 35 -33q17 -20 24 -52q4 -16 4 -34q0 -14 -3 -26q-5 -20 -18 -30zM139 1073h258v-1073h-258v1073z" />
    <glyph glyph-name="icircumflex" unicode="&#xee;" horiz-adv-x="546" 
d="M676 1146h-271l-132 161l-124 -158h-277l284 341h236zM139 1073h269v-1073h-269v1073z" />
    <glyph glyph-name="idieresis" unicode="&#xef;" horiz-adv-x="548" 
d="M355 1323q0 68 48 116t116 48t116 -48t48 -116t-48 -116t-116 -48q-67 0 -115.5 48.5t-48.5 115.5zM-116 1323q0 68 48 116t116 48t116 -48t48 -116t-48 -116t-116 -48t-116 48.5t-48 115.5zM139 1073h269v-1073h-269v1073z" />
    <glyph glyph-name="eth" unicode="&#xf0;" horiz-adv-x="1062" 
d="M330 467q0 -131 56.5 -209t115.5 -78q76 0 133 88t57 199q0 112 -67.5 184t-149.5 72q-59 0 -102 -80t-43 -176zM745 1229q66 -77 127.5 -210.5t69.5 -248.5q11 -76 11 -160q0 -46 -3 -104q0 -240 -128 -397.5t-314 -157.5q-92 0 -166 28t-124 76t-83 115t-48 142
t-15 159q0 207 118 344t293 137q70 0 133 -46t105 -107q0 55 -47.5 160.5t-95.5 150.5l-89 -82l-152 154l84 73q-18 13 -28.5 19t-38.5 12t-70 6h-2q-59 0 -106 -10l-20 193q34 14 148 16h5q85 0 159.5 -28t117.5 -62l119 111l163 -185z" />
    <glyph glyph-name="ntilde" unicode="&#xf1;" horiz-adv-x="1089" 
d="M252 1453q6 5 27.5 24t35 29t34.5 23.5t42.5 20t43.5 6.5q33 0 70 -24t65.5 -52t67 -52t73.5 -24q32 0 70.5 21.5t55 36.5t52.5 49v-260q-5 -4 -30.5 -25.5t-42 -33t-46.5 -23.5t-59 -12q-39 0 -80.5 23.5t-71.5 52.5t-65 52.5t-62 23.5t-53 -10t-41.5 -20.5t-43.5 -33.5
t-42 -33v241zM377 0h-258v1074h258v-162q45 82 132.5 136t190.5 54q55 0 109.5 -28.5t101 -81t75 -137.5t28.5 -187v-668h-258v537q0 100 -12.5 167t-37.5 101.5t-55.5 48t-74.5 13.5q-35 0 -62.5 -8t-54 -30t-44 -58t-28 -95.5t-10.5 -139.5v-536z" />
    <glyph glyph-name="ograve" unicode="&#xf2;" horiz-adv-x="1150" 
d="M344 537q0 -331 222 -331t222 331q0 329 -222 329t-222 -329zM92 537q0 260 124 411.5t349 151.5t348 -151t123 -412t-123 -413.5t-348 -152.5q-226 0 -349.5 151t-123.5 415zM550 1183l-307 213q-15 11 -19 30q-3 12 -3 26q0 18 4 34q7 31 25 52q16 19 35 33
q20 15 43 21q11 3 19 3q17 0 28 -10l283 -247q5 -4 7 -13q2 -10 2 -18q0 -16 -5 -31q-9 -30 -21 -45t-31 -31q-18 -15 -36 -20q-8 -2 -10 -2q-7 0 -14 5z" />
    <glyph glyph-name="oacute" unicode="&#xf3;" horiz-adv-x="1153" 
d="M344 537q0 -331 222 -331t222 331q0 329 -222 329t-222 -329zM92 537q0 260 124 411.5t349 151.5t348 -151t123 -412t-123 -413.5t-348 -152.5q-226 0 -349.5 151t-123.5 415zM551 1183q-7 -5 -13 -5q-2 0 -10 2q-18 5 -36 20q-19 16 -31 31t-21 45q-6 20 -6 34q0 5 2 15
q2 8 8 13l282 247q11 10 29 10q9 0 19 -3q23 -6 43 -21q19 -14 35 -33q17 -20 24 -52q4 -16 4 -34q0 -14 -3 -26q-5 -20 -18 -30z" />
    <glyph glyph-name="ocircumflex" unicode="&#xf4;" horiz-adv-x="1150" 
d="M964 1142h-271l-132 161l-124 -158h-277l284 341h236zM344 537q0 -331 222 -331t222 331q0 329 -222 329t-222 -329zM92 537q0 260 124 411.5t349 151.5t348 -151t123 -412t-123 -413.5t-348 -152.5q-226 0 -349.5 151t-123.5 415z" />
    <glyph glyph-name="otilde" unicode="&#xf5;" horiz-adv-x="1150" 
d="M248 1445q6 5 27.5 24t35 29t34.5 23.5t42.5 20t43.5 6.5q33 0 70 -24t65.5 -52t67 -52t73.5 -24q32 0 70.5 21.5t55 36.5t52.5 49v-260q-5 -4 -30.5 -25.5t-42 -33t-46.5 -23.5t-59 -12q-39 0 -80.5 23.5t-71.5 52.5t-65 52.5t-62 23.5t-53 -10t-41.5 -20.5t-43.5 -33.5
t-42 -33v241zM344 537q0 -331 222 -331t222 331q0 329 -222 329t-222 -329zM92 537q0 260 124 411.5t349 151.5t348 -151t123 -412t-123 -413.5t-348 -152.5q-226 0 -349.5 151t-123.5 415z" />
    <glyph glyph-name="odieresis" unicode="&#xf6;" horiz-adv-x="1150" 
d="M159 1319q0 68 48 116t116 48t116 -48t48 -116t-48 -116t-116 -48q-67 0 -116 49q-48 48 -48 115zM630 1319q0 68 48 116t116 48t116 -48t48 -116t-48 -116t-116 -48q-67 0 -116 49q-48 48 -48 115zM344 537q0 -331 222 -331t222 331q0 329 -222 329t-222 -329zM92 537
q0 260 124 411.5t349 151.5t348 -151t123 -412t-123 -413.5t-348 -152.5q-226 0 -349.5 151t-123.5 415z" />
    <glyph glyph-name="divide" unicode="&#xf7;" horiz-adv-x="1003" 
d="M347 1009q0 68 48 116t116 48t116 -48t48 -116t-48 -116t-116 -48q-67 0 -115.5 48.5t-48.5 115.5zM347 281q0 68 48 116t116 48t116 -48t48 -116t-48 -116t-116 -48q-67 0 -115.5 48.5t-48.5 115.5zM118 764h772v-240h-772v240z" />
    <glyph glyph-name="oslash" unicode="&#xf8;" horiz-adv-x="1044" 
d="M764 635l-264 -414q25 -20 65 -20q58 0 107.5 49.5t76.5 125t27 156.5q0 66 -12 103zM633 850q-30 20 -55 20q-69 0 -122 -52t-78.5 -127.5t-25.5 -158.5q0 -63 13 -90zM53 -29l137 207q-42 59 -70 156t-28 198q0 164 57.5 292t168.5 202t260 74q42 0 99.5 -14.5
t88.5 -34.5l32 51h263l-127 -203q47 -68 74.5 -164.5t27.5 -202.5q0 -242 -133 -401.5t-334 -159.5q-50 0 -107 12.5t-91 34.5l-31 -47h-287z" />
    <glyph glyph-name="ugrave" unicode="&#xf9;" horiz-adv-x="991" 
d="M1003 0h-258v161q-45 -81 -131.5 -135.5t-185.5 -54.5q-148 0 -234 143.5t-86 420.5v538h258v-537q0 -79 11.5 -139.5t29 -96t42 -57.5t48 -29.5t49.5 -7.5q27 0 52 8t52 30t47.5 57.5t33.5 96t13 139.5v536h259v-1073zM577 1185l-307 213q-15 11 -19 30q-3 12 -3 26
q0 18 4 34q7 31 25 52q16 19 35 33q20 15 43 21q10 3 19 3q17 0 28 -10l283 -247q5 -4 7 -13q2 -10 2 -18q0 -16 -5 -31q-9 -30 -21 -45t-31 -31q-18 -15 -36 -20q-8 -2 -10 -2q-7 0 -14 5z" />
    <glyph glyph-name="uacute" unicode="&#xfa;" horiz-adv-x="1024" 
d="M1003 0h-258v161q-45 -81 -131.5 -135.5t-185.5 -54.5q-148 0 -234 143.5t-86 420.5v538h258v-537q0 -79 11.5 -139.5t29 -96t42 -57.5t48 -29.5t49.5 -7.5q27 0 52 8t52 30t47.5 57.5t33.5 96t13 139.5v536h259v-1073zM531 1183q-7 -5 -13 -5q-2 0 -10 2q-18 5 -36 20
q-19 16 -31 31t-21 45q-6 20 -6 34q0 5 2 15q2 8 8 13l282 247q11 10 29 10q9 0 19 -3q23 -6 43 -21q19 -14 35 -33q17 -20 24 -52q4 -16 4 -34q0 -14 -3 -26q-5 -20 -18 -30z" />
    <glyph glyph-name="ucircumflex" unicode="&#xfb;" horiz-adv-x="1024" 
d="M961 1175h-271l-132 161l-124 -158h-277l284 341h236zM1003 0h-258v161q-45 -81 -131.5 -135.5t-185.5 -54.5q-148 0 -234 143.5t-86 420.5v538h258v-537q0 -79 11.5 -139.5t29 -96t42 -57.5t48 -29.5t49.5 -7.5q27 0 52 8t52 30t47.5 57.5t33.5 96t13 139.5v536h259
v-1073z" />
    <glyph glyph-name="udieresis" unicode="&#xfc;" horiz-adv-x="1024" 
d="M157 1323q0 68 48 116t116 48t116 -48t48 -116t-48 -116t-116 -48q-67 0 -116 49q-48 48 -48 115zM628 1323q0 68 48 116t116 48t116 -48t48 -116t-48 -116t-116 -48q-67 0 -116 49q-48 48 -48 115zM1003 0h-258v161q-45 -81 -131.5 -135.5t-185.5 -54.5
q-148 0 -234 143.5t-86 420.5v538h258v-537q0 -79 11.5 -139.5t29 -96t42 -57.5t48 -29.5t49.5 -7.5q27 0 52 8t52 30t47.5 57.5t33.5 96t13 139.5v536h259v-1073z" />
    <glyph glyph-name="yacute" unicode="&#xfd;" horiz-adv-x="983" 
d="M1003 -29q0 -79 -40 -159t-103 -140.5t-144.5 -98.5t-160.5 -38q-149 0 -258.5 70t-156.5 171l204 112q19 -54 72.5 -87.5t132.5 -33.5q84 0 140 47t56 127v220q-45 -81 -131.5 -135.5t-185.5 -54.5q-148 0 -234 143.5t-86 420.5v538h258v-537q0 -79 11.5 -139.5t29 -96
t42 -57.5t48 -29.5t49.5 -7.5q27 0 52 8t52 30t47.5 57.5t33.5 96t13 139.5v536h259v-1044v-58zM571 1183q-7 -5 -13 -5q-2 0 -10 2q-18 5 -36 20q-19 16 -31 31t-21 45q-6 20 -6 34q0 5 2 15q2 8 8 13l282 247q11 10 29 10q9 0 19 -3q23 -6 43 -21q19 -14 35 -33
q17 -20 24 -52q4 -16 4 -34q0 -14 -3 -26q-5 -20 -18 -30z" />
    <glyph glyph-name="thorn" unicode="&#xfe;" horiz-adv-x="1093" 
d="M377 0h-258v1454h258v-295q27 61 90 116.5t129 55.5q129 0 226 -85.5t144.5 -218.5t47.5 -288q0 -97 -14 -184t-47 -168t-82.5 -140t-126.5 -94.5t-174 -35.5q-36 0 -70.5 17t-59 42.5t-40 46t-23.5 35.5v-258zM756 750q0 139 -62.5 245.5t-126.5 106.5
q-77 0 -137.5 -107t-60.5 -244q0 -183 56.5 -294t131.5 -111q77 0 138 110.5t61 293.5z" />
    <glyph glyph-name="ydieresis" unicode="&#xff;" horiz-adv-x="983" 
d="M141 1323q0 68 48 116t116 48t116 -48t48 -116t-48 -116t-116 -48q-67 0 -116 49q-48 48 -48 115zM612 1323q0 68 48 116t116 48t116 -48t48 -116t-48 -116t-116 -48q-67 0 -116 49q-48 48 -48 115zM1003 -29q0 -79 -40 -159t-103 -140.5t-144.5 -98.5t-160.5 -38
q-149 0 -258.5 70t-156.5 171l204 112q19 -54 72.5 -87.5t132.5 -33.5q84 0 140 47t56 127v220q-45 -81 -131.5 -135.5t-185.5 -54.5q-148 0 -234 143.5t-86 420.5v538h258v-537q0 -79 11.5 -139.5t29 -96t42 -57.5t48 -29.5t49.5 -7.5q27 0 52 8t52 30t47.5 57.5t33.5 96
t13 139.5v536h259v-1044v-58z" />
    <glyph glyph-name="Amacron" unicode="&#x100;" horiz-adv-x="1421" 
d="M334 1813h772v-127h-772v127zM700 1124l-174 -503h347zM854 1456l523 -1456h-311l-136 382h-463l-136 -382h-311l523 1456h311z" />
    <glyph glyph-name="amacron" unicode="&#x101;" horiz-adv-x="1080" 
d="M150 1416h772v-127h-772v127zM535 524q-88 0 -145.5 -50.5t-57.5 -117.5t57 -116t146 -49q88 0 140 48.5t52 116.5t-52 118t-140 50zM450 741q99 0 174 -50.5t95 -114.5v82q0 59 -16.5 103t-41.5 69.5t-59.5 41t-65 20.5t-64.5 5q-46 0 -90.5 -9.5t-65.5 -18t-60 -25.5
l-103 164q45 36 142 65t177 29q82 0 153.5 -15.5t137.5 -52.5t113 -92.5t74.5 -140.5t27.5 -192v-304v-305h-257v136q-21 -64 -94.5 -114.5t-172.5 -50.5q-153 0 -258.5 111t-105.5 276t105 274t255 109z" />
    <glyph glyph-name="Abreve" unicode="&#x102;" horiz-adv-x="1421" 
d="M793 1768q47 34 127 174h157q1 -10 1 -31q0 -117 -70 -235q-40 -68 -123 -115q-78 -45 -158 -45t-158 45q-83 47 -123 115q-70 118 -70 235q0 21 1 31h161q56 -129 122 -173q22 -15 71 -17q42 2 62 16zM700 1124l-174 -503h347zM854 1456l523 -1456h-311l-136 382h-463
l-136 -382h-311l523 1456h311z" />
    <glyph glyph-name="abreve" unicode="&#x103;" horiz-adv-x="1080" 
d="M607 1418q47 34 127 174h157q1 -10 1 -31q0 -117 -70 -235q-40 -68 -123 -115q-78 -45 -158 -45t-158 45q-83 47 -123 115q-70 118 -70 235q0 21 1 31h161q56 -129 122 -173q22 -15 71 -17q42 2 62 16zM535 524q-88 0 -145.5 -50.5t-57.5 -117.5t57 -116t146 -49
q88 0 140 48.5t52 116.5t-52 118t-140 50zM450 741q99 0 174 -50.5t95 -114.5v82q0 59 -16.5 103t-41.5 69.5t-59.5 41t-65 20.5t-64.5 5q-46 0 -90.5 -9.5t-65.5 -18t-60 -25.5l-103 164q45 36 142 65t177 29q82 0 153.5 -15.5t137.5 -52.5t113 -92.5t74.5 -140.5
t27.5 -192v-304v-305h-257v136q-21 -64 -94.5 -114.5t-172.5 -50.5q-153 0 -258.5 111t-105.5 276t105 274t255 109z" />
    <glyph glyph-name="Aogonek" unicode="&#x104;" horiz-adv-x="1421" 
d="M1398 -217l-113 -127q-14 6 -49 26l-54 30q-25 14 -52 36q-34 28 -46 41q-20 22 -32 47q-12 26 -12 52q0 111 108 207l162 -90q-18 -20 -30 -43q-10 -21 -12 -34q-1 -8 -1 -34q0 -14 15 -31q18 -20 34 -31q20 -14 42 -27q26 -16 40 -22zM676 1124l-174 -503h347z
M830 1456l523 -1456h-311l-136 382h-463l-136 -382h-311l523 1456h311z" />
    <glyph glyph-name="aogonek" unicode="&#x105;" horiz-adv-x="1080" 
d="M1060 -217l-113 -127q-14 6 -49 26l-54 30q-25 14 -52 36q-34 28 -46 41q-20 22 -32 47q-12 26 -12 52q0 111 108 207l162 -90q-18 -20 -30 -43q-10 -21 -12 -34q-1 -8 -1 -34q0 -14 15 -31q18 -20 34 -31q20 -14 42 -27q26 -16 40 -22zM535 524q-88 0 -145.5 -50.5
t-57.5 -117.5t57 -116t146 -49q88 0 140 48.5t52 116.5t-52 118t-140 50zM450 741q99 0 174 -50.5t95 -114.5v82q0 59 -16.5 103t-41.5 69.5t-59.5 41t-65 20.5t-64.5 5q-46 0 -90.5 -9.5t-65.5 -18t-60 -25.5l-103 164q45 36 142 65t177 29q82 0 153.5 -15.5t137.5 -52.5
t113 -92.5t74.5 -140.5t27.5 -192v-304v-305h-257v136q-21 -64 -94.5 -114.5t-172.5 -50.5q-153 0 -258.5 111t-105.5 276t105 274t255 109z" />
    <glyph glyph-name="Cacute" unicode="&#x106;" horiz-adv-x="1310" 
d="M695 1533q-7 -5 -13 -5q-2 0 -10 2q-18 5 -36 20q-19 16 -31 31t-21 45q-6 20 -6 34q0 5 2 15q2 8 8 13l282 247q11 10 29 10q9 0 19 -3q23 -6 43 -21q19 -14 35 -33q17 -20 24 -52q4 -16 4 -34q0 -14 -3 -26q-5 -20 -18 -30zM1002 969q-14 67 -50 127.5t-99 104.5
t-138 44q-74 0 -132 -30.5t-95 -80.5t-61 -119t-34 -140t-10 -149q0 -77 10 -147.5t34 -138.5t61 -118t95.5 -80.5t131.5 -30.5q110 0 187 83t100 189h294q-9 -71 -38 -142.5t-79.5 -138t-117 -118t-156.5 -82.5t-190 -31q-130 0 -236 46.5t-175 122t-116 175.5t-67.5 203
t-20.5 208q0 107 20.5 210.5t67.5 204t116 176t175 122t236 46.5q101 0 191 -31.5t156 -83.5t117 -119.5t80 -139t38 -142.5h-295z" />
    <glyph glyph-name="cacute" unicode="&#x107;" horiz-adv-x="1047" 
d="M579 1183q-7 -5 -13 -5q-2 0 -10 2q-18 5 -36 20q-19 16 -31 31t-21 45q-6 20 -6 34q0 5 2 15q2 8 8 13l282 247q11 10 29 10q9 0 19 -3q23 -6 43 -21q19 -14 35 -33q17 -20 24 -52q4 -16 4 -34q0 -14 -3 -26q-5 -20 -18 -30zM766 756q-65 114 -180 114
q-99 0 -168.5 -95.5t-69.5 -242.5q0 -146 74.5 -237.5t183.5 -91.5q20 0 36.5 3t28.5 6.5t24 12.5l18 13.5t15 18l12 18t11.5 21t10.5 19.5l214 -111q-59 -98 -155 -165.5t-215 -67.5q-239 0 -379.5 153t-140.5 408q0 252 141 410t359 158q116 0 225.5 -63.5t167.5 -168.5z
" />
    <glyph glyph-name="Ccircumflex" unicode="&#x108;" horiz-adv-x="1310" 
d="M1121 1562h-271l-132 161l-124 -158h-277l284 341h236zM1002 969q-14 67 -50 127.5t-99 104.5t-138 44q-74 0 -132 -30.5t-95 -80.5t-61 -119t-34 -140t-10 -149q0 -77 10 -147.5t34 -138.5t61 -118t95.5 -80.5t131.5 -30.5q110 0 187 83t100 189h294q-9 -71 -38 -142.5
t-79.5 -138t-117 -118t-156.5 -82.5t-190 -31q-130 0 -236 46.5t-175 122t-116 175.5t-67.5 203t-20.5 208q0 107 20.5 210.5t67.5 204t116 176t175 122t236 46.5q101 0 191 -31.5t156 -83.5t117 -119.5t80 -139t38 -142.5h-295z" />
    <glyph glyph-name="ccircumflex" unicode="&#x109;" horiz-adv-x="1047" 
d="M979 1144h-271l-132 161l-124 -158h-277l284 341h236zM766 756q-65 114 -180 114q-99 0 -168.5 -95.5t-69.5 -242.5q0 -146 74.5 -237.5t183.5 -91.5q20 0 36.5 3t28.5 6.5t24 12.5l18 13.5t15 18l12 18t11.5 21t10.5 19.5l214 -111q-59 -98 -155 -165.5t-215 -67.5
q-239 0 -379.5 153t-140.5 408q0 252 141 410t359 158q116 0 225.5 -63.5t167.5 -168.5z" />
    <glyph glyph-name="Cdotaccent" unicode="&#x10a;" horiz-adv-x="1310" 
d="M559 1706q0 68 48 116t116 48t116 -48t48 -116t-48 -116t-116 -48q-67 0 -116 49q-48 48 -48 115zM1002 969q-14 67 -50 127.5t-99 104.5t-138 44q-74 0 -132 -30.5t-95 -80.5t-61 -119t-34 -140t-10 -149q0 -77 10 -147.5t34 -138.5t61 -118t95.5 -80.5t131.5 -30.5
q110 0 187 83t100 189h294q-9 -71 -38 -142.5t-79.5 -138t-117 -118t-156.5 -82.5t-190 -31q-130 0 -236 46.5t-175 122t-116 175.5t-67.5 203t-20.5 208q0 107 20.5 210.5t67.5 204t116 176t175 122t236 46.5q101 0 191 -31.5t156 -83.5t117 -119.5t80 -139t38 -142.5h-295
z" />
    <glyph glyph-name="cdotaccent" unicode="&#x10b;" horiz-adv-x="1047" 
d="M400 1349q0 68 48 116t116 48t116 -48t48 -116t-48 -116t-116 -48q-67 0 -116 49q-48 48 -48 115zM766 756q-65 114 -180 114q-99 0 -168.5 -95.5t-69.5 -242.5q0 -146 74.5 -237.5t183.5 -91.5q20 0 36.5 3t28.5 6.5t24 12.5l18 13.5t15 18l12 18t11.5 21t10.5 19.5
l214 -111q-59 -98 -155 -165.5t-215 -67.5q-239 0 -379.5 153t-140.5 408q0 252 141 410t359 158q116 0 225.5 -63.5t167.5 -168.5z" />
    <glyph glyph-name="Ccaron" unicode="&#x10c;" horiz-adv-x="1310" 
d="M1121 1906l-284 -344h-236l-284 341h277l124 -158l132 161h271zM1002 969q-14 67 -50 127.5t-99 104.5t-138 44q-74 0 -132 -30.5t-95 -80.5t-61 -119t-34 -140t-10 -149q0 -77 10 -147.5t34 -138.5t61 -118t95.5 -80.5t131.5 -30.5q110 0 187 83t100 189h294
q-9 -71 -38 -142.5t-79.5 -138t-117 -118t-156.5 -82.5t-190 -31q-130 0 -236 46.5t-175 122t-116 175.5t-67.5 203t-20.5 208q0 107 20.5 210.5t67.5 204t116 176t175 122t236 46.5q101 0 191 -31.5t156 -83.5t117 -119.5t80 -139t38 -142.5h-295z" />
    <glyph glyph-name="ccaron" unicode="&#x10d;" horiz-adv-x="1047" 
d="M997 1488l-284 -344h-236l-284 341h277l124 -158l132 161h271zM766 756q-65 114 -180 114q-99 0 -168.5 -95.5t-69.5 -242.5q0 -146 74.5 -237.5t183.5 -91.5q20 0 36.5 3t28.5 6.5t24 12.5l18 13.5t15 18l12 18t11.5 21t10.5 19.5l214 -111q-59 -98 -155 -165.5
t-215 -67.5q-239 0 -379.5 153t-140.5 408q0 252 141 410t359 158q116 0 225.5 -63.5t167.5 -168.5z" />
    <glyph glyph-name="Dcaron" unicode="&#x10e;" horiz-adv-x="1273" 
d="M1007 1906l-284 -344h-236l-284 341h277l124 -158l132 161h271zM913 752q0 204 -107 334.5t-284 130.5h-139v-977h139q179 0 285 139.5t106 372.5zM1196 752q0 -213 -77 -384.5t-217.5 -269.5t-319.5 -98h-467v1456h467q181 0 322 -95t216.5 -255t75.5 -354z" />
    <glyph glyph-name="dcaron" unicode="&#x10f;" horiz-adv-x="1348" 
d="M760 0v157q-52 -82 -136.5 -133.5t-170.5 -51.5q-95 0 -169 44.5t-119 122t-68 177t-23 216.5t22.5 217.5t67.5 180t119 125t170 45.5q87 0 171 -50.5t136 -132.5v537h258v-1454h-258zM334 537q0 -80 19.5 -145.5t51.5 -104.5t68.5 -60t72.5 -21q39 0 76 16.5t71 52.5
t54.5 103.5t20.5 158.5q0 90 -20.5 157.5t-54.5 103t-71 52t-76 16.5t-74.5 -17.5t-67.5 -54.5t-51 -103t-19 -154zM1302 1385q0 -47 -15 -93q-15 -48 -36 -83q-20 -34 -41 -60q-22 -27 -33 -37l-52 34q6 11 19 48q12 33 12 50q0 6 -1 8q-33 9 -57 43q-24 35 -24 90
q0 49 33 89t78 40q55 0 86 -40t31 -89z" />
    <glyph glyph-name="Dcroat" unicode="&#x110;" horiz-adv-x="1480" 
d="M260 612h-125v239h125v605h436q148 0 272 -57q126 -58 210 -155q83 -97 132 -232q47 -131 47 -285q0 -149 -49 -285q-48 -134 -134 -232q-85 -97 -209 -154q-122 -56 -269 -56h-225h-211v612zM528 612v-369h168q172 0 283 135t111 349q0 213 -112 349q-111 135 -282 135
h-169v-360h247v-239h-246z" />
    <glyph glyph-name="dcroat" unicode="&#x111;" horiz-adv-x="1122" 
d="M334 537q0 -80 19.5 -145.5t51.5 -104.5t68.5 -60t72.5 -21q39 0 76 16.5t71 52.5t54.5 103.5t20.5 158.5q0 90 -20.5 157.5t-54.5 103t-71 52t-76 16.5t-74.5 -17.5t-67.5 -54.5t-51 -103t-19 -154zM760 0v157q-52 -82 -136.5 -133.5t-170.5 -51.5q-95 0 -169 44.5
t-119 122t-68 177t-23 216.5t22.5 217.5t67.5 180t119 125t170 45.5q87 0 171 -50.5t136 -132.5v223h-184v240h184v74h258v-74h68v-240h-68v-1140h-258z" />
    <glyph glyph-name="Emacron" unicode="&#x112;" horiz-adv-x="1211" 
d="M250 1813h772v-127h-772v127zM115 1456h982v-240h-714v-350h651v-240h-651v-386h714v-240h-982v1456z" />
    <glyph glyph-name="emacron" unicode="&#x113;" horiz-adv-x="1093" 
d="M187 1417h772v-127h-772v127zM363 651h413q-7 90 -62 153.5t-145 63.5q-89 0 -144.5 -64.5t-61.5 -152.5zM578 201q99 0 154 66l228 -98q-62 -94 -169 -146t-213 -52q-99 0 -189 43t-156.5 117t-105.5 180t-39 226q0 240 140 400.5t341 160.5q132 0 236.5 -72.5
t162.5 -200.5t58 -288v-68h-664q1 -65 17 -115.5t39 -78.5t53 -45.5t55.5 -23t51.5 -5.5z" />
    <glyph glyph-name="Ebreve" unicode="&#x114;" horiz-adv-x="1211" 
d="M653 1768q47 34 127 174h157q1 -10 1 -31q0 -117 -70 -235q-40 -68 -123 -115q-78 -45 -158 -45t-158 45q-83 47 -123 115q-70 118 -70 235q0 21 1 31h161q56 -129 122 -173q22 -15 71 -17q42 2 62 16zM115 1456h982v-240h-714v-350h651v-240h-651v-386h714v-240h-982
v1456z" />
    <glyph glyph-name="ebreve" unicode="&#x115;" horiz-adv-x="1093" 
d="M628 1418q47 34 127 174h157q1 -10 1 -31q0 -117 -70 -235q-40 -68 -123 -115q-78 -45 -158 -45t-158 45q-83 47 -123 115q-70 118 -70 235q0 21 1 31h161q56 -129 122 -173q22 -15 71 -17q42 2 62 16zM363 651h413q-7 90 -62 153.5t-145 63.5q-89 0 -144.5 -64.5
t-61.5 -152.5zM578 201q99 0 154 66l228 -98q-62 -94 -169 -146t-213 -52q-99 0 -189 43t-156.5 117t-105.5 180t-39 226q0 240 140 400.5t341 160.5q132 0 236.5 -72.5t162.5 -200.5t58 -288v-68h-664q1 -65 17 -115.5t39 -78.5t53 -45.5t55.5 -23t51.5 -5.5z" />
    <glyph glyph-name="Edotaccent" unicode="&#x116;" horiz-adv-x="1211" 
d="M500 1757q0 68 48 116t116 48t116 -48t48 -116t-48 -116t-116 -48q-67 0 -116 49q-48 48 -48 115zM115 1456h982v-240h-714v-350h651v-240h-651v-386h714v-240h-982v1456z" />
    <glyph glyph-name="edotaccent" unicode="&#x117;" horiz-adv-x="1093" 
d="M400 1352q0 68 48 116t116 48t116 -48t48 -116t-48 -116t-116 -48q-67 0 -116 49q-48 48 -48 115zM363 651h413q-7 90 -62 153.5t-145 63.5q-89 0 -144.5 -64.5t-61.5 -152.5zM578 201q99 0 154 66l228 -98q-62 -94 -169 -146t-213 -52q-99 0 -189 43t-156.5 117
t-105.5 180t-39 226q0 240 140 400.5t341 160.5q132 0 236.5 -72.5t162.5 -200.5t58 -288v-68h-664q1 -65 17 -115.5t39 -78.5t53 -45.5t55.5 -23t51.5 -5.5z" />
    <glyph glyph-name="Eogonek" unicode="&#x118;" horiz-adv-x="1211" 
d="M1101 -217l-113 -127q-14 6 -49 26l-54 30q-25 14 -52 36q-34 28 -46 41q-20 22 -32 47q-12 26 -12 52q0 111 108 207l162 -90q-18 -20 -30 -43q-10 -21 -12 -34q-1 -8 -1 -34q0 -14 15 -31q18 -20 34 -31q19 -14 42 -27q26 -16 40 -22zM115 1456h982v-240h-714v-350h651
v-240h-651v-386h714v-240h-982v1456z" />
    <glyph glyph-name="eogonek" unicode="&#x119;" horiz-adv-x="1093" 
d="M764 -217l-113 -127q-14 6 -49 26l-54 30q-25 14 -52 36q-34 28 -46 41q-20 22 -32 47t-12 52q0 111 108 207l162 -90q-18 -20 -30 -43q-10 -21 -12 -34q-1 -8 -1 -34q0 -14 15 -31q18 -20 34 -31q20 -14 42 -27q26 -16 40 -22zM363 651h413q-7 90 -62 153.5t-145 63.5
q-89 0 -144.5 -64.5t-61.5 -152.5zM578 201q99 0 154 66l228 -98q-62 -94 -169 -146t-213 -52q-99 0 -189 43t-156.5 117t-105.5 180t-39 226q0 240 140 400.5t341 160.5q132 0 236.5 -72.5t162.5 -200.5t58 -288v-68h-664q1 -65 17 -115.5t39 -78.5t53 -45.5t55.5 -23
t51.5 -5.5z" />
    <glyph glyph-name="Ecaron" unicode="&#x11a;" horiz-adv-x="1211" 
d="M1037 1906l-284 -344h-236l-284 341h277l124 -158l132 161h271zM115 1456h982v-240h-714v-350h651v-240h-651v-386h714v-240h-982v1456z" />
    <glyph glyph-name="ecaron" unicode="&#x11b;" horiz-adv-x="1093" 
d="M967 1489l-284 -344h-236l-284 341h277l124 -158l132 161h271zM363 651h413q-7 90 -62 153.5t-145 63.5q-89 0 -144.5 -64.5t-61.5 -152.5zM578 201q99 0 154 66l228 -98q-62 -94 -169 -146t-213 -52q-99 0 -189 43t-156.5 117t-105.5 180t-39 226q0 240 140 400.5
t341 160.5q132 0 236.5 -72.5t162.5 -200.5t58 -288v-68h-664q1 -65 17 -115.5t39 -78.5t53 -45.5t55.5 -23t51.5 -5.5z" />
    <glyph glyph-name="Gcircumflex" unicode="&#x11c;" horiz-adv-x="1421" 
d="M1121 1562h-271l-132 161l-124 -158h-277l284 341h236zM713 -27q-132 0 -239 47.5t-177 125t-118 181.5t-68.5 212.5t-20.5 222.5q0 106 20.5 207t68.5 197.5t118 169t178 117t240 44.5q154 0 281 -79.5t188 -217.5l-258 -86q-15 52 -88.5 97.5t-122.5 45.5
q-84 0 -152 -45t-108 -118t-61 -158.5t-21 -173.5q0 -99 21 -194t61 -176t107 -131t151 -50q71 0 125.5 24t86 60.5t51.5 86.5t27 94.5t7 90.5h-303v240h581v-146q0 -101 -17.5 -195t-60.5 -185t-107 -158.5t-164.5 -108.5t-225.5 -41z" />
    <glyph glyph-name="gcircumflex" unicode="&#x11d;" horiz-adv-x="1137" 
d="M980 1143h-271l-132 161l-124 -158h-277l284 341h236zM760 -70v227q-52 -82 -136.5 -133.5t-170.5 -51.5q-95 0 -169 44.5t-119 122t-68 177t-23 216.5t22.5 217.5t67.5 180t119 125t170 45.5q87 0 171 -50.5t136 -132.5v156h258v-1123q0 -81 -30 -154t-86.5 -131
t-147 -92t-202.5 -34q-89 0 -163.5 24t-124 61.5t-85 86.5t-53 96t-22.5 94q148 7 243 11q9 -67 59.5 -108t144.5 -41t151.5 44.5t57.5 122.5zM334 537q0 -80 19.5 -145.5t51.5 -104.5t68.5 -60t72.5 -21q39 0 76 16.5t71 52.5t54.5 103.5t20.5 158.5q0 90 -20.5 157.5
t-54.5 103t-71 52t-76 16.5t-74.5 -17.5t-67.5 -54.5t-51 -103t-19 -154z" />
    <glyph glyph-name="Gbreve" unicode="&#x11e;" horiz-adv-x="1421" 
d="M780 1768q47 34 127 174h157q1 -10 1 -31q0 -117 -70 -235q-40 -68 -123 -115q-78 -45 -158 -45t-158 45q-83 47 -123 115q-70 118 -70 235q0 21 1 31h161q56 -129 122 -173q22 -15 71 -17q42 2 62 16zM713 -27q-132 0 -239 47.5t-177 125t-118 181.5t-68.5 212.5
t-20.5 222.5q0 106 20.5 207t68.5 197.5t118 169t178 117t240 44.5q154 0 281 -79.5t188 -217.5l-258 -86q-15 52 -88.5 97.5t-122.5 45.5q-84 0 -152 -45t-108 -118t-61 -158.5t-21 -173.5q0 -99 21 -194t61 -176t107 -131t151 -50q71 0 125.5 24t86 60.5t51.5 86.5
t27 94.5t7 90.5h-303v240h581v-146q0 -101 -17.5 -195t-60.5 -185t-107 -158.5t-164.5 -108.5t-225.5 -41z" />
    <glyph glyph-name="gbreve" unicode="&#x11f;" horiz-adv-x="1137" 
d="M545 1421q47 34 127 174h157q1 -10 1 -31q0 -117 -70 -235q-40 -68 -123 -115q-78 -45 -158 -45t-158 45q-83 47 -123 115q-70 118 -70 235q0 21 1 31h161q56 -129 122 -173q22 -15 71 -17q42 2 62 16zM760 -70v227q-52 -82 -136.5 -133.5t-170.5 -51.5q-95 0 -169 44.5
t-119 122t-68 177t-23 216.5t22.5 217.5t67.5 180t119 125t170 45.5q87 0 171 -50.5t136 -132.5v156h258v-1123q0 -81 -30 -154t-86.5 -131t-147 -92t-202.5 -34q-89 0 -163.5 24t-124 61.5t-85 86.5t-53 96t-22.5 94q148 7 243 11q9 -67 59.5 -108t144.5 -41t151.5 44.5
t57.5 122.5zM334 537q0 -80 19.5 -145.5t51.5 -104.5t68.5 -60t72.5 -21q39 0 76 16.5t71 52.5t54.5 103.5t20.5 158.5q0 90 -20.5 157.5t-54.5 103t-71 52t-76 16.5t-74.5 -17.5t-67.5 -54.5t-51 -103t-19 -154z" />
    <glyph glyph-name="Gdotaccent" unicode="&#x120;" horiz-adv-x="1421" 
d="M548 1757q0 68 48 116t116 48t116 -48t48 -116t-48 -116t-116 -48q-67 0 -116 49q-48 48 -48 115zM713 -27q-132 0 -239 47.5t-177 125t-118 181.5t-68.5 212.5t-20.5 222.5q0 106 20.5 207t68.5 197.5t118 169t178 117t240 44.5q154 0 281 -79.5t188 -217.5l-258 -86
q-15 52 -88.5 97.5t-122.5 45.5q-84 0 -152 -45t-108 -118t-61 -158.5t-21 -173.5q0 -99 21 -194t61 -176t107 -131t151 -50q71 0 125.5 24t86 60.5t51.5 86.5t27 94.5t7 90.5h-303v240h581v-146q0 -101 -17.5 -195t-60.5 -185t-107 -158.5t-164.5 -108.5t-225.5 -41z" />
    <glyph glyph-name="gdotaccent" unicode="&#x121;" horiz-adv-x="1137" 
d="M388 1353q0 68 48 116t116 48t116 -48t48 -116t-48 -116t-116 -48q-67 0 -116 49q-48 48 -48 115zM760 -70v227q-52 -82 -136.5 -133.5t-170.5 -51.5q-95 0 -169 44.5t-119 122t-68 177t-23 216.5t22.5 217.5t67.5 180t119 125t170 45.5q87 0 171 -50.5t136 -132.5v156
h258v-1123q0 -81 -30 -154t-86.5 -131t-147 -92t-202.5 -34q-89 0 -163.5 24t-124 61.5t-85 86.5t-53 96t-22.5 94q148 7 243 11q9 -67 59.5 -108t144.5 -41t151.5 44.5t57.5 122.5zM334 537q0 -80 19.5 -145.5t51.5 -104.5t68.5 -60t72.5 -21q39 0 76 16.5t71 52.5
t54.5 103.5t20.5 158.5q0 90 -20.5 157.5t-54.5 103t-71 52t-76 16.5t-74.5 -17.5t-67.5 -54.5t-51 -103t-19 -154z" />
    <glyph glyph-name="Gcommaaccent" unicode="&#x122;" horiz-adv-x="1421" 
d="M713 -27q-132 0 -239 47.5t-177 125t-118 181.5t-68.5 212.5t-20.5 222.5q0 106 20.5 207t68.5 197.5t118 169t178 117t240 44.5q154 0 281 -79.5t188 -217.5l-258 -86q-15 52 -88.5 97.5t-122.5 45.5q-84 0 -152 -45t-108 -118t-61 -158.5t-21 -173.5q0 -99 21 -194
t61 -176t107 -131t151 -50q71 0 125.5 24t86 60.5t51.5 86.5t27 94.5t7 90.5h-303v240h581v-146q0 -101 -17.5 -195t-60.5 -185t-107 -158.5t-164.5 -108.5t-225.5 -41z" />
    <glyph glyph-name="gcommaaccent" unicode="&#x123;" horiz-adv-x="1137" 
d="M760 -70v227q-52 -82 -136.5 -133.5t-170.5 -51.5q-95 0 -169 44.5t-119 122t-68 177t-23 216.5t22.5 217.5t67.5 180t119 125t170 45.5q87 0 171 -50.5t136 -132.5v156h258v-1123q0 -81 -30 -154t-86.5 -131t-147 -92t-202.5 -34q-89 0 -163.5 24t-124 61.5t-85 86.5
t-53 96t-22.5 94q148 7 243 11q9 -67 59.5 -108t144.5 -41t151.5 44.5t57.5 122.5zM334 537q0 -80 19.5 -145.5t51.5 -104.5t68.5 -60t72.5 -21q39 0 76 16.5t71 52.5t54.5 103.5t20.5 158.5q0 90 -20.5 157.5t-54.5 103t-71 52t-76 16.5t-74.5 -17.5t-67.5 -54.5t-51 -103
t-19 -154z" />
    <glyph glyph-name="Hcircumflex" unicode="&#x124;" horiz-adv-x="1253" 
d="M1025 1562h-271l-132 161l-124 -158h-277l284 341h236zM115 1456h268v-592h485v592h270v-1456h-270v624h-485v-624h-268v1456z" />
    <glyph glyph-name="hcircumflex" unicode="&#x125;" horiz-adv-x="1121" 
d="M1012 1562h-271l-132 161l-124 -158h-277l284 341h236zM377 0h-258v1454h258v-542q45 82 132.5 136t190.5 54q55 0 109.5 -28.5t101 -81t75 -137.5t28.5 -187v-668h-258v537q0 100 -12.5 167t-37.5 101.5t-55.5 48t-74.5 13.5q-35 0 -62.5 -8t-54 -30t-44 -58t-28 -95.5
t-10.5 -139.5v-536z" />
    <glyph glyph-name="Hbar" unicode="&#x126;" horiz-adv-x="1253" 
d="M115 1456h268v-142h485v142h270v-142h71v-240h-71v-1074h-270v624h-485v-624h-268v1074h-71v240h71v142zM868 1074h-485v-210h485v210z" />
    <glyph glyph-name="hbar" unicode="&#x127;" horiz-adv-x="1121" 
d="M377 0h-258v1160h-79v240h79v54h258v-54h247v-240h-247v-248q45 82 132.5 136t190.5 54q55 0 109.5 -28.5t101 -81t75 -137.5t28.5 -187v-668h-258v537q0 100 -12.5 167t-37.5 101.5t-55.5 48t-74.5 13.5q-35 0 -62.5 -8t-54 -30t-44 -58t-28 -95.5t-10.5 -139.5v-536z
" />
    <glyph glyph-name="Itilde" unicode="&#x128;" horiz-adv-x="555" 
d="M-46 1810q11 8 28 24t34 29q4 3 35 23q22 14 43 20q25 7 43 7q27 0 56 -15q30 -16 55 -38q13 -11 25 -23t25 -23q26 -23 56 -38t59 -15q32 0 71 21q33 18 54 37q36 33 53 49v-260q-3 -3 -31 -26q-15 -12 -42 -32q-17 -12 -46 -24q-30 -12 -59 -12q-39 0 -81 24
q-41 23 -71 52q-27 25 -65 52q-35 24 -62 24q-29 0 -53 -10q-30 -12 -41 -20q-8 -6 -44 -34l-42 -33v241zM143 0v1456h268v-1456h-268z" />
    <glyph glyph-name="itilde" unicode="&#x129;" horiz-adv-x="534" 
d="M139 1073h258v-1073h-258v1073zM-62 1492q11 8 28 24t34 29q4 3 35 23q22 14 43 20q24 7 43 7q27 0 56 -15q30 -16 55 -38q13 -11 25 -23t25 -23q26 -23 56 -38t59 -15q32 0 71 21q33 18 54 37q36 33 53 49v-260q-3 -3 -31 -26q-15 -12 -42 -32q-17 -12 -46 -24
q-30 -12 -59 -12q-39 0 -81 24q-41 23 -71 52q-27 25 -65 52q-35 24 -62 24q-29 0 -53 -10q-30 -12 -41 -20q-8 -6 -44 -34l-42 -33v241z" />
    <glyph glyph-name="Imacron" unicode="&#x12a;" horiz-adv-x="555" 
d="M-106 1813h772v-127h-772v127zM143 0v1456h268v-1456h-268z" />
    <glyph glyph-name="imacron" unicode="&#x12b;" horiz-adv-x="534" 
d="M139 1073h258v-1073h-258v1073zM-119 1414h772v-127h-772v127z" />
    <glyph glyph-name="Ibreve" unicode="&#x12c;" horiz-adv-x="555" 
d="M340 1768q47 34 127 174h157q1 -10 1 -31q0 -117 -70 -235q-40 -68 -123 -115q-78 -45 -158 -45t-158 45q-83 47 -123 115q-70 118 -70 235q0 21 1 31h161q56 -129 122 -173q22 -15 71 -17q42 2 62 16zM143 0v1456h268v-1456h-268z" />
    <glyph glyph-name="ibreve" unicode="&#x12d;" horiz-adv-x="534" 
d="M139 1073h258v-1073h-258v1073zM341 1380q47 34 127 174h157q1 -10 1 -31q0 -117 -70 -235q-40 -68 -123 -115q-78 -45 -158 -45t-158 45q-83 47 -123 115q-70 118 -70 235q0 21 1 31h161q56 -129 122 -173q22 -15 71 -17q42 2 62 16z" />
    <glyph glyph-name="Iogonek" unicode="&#x12e;" horiz-adv-x="555" 
d="M495 -217l-113 -127q-14 6 -49 26l-54 30q-25 14 -52 36q-34 28 -46 41q-20 22 -32 47q-12 26 -12 52q0 111 108 207l162 -90q-18 -20 -30 -43q-10 -21 -12 -34q-1 -8 -1 -34q0 -14 15 -31q18 -20 34 -31q19 -14 42 -27q26 -16 40 -22zM143 0v1456h268v-1456h-268z" />
    <glyph glyph-name="iogonek" unicode="&#x12f;" horiz-adv-x="534" 
d="M478 -217l-113 -127q-14 6 -49 26l-54 30q-25 14 -52 36q-34 28 -46 41q-20 22 -32 47q-12 26 -12 52q0 111 108 207l162 -90q-18 -20 -30 -43q-10 -21 -12 -34q-1 -8 -1 -34q0 -14 15 -31q18 -20 34 -31q20 -14 42 -27q26 -16 40 -22zM121 1334q0 65 43.5 112.5
t103.5 47.5t103.5 -47.5t43.5 -112.5t-43.5 -112.5t-103.5 -47.5t-103.5 47.5t-43.5 112.5zM139 1073h258v-1073h-258v1073z" />
    <glyph glyph-name="Idotaccent" unicode="&#x130;" horiz-adv-x="555" 
d="M114 1757q0 68 48 116t116 48t116 -48t48 -116t-48 -116t-116 -48q-67 0 -116 49q-48 48 -48 115zM143 0v1456h268v-1456h-268z" />
    <glyph glyph-name="dotlessi" unicode="&#x131;" horiz-adv-x="534" 
d="M139 1073h258v-1073h-258v1073z" />
    <glyph glyph-name="Jcircumflex" unicode="&#x134;" horiz-adv-x="1251" 
d="M1391 1558h-271l-132 161l-124 -158h-277l284 341h236zM102 586h268q0 -381 246 -381q69 0 119 33t76 90t37.5 120.5t11.5 137.5v870h268v-870q0 -185 -56 -323t-173 -218t-283 -80q-105 0 -190.5 31t-145 86.5t-100 133.5t-59.5 170.5t-19 199.5z" />
    <glyph glyph-name="jcircumflex" unicode="&#x135;" horiz-adv-x="534" 
d="M-236 -333l169 172q12 -17 38 -29q28 -13 52 -13q51 0 83 31q33 32 33 80v1165h258v-1108q0 -101 -55 -193t-146 -148t-184 -56q-82 0 -140 20q-54 18 -108 79zM669 1146h-271l-132 161l-124 -158h-277l284 341h236z" />
    <glyph glyph-name="Kcommaaccent" unicode="&#x136;" horiz-adv-x="1333" 
d="M115 1456h268v-623l543 623h335l-556 -648l585 -808h-336l-454 628l-117 -132v-496h-268v1456z" />
    <glyph glyph-name="kcommaaccent" unicode="&#x137;" horiz-adv-x="999" 
d="M578 597l418 -597h-294l-311 467l-14 -23v-444h-258v1454h258v-738l281 357h315z" />
    <glyph glyph-name="kgreenlandic" unicode="&#x138;" horiz-adv-x="1029" 
d="M291 414v-415h-268v1075h268v-402l400 401h335l-507 -524l502 -549h-336z" />
    <glyph glyph-name="Lacute" unicode="&#x139;" horiz-adv-x="1220" 
d="M499 1533q-7 -5 -13 -5q-2 0 -10 2q-18 5 -36 20q-19 16 -31 31t-21 45q-6 20 -6 34q0 5 2 15q2 8 8 13l282 247q11 10 29 10q9 0 19 -3q23 -6 43 -21q19 -14 35 -33q17 -20 24 -52q4 -16 4 -34q0 -14 -3 -26q-5 -20 -18 -30zM115 1456h268v-1216h716v-240h-984v1456z
" />
    <glyph glyph-name="lacute" unicode="&#x13a;" horiz-adv-x="561" 
d="M256 1533q-7 -5 -13 -5q-2 0 -10 2q-18 5 -36 20q-19 16 -31 31t-21 45q-6 20 -6 34q0 5 2 15q2 8 8 13l282 247q11 10 29 10q9 0 19 -3q23 -6 43 -21q19 -14 35 -33q17 -20 24 -52q4 -16 4 -34q0 -14 -3 -26q-4 -20 -18 -30zM397 281q0 -87 93 -87v-223q-185 0 -268 67
t-83 238v1178h258v-1173z" />
    <glyph glyph-name="Lcommaaccent" unicode="&#x13b;" horiz-adv-x="1220" 
d="M402 -238q3 1 16 8.5t18.5 11t18.5 11t20 12.5t17.5 13t16.5 14t12.5 13t9 14t2.5 14q0 22 -1.5 34.5t-11.5 34t-30 42.5l162 90q108 -96 108 -207q0 -30 -17 -60t-36 -50t-59 -46.5t-57.5 -36t-60.5 -31.5q-10 -5 -15 -8zM115 1456h268v-1216h716v-240h-984v1456z" />
    <glyph glyph-name="lcommaaccent" unicode="&#x13c;" horiz-adv-x="561" 
d="M92 -238q3 1 16 8.5t18.5 11t18.5 11t20 12.5t17.5 13t16.5 14t12.5 13t9 14t2.5 14q0 22 -1.5 34.5t-11.5 34t-30 42.5l162 90q108 -96 108 -207q0 -30 -17 -60t-36 -50t-59 -46.5t-57.5 -36t-60.5 -31.5q-3 -2 -5 -3l-5 -2.5l-5 -2.5zM397 281q0 -87 93 -87v-223
q-185 0 -268 67t-83 238v1178h258v-1173z" />
    <glyph glyph-name="Lcaron" unicode="&#x13d;" horiz-adv-x="1220" 
d="M723 1385q0 -47 -15 -93q-15 -48 -36 -83q-20 -34 -41 -60q-22 -27 -33 -37l-52 34q6 11 19 48q12 33 12 50q0 6 -1 8q-33 9 -57 43q-24 35 -24 90q0 49 33 89t78 40q55 0 86 -40t31 -89zM115 1456h268v-1216h716v-240h-984v1456z" />
    <glyph glyph-name="lcaron" unicode="&#x13e;" horiz-adv-x="772" 
d="M723 1385q0 -47 -15 -93q-15 -48 -36 -83q-20 -34 -41 -60q-22 -27 -33 -37l-52 34q6 11 19 48q12 33 12 50q0 6 -1 8q-33 9 -57 43q-24 35 -24 90q0 49 33 89t78 40q55 0 86 -40t31 -89zM397 281q0 -87 93 -87v-223q-185 0 -268 67t-83 238v1178h258v-1173z" />
    <glyph glyph-name="Ldot" unicode="&#x13f;" horiz-adv-x="1220" 
d="M600 766q0 68 48 116t116 48t116 -48t48 -116t-48 -116t-116 -48t-116 48t-48 116zM115 1456h268v-1216h716v-240h-984v1456z" />
    <glyph glyph-name="ldot" unicode="&#x140;" horiz-adv-x="819" 
d="M483 766q0 68 48 116t116 48t116 -48t48 -116t-48 -116t-116 -48q-67 0 -115.5 48t-48.5 116zM397 281q0 -87 93 -87v-223q-185 0 -268 67t-83 238v1178h258v-1173z" />
    <glyph glyph-name="Lslash" unicode="&#x141;" horiz-adv-x="1220" 
d="M0 400v230l115 100v726h268v-491l258 225l-1 -234l-257 -223v-493h766v-240h-1034v500z" />
    <glyph glyph-name="lslash" unicode="&#x142;" horiz-adv-x="561" 
d="M0 400v230l139 121v703h258v-477l111 97l-1 -234l-110 -95v-464q0 -87 93 -87v-223q-186 0 -268 67q-83 68 -83 238v245z" />
    <glyph glyph-name="Nacute" unicode="&#x143;" horiz-adv-x="1343" 
d="M590 1533q-7 -5 -13 -5q-2 0 -10 2q-18 5 -36 20q-19 16 -31 31t-21 45q-6 20 -6 34q0 5 2 15q2 8 8 13l282 247q11 10 29 10q8 0 19 -3q23 -6 43 -21q19 -14 35 -33q17 -20 24 -52q4 -16 4 -34q0 -14 -3 -26q-4 -20 -18 -30zM115 0v1456h260l573 -940v940h268v-1456
h-264l-569 973v-973h-268z" />
    <glyph glyph-name="nacute" unicode="&#x144;" horiz-adv-x="1121" 
d="M523 1185q-7 -5 -13 -5q-2 0 -10 2q-18 5 -36 20q-19 16 -31 31t-21 45q-6 20 -6 34q0 5 2 15q2 8 8 13l282 247q11 10 29 10q9 0 19 -3q23 -6 43 -21q19 -14 35 -33q17 -20 24 -52q4 -16 4 -34q0 -14 -3 -26q-5 -20 -18 -30zM377 0h-258v1074h258v-162q45 82 132.5 136
t190.5 54q55 0 109.5 -28.5t101 -81t75 -137.5t28.5 -187v-668h-258v537q0 100 -12.5 167t-37.5 101.5t-55.5 48t-74.5 13.5q-35 0 -62.5 -8t-54 -30t-44 -58t-28 -95.5t-10.5 -139.5v-536z" />
    <glyph glyph-name="Ncommaaccent" unicode="&#x145;" horiz-adv-x="1343" 
d="M115 0v1456h260l573 -940v940h268v-1456h-264l-569 973v-973h-268z" />
    <glyph glyph-name="ncommaaccent" unicode="&#x146;" horiz-adv-x="1121" 
d="M377 0h-258v1074h258v-162q45 82 132.5 136t190.5 54q55 0 109.5 -28.5t101 -81t75 -137.5t28.5 -187v-668h-258v537q0 100 -12.5 167t-37.5 101.5t-55.5 48t-74.5 13.5q-35 0 -62.5 -8t-54 -30t-44 -58t-28 -95.5t-10.5 -139.5v-536z" />
    <glyph glyph-name="Ncaron" unicode="&#x147;" horiz-adv-x="1343" 
d="M1121 1906l-284 -344h-236l-284 341h277l124 -158l132 161h271zM115 0v1456h260l573 -940v940h268v-1456h-264l-569 973v-973h-268z" />
    <glyph glyph-name="ncaron" unicode="&#x148;" horiz-adv-x="1121" 
d="M965 1489l-284 -344h-236l-284 341h277l124 -158l132 161h271zM377 0h-258v1074h258v-162q45 82 132.5 136t190.5 54q55 0 109.5 -28.5t101 -81t75 -137.5t28.5 -187v-668h-258v537q0 100 -12.5 167t-37.5 101.5t-55.5 48t-74.5 13.5q-35 0 -62.5 -8t-54 -30t-44 -58
t-28 -95.5t-10.5 -139.5v-536z" />
    <glyph glyph-name="napostrophe" unicode="&#x149;" horiz-adv-x="1394" 
d="M392 1329q0 -57 -21 -116t-52 -104t-58 -75t-48 -47l-74 43q11 18 28 59t17 63q0 5 -2 11q-47 11 -81.5 53.5t-34.5 112.5q0 60 48 110.5t111 50.5q79 0 123 -50.5t44 -110.5zM650 0h-258v1074h258v-162q45 82 132.5 136t190.5 54q55 0 109.5 -28.5t101 -81t75 -137.5
t28.5 -187v-668h-258v537q0 100 -12.5 167t-37.5 101.5t-55.5 48t-74.5 13.5q-35 0 -62.5 -8t-54 -30t-44 -58t-28 -95.5t-10.5 -139.5v-536z" />
    <glyph glyph-name="Eng" unicode="&#x14a;" horiz-adv-x="1344" 
d="M589 99l169 172q12 -17 38 -29q28 -13 52 -13q51 0 83 31q33 32 33 80v92h-3v486q0 82 -9 140q-10 63 -23 95q-15 36 -39 57q-27 24 -48 30q-27 8 -61 8q-128 0 -217 -46q-86 -45 -176 -146q-11 -13 -11 -139v-917h-258v1455h258v-162q194 109 262 138q123 52 266 52
q54 0 109 -29q58 -31 102 -80q45 -51 74 -138q29 -84 29 -187l3 -652q0 -99 -56 -193t-144 -148q-91 -56 -185 -56q-81 0 -139 20q-55 19 -109 79z" />
    <glyph glyph-name="eng" unicode="&#x14b;" horiz-adv-x="1121" 
d="M384 -333l169 172q12 -17 38 -29q28 -13 52 -13q51 0 83 31q33 32 33 80v92h-3v537q0 88 -8 140q-9 59 -24 95q-16 39 -38 58q-25 22 -50 29q-27 8 -60 8t-62 -8q-27 -7 -54 -30q-26 -21 -44 -58q-17 -35 -28 -95q-11 -63 -11 -140v-536h-258v1074h258v-162
q44 81 133 136q87 54 190 54q57 0 110 -28q51 -27 100 -82t76 -137q28 -84 28 -187l3 -703q0 -101 -55 -193t-146 -148t-184 -56q-82 0 -140 20q-54 18 -108 79z" />
    <glyph glyph-name="Omacron" unicode="&#x14c;" horiz-adv-x="1409" 
d="M322 1813h772v-127h-772v127zM1047 726q0 99 -16.5 186.5t-53 164.5t-104 122.5t-158.5 45.5q-74 0 -132 -30.5t-95 -80.5t-61 -119t-34 -140t-10 -149q0 -77 10 -147.5t34 -138.5t61 -118t95.5 -80.5t131.5 -30.5q74 0 132.5 30.5t95 80.5t60.5 118t34 138.5t10 147.5z
M100 726q0 107 20.5 210.5t67.5 204t116 176t175 122t236 46.5t236 -46.5t175 -122t116 -176t67 -204t20 -210.5q0 -106 -20 -208.5t-67 -202.5t-116 -175.5t-175 -122t-236 -46.5t-236 46.5t-175 122t-116 175.5t-67.5 203t-20.5 208z" />
    <glyph glyph-name="omacron" unicode="&#x14d;" horiz-adv-x="1105" 
d="M188 1416h772v-127h-772v127zM344 537q0 -331 222 -331t222 331q0 329 -222 329t-222 -329zM92 537q0 260 124 411.5t349 151.5t348 -151t123 -412t-123 -413.5t-348 -152.5q-226 0 -349.5 151t-123.5 415z" />
    <glyph glyph-name="Obreve" unicode="&#x14e;" horiz-adv-x="1409" 
d="M793 1768q47 34 127 174h157q1 -10 1 -31q0 -117 -70 -235q-40 -68 -123 -115q-78 -45 -158 -45t-158 45q-83 47 -123 115q-70 118 -70 235q0 21 1 31h161q56 -129 122 -173q22 -15 71 -17q42 2 62 16zM1047 726q0 99 -16.5 186.5t-53 164.5t-104 122.5t-158.5 45.5
q-74 0 -132 -30.5t-95 -80.5t-61 -119t-34 -140t-10 -149q0 -77 10 -147.5t34 -138.5t61 -118t95.5 -80.5t131.5 -30.5q74 0 132.5 30.5t95 80.5t60.5 118t34 138.5t10 147.5zM100 726q0 107 20.5 210.5t67.5 204t116 176t175 122t236 46.5t236 -46.5t175 -122t116 -176
t67 -204t20 -210.5q0 -106 -20 -208.5t-67 -202.5t-116 -175.5t-175 -122t-236 -46.5t-236 46.5t-175 122t-116 175.5t-67.5 203t-20.5 208z" />
    <glyph glyph-name="obreve" unicode="&#x14f;" horiz-adv-x="1105" 
d="M616 1420q47 34 127 174h157q1 -10 1 -31q0 -117 -70 -235q-40 -68 -123 -115q-78 -45 -158 -45t-158 45q-83 47 -123 115q-70 118 -70 235q0 21 1 31h161q56 -129 122 -173q22 -15 71 -17q42 2 62 16zM344 537q0 -331 222 -331t222 331q0 329 -222 329t-222 -329z
M92 537q0 260 124 411.5t349 151.5t348 -151t123 -412t-123 -413.5t-348 -152.5q-226 0 -349.5 151t-123.5 415z" />
    <glyph glyph-name="Ohungarumlaut" unicode="&#x150;" horiz-adv-x="1347" 
d="M959 1493q-7 -9 -22 -9q-19 0 -40 10q-20 9 -38 22q-14 10 -31 38t-17 47q0 9 4 14l209 312q13 19 44 19q19 0 47 -10q27 -9 42 -22q20 -13 37 -44t17 -58q0 -20 -10 -33zM570 1493q-8 -9 -22 -9q-19 0 -40 10q-20 9 -38 22q-15 11 -32 38q-16 26 -16 47q0 9 4 14
l209 312q13 19 44 19q19 0 47 -10q27 -9 42 -22q21 -14 38 -44q16 -29 16 -58q0 -20 -10 -33zM1047 726q0 99 -16.5 186.5t-53 164.5t-104 122.5t-158.5 45.5q-74 0 -132 -30.5t-95 -80.5t-61 -119t-34 -140t-10 -149q0 -77 10 -147.5t34 -138.5t61 -118t95.5 -80.5
t131.5 -30.5q74 0 132.5 30.5t95 80.5t60.5 118t34 138.5t10 147.5zM100 726q0 107 20.5 210.5t67.5 204t116 176t175 122t236 46.5t236 -46.5t175 -122t116 -176t67 -204t20 -210.5q0 -106 -20 -208.5t-67 -202.5t-116 -175.5t-175 -122t-236 -46.5t-236 46.5t-175 122
t-116 175.5t-67.5 203t-20.5 208z" />
    <glyph glyph-name="ohungarumlaut" unicode="&#x151;" horiz-adv-x="1153" 
d="M857 1157q-8 -9 -22 -9q-19 0 -40 10q-20 9 -38 22q-14 10 -31 38t-17 47q0 9 4 14l209 312q13 19 44 19q19 0 47 -10q27 -9 42 -22q20 -13 37 -44t17 -58q0 -20 -10 -33zM468 1157q-7 -9 -22 -9q-19 0 -40 10q-20 9 -38 22q-15 11 -32 38q-16 26 -16 47q0 9 4 14
l209 312q13 19 44 19q19 0 47 -10q27 -9 42 -22q21 -14 38 -44q16 -29 16 -58q0 -20 -10 -33zM344 537q0 -331 222 -331t222 331q0 329 -222 329t-222 -329zM92 537q0 260 124 411.5t349 151.5t348 -151t123 -412t-123 -413.5t-348 -152.5q-226 0 -349.5 151t-123.5 415z
" />
    <glyph glyph-name="OE" unicode="&#x152;" horiz-adv-x="1661" 
d="M823 0v7q-88 -36 -198 -36q-92 0 -169 31t-130 82t-94.5 120.5t-65.5 140.5t-39.5 149.5t-21 140.5t-5.5 119q0 56 5.5 115.5t21 133t39.5 140t65.5 131t94.5 111.5t130 75.5t169 28.5q111 0 198 -34l762 1v-239h-494v-98v-253h35h396v-239h-396h-35v-259v-128h494v-240
h-762zM823 1118q-47 131 -198 131q-52 0 -94 -27t-67 -73t-42.5 -97.5t-25 -112t-10.5 -102.5t-3 -83q0 -35 1.5 -71t7.5 -92t15.5 -104.5t28 -100.5t43 -89t62.5 -60.5t84 -23.5q151 0 198 146v759z" />
    <glyph glyph-name="oe" unicode="&#x153;" horiz-adv-x="1627" 
d="M953 651h333q-4 47 -12.5 82t-26.5 67.5t-50 50t-78 17.5q-45 0 -77.5 -18t-50 -50.5t-26.5 -68t-12 -80.5zM820 111q-113 -140 -295 -140q-136 0 -236 78.5t-148.5 205.5t-48.5 282t48.5 281t148.5 204t236 78q181 0 294 -137q119 135 300 135q130 0 225.5 -73.5
t143.5 -199t48 -288.5v-68h-584q6 -268 176 -268q41 0 61.5 13.5t52.5 52.5l228 -98q-64 -97 -152.5 -147.5t-189.5 -50.5q-184 0 -308 140zM344 537q0 -331 182 -331q134 0 163 196q9 58 9 135t-9 136q-29 193 -163 193q-182 0 -182 -329z" />
    <glyph glyph-name="Racute" unicode="&#x154;" horiz-adv-x="1210" 
d="M503 1533q-7 -5 -13 -5q-2 0 -10 2q-18 5 -36 20q-19 16 -31 31t-21 45q-6 20 -6 34q0 5 2 15q2 8 8 13l282 247q11 10 29 10q9 0 19 -3q23 -6 43 -21q19 -14 35 -33q17 -20 24 -52q4 -16 4 -34q0 -14 -3 -26q-5 -20 -18 -30zM383 824h71q79 0 131.5 3.5t102.5 15
t78.5 32.5t45.5 57t17 87t-17 87t-45.5 57.5t-78.5 33.5t-102.5 15.5t-131.5 3.5h-71v-392zM852 -1l-319 583q-26 -2 -59 -2q-17 0 -49 0.5t-42 0.5v-582h-268v1456h268q79 0 129.5 -1.5t134 -10t139 -24.5t121 -48.5t104.5 -77.5t65.5 -115t26.5 -159q0 -152 -76.5 -252.5
t-228.5 -140.5l360 -627h-306z" />
    <glyph glyph-name="racute" unicode="&#x155;" horiz-adv-x="858" 
d="M399 1183q-7 -5 -13 -5q-2 0 -10 2q-18 5 -36 20q-19 16 -31 31t-21 45q-6 20 -6 34q0 5 2 15q2 8 8 13l282 247q11 10 29 10q9 0 19 -3q23 -6 43 -21q19 -14 35 -33q17 -20 24 -52q4 -16 4 -34q0 -14 -3 -26q-5 -20 -18 -30zM736 807q-108 61 -156 61q-55 0 -96 -29
t-62.5 -77.5t-31.5 -100.5t-10 -108v-553h-258v1073h258v-161q42 80 115 135t134 55q50 0 105.5 -26.5t98.5 -67.5z" />
    <glyph glyph-name="Rcommaaccent" unicode="&#x156;" horiz-adv-x="1210" 
d="M402 -238q3 1 16 8.5t18.5 11t18.5 11t20 12.5t17.5 13t16.5 14t12.5 13t9 14t2.5 14q0 22 -1.5 34.5t-11.5 34t-30 42.5l162 90q108 -96 108 -207q0 -30 -17 -60t-36 -50t-59 -46.5t-57.5 -36t-60.5 -31.5q-10 -5 -15 -8zM383 824h71q79 0 131.5 3.5t102.5 15t78.5 32.5
t45.5 57t17 87t-17 87t-45.5 57.5t-78.5 33.5t-102.5 15.5t-131.5 3.5h-71v-392zM852 -1l-319 583q-26 -2 -59 -2q-17 0 -49 0.5t-42 0.5v-582h-268v1456h268q79 0 129.5 -1.5t134 -10t139 -24.5t121 -48.5t104.5 -77.5t65.5 -115t26.5 -159q0 -152 -76.5 -252.5
t-228.5 -140.5l360 -627h-306z" />
    <glyph glyph-name="rcommaaccent" unicode="&#x157;" horiz-adv-x="858" 
d="M122 -238q3 1 16 8.5t18.5 11t18.5 11t20 12.5t17.5 13t16.5 14t12.5 13t9 14t2.5 14q0 22 -1.5 34.5t-11.5 34t-30 42.5l162 90q108 -96 108 -207q0 -30 -17 -60t-36 -50t-59 -46.5t-57.5 -36t-60.5 -31.5q-3 -2 -5 -3l-5 -2.5l-5 -2.5zM736 807q-108 61 -156 61
q-55 0 -96 -29t-62.5 -77.5t-31.5 -100.5t-10 -108v-553h-258v1073h258v-161q42 80 115 135t134 55q50 0 105.5 -26.5t98.5 -67.5z" />
    <glyph glyph-name="Rcaron" unicode="&#x158;" horiz-adv-x="1210" 
d="M938 1902l-284 -344h-236l-284 341h277l124 -158l132 161h271zM383 824h71q79 0 131.5 3.5t102.5 15t78.5 32.5t45.5 57t17 87t-17 87t-45.5 57.5t-78.5 33.5t-102.5 15.5t-131.5 3.5h-71v-392zM852 -1l-319 583q-26 -2 -59 -2q-17 0 -49 0.5t-42 0.5v-582h-268v1456h268
q79 0 129.5 -1.5t134 -10t139 -24.5t121 -48.5t104.5 -77.5t65.5 -115t26.5 -159q0 -152 -76.5 -252.5t-228.5 -140.5l360 -627h-306z" />
    <glyph glyph-name="rcaron" unicode="&#x159;" horiz-adv-x="858" 
d="M881 1456l-284 -344h-236l-284 341h277l124 -158l132 161h271zM736 807q-108 61 -156 61q-55 0 -96 -29t-62.5 -77.5t-31.5 -100.5t-10 -108v-553h-258v1073h258v-161q42 80 115 135t134 55q50 0 105.5 -26.5t98.5 -67.5z" />
    <glyph glyph-name="Sacute" unicode="&#x15a;" horiz-adv-x="1202" 
d="M599 1533q-7 -5 -13 -5q-2 0 -10 2q-18 5 -36 20q-19 16 -31 31t-21 45q-6 20 -6 34q0 5 2 15q2 8 8 13l282 247q11 10 29 10q9 0 19 -3q23 -6 43 -21q19 -14 35 -33q17 -20 24 -52q4 -16 4 -34q0 -14 -3 -26q-5 -20 -18 -30zM83 404l268 43q25 -101 92 -167.5t177 -66.5
q111 0 171.5 53t60.5 138q0 46 -19 83.5t-47.5 62t-76 49t-90 40.5t-105.5 41t-108 46q-60 29 -101 55.5t-83.5 69t-64.5 102.5t-22 137q0 98 40.5 176.5t109.5 127t154.5 73.5t180.5 25q168 0 296.5 -87t172.5 -219l-273 -51q-49 116 -196 116q-93 0 -152 -37.5t-59 -123.5
q0 -40 27 -74t76.5 -60.5t97 -46t110 -43t94.5 -38.5q57 -27 100 -53t85 -63.5t68.5 -80t42.5 -100.5t16 -127q0 -197 -145 -315t-361 -118q-209 0 -358.5 119.5t-178.5 313.5z" />
    <glyph glyph-name="sacute" unicode="&#x15b;" horiz-adv-x="958" 
d="M487 1185q-7 -5 -13 -5q-2 0 -10 2q-18 5 -36 20q-19 16 -31 31t-21 45q-6 20 -6 34q0 5 2 15q2 8 8 13l282 247q11 10 29 10q9 0 19 -3q23 -6 43 -21q19 -14 35 -33q17 -20 24 -52q4 -16 4 -34q0 -14 -3 -26q-5 -20 -18 -30zM342 491q-61 32 -95.5 56t-65.5 60.5t-44 85
t-13 117.5q0 133 100.5 211.5t269.5 78.5q157 0 259 -90t121 -209l-240 -43q-11 65 -45 88.5t-91 23.5q-60 0 -93 -18t-33 -69q0 -33 25 -57t57.5 -36.5l97.5 -37.5t113 -48q115 -56 167.5 -132t52.5 -202q0 -129 -117.5 -214t-282.5 -85q-162 0 -268.5 86t-138.5 233
l232 39q11 -60 60 -94t113 -34q35 0 59 3t47.5 12t35.5 29t12 50q0 27 -16.5 49.5t-49 40.5t-66 32.5t-82 35t-81.5 38.5z" />
    <glyph glyph-name="Scircumflex" unicode="&#x15c;" horiz-adv-x="1202" 
d="M1004 1562h-271l-132 161l-124 -158h-277l284 341h236zM83 404l268 43q25 -101 92 -167.5t177 -66.5q111 0 171.5 53t60.5 138q0 46 -19 83.5t-47.5 62t-76 49t-90 40.5t-105.5 41t-108 46q-60 29 -101 55.5t-83.5 69t-64.5 102.5t-22 137q0 98 40.5 176.5t109.5 127
t154.5 73.5t180.5 25q168 0 296.5 -87t172.5 -219l-273 -51q-49 116 -196 116q-93 0 -152 -37.5t-59 -123.5q0 -40 27 -74t76.5 -60.5t97 -46t110 -43t94.5 -38.5q57 -27 100 -53t85 -63.5t68.5 -80t42.5 -100.5t16 -127q0 -197 -145 -315t-361 -118q-209 0 -358.5 119.5
t-178.5 313.5z" />
    <glyph glyph-name="scircumflex" unicode="&#x15d;" horiz-adv-x="958" 
d="M903 1144h-271l-132 161l-124 -158h-277l284 341h236zM342 491q-61 32 -95.5 56t-65.5 60.5t-44 85t-13 117.5q0 133 100.5 211.5t269.5 78.5q157 0 259 -90t121 -209l-240 -43q-11 65 -45 88.5t-91 23.5q-60 0 -93 -18t-33 -69q0 -33 25 -57t57.5 -36.5l97.5 -37.5
t113 -48q115 -56 167.5 -132t52.5 -202q0 -129 -117.5 -214t-282.5 -85q-162 0 -268.5 86t-138.5 233l232 39q11 -60 60 -94t113 -34q35 0 59 3t47.5 12t35.5 29t12 50q0 27 -16.5 49.5t-49 40.5t-66 32.5t-82 35t-81.5 38.5z" />
    <glyph glyph-name="Scedilla" unicode="&#x15e;" horiz-adv-x="1202" 
d="M402 -238q3 1 16 8.5t18.5 11t18.5 11t20 12.5t17.5 13t16.5 14t12.5 13t9 14t2.5 14q0 22 -1.5 34.5t-11.5 34t-30 42.5l162 90q108 -96 108 -207q0 -30 -17 -60t-36 -50t-59 -46.5t-57.5 -36t-60.5 -31.5q-10 -5 -15 -8zM83 404l268 43q25 -101 92 -167.5t177 -66.5
q111 0 171.5 53t60.5 138q0 46 -19 83.5t-47.5 62t-76 49t-90 40.5t-105.5 41t-108 46q-60 29 -101 55.5t-83.5 69t-64.5 102.5t-22 137q0 98 40.5 176.5t109.5 127t154.5 73.5t180.5 25q168 0 296.5 -87t172.5 -219l-273 -51q-49 116 -196 116q-93 0 -152 -37.5t-59 -123.5
q0 -40 27 -74t76.5 -60.5t97 -46t110 -43t94.5 -38.5q57 -27 100 -53t85 -63.5t68.5 -80t42.5 -100.5t16 -127q0 -197 -145 -315t-361 -118q-209 0 -358.5 119.5t-178.5 313.5z" />
    <glyph glyph-name="scedilla" unicode="&#x15f;" horiz-adv-x="958" 
d="M277 -238q3 1 16 8.5t18.5 11t18.5 11t20 12.5t17.5 13t16.5 14t12.5 13t9 14t2.5 14q0 22 -1.5 34.5t-11.5 34t-30 42.5l162 90q108 -96 108 -207q0 -30 -17 -60t-36 -50t-59 -46.5t-57.5 -36t-60.5 -31.5q-10 -5 -15 -8zM342 491q-61 32 -95.5 56t-65.5 60.5t-44 85
t-13 117.5q0 133 100.5 211.5t269.5 78.5q157 0 259 -90t121 -209l-240 -43q-11 65 -45 88.5t-91 23.5q-60 0 -93 -18t-33 -69q0 -33 25 -57t57.5 -36.5l97.5 -37.5t113 -48q115 -56 167.5 -132t52.5 -202q0 -129 -117.5 -214t-282.5 -85q-162 0 -268.5 86t-138.5 233
l232 39q11 -60 60 -94t113 -34q35 0 59 3t47.5 12t35.5 29t12 50q0 27 -16.5 49.5t-49 40.5t-66 32.5t-82 35t-81.5 38.5z" />
    <glyph glyph-name="Scaron" unicode="&#x160;" horiz-adv-x="1202" 
d="M1058 1906l-284 -344h-236l-284 341h277l124 -158l132 161h271zM83 404l268 43q25 -101 92 -167.5t177 -66.5q111 0 171.5 53t60.5 138q0 46 -19 83.5t-47.5 62t-76 49t-90 40.5t-105.5 41t-108 46q-60 29 -101 55.5t-83.5 69t-64.5 102.5t-22 137q0 98 40.5 176.5
t109.5 127t154.5 73.5t180.5 25q168 0 296.5 -87t172.5 -219l-273 -51q-49 116 -196 116q-93 0 -152 -37.5t-59 -123.5q0 -40 27 -74t76.5 -60.5t97 -46t110 -43t94.5 -38.5q57 -27 100 -53t85 -63.5t68.5 -80t42.5 -100.5t16 -127q0 -197 -145 -315t-361 -118
q-209 0 -358.5 119.5t-178.5 313.5z" />
    <glyph glyph-name="scaron" unicode="&#x161;" horiz-adv-x="958" 
d="M899 1457l-284 -344h-236l-284 341h277l124 -158l132 161h271zM342 491q-61 32 -95.5 56t-65.5 60.5t-44 85t-13 117.5q0 133 100.5 211.5t269.5 78.5q157 0 259 -90t121 -209l-240 -43q-11 65 -45 88.5t-91 23.5q-60 0 -93 -18t-33 -69q0 -33 25 -57t57.5 -36.5
l97.5 -37.5t113 -48q115 -56 167.5 -132t52.5 -202q0 -129 -117.5 -214t-282.5 -85q-162 0 -268.5 86t-138.5 233l232 39q11 -60 60 -94t113 -34q35 0 59 3t47.5 12t35.5 29t12 50q0 27 -16.5 49.5t-49 40.5t-66 32.5t-82 35t-81.5 38.5z" />
    <glyph glyph-name="Tcommaaccent" unicode="&#x162;" horiz-adv-x="1353" 
d="M480 -238q3 1 16 8.5t18.5 11t18.5 11t20 12.5t17.5 13t16.5 14t12.5 13t9 14t2.5 14q0 22 -1.5 34.5t-11.5 34t-30 42.5l162 90q108 -96 108 -207q0 -30 -17 -60t-36 -50t-59 -46.5t-57.5 -36t-60.5 -31.5q-10 -5 -15 -8zM78 1456h1202v-240h-457v-1216h-268v1216h-477
v240z" />
    <glyph glyph-name="tcommaaccent" unicode="&#x163;" horiz-adv-x="706" 
d="M171 -238q3 1 16 8.5t18.5 11t18.5 11t20 12.5t17.5 13t16.5 14t12.5 13t9 14t2.5 14q0 22 -1.5 34.5t-11.5 34t-30 42.5l162 90q108 -96 108 -207q0 -30 -17 -60t-36 -50t-59 -46.5t-57.5 -36t-60.5 -31.5q-10 -5 -15 -8zM213 844h-141v229h141v250h258v-250h154v-229
h-154v-547q0 -95 111 -95h39v-217h-39q-107 0 -178.5 18.5t-113.5 58t-59.5 95t-17.5 136.5v551z" />
    <glyph glyph-name="Tcaron" unicode="&#x164;" horiz-adv-x="1353" 
d="M1097 1908l-284 -344h-236l-284 341h277l124 -158l132 161h271zM78 1456h1202v-240h-457v-1216h-268v1216h-477v240z" />
    <glyph glyph-name="tcaron" unicode="&#x165;" horiz-adv-x="884" 
d="M852 1385q0 -47 -15 -93q-15 -48 -36 -83q-20 -34 -41 -60q-22 -27 -33 -37l-52 34q6 11 19 48q12 33 12 50q0 6 -1 8q-33 9 -57 43q-24 35 -24 90q0 49 33 89t78 40q55 0 86 -40t31 -89zM213 844h-141v229h141v250h258v-250h154v-229h-154v-547q0 -95 111 -95h39v-217
h-39q-107 0 -178.5 18.5t-113.5 58t-59.5 95t-17.5 136.5v551z" />
    <glyph glyph-name="Tbar" unicode="&#x166;" horiz-adv-x="1353" 
d="M78 1456h1202v-240h-457v-462h245v-240h-245v-514h-268v514h-259v240h259v462h-477v240z" />
    <glyph glyph-name="tbar" unicode="&#x167;" horiz-adv-x="706" 
d="M213 844h-141v229h141v250h258v-250h154v-229h-154v-90h184v-240h-184v-217q0 -95 111 -95h39v-217h-39q-107 0 -178.5 18.5t-113.5 58t-59.5 95t-17.5 136.5v221h-173v240h173v90z" />
    <glyph glyph-name="Utilde" unicode="&#x168;" horiz-adv-x="1347" 
d="M334 1810q11 8 28 24t34 29q4 3 35 23q22 14 43 20q24 7 43 7q27 0 56 -15q30 -16 55 -38q13 -11 25 -23t25 -23q26 -23 56 -38t59 -15q32 0 71 21q33 18 54 37q36 33 53 49v-260q-3 -3 -31 -26q-15 -12 -42 -32q-17 -12 -46 -24q-30 -12 -59 -12q-39 0 -81 24
q-41 23 -71 52q-27 25 -65 52q-34 24 -62 24q-29 0 -53 -10q-30 -12 -41 -20q-8 -6 -44 -34l-42 -33v241zM637 -35q-166 0 -285.5 80t-178 218.5t-58.5 322.5v870h268v-870q0 -73 13 -137t41 -121t79.5 -90t120.5 -33q56 0 100.5 22.5t73 59t47.5 87t26.5 103t7.5 109.5v870
h268v-870q0 -184 -59 -322.5t-178 -218.5t-286 -80z" />
    <glyph glyph-name="utilde" unicode="&#x169;" horiz-adv-x="1112" 
d="M238 1493q11 8 28 24t34 29q4 3 35 23q22 14 43 20q24 7 43 7q27 0 56 -15q30 -16 55 -38q13 -11 25 -23t25 -23q26 -23 56 -38t59 -15q32 0 71 21q33 18 54 37q36 33 53 49v-260q-3 -3 -31 -26q-15 -12 -42 -32q-17 -12 -46 -24q-30 -12 -59 -12q-39 0 -81 24
q-41 23 -71 52q-27 25 -65 52q-34 24 -62 24q-29 0 -53 -10q-30 -12 -41 -20q-8 -6 -44 -34q-28 -23 -42 -33v241zM1003 0h-258v161q-45 -81 -131.5 -135.5t-185.5 -54.5q-148 0 -234 143.5t-86 420.5v538h258v-537q0 -79 11.5 -139.5t29 -96t42 -57.5t48 -29.5t49.5 -7.5
q27 0 52 8t52 30t47.5 57.5t33.5 96t13 139.5v536h259v-1073z" />
    <glyph glyph-name="Umacron" unicode="&#x16a;" horiz-adv-x="1347" 
d="M251 1813h772v-127h-772v127zM637 -35q-166 0 -285.5 80t-178 218.5t-58.5 322.5v870h268v-870q0 -73 13 -137t41 -121t79.5 -90t120.5 -33q56 0 100.5 22.5t73 59t47.5 87t26.5 103t7.5 109.5v870h268v-870q0 -184 -59 -322.5t-178 -218.5t-286 -80z" />
    <glyph glyph-name="umacron" unicode="&#x16b;" horiz-adv-x="1112" 
d="M183 1417h772v-127h-772v127zM1003 0h-258v161q-45 -81 -131.5 -135.5t-185.5 -54.5q-148 0 -234 143.5t-86 420.5v538h258v-537q0 -79 11.5 -139.5t29 -96t42 -57.5t48 -29.5t49.5 -7.5q27 0 52 8t52 30t47.5 57.5t33.5 96t13 139.5v536h259v-1073z" />
    <glyph glyph-name="Ubreve" unicode="&#x16c;" horiz-adv-x="1347" 
d="M717 1768q47 34 127 174h157q1 -10 1 -31q0 -117 -70 -235q-40 -68 -123 -115q-78 -45 -158 -45t-158 45q-83 47 -123 115q-70 118 -70 235q0 21 1 31h161q56 -129 122 -173q22 -15 71 -17q42 2 62 16zM637 -35q-166 0 -285.5 80t-178 218.5t-58.5 322.5v870h268v-870
q0 -73 13 -137t41 -121t79.5 -90t120.5 -33q56 0 100.5 22.5t73 59t47.5 87t26.5 103t7.5 109.5v870h268v-870q0 -184 -59 -322.5t-178 -218.5t-286 -80z" />
    <glyph glyph-name="ubreve" unicode="&#x16d;" horiz-adv-x="1112" 
d="M607 1422q47 34 127 174h157q1 -10 1 -31q0 -117 -70 -235q-40 -68 -123 -115q-78 -45 -158 -45t-158 45q-83 47 -123 115q-70 118 -70 235q0 21 1 31h161q56 -129 122 -173q22 -15 71 -17q42 2 62 16zM1003 0h-258v161q-45 -81 -131.5 -135.5t-185.5 -54.5
q-148 0 -234 143.5t-86 420.5v538h258v-537q0 -79 11.5 -139.5t29 -96t42 -57.5t48 -29.5t49.5 -7.5q27 0 52 8t52 30t47.5 57.5t33.5 96t13 139.5v536h259v-1073z" />
    <glyph glyph-name="Uring" unicode="&#x16e;" horiz-adv-x="1347" 
d="M551 1717q0 -45 30 -76t74 -31t74 31t30 76t-30 77q-30 31 -74 31t-74 -31q-30 -32 -30 -77zM426 1717q0 93 67 159t162 66q96 0 162 -66q67 -67 67 -159t-67 -159q-65 -65 -162 -65q-96 0 -162 65q-67 66 -67 159zM637 -35q-166 0 -285.5 80t-178 218.5t-58.5 322.5v870
h268v-870q0 -73 13 -137t41 -121t79.5 -90t120.5 -33q56 0 100.5 22.5t73 59t47.5 87t26.5 103t7.5 109.5v870h268v-870q0 -184 -59 -322.5t-178 -218.5t-286 -80z" />
    <glyph glyph-name="uring" unicode="&#x16f;" horiz-adv-x="1112" 
d="M450 1372q0 -44 30 -76q30 -31 74 -31t74 31q30 32 30 76q0 46 -30 77t-74 31t-74 -31t-30 -77zM325 1372q0 93 67 159q68 66 162 66q96 0 162 -66q67 -67 67 -159t-67 -159q-65 -65 -162 -65q-96 0 -162 65q-67 66 -67 159zM1003 0h-258v161q-45 -81 -131.5 -135.5
t-185.5 -54.5q-148 0 -234 143.5t-86 420.5v538h258v-537q0 -79 11.5 -139.5t29 -96t42 -57.5t48 -29.5t49.5 -7.5q27 0 52 8t52 30t47.5 57.5t33.5 96t13 139.5v536h259v-1073z" />
    <glyph glyph-name="Uhungarumlaut" unicode="&#x170;" horiz-adv-x="1298" 
d="M875 1493q-7 -9 -22 -9q-19 0 -40 10q-20 9 -38 22q-14 10 -31 38t-17 47q0 9 4 14l209 312q13 19 44 19q19 0 47 -10q27 -9 42 -22q20 -13 37 -44t17 -58q0 -20 -10 -33zM486 1493q-8 -9 -22 -9q-19 0 -40 10q-20 9 -38 22q-15 11 -32 38q-16 26 -16 47q0 9 4 14
l209 312q13 19 44 19q19 0 47 -10q27 -9 42 -22q21 -14 38 -44q16 -29 16 -58q0 -20 -10 -33zM637 -35q-166 0 -285.5 80t-178 218.5t-58.5 322.5v870h268v-870q0 -73 13 -137t41 -121t79.5 -90t120.5 -33q56 0 100.5 22.5t73 59t47.5 87t26.5 103t7.5 109.5v870h268v-870
q0 -184 -59 -322.5t-178 -218.5t-286 -80z" />
    <glyph glyph-name="uhungarumlaut" unicode="&#x171;" horiz-adv-x="1024" 
d="M806 1157q-8 -9 -22 -9q-19 0 -40 10q-20 9 -38 22q-14 10 -31 38t-17 47q0 9 4 14l209 312q13 19 44 19q19 0 47 -10q27 -9 42 -22q20 -13 37 -44t17 -58q0 -20 -10 -33zM417 1157q-7 -9 -22 -9q-19 0 -40 10q-20 9 -38 22q-15 11 -32 38q-16 26 -16 47q0 9 4 14
l209 312q13 19 44 19q19 0 47 -10q27 -9 42 -22q21 -14 38 -44q16 -29 16 -58q0 -20 -10 -33zM1003 0h-258v161q-45 -81 -131.5 -135.5t-185.5 -54.5q-148 0 -234 143.5t-86 420.5v538h258v-537q0 -79 11.5 -139.5t29 -96t42 -57.5t48 -29.5t49.5 -7.5q27 0 52 8t52 30
t47.5 57.5t33.5 96t13 139.5v536h259v-1073z" />
    <glyph glyph-name="Uogonek" unicode="&#x172;" horiz-adv-x="1347" 
d="M862 -217l-113 -127q-14 6 -49 26l-54 30q-25 14 -52 36q-34 28 -46 41q-20 22 -32 47t-12 52q0 111 108 207l162 -90q-18 -20 -30 -43q-10 -21 -12 -34q-1 -8 -1 -34q0 -14 15 -31q18 -20 34 -31q20 -14 42 -27q26 -16 40 -22zM637 -35q-166 0 -285.5 80t-178 218.5
t-58.5 322.5v870h268v-870q0 -73 13 -137t41 -121t79.5 -90t120.5 -33q56 0 100.5 22.5t73 59t47.5 87t26.5 103t7.5 109.5v870h268v-870q0 -184 -59 -322.5t-178 -218.5t-286 -80z" />
    <glyph glyph-name="uogonek" unicode="&#x173;" horiz-adv-x="1112" 
d="M1086 -217l-113 -127q-14 6 -49 26l-54 30q-25 14 -52 36q-34 28 -46 41q-20 22 -32 47q-12 26 -12 52q0 111 108 207l162 -90q-18 -20 -30 -43q-10 -21 -12 -34q-1 -8 -1 -34q0 -14 15 -31q18 -20 34 -31q20 -14 42 -27q26 -16 40 -22zM1003 0h-258v161
q-45 -81 -131.5 -135.5t-185.5 -54.5q-148 0 -234 143.5t-86 420.5v538h258v-537q0 -79 11.5 -139.5t29 -96t42 -57.5t48 -29.5t49.5 -7.5q27 0 52 8t52 30t47.5 57.5t33.5 96t13 139.5v536h259v-1073z" />
    <glyph glyph-name="Wcircumflex" unicode="&#x174;" horiz-adv-x="1669" 
d="M1241 1562h-271l-132 161l-124 -158h-277l284 341h236zM74 1456h271l127 -958l181 931h314l181 -937l127 964h271l-238 -1456h-320l-178 975l-178 -975h-320z" />
    <glyph glyph-name="wcircumflex" unicode="&#x175;" horiz-adv-x="1449" 
d="M1119 1145h-271l-132 161l-124 -158h-277l284 341h236zM715 664l-142 -664h-201l-315 1073h255l168 -669l130 673h232l130 -670l170 666h243l-315 -1073h-219z" />
    <glyph glyph-name="Ycircumflex" unicode="&#x176;" horiz-adv-x="1314" 
d="M1058 1562h-271l-132 161l-124 -158h-277l284 341h236zM67 1455h340l256 -475l256 475h340l-461 -765v-690h-268v690z" />
    <glyph glyph-name="ycircumflex" unicode="&#x177;" horiz-adv-x="1106" 
d="M955 1144h-271l-132 161l-124 -158h-277l284 341h236zM1003 -29q0 -79 -40 -159t-103 -140.5t-144.5 -98.5t-160.5 -38q-149 0 -258.5 70t-156.5 171l204 112q19 -54 72.5 -87.5t132.5 -33.5q84 0 140 47t56 127v220q-45 -81 -131.5 -135.5t-185.5 -54.5
q-148 0 -234 143.5t-86 420.5v538h258v-537q0 -79 11.5 -139.5t29 -96t42 -57.5t48 -29.5t49.5 -7.5q27 0 52 8t52 30t47.5 57.5t33.5 96t13 139.5v536h259v-1044v-58z" />
    <glyph glyph-name="Ydieresis" unicode="&#x178;" horiz-adv-x="1314" 
d="M265 1757q0 68 48 116t116 48t116 -48t48 -116t-48 -116t-116 -48q-67 0 -116 49q-48 48 -48 115zM736 1757q0 68 48 116t116 48t116 -48t48 -116t-48 -116t-116 -48q-67 0 -116 49q-48 48 -48 115zM67 1455h340l256 -475l256 475h340l-461 -765v-690h-268v690z" />
    <glyph glyph-name="Zacute" unicode="&#x179;" horiz-adv-x="1417" 
d="M690 1533q-7 -5 -13 -5q-2 0 -10 2q-18 5 -36 20q-19 16 -31 31t-21 45q-6 20 -6 34q0 5 2 15q2 8 8 13l282 247q11 10 29 10q8 0 19 -3q23 -6 43 -21q19 -14 35 -33q17 -20 24 -52q4 -16 4 -34q0 -14 -3 -26q-4 -20 -18 -30zM139 1456h1167l-778 -1216h772v-240h-1228
l780 1216h-713v240z" />
    <glyph glyph-name="zacute" unicode="&#x17a;" horiz-adv-x="1005" 
d="M459 1185q-7 -5 -13 -5q-2 0 -10 2q-18 5 -36 20q-19 16 -31 31t-21 45q-6 20 -6 34q0 5 2 15q2 8 8 13l282 247q11 10 29 10q9 0 19 -3q23 -6 43 -21q19 -14 35 -33q17 -20 24 -52q4 -16 4 -34q0 -14 -3 -26q-5 -20 -18 -30zM483 240h406v-240h-823l436 834h-387v239
h806z" />
    <glyph glyph-name="Zdotaccent" unicode="&#x17b;" horiz-adv-x="1417" 
d="M564 1705q0 68 48 116t116 48t116 -48t48 -116t-48 -116t-116 -48q-67 0 -116 49q-48 48 -48 115zM139 1456h1167l-778 -1216h772v-240h-1228l780 1216h-713v240z" />
    <glyph glyph-name="zdotaccent" unicode="&#x17c;" horiz-adv-x="1005" 
d="M353 1349q0 68 48 116t116 48t116 -48t48 -116t-48 -116t-116 -48q-67 0 -116 49q-48 48 -48 115zM483 240h406v-240h-823l436 834h-387v239h806z" />
    <glyph glyph-name="Zcaron" unicode="&#x17d;" horiz-adv-x="1417" 
d="M1121 1906l-284 -344h-236l-284 341h277l124 -158l132 161h271zM139 1456h1167l-778 -1216h772v-240h-1228l780 1216h-713v240z" />
    <glyph glyph-name="zcaron" unicode="&#x17e;" horiz-adv-x="1005" 
d="M921 1489l-284 -344h-236l-284 341h277l124 -158l132 161h271zM483 240h406v-240h-823l436 834h-387v239h806z" />
    <glyph glyph-name="longs" unicode="&#x17f;" horiz-adv-x="782" 
d="M213 1073v80q0 51 27 109q24 53 74 109q46 52 112 85t137 33q135 0 227 -89l-149 -179q-15 18 -43 29q-26 10 -45 10q-43 0 -63 -21q-19 -20 -19 -66v-100v-1073h-258v1073z" />
    <glyph glyph-name="florin" unicode="&#x192;" horiz-adv-x="1282" 
d="M744 862l-440 -1198h-276l448 1210l-154 3l78 215l156 -4l44 131q15 45 63 93q47 46 106 78q66 35 134 41q58 5 90 5q47 0 71 -8q129 -46 156 -104l-4 -236q-18 63 -88 108q-39 25 -148 36h-5q-31 0 -85 -27q-21 -10 -40 -55l-34 -76h190l-78 -215z" />
    <glyph glyph-name="uni01E2" unicode="&#x1e2;" horiz-adv-x="1571" 
d="M627 1792h773v-240h-773v240zM820 597h-279l-233 -597h-298l576 1458h888v-255h-388v-363h388v-250h-390v-340h390v-250h-654v597zM820 1287l-199 -447h199v447z" />
    <glyph glyph-name="uni01E3" unicode="&#x1e3;" horiz-adv-x="1684" 
d="M451 1412h773v-239h-773v239zM945 422q17 -160 129 -207q32 -14 78 -14q124 0 170 104l238 -69q-64 -165 -244 -234q-85 -31 -164 -31q-211 0 -352 173q-38 -40 -68 -70q-83 -103 -228 -103q-200 0 -328 142q-102 113 -102 266q0 194 149 312q114 92 277 92
q125 0 176 -51q0 92 -79 141q-42 25 -95 25q-103 0 -207 -37q-27 -9 -37 -12l-53 197q125 47 170 53q39 4 125 4q234 0 336 -135q134 131 316 131q218 0 349 -187q108 -153 108 -375v-115h-664zM504 556q-132 0 -176 -107q-12 -33 -12 -72q0 -105 90 -154q43 -22 98 -22
q98 0 152 86q25 42 25 90q0 120 -97 164q-34 15 -80 15zM945 652h414q-11 134 -106 191q-43 26 -101 26q-126 0 -182 -125q-20 -42 -25 -92z" />
    <glyph glyph-name="Scommaaccent" unicode="&#x218;" horiz-adv-x="1202" 
d="M83 404l268 43q25 -101 92 -167.5t177 -66.5q111 0 171.5 53t60.5 138q0 46 -19 83.5t-47.5 62t-76 49t-90 40.5t-105.5 41t-108 46q-60 29 -101 55.5t-83.5 69t-64.5 102.5t-22 137q0 98 40.5 176.5t109.5 127t154.5 73.5t180.5 25q168 0 296.5 -87t172.5 -219l-273 -51
q-49 116 -196 116q-93 0 -152 -37.5t-59 -123.5q0 -40 27 -74t76.5 -60.5t97 -46t110 -43t94.5 -38.5q57 -27 100 -53t85 -63.5t68.5 -80t42.5 -100.5t16 -127q0 -197 -145 -315t-361 -118q-209 0 -358.5 119.5t-178.5 313.5zM775 -161q0 -57 -21 -116q-22 -61 -52 -104
q-33 -47 -58 -75q-29 -32 -48 -47l-74 43q15 27 28 60q17 42 17 62q0 5 -2 11q-47 11 -82 53q-34 41 -34 113q0 60 48 111q47 50 111 50q80 0 123 -50q44 -52 44 -111z" />
    <glyph glyph-name="scommaaccent" unicode="&#x219;" horiz-adv-x="958" 
d="M342 491q-61 32 -95.5 56t-65.5 60.5t-44 85t-13 117.5q0 133 100.5 211.5t269.5 78.5q157 0 259 -90t121 -209l-240 -43q-11 65 -45 88.5t-91 23.5q-60 0 -93 -18t-33 -69q0 -33 25 -57t57.5 -36.5l97.5 -37.5t113 -48q115 -56 167.5 -132t52.5 -202q0 -129 -117.5 -214
t-282.5 -85q-162 0 -268.5 86t-138.5 233l232 39q11 -60 60 -94t113 -34q35 0 59 3t47.5 12t35.5 29t12 50q0 27 -16.5 49.5t-49 40.5t-66 32.5t-82 35t-81.5 38.5zM636 -161q0 -57 -21 -116q-22 -61 -52 -104q-33 -47 -58 -75q-29 -32 -48 -47l-74 43q15 27 28 60
q17 42 17 62q0 5 -2 11q-47 11 -82 53q-34 41 -34 113q0 60 48 111q47 50 111 50q80 0 123 -50q44 -52 44 -111z" />
    <glyph glyph-name="uni021A" unicode="&#x21a;" horiz-adv-x="1353" 
d="M480 -238q3 1 16 8.5t18.5 11t18.5 11t20 12.5t17.5 13t16.5 14t12.5 13t9 14t2.5 14q0 22 -1.5 34.5t-11.5 34t-30 42.5l162 90q108 -96 108 -207q0 -30 -17 -60t-36 -50t-59 -46.5t-57.5 -36t-60.5 -31.5q-10 -5 -15 -8zM78 1456h1202v-240h-457v-1216h-268v1216h-477
v240z" />
    <glyph glyph-name="uni021B" unicode="&#x21b;" horiz-adv-x="706" 
d="M171 -238q3 1 16 8.5t18.5 11t18.5 11t20 12.5t17.5 13t16.5 14t12.5 13t9 14t2.5 14q0 22 -1.5 34.5t-11.5 34t-30 42.5l162 90q108 -96 108 -207q0 -30 -17 -60t-36 -50t-59 -46.5t-57.5 -36t-60.5 -31.5q-10 -5 -15 -8zM213 844h-141v229h141v250h258v-250h154v-229
h-154v-547q0 -95 111 -95h39v-217h-39q-107 0 -178.5 18.5t-113.5 58t-59.5 95t-17.5 136.5v551z" />
    <glyph glyph-name="circumflex" unicode="&#x2c6;" horiz-adv-x="1347" 
d="M1121 1562h-271l-132 161l-124 -158h-277l284 341h236z" />
    <glyph glyph-name="caron" unicode="&#x2c7;" horiz-adv-x="1347" 
d="M1121 1906l-284 -344h-236l-284 341h277l124 -158l132 161h271z" />
    <glyph glyph-name="breve" unicode="&#x2d8;" horiz-adv-x="1214" 
d="M793 1768q47 34 127 174h157q1 -10 1 -31q0 -117 -70 -235q-40 -68 -123 -115q-78 -45 -158 -45t-158 45q-83 47 -123 115q-70 118 -70 235q0 21 1 31h161q56 -129 122 -173q22 -15 71 -17q42 2 62 16z" />
    <glyph glyph-name="dotaccent" unicode="&#x2d9;" horiz-adv-x="876" 
d="M304 1757q0 68 48 116t116 48t116 -48t48 -116t-48 -116t-116 -48q-67 0 -116 49q-48 48 -48 115z" />
    <glyph glyph-name="ring" unicode="&#x2da;" horiz-adv-x="718" 
d="M255 1717q0 -45 30 -76t74 -31t74 31t30 76t-30 77q-30 31 -74 31t-74 -31q-30 -32 -30 -77zM130 1717q0 93 67 159t162 66q96 0 162 -66q67 -67 67 -159t-67 -159q-65 -65 -162 -65q-96 0 -162 65q-67 66 -67 159z" />
    <glyph glyph-name="ogonek" unicode="&#x2db;" horiz-adv-x="528" 
d="M414 -217l-113 -127q-14 6 -49 26l-54 30q-25 14 -52 36q-34 28 -46 41q-20 22 -32 47q-12 26 -12 52q0 111 108 207l162 -90q-18 -20 -30 -43q-10 -21 -12 -34q-1 -8 -1 -34q0 -14 15 -31q18 -20 34 -31q20 -14 42 -27q26 -16 40 -22z" />
    <glyph glyph-name="tilde" unicode="&#x2dc;" horiz-adv-x="1089" 
d="M252 1810q11 8 28 24t34 29q4 3 35 23q22 14 43 20q24 7 43 7q28 0 56 -15q30 -16 55 -38q13 -11 25 -23t25 -23q26 -23 56 -38t59 -15q32 0 71 21q33 18 54 37q36 33 53 49v-260q-3 -3 -31 -26q-15 -12 -42 -32q-17 -12 -46 -24q-30 -12 -59 -12q-39 0 -81 24
q-41 23 -71 52q-27 25 -65 52q-34 24 -62 24q-29 0 -53 -10q-30 -12 -41 -20q-8 -6 -44 -34l-42 -33v241z" />
    <glyph glyph-name="hungarumlaut" unicode="&#x2dd;" horiz-adv-x="1298" 
d="M875 1493q-7 -9 -22 -9q-19 0 -40 10q-20 9 -38 22q-14 10 -31 38t-17 47q0 9 4 14l209 312q13 19 44 19q19 0 47 -10q27 -9 42 -22q20 -13 37 -44t17 -58q0 -20 -10 -33zM486 1493q-8 -9 -22 -9q-19 0 -40 10q-20 9 -38 22q-15 11 -32 38q-16 26 -16 47q0 9 4 14
l209 312q13 19 44 19q19 0 47 -10q27 -9 42 -22q21 -14 38 -44q16 -29 16 -58q0 -20 -10 -33z" />
    <glyph glyph-name="gravecomb" unicode="&#x300;" horiz-adv-x="0" 
d="M-512 1302h-275l-168 254h268z" />
    <glyph glyph-name="acutecomb" unicode="&#x301;" horiz-adv-x="0" 
d="M-789 1556h268l-168 -254h-275z" />
    <glyph glyph-name="uni0302" unicode="&#x302;" horiz-adv-x="0" 
d="M-119 1177l-271 -4l-133 164l-123 -158h-276l282 340l238 2z" />
    <glyph glyph-name="tildecomb" unicode="&#x303;" horiz-adv-x="0" 
d="M-800 1456q80 65 82 65q50 37 101 37q48 0 133 -74q88 -78 144 -78h6q65 0 166 101l6 6l-2 -260l-74 -62q-51 -33 -102 -33q-63 0 -158 80q-82 72 -121 72h-6q-31 0 -58 -15q-26 -14 -71 -47l-46 -34v242z" />
    <glyph glyph-name="uni0304" unicode="&#x304;" horiz-adv-x="0" 
d="M-863 1412h773v-239h-773v239z" />
    <glyph glyph-name="uni0305" unicode="&#x305;" horiz-adv-x="0" 
d="M-668 1484q17 -46 30 -59q30 -53 73 -78q44 -25 87 -25q54 0 95 23q39 22 73 74v-2l33 65h195q-16 -40 -39 -87q-23 -48 -49 -81q-57 -72 -133 -117q-80 -47 -175 -47q-84 0 -165 38q-78 37 -136 110q-23 29 -50 82q-21 41 -46 104h207z" />
    <glyph glyph-name="uni0306" unicode="&#x306;" horiz-adv-x="0" 
d="M-693 1328q0 98 84 144q33 20 80 20q97 0 144 -84q20 -33 20 -80q0 -96 -84 -143q-35 -21 -80 -21q-97 0 -143 84q-21 34 -21 80z" />
    <glyph glyph-name="uni0307" unicode="&#x307;" horiz-adv-x="0" 
d="M-512 1328q0 98 84 144q33 20 80 20q96 0 143 -84q21 -34 21 -80q0 -96 -85 -143q-34 -21 -79 -21q-98 0 -144 84q-20 33 -20 80zM-984 1328q0 98 84 144q33 20 80 20q98 0 144 -84q20 -33 20 -80q0 -96 -84 -143q-35 -21 -80 -21q-97 0 -144 84q-20 33 -20 80z" />
    <glyph glyph-name="uni030A" unicode="&#x30a;" horiz-adv-x="0" 
d="M-681 1427q0 -93 78 -133q34 -17 68 -17q87 0 127 78q16 36 16 72q0 93 -77 133q-32 16 -66 16q-87 0 -127 -77q-19 -36 -19 -72zM-853 1427q0 155 125 250q82 63 193 63q156 0 252 -123q66 -84 66 -190q0 -155 -125 -248q-85 -64 -193 -64q-156 0 -252 121
q-66 84 -66 191z" />
    <glyph glyph-name="uni030B" unicode="&#x30b;" horiz-adv-x="0" 
d="M-789 1556h268l-168 -254h-275zM-385 1556h268l-168 -254h-275z" />
    <glyph glyph-name="uni030C" unicode="&#x30c;" horiz-adv-x="0" 
d="M-402 1173l-238 2l-282 340h276l123 -158l133 164l271 -4z" />
    <glyph glyph-name="uni0310" unicode="&#x310;" horiz-adv-x="0" 
d="M-668 1484q17 -46 30 -59q30 -53 73 -78q44 -25 87 -25q54 0 95 23q39 22 73 74v-2l33 65h195q-16 -40 -39 -87q-23 -48 -49 -81q-57 -72 -133 -117q-80 -47 -175 -47q-84 0 -165 38q-78 37 -136 110q-23 29 -50 82q-21 41 -46 104h207zM-646 1644q0 98 84 144
q33 20 80 20q98 0 144 -84q20 -33 20 -80q0 -96 -84 -143q-34 -21 -80 -21q-96 0 -143 84q-21 34 -21 80z" />
    <glyph glyph-name="dotbelowcomb" unicode="&#x323;" horiz-adv-x="0" 
d="M-693 -291q0 96 84 143q35 21 80 21q97 0 144 -84q20 -33 20 -80q0 -97 -84 -144q-33 -20 -80 -20q-97 0 -143 84q-21 35 -21 80z" />
    <glyph glyph-name="uni0324" unicode="&#x324;" horiz-adv-x="0" 
d="M-512 -287q0 97 84 143q34 21 80 21q96 0 143 -84q21 -34 21 -80q0 -96 -85 -143q-35 -21 -79 -21q-98 0 -144 84q-20 33 -20 80zM-984 -287q0 97 84 143q34 21 80 21q98 0 144 -84q20 -33 20 -80q0 -97 -84 -143q-34 -21 -80 -21q-97 0 -144 84q-20 33 -20 80z" />
    <glyph glyph-name="uni0325" unicode="&#x325;" horiz-adv-x="0" 
d="M-681 -385q0 -93 78 -134q32 -16 68 -16q87 0 127 78q16 36 16 72q0 93 -77 133q-32 16 -66 16q-87 0 -127 -78q-19 -36 -19 -71zM-853 -385q0 155 125 250q82 63 193 63q156 0 252 -123q66 -84 66 -190q0 -155 -125 -248q-85 -64 -193 -64q-156 0 -252 121
q-66 84 -66 191z" />
    <glyph glyph-name="uni0326" unicode="&#x326;" horiz-adv-x="444" 
d="M382 -161q0 -57 -21 -116q-22 -61 -52 -104q-33 -47 -58 -75q-29 -32 -48 -47l-74 43q15 27 28 60q17 42 17 62q0 5 -2 11q-47 11 -82 53q-34 41 -34 113q0 60 48 111q47 50 111 50q80 0 123 -50q44 -52 44 -111z" />
    <glyph glyph-name="uni0327" unicode="&#x327;" horiz-adv-x="0" 
d="M-994 -238q107 62 123 88q8 11 8 23q0 65 -43 111l162 90q108 -96 108 -207q0 -104 -202 -209q-3 -1 -44 -23z" />
    <glyph glyph-name="uni0328" unicode="&#x328;" horiz-adv-x="0" 
d="M-748 -365q-42 23 -43 23q-203 105 -203 209q0 111 108 207l162 -90q-43 -46 -43 -111q0 -10 9 -23q17 -27 122 -88z" />
    <glyph glyph-name="uni0331" unicode="&#x331;" horiz-adv-x="0" 
d="M-863 -135h773v-240h-773v240z" />
    <glyph glyph-name="uni037A" unicode="&#x37a;" horiz-adv-x="495" 
d="M93 742q0 68 48 116t116 48t116 -48t48 -116t-48 -116t-116 -48t-116 48t-48 116z" />
    <glyph glyph-name="tonos" unicode="&#x384;" horiz-adv-x="1138" 
d="M647 1192q-3 -11 -16 -18q-14 -7 -40 -7t-44 3q-16 3 -45 22q-25 16 -34 35q-4 10 -3 15l51 310q5 23 32 35q23 11 46 12h13q20 0 35 -3q26 -5 53 -24q28 -20 40 -46q6 -12 6 -23q0 -3 -2 -11z" />
    <glyph glyph-name="dieresistonos" unicode="&#x385;" horiz-adv-x="1138" 
d="M617 1192q-3 -11 -16 -18q-14 -7 -41 -7q-26 0 -44 3q-15 2 -44 22q-26 18 -35 35q-3 8 -2 15l50 310q5 23 32 35q23 11 47 12h13q20 0 35 -3q25 -4 52 -24q28 -20 40 -46q9 -19 4 -34zM78 1348q0 68 48 116t116 48t116 -48t48 -116t-48 -116t-116 -48t-116 48t-48 116z
M732 1348q0 68 48 116t116 48t116 -48t48 -116t-48 -116t-116 -48t-116 48t-48 116z" />
    <glyph glyph-name="Alphatonos" unicode="&#x386;" horiz-adv-x="1421" 
d="M726 1048l-159 -423h300zM942 379h-448l-136 -379h-311l563 1456h256l508 -1456h-307zM359 1192q-3 -11 -16 -18q-14 -7 -40 -7t-44 3q-16 3 -45 22q-25 16 -34 35q-4 10 -3 15l51 310q5 23 32 35q23 11 46 12h13q20 0 35 -3q26 -5 53 -24q28 -20 40 -46q6 -12 6 -23
q0 -3 -2 -11z" />
    <glyph glyph-name="Epsilontonos" unicode="&#x388;" horiz-adv-x="1441" 
d="M358 1456h982v-239h-714v-351h652v-239h-652v-387h714v-240h-982v1456zM235 1192q-3 -11 -16 -18q-14 -7 -40 -7t-44 3q-16 3 -45 22q-25 16 -34 35q-4 10 -3 15l51 310q5 23 32 35q23 11 46 12h13q20 0 35 -3q26 -5 53 -24q28 -20 40 -46q6 -12 6 -23q0 -3 -2 -11z" />
    <glyph glyph-name="Etatonos" unicode="&#x389;" horiz-adv-x="1461" 
d="M339 1456h268v-592h485v592h269v-1456h-269v625h-485v-625h-268v1456zM219 1192q-3 -11 -16 -18q-14 -7 -40 -7t-44 3q-16 3 -45 22q-25 16 -34 35q-4 10 -3 15l51 310q5 23 32 35q23 11 46 12h13q20 0 35 -3q26 -5 53 -24q28 -20 40 -46q6 -12 6 -23q0 -3 -2 -11z" />
    <glyph glyph-name="Iotatonos" unicode="&#x38a;" horiz-adv-x="712" 
d="M343 0v1456h269v-1456h-269zM219 1192q-3 -11 -16 -18q-14 -7 -40 -7t-44 3q-16 3 -45 22q-25 16 -34 35q-4 10 -3 15l51 310q5 23 32 35q23 11 46 12h13q20 0 35 -3q26 -5 53 -24q28 -20 40 -46q6 -12 6 -23q0 -3 -2 -11z" />
    <glyph glyph-name="Omicrontonos" unicode="&#x38c;" horiz-adv-x="1540" 
d="M1158 754q0 89 -17 174t-52 158q-34 72 -104 118q-67 45 -159 45q-74 0 -133 -30q-56 -29 -94 -79q-40 -53 -62 -114q-26 -71 -34 -133q-9 -67 -9 -139q0 -82 10 -152q11 -75 34 -145q25 -74 61 -125q38 -53 96 -86t131 -33q75 0 133 33q57 32 94 86q40 58 62 125
q26 77 34 145q9 74 9 152zM211 754q0 98 20 200q19 95 67 196q45 95 116 172q69 75 175 121q105 46 237 46t237 -46q106 -46 175 -120q67 -71 115 -172t67 -197q20 -102 20 -200q0 -104 -20 -212q-19 -101 -67 -210q-46 -103 -116 -184q-68 -78 -175 -128q-105 -49 -236 -49
q-130 0 -235 49q-109 51 -176 128q-70 81 -116 183q-47 105 -68 210q-20 101 -20 213zM224 1192q-3 -11 -16 -18q-14 -7 -40 -7t-44 3q-16 3 -45 22q-25 16 -34 35q-4 10 -3 15l51 310q5 23 32 35q23 11 46 12h13q20 0 35 -3q26 -5 53 -24q28 -20 40 -46q6 -12 6 -23
q0 -3 -2 -11z" />
    <glyph glyph-name="Upsilontonos" unicode="&#x38e;" horiz-adv-x="1314" 
d="M66 1456h284l310 -537l310 537h278l-451 -751v-705h-269v705z" />
    <glyph glyph-name="Omegatonos" unicode="&#x38f;" horiz-adv-x="1634" 
d="M789 229v-229h-602v229h212q-33 54 -55 102q-47 105 -68 210q-20 101 -20 213q0 98 20 200q19 95 67 196q45 95 116 172q69 75 175 121q105 46 237 46t237 -46q106 -46 175 -120q67 -71 115 -172t67 -197q20 -102 20 -200q0 -104 -20 -212q-19 -101 -67 -210
q-23 -52 -55 -103h191v-229h-602v229q60 16 136 80q71 61 94 141q24 83 32 152q9 74 9 152q0 89 -17 174t-52 158q-34 72 -104 118q-68 45 -159 45q-75 0 -133 -30q-56 -29 -94 -79q-40 -53 -62 -114q-26 -71 -34 -133q-9 -67 -9 -139q0 -82 10 -152q11 -75 34 -145t86 -133
t120 -95zM211 1192q-3 -11 -16 -18q-14 -7 -40 -7t-44 3q-16 3 -45 22q-25 16 -34 35q-4 10 -3 15l51 310q5 23 32 35q23 11 46 12h13q20 0 35 -3q26 -5 53 -24q28 -20 40 -46q6 -12 6 -23q0 -3 -2 -11z" />
    <glyph glyph-name="iotadieresistonos" unicode="&#x390;" horiz-adv-x="790" 
d="M347 1195q-3 -11 -16 -18q-14 -7 -41 -7q-26 0 -44 3q-15 2 -44 22q-26 17 -35 35q-3 8 -2 15l50 310q5 23 32 35q23 11 47 12h13q20 0 35 -3q25 -4 52 -24q28 -20 40 -46q9 -19 4 -34zM-192 1351q0 68 48 116t116 48t116 -48t48 -116t-48 -116t-116 -48t-116 48t-48 116
zM462 1351q0 68 48 116t116 48t116 -48t48 -116t-48 -116t-116 -48t-116 48t-48 116z" />
    <glyph glyph-name="Alpha" unicode="&#x391;" horiz-adv-x="1421" 
d="M726 1048l-159 -423h300zM942 379h-448l-136 -379h-311l563 1456h256l508 -1456h-307z" />
    <glyph glyph-name="Beta" unicode="&#x392;" horiz-adv-x="1226" 
d="M387 639v-399h227q155 0 220 58t65 149q0 192 -285 192h-227zM387 1219v-342h168q137 0 197 51q59 50 59 121t-59 120q-61 50 -197 50h-168zM119 1456h436q90 0 169 -14q78 -14 130 -36q53 -23 94 -56q39 -32 64 -66q22 -30 38 -72q15 -40 20 -74q5 -37 5 -68
q0 -108 -56 -176q-56 -69 -149 -97q97 -23 166 -89q70 -67 98 -136q29 -72 29 -133q0 -50 -11 -105q-11 -56 -44 -116q-33 -61 -88 -108q-54 -46 -152 -78q-99 -32 -224 -32h-525v1456z" />
    <glyph glyph-name="Gamma" unicode="&#x393;" horiz-adv-x="1191" 
d="M383 1217v-1217h-268v1456h982v-239h-714z" />
    <glyph glyph-name="Delta" unicode="&#x394;" horiz-adv-x="1548" 
d="M108 0l533 1456h270l529 -1456h-1332zM507 240h542l-274 792z" />
    <glyph glyph-name="Epsilon" unicode="&#x395;" horiz-adv-x="1211" 
d="M114 1456h982v-239h-714v-351h652v-239h-652v-387h714v-240h-982v1456z" />
    <glyph glyph-name="Zeta" unicode="&#x396;" horiz-adv-x="1417" 
d="M139 1456h1167l-798 -1216h792v-240h-1228l800 1217h-733v239z" />
    <glyph glyph-name="Eta" unicode="&#x397;" horiz-adv-x="1253" 
d="M115 1456h268v-592h485v592h269v-1456h-269v625h-485v-625h-268v1456z" />
    <glyph glyph-name="Theta" unicode="&#x398;" horiz-adv-x="1409" 
d="M486 867h453v-240h-453v240zM1047 754q0 89 -17 174t-52 158q-34 72 -104 118q-68 45 -159 45q-75 0 -133 -30q-56 -29 -94 -79q-40 -53 -62 -114q-26 -71 -34 -133q-9 -67 -9 -139q0 -82 10 -152q11 -75 34 -145q25 -74 61 -125q38 -53 96 -86t131 -33q75 0 133 33
q57 32 94 86q40 58 62 125q26 77 34 145q9 73 9 152zM100 754q0 98 20 200q19 95 67 196q45 95 116 172q69 75 175 121q105 46 237 46t237 -46q106 -46 175 -120q67 -71 115 -172t67 -197q20 -102 20 -200q0 -104 -20 -212q-19 -101 -67 -210q-46 -103 -116 -184
q-68 -78 -175 -128q-105 -49 -236 -49q-130 0 -235 49q-109 51 -176 128q-70 81 -116 183q-47 105 -68 210q-20 101 -20 213z" />
    <glyph glyph-name="Iota" unicode="&#x399;" horiz-adv-x="555" 
d="M143 0v1456h269v-1456h-269z" />
    <glyph glyph-name="Kappa" unicode="&#x39a;" horiz-adv-x="1333" 
d="M115 1456h268v-623l543 623h335l-556 -648l585 -808h-336l-454 628l-117 -132v-496h-268v1456z" />
    <glyph glyph-name="Lambda" unicode="&#x39b;" horiz-adv-x="1302" 
d="M954 0l-300 1045l-294 -1045h-290l428 1456h316l418 -1456h-278z" />
    <glyph glyph-name="Mu" unicode="&#x39c;" horiz-adv-x="1548" 
d="M66 0v1456h360l349 -1032l357 1032h359v-1456h-262v999l-318 -999h-270l-313 988v-988h-262z" />
    <glyph glyph-name="Nu" unicode="&#x39d;" horiz-adv-x="1343" 
d="M119 0v1456h260l573 -940v940h269v-1456h-265l-569 973v-973h-268z" />
    <glyph glyph-name="Xi" unicode="&#x39e;" horiz-adv-x="1191" 
d="M115 240l982 1v-240l-982 -1v240zM115 1456l982 1v-240l-982 -1v240zM202 866l786 1v-240l-786 -1v240z" />
    <glyph glyph-name="Omicron" unicode="&#x39f;" horiz-adv-x="1409" 
d="M1047 754q0 89 -17 174t-52 158q-34 72 -104 118q-68 45 -159 45q-75 0 -133 -30q-56 -29 -94 -79q-40 -53 -62 -114q-26 -71 -34 -133q-9 -67 -9 -139q0 -82 10 -152q11 -75 34 -145q25 -74 61 -125q38 -53 96 -86t131 -33q75 0 133 33q57 32 94 86q40 58 62 125
q26 77 34 145q9 73 9 152zM100 754q0 98 20 200q19 95 67 196q45 95 116 172q69 75 175 121q105 46 237 46t237 -46q106 -46 175 -120q67 -71 115 -172t67 -197q20 -102 20 -200q0 -104 -20 -212q-19 -101 -67 -210q-46 -103 -116 -184q-68 -78 -175 -128q-105 -49 -236 -49
q-130 0 -235 49q-109 51 -176 128q-70 81 -116 183q-47 105 -68 210q-20 101 -20 213z" />
    <glyph glyph-name="Pi" unicode="&#x3a0;" horiz-adv-x="1253" 
d="M115 1456h1022v-1456h-269v1217h-485v-1217h-268v1456z" />
    <glyph glyph-name="Rho" unicode="&#x3a1;" horiz-adv-x="1148" 
d="M389 823h130q276 0 276 197t-276 197h-130v-394zM121 1456h268h130q136 0 241 -34q110 -36 174 -94q65 -59 100 -138t35 -170q0 -92 -37 -170q-38 -81 -106 -140q-70 -61 -174 -95q-107 -35 -233 -35h-130v-580h-268v1456z" />
    <glyph glyph-name="Sigma" unicode="&#x3a3;" horiz-adv-x="1548" 
d="M1152 0h-1102v360l333 349l-333 357v359h1102v-262h-824l422 -455l-412 -446h814v-262z" />
    <glyph glyph-name="Tau" unicode="&#x3a4;" horiz-adv-x="1353" 
d="M78 1456h1202v-239h-457v-1217h-268v1217h-477v239z" />
    <glyph glyph-name="Upsilon" unicode="&#x3a5;" horiz-adv-x="1314" 
d="M66 1456h284l310 -537l310 537h278l-451 -751v-705h-269v705z" />
    <glyph glyph-name="Phi" unicode="&#x3a6;" horiz-adv-x="1558" 
d="M925 315v-315h-243v314q-52 6 -73 10q-99 17 -189 53q-94 37 -165 93q-73 57 -115 140q-44 86 -44 189q0 102 44 188q43 84 115 141q66 52 165 92q93 38 189 54q45 8 73 11v169h243v-171q21 -2 55 -8q90 -17 177 -54q88 -38 155 -93t109 -140q41 -83 41 -189t-41 -189
q-42 -86 -108 -141q-63 -53 -155 -92q-84 -36 -177 -53q-51 -8 -56 -9zM925 1057v-516q11 1 33 5q72 13 141 42q65 28 107 83q40 53 40 128q0 59 -27 106q-28 48 -71 76q-47 31 -103 49q-61 20 -119 27h-1zM682 539v519q-3 0 -9 -1t-9 -1q-67 -8 -131 -27q-65 -20 -112 -49
q-49 -30 -78 -76q-29 -45 -29 -105q0 -61 29 -106q31 -48 78 -76q52 -31 112 -49q64 -19 131 -27q3 -1 9 -1t9 -1z" />
    <glyph glyph-name="Chi" unicode="&#x3a7;" horiz-adv-x="1298" 
d="M59 1456h309l269 -501l272 501h310l-424 -729l430 -727h-337l-251 460l-247 -460h-337l427 727z" />
    <glyph glyph-name="Psi" unicode="&#x3a8;" horiz-adv-x="1112" 
d="M1036 1458v-514q0 -261 -123 -414q-83 -102 -211 -135v-395h-269v393q-133 33 -217 136q-124 153 -124 409v6l3 514h251l-2 -514v-7q0 -202 89 -279v797h269v-795q86 78 86 284l-3 515z" />
    <glyph glyph-name="Omega" unicode="&#x3a9;" horiz-adv-x="1409" 
d="M633 229v-229h-602v229h212q-33 54 -55 102q-47 105 -68 210q-20 101 -20 213q0 98 20 200q19 95 67 196q45 95 116 172q69 75 175 121q105 46 237 46t237 -46q106 -46 175 -120q67 -71 115 -172t67 -197q20 -102 20 -200q0 -104 -20 -212q-19 -101 -67 -210
q-23 -52 -55 -103h191v-229h-602v229q60 16 136 80q71 61 94 141q24 83 32 152q9 73 9 152q0 89 -17 174t-52 158q-34 72 -104 118q-68 45 -159 45q-75 0 -133 -30q-56 -29 -94 -79q-40 -53 -62 -114q-26 -71 -34 -133q-9 -67 -9 -139q0 -82 10 -152q11 -75 34 -145t86 -133
t120 -95z" />
    <glyph glyph-name="Iotadieresis" unicode="&#x3aa;" horiz-adv-x="555" 
d="M143 0v1456h269v-1456h-269zM-122 1757q0 68 48 116t116 48t116 -48t48 -116t-48 -116t-116 -48q-67 0 -116 49q-48 48 -48 115zM349 1757q0 68 48 116t116 48t116 -48t48 -116t-48 -116t-116 -48q-67 0 -116 49q-48 48 -48 115z" />
    <glyph glyph-name="Upsilondieresis" unicode="&#x3ab;" horiz-adv-x="1314" 
d="M66 1456h284l310 -537l310 537h278l-451 -751v-705h-269v705zM261 1757q0 68 48 116t116 48t116 -48t48 -116t-48 -116t-116 -48q-67 0 -116 49q-48 48 -48 115zM732 1757q0 68 48 116t116 48t116 -48t48 -116t-48 -116t-116 -48q-67 0 -116 49q-48 48 -48 115z" />
    <glyph glyph-name="alphatonos" unicode="&#x3ac;" horiz-adv-x="1327" 
d="M343 534q0 -331 189 -331t189 331q0 330 -189 330t-189 -330zM1224 962l-168 -172q-13 18 -38 30q-16 7 -39 11v-601q20 1 41 12q26 12 38 29l169 -172q-46 -52 -109 -79q-76 -32 -137 -32q-16 -2 -25 -2q-63 0 -125 38l-69 12l-41 -23q-91 -45 -213 -45q-171 0 -294 152
q-123 151 -123 414q0 261 124 412q125 152 321 152q101 0 185 -41l71 -52q68 68 189 68q74 0 135 -32q73 -39 108 -79zM647 1192q-3 -11 -16 -18q-14 -7 -40 -7t-44 3q-16 3 -45 22q-25 16 -34 35q-4 10 -3 15l51 310q5 23 32 35q23 11 46 12h13q20 0 35 -3q26 -5 53 -24
q28 -20 40 -46q6 -12 6 -23q0 -3 -2 -11z" />
    <glyph glyph-name="epsilontonos" unicode="&#x3ad;" horiz-adv-x="914" 
d="M842 234q-34 -92 -93 -151q-61 -61 -130 -86q-72 -26 -156 -26q-77 0 -150 28q-70 27 -120 74q-49 46 -78 110t-29 131q0 52 16 103q14 46 42 83q25 33 54 59q27 24 63 48q-109 79 -109 207q0 75 28 136q27 58 76 92q52 36 105 51q55 16 125 16q231 0 312 -211l-222 -65
q-11 27 -35 44q-25 18 -59 18q-45 0 -76 -29t-31 -83q0 -41 31 -73q32 -34 73 -34h80l-2 -237h-93q-53 0 -91 -37q-40 -38 -40 -88q0 -52 37 -86q38 -35 94 -35q39 0 80 25q38 23 59 76zM560 1192q-3 -11 -16 -18q-14 -7 -40 -7t-44 3q-16 3 -45 22q-25 16 -34 35
q-4 10 -3 15l51 310q5 23 32 35q23 11 46 12h13q20 0 35 -3q26 -5 53 -24q28 -20 40 -46q6 -12 6 -23q0 -3 -2 -11z" />
    <glyph glyph-name="etatonos" unicode="&#x3ae;" horiz-adv-x="1121" 
d="M377 0h-258v1074h258v-162q44 81 133 136q87 54 190 54q57 0 110 -28q51 -27 100 -82t76 -137q28 -84 28 -187v-245v-819h-258v825v108q0 88 -8 140q-9 59 -24 95q-16 39 -38 58q-25 22 -50 29q-27 8 -60 8t-62 -8q-27 -7 -54 -30q-26 -21 -44 -58q-17 -35 -28 -95
q-11 -63 -11 -140v-536zM647 1192q-3 -11 -16 -18q-14 -7 -40 -7t-44 3q-16 3 -45 22q-25 16 -34 35q-4 10 -3 15l51 310q5 23 32 35q23 11 46 12h13q20 0 35 -3q26 -5 53 -24q28 -20 40 -46q6 -12 6 -23q0 -3 -2 -11z" />
    <glyph glyph-name="iotatonos" unicode="&#x3af;" horiz-adv-x="790" 
d="M138 1073h259l-1 -664v-57q0 -50 33 -80q32 -31 83 -31q24 0 52 13q26 12 38 29l169 -172q-54 -60 -109 -79q-58 -20 -139 -20q-94 0 -185 56q-88 54 -144 148t-56 193v664zM317 1192q-3 -11 -16 -18q-14 -7 -40 -7t-44 3q-16 3 -45 22q-25 16 -34 35q-4 10 -3 15l51 310
q5 23 32 35q23 11 46 12h13q20 0 35 -3q26 -5 53 -24q28 -20 40 -46q6 -12 6 -23q0 -3 -2 -11z" />
    <glyph glyph-name="upsilondieresistonos" unicode="&#x3b0;" horiz-adv-x="1103" 
d="M366 1073v-537q0 -80 12 -140q9 -50 28 -96q22 -54 56 -75q35 -20 70 -20q2 0 7 0.5t7 0.5q36 4 52 8q25 7 52 30q28 23 48 58q19 32 33 96q13 19 13 139q0 103 -20 174q-19 65 -51 103q-30 35 -67 54q-36 18 -75 18l93 234q95 0 170 -46t119 -124t67 -180
q24 -106 24 -253q0 -64 -24 -181q-23 -110 -68 -178q-53 -82 -119 -122q-66 -42 -139 -60q-64 -16 -125 -16q-59 0 -133 16q-106 24 -214 141q-74 81 -74 418v538h258zM617 1192q-3 -11 -16 -18q-14 -7 -41 -7q-26 0 -44 3q-15 2 -44 22q-26 18 -35 35q-3 8 -2 15l50 310
q5 23 32 35q23 11 47 12h13q20 0 35 -3q25 -4 52 -24q28 -20 40 -46q9 -19 4 -34zM78 1348q0 68 48 116t116 48t116 -48t48 -116t-48 -116t-116 -48t-116 48t-48 116zM732 1348q0 68 48 116t116 48t116 -48t48 -116t-48 -116t-116 -48t-116 48t-48 116z" />
    <glyph glyph-name="alpha" unicode="&#x3b1;" horiz-adv-x="1327" 
d="M343 534q0 -331 189 -331t189 331q0 330 -189 330t-189 -330zM1224 962l-168 -172q-13 18 -38 30q-16 7 -39 11v-601q20 1 41 12q26 12 38 29l169 -172q-46 -52 -109 -79q-76 -32 -137 -32q-16 -2 -25 -2q-63 0 -125 38l-69 12l-41 -23q-91 -45 -213 -45q-171 0 -294 152
q-123 151 -123 414q0 261 124 412q125 152 321 152q101 0 185 -41l71 -52q68 68 189 68q74 0 135 -32q73 -39 108 -79z" />
    <glyph glyph-name="beta" unicode="&#x3b2;" horiz-adv-x="1261" 
d="M159 1260q139 268 486 268q208 0 332 -127q125 -128 125 -328q0 -131 -52 -207t-117 -99q27 -6 65 -36q40 -32 74 -76q35 -46 61 -115q25 -68 25 -141q0 -209 -146 -319q-145 -109 -394 -109q-154 0 -203 52l98 203q32 -31 80 -31q92 0 158 19q69 20 112 66q44 47 44 119
q0 104 -100 177t-266 73h-11.5t-9 0.5t-6 0.5h-3.5h-1q1 0 25 194q57 0 104 10q51 11 99 34q50 24 80 72t30 113q0 114 -50 167q-51 54 -153 54q-106 0 -168 -40q-64 -41 -98 -114q-22 -45 -32 -212q-12 -185 -13 -546q-1 -368 -11 -552q-9 -175 -28 -226h-233q19 45 26 172
q8 129 9 486q2 392 4 518q3 154 17 294q13 132 41 186z" />
    <glyph glyph-name="gamma" unicode="&#x3b3;" horiz-adv-x="1060" 
d="M411 0l-339 1073h271l180 -686l193 686h247l-466 -1469h-197z" />
    <glyph glyph-name="delta" unicode="&#x3b4;" horiz-adv-x="1105" 
d="M92 537q0 260 124 411q87 107 220 138l-188 188v240h766v-240h-424l323 -325q123 -152 123 -412t-123 -413t-348 -153q-226 0 -349 151q-124 153 -124 415zM344 537q0 -331 222 -331t222 331q0 329 -222 329t-222 -329z" />
    <glyph glyph-name="epsilon" unicode="&#x3b5;" horiz-adv-x="914" 
d="M842 234q-34 -92 -93 -151q-61 -61 -130 -86q-72 -26 -156 -26q-77 0 -150 28q-70 27 -120 74q-49 46 -78 110t-29 131q0 52 16 103q14 46 42 83q25 33 54 59q27 24 63 48q-109 79 -109 207q0 75 28 136q27 58 76 92q52 36 105 51q55 16 125 16q231 0 312 -211l-222 -65
q-11 27 -35 44q-25 18 -59 18q-45 0 -76 -29t-31 -83q0 -41 31 -73q32 -34 73 -34h80l-2 -237h-93q-53 0 -91 -37q-40 -38 -40 -88q0 -52 37 -86q38 -35 94 -35q39 0 80 25q38 23 59 76z" />
    <glyph glyph-name="zeta" unicode="&#x3b6;" horiz-adv-x="1121" 
d="M574 1215h-454v240h840v-240l-590 -583q-43 -49 -52 -130q-3 -20 -3 -39q0 -104 77 -179q76 -73 184 -73q74 -8 104 -10q139 -9 250 -108q101 -73 114 -247q1 -6 1 -19q0 -57 -29 -117q-27 -59 -75 -92l-212 163q31 29 31 83q0 42 -31 74q-31 33 -73 33h-80
q-239 0 -380 138q-140 137 -140 393q0 163 124 320z" />
    <glyph glyph-name="eta" unicode="&#x3b7;" horiz-adv-x="1121" 
d="M377 0h-258v1074h258v-162q44 81 133 136q87 54 190 54q57 0 110 -28q51 -27 100 -82t76 -137q28 -84 28 -187v-245v-819h-258v825v108q0 88 -8 140q-9 59 -24 95q-16 39 -38 58q-25 22 -50 29q-27 8 -60 8t-62 -8q-27 -7 -54 -30q-26 -21 -44 -58q-17 -35 -28 -95
q-11 -63 -11 -140v-536z" />
    <glyph glyph-name="theta" unicode="&#x3b8;" horiz-adv-x="1177" 
d="M80 756q0 345 135 540q134 194 375 194q238 0 369 -194q130 -193 130 -540q0 -227 -59 -406t-173 -278q-115 -100 -272 -100h-1q-157 0 -272 100t-174 277q-58 174 -58 407zM353 906h464q-11 158 -43 233q-46 109 -184 109q-139 0 -190 -111q-37 -78 -47 -231zM820 666
h-471q1 -42 5 -102q5 -74 22 -150q15 -67 42 -110q28 -43 68 -66q42 -24 98 -24q71 0 117 34q48 35 73 107q26 72 36 167q7 57 10 144z" />
    <glyph glyph-name="iota" unicode="&#x3b9;" horiz-adv-x="790" 
d="M138 1073h259l-1 -664v-57q0 -50 33 -80q32 -31 83 -31q24 0 52 13q26 12 38 29l169 -172q-54 -60 -109 -79q-58 -20 -139 -20q-94 0 -185 56q-88 54 -144 148t-56 193v664z" />
    <glyph glyph-name="kappa" unicode="&#x3ba;" horiz-adv-x="1029" 
d="M291 414v-415h-268v1075h268v-402l400 401h335l-507 -524l502 -549h-336z" />
    <glyph glyph-name="lambda" unicode="&#x3bb;" horiz-adv-x="1060" 
d="M411 1073l-120 441h197l475 -1514h-247l-193 686l-180 -686h-271z" />
    <glyph glyph-name="mu" unicode="&#x3bc;" horiz-adv-x="1128" 
d="M387 78v-475h-244v1470h248v-606q0 -71 20 -126q19 -53 51 -82q28 -26 64 -41q30 -13 60 -13q68 0 122 87q54 86 54 175v606h244v-1073h-244v84q-24 -52 -76 -82q-54 -31 -94 -31q-56 0 -120 33q-66 34 -85 74z" />
    <glyph glyph-name="nu" unicode="&#x3bd;" horiz-adv-x="1060" 
d="M411 0l-339 1073h271l180 -686l193 686h247l-339 -1073h-213z" />
    <glyph glyph-name="xi" unicode="&#x3be;" horiz-adv-x="1121" 
d="M576 211q50 0 104 -10q160 -28 250 -108q101 -73 114 -247q1 -6 1 -19q0 -57 -29 -117q-29 -59 -75 -92l-212 163q31 29 31 83q0 42 -31 74q-31 33 -73 33h-27q-34 -2 -53 -2q-107 0 -200 37q-95 38 -160 100q-68 65 -104 146q-38 85 -38 174q0 73 20 138q19 61 57 110
q36 46 72 79q32 30 84 64q-145 103 -145 276q0 85 26 155h-149v240h894v-240h-359q-62 -8 -106 -50q-54 -51 -54 -147q0 -72 55 -131t130 -59h142v-213h-165q-92 0 -162 -66q-71 -66 -71 -156q0 -93 65 -154t168 -61z" />
    <glyph glyph-name="omicron" unicode="&#x3bf;" horiz-adv-x="1105" 
d="M344 537q0 -331 222 -331t222 331q0 329 -222 329t-222 -329zM92 537q0 260 124 411q125 152 349 152q225 0 348 -151q123 -152 123 -412t-123 -413t-348 -153q-226 0 -349 151q-124 153 -124 415z" />
    <glyph glyph-name="pi" unicode="&#x3c0;" horiz-adv-x="1121" 
d="M756 834h-378v-833h-258v833h-73v240h1027v-240h-60v-833h-258v833z" />
    <glyph glyph-name="rho" unicode="&#x3c1;" horiz-adv-x="1105" 
d="M92 537q0 260 124 411q125 152 349 152q225 0 348 -151q123 -152 123 -412t-123 -413t-348 -153q-128 0 -221 47v-445l-251 1zM344 537q0 -331 222 -331t222 331q0 329 -222 329t-222 -329z" />
    <glyph glyph-name="sigma1" unicode="&#x3c2;" horiz-adv-x="1047" 
d="M766 756q-64 114 -180 114q-99 0 -168 -96q-70 -97 -70 -242q0 -148 74 -238q75 -91 184 -91q40 0 66 10q28 11 42 26q12 13 26 36t22 40l214 -111q-26 -43 -63 -85q-32 -36 -83 -74q-47 -35 -104 -54q-60 -20 -120 -20q-239 0 -380 153q-140 152 -140 408q0 253 141 410
q141 158 359 158q115 0 226 -64q108 -62 167 -168z" />
    <glyph glyph-name="sigma" unicode="&#x3c3;" horiz-adv-x="1150" 
d="M92 537q0 260 124 411q125 152 349 152h574l1 -234h-173q69 -134 69 -329q0 -260 -123 -413t-348 -153q-226 0 -349 151q-124 153 -124 415zM344 537q0 -331 222 -331t222 331q0 329 -222 329t-222 -329z" />
    <glyph glyph-name="tau" unicode="&#x3c4;" horiz-adv-x="1121" 
d="M119 1074h899v-239l-321 -1l-6 -416v-57q0 -49 33 -79q34 -32 83 -32q27 0 52 12t38 30l169 -172q-54 -61 -108 -79q-58 -20 -140 -20q-93 0 -184 56q-96 60 -146 149q-52 92 -55 192l-4 416l-310 1v239z" />
    <glyph glyph-name="upsilon" unicode="&#x3c5;" horiz-adv-x="1103" 
d="M366 1073v-537q0 -80 12 -140q9 -50 28 -96q22 -54 56 -75q35 -20 70 -20q2 0 7 0.5t7 0.5q36 4 52 8q25 7 52 30q28 23 48 58q19 32 33 96q13 19 13 139q0 103 -20 174q-19 65 -51 103q-30 35 -67 54q-36 18 -75 18l93 234q95 0 170 -46t119 -124t67 -180
q24 -106 24 -253q0 -64 -24 -181q-23 -110 -68 -178q-53 -82 -119 -122q-66 -42 -139 -60q-64 -16 -125 -16q-59 0 -133 16q-106 24 -214 141q-74 81 -74 418v538h258z" />
    <glyph glyph-name="phi" unicode="&#x3c6;" horiz-adv-x="1268" 
d="M480 -396v381q-18 4 -43 11q-73 21 -142 66q-68 44 -121 108t-84 152q-32 91 -32 194q0 110 33 205q33 96 86 157q56 65 123 109l66 -199q-49 -43 -79 -114q-30 -70 -30 -158q0 -83 31 -153t79 -109q49 -40 106 -61q1 -1 3.5 -2t3.5 -1v445q0 98 56 193q56 92 144 148
q59 36 154 36h22q99 -24 167 -96q76 -83 114 -178q42 -105 42 -222q0 -155 -77 -282q-76 -126 -196 -193q-70 -39 -167 -55v-382h-259zM864 789q-21 12 -39 12q-30 0 -54 -29q-33 -30 -33 -80v-57v-449q23 7 30 10q55 23 104 66q48 42 78 108t30 146q0 88 -33 160t-83 113z
" />
    <glyph glyph-name="chi" unicode="&#x3c7;" horiz-adv-x="854" 
d="M816 -396h-252l-141 388l-141 -388h-252l267 734l-267 735h252l141 -388l141 388h252l-267 -735z" />
    <glyph glyph-name="psi" unicode="&#x3c8;" horiz-adv-x="1112" 
d="M1036 1073v-536q0 -260 -123 -413q-84 -103 -211 -136v-384h-269v382q-133 33 -217 136q-124 153 -124 403v12q3 248 3 382q0 133 -3 154h257q-5 -62 -5 -536q0 -209 89 -286v1009h269v-1007q86 78 86 284l-3 536h251z" />
    <glyph glyph-name="omega" unicode="&#x3c9;" horiz-adv-x="1712" 
d="M746 536v264h258v-264q0 -80 12 -140q9 -46 29 -96q23 -54 55 -75q35 -20 71 -20q3 0 7 0.5t7 0.5q34 4 51 8q25 7 52 30q28 23 48 58q19 32 33 96q13 19 13 139q0 103 -20 174q-19 65 -51 103q-30 35 -67 54q-36 18 -75 18l93 234q95 0 170 -46t119 -124q46 -81 68 -180
q23 -102 23 -253q0 -64 -24 -181q-23 -110 -68 -178q-51 -80 -119 -122t-139 -60q-64 -16 -125 -16q-59 0 -133 16q-79 18 -159 87q-79 -69 -159 -87q-74 -16 -133 -16q-61 0 -125 16q-73 18 -139 60q-66 40 -119 122q-45 68 -68 178q-24 117 -24 181q0 147 24 253
q23 102 67 180t119 124t170 46l93 -234q-38 0 -74 -18q-39 -20 -68 -54q-32 -38 -51 -103q-20 -71 -20 -174q0 -120 13 -139q14 -61 34 -96q21 -37 47 -58q27 -23 52 -30q16 -4 52 -8q2 0 7 -0.5t7 -0.5q35 0 70 20q34 21 56 75q20 50 29 96q11 55 11 140z" />
    <glyph glyph-name="iotadieresis" unicode="&#x3ca;" horiz-adv-x="790" 
d="M138 1073h259l-1 -664v-57q0 -50 33 -80q32 -31 83 -31q24 0 52 13q26 12 38 29l169 -172q-54 -60 -109 -79q-58 -20 -139 -20q-94 0 -185 56q-88 54 -144 148t-56 193v664zM-128 1351q0 68 48 116t116 48t116 -48t48 -116t-48 -116t-116 -48q-67 0 -116 49
q-48 48 -48 115zM343 1351q0 68 48 116t116 48t116 -48t48 -116t-48 -116t-116 -48q-67 0 -116 49q-48 48 -48 115z" />
    <glyph glyph-name="upsilondieresis" unicode="&#x3cb;" horiz-adv-x="1103" 
d="M39 1350q0 68 48 116t116 48t116 -48t48 -116t-48 -116t-116 -48t-116 48t-48 116zM510 1350q0 68 48 116t116 48t116 -48t48 -116t-48 -116t-116 -48t-116 48t-48 116zM366 1073v-537q0 -80 12 -140q9 -50 28 -96q22 -54 56 -75q35 -20 70 -20q2 0 7 0.5t7 0.5
q36 4 52 8q25 7 52 30q28 23 48 58q19 32 33 96q13 19 13 139q0 103 -20 174q-19 65 -51 103q-30 35 -67 54q-36 18 -75 18l93 234q95 0 170 -46t119 -124t67 -180q24 -106 24 -253q0 -64 -24 -181q-23 -110 -68 -178q-53 -82 -119 -122q-66 -42 -139 -60q-64 -16 -125 -16
q-59 0 -133 16q-106 24 -214 141q-74 81 -74 418v538h258z" />
    <glyph glyph-name="omicrontonos" unicode="&#x3cc;" horiz-adv-x="1105" 
d="M344 537q0 -331 222 -331t222 331q0 329 -222 329t-222 -329zM92 537q0 260 124 411q125 152 349 152q225 0 348 -151q123 -152 123 -412t-123 -413t-348 -153q-226 0 -349 151q-124 153 -124 415zM647 1192q-3 -11 -16 -18q-14 -7 -40 -7t-44 3q-16 3 -45 22
q-25 16 -34 35q-4 10 -3 15l51 310q5 23 32 35q23 11 46 12h13q20 0 35 -3q26 -5 53 -24q28 -20 40 -46q6 -12 6 -23q0 -3 -2 -11z" />
    <glyph glyph-name="upsilontonos" unicode="&#x3cd;" horiz-adv-x="1103" 
d="M366 1073v-537q0 -80 12 -140q9 -50 28 -96q22 -54 56 -75q35 -20 70 -20q2 0 7 0.5t7 0.5q36 4 52 8q25 7 52 30q28 23 48 58q19 32 33 96q13 19 13 139q0 103 -20 174q-19 65 -51 103q-30 35 -67 54q-36 18 -75 18l93 234q95 0 170 -46t119 -124t67 -180
q24 -106 24 -253q0 -64 -24 -181q-23 -110 -68 -178q-53 -82 -119 -122q-66 -42 -139 -60q-64 -16 -125 -16q-59 0 -133 16q-106 24 -214 141q-74 81 -74 418v538h258zM545 1192q-3 -11 -16 -18q-14 -7 -40 -7t-44 3q-16 3 -45 22q-25 16 -34 35q-4 10 -3 15l51 310
q5 23 32 35q23 11 46 12h13q20 0 35 -3q26 -5 53 -24q28 -20 40 -46q6 -12 6 -23q0 -3 -2 -11z" />
    <glyph glyph-name="omegatonos" unicode="&#x3ce;" horiz-adv-x="1712" 
d="M746 536v264h258v-264q0 -80 12 -140q9 -46 29 -96q23 -54 55 -75q35 -20 71 -20q3 0 7 0.5t7 0.5q34 4 51 8q25 7 52 30q28 23 48 58q19 32 33 96q13 19 13 139q0 103 -20 174q-19 65 -51 103q-30 35 -67 54q-36 18 -75 18l93 234q95 0 170 -46t119 -124q46 -81 68 -180
q23 -102 23 -253q0 -64 -24 -181q-23 -110 -68 -178q-51 -80 -119 -122t-139 -60q-64 -16 -125 -16q-59 0 -133 16q-79 18 -159 87q-79 -69 -159 -87q-74 -16 -133 -16q-61 0 -125 16q-73 18 -139 60q-66 40 -119 122q-45 68 -68 178q-24 117 -24 181q0 147 24 253
q23 102 67 180t119 124t170 46l93 -234q-38 0 -74 -18q-39 -20 -68 -54q-32 -38 -51 -103q-20 -71 -20 -174q0 -120 13 -139q14 -61 34 -96q21 -37 47 -58q27 -23 52 -30q16 -4 52 -8q2 0 7 -0.5t7 -0.5q35 0 70 20q34 21 56 75q20 50 29 96q11 55 11 140zM920 1192
q-3 -11 -16 -18q-14 -7 -40 -7t-44 3q-16 3 -45 22q-25 16 -34 35q-4 10 -3 15l51 310q5 23 32 35q23 11 46 12h13q20 0 35 -3q26 -5 53 -24q28 -20 40 -46q6 -12 6 -23q0 -3 -2 -11z" />
    <glyph glyph-name="theta1" unicode="&#x3d1;" horiz-adv-x="1177" 
d="M105 666h234q-1 -14 -1 -42q0 -78 16 -159q24 -122 57 -162q34 -42 75 -65q42 -24 98 -24q71 0 117 34q48 35 73 107q26 72 36 167q7 57 10 144q-199 0 -338 56q-140 56 -218 136q-74 74 -80 247v28q0 113 31 163l1 1q136 193 374 193t369 -194q130 -193 130 -540
q0 -227 -59 -406t-173 -278q-115 -100 -272 -100h-1q-157 0 -272 100q-132 116 -174 277q-33 129 -33 290v27zM819 861q-7 197 -45 278q-55 121 -174 121q-195 0 -203 -121q-2 -22 -2 -34q0 -70 31 -119q32 -51 86 -76q56 -27 115 -38q56 -11 192 -11z" />
    <glyph glyph-name="phi1" unicode="&#x3d5;" horiz-adv-x="1128" 
d="M92 537q0 260 124 411q88 108 225 139v367h243v-366q139 -30 229 -139q123 -152 123 -412t-123 -413q-89 -110 -229 -141v-379h-243v380q-138 32 -225 138q-124 153 -124 415zM441 828q-97 -73 -97 -291q0 -220 97 -293v584zM684 833v-594q104 72 104 298q0 225 -104 296
z" />
    <glyph glyph-name="omega1" unicode="&#x3d6;" horiz-adv-x="1712" 
d="M114 1125h1524v-240h-55q23 -55 36 -115q23 -102 23 -253q0 -64 -24 -181q-23 -110 -68 -178q-51 -80 -119 -122t-139 -60q-64 -16 -125 -16q-59 0 -133 16q-79 18 -159 87q-79 -69 -159 -87q-74 -16 -133 -16q-61 0 -125 16q-73 18 -139 60q-66 40 -119 122
q-45 68 -68 178q-24 117 -24 181q0 147 24 253q13 60 36 115h-54v240zM746 536v264h258v-264q0 -80 12 -140q9 -46 29 -96q23 -54 55 -75q35 -20 71 -20q3 0 7 0.5t7 0.5q34 4 51 8q25 7 52 30q28 23 48 58q19 32 33 96q13 19 13 139q0 103 -20 174q-19 65 -51 103
q-30 35 -67 54q-28 14 -56 17h-625q-28 -3 -56 -17q-39 -20 -68 -54q-32 -38 -51 -103q-20 -71 -20 -174q0 -120 13 -139q14 -61 34 -96q21 -37 47 -58q27 -23 52 -30q16 -4 52 -8q2 0 7 -0.5t7 -0.5q35 0 70 20q34 21 56 75q20 50 29 96q11 55 11 140z" />
    <glyph glyph-name="afii10023" unicode="&#x401;" horiz-adv-x="1211" 
d="M253 1757q0 68 48 116t116 48t116 -48t48 -116t-48 -116t-116 -48q-67 0 -116 49q-48 48 -48 115zM724 1757q0 68 48 116t116 48t116 -48t48 -116t-48 -116t-116 -48q-67 0 -116 49q-48 48 -48 115zM114 1456h982v-239h-714v-351h652v-239h-652v-387h714v-240h-982v1456z
" />
    <glyph glyph-name="afii10051" unicode="&#x402;" horiz-adv-x="1253" 
d="M377 0h-258v1212h-165v240h604v-240h-181v-300q35 50 159 136q78 54 218 54q93 0 146 -28q51 -27 114 -82t90 -137q28 -84 28 -187v-179h1v-92q0 -101 -55 -193t-146 -148t-184 -56q-82 0 -140 20q-54 18 -108 79l169 172q12 -17 38 -29q28 -13 52 -13q51 0 83 31
q33 33 33 80v86h-1v111q0 88 -8 140q-9 58 -38 95q-30 38 -70 58q-44 22 -68 29q-27 8 -60 8q-44 0 -76 -8q-69 -20 -112 -88q-10 -15 -42 -95q-23 -58 -23 -140v-536z" />
    <glyph glyph-name="afii10052" unicode="&#x403;" horiz-adv-x="1191" 
d="M383 1217v-1217h-268v1456h982v-239h-714zM511 1533q-7 -5 -13 -5q-2 0 -10 2q-18 5 -36 20q-19 16 -31 31t-21 45q-6 20 -6 34q0 5 2 15q2 8 8 13l282 247q11 10 29 10q9 0 19 -3q23 -6 43 -21q19 -14 35 -33q17 -20 24 -52q4 -16 4 -34q0 -14 -3 -26q-5 -20 -18 -30z
" />
    <glyph glyph-name="afii10053" unicode="&#x404;" horiz-adv-x="1310" 
d="M1232 310q-159 -343 -507 -343q-137 0 -248 44q-110 44 -181 119q-70 75 -118 176q-49 103 -68 214q-20 114 -20 234q0 119 21 224q21 107 69 202q49 98 120 166q73 70 182 110q111 41 245 41q177 0 307 -91q129 -90 186 -219l-255 -89q-41 66 -107 112q-68 47 -131 47
q-79 0 -141 -27q-63 -28 -102 -74q-38 -46 -64 -112t-36 -136q0 -2 -1 -6.5t-1 -7.5h443v-240h-448q3 -40 17 -107q22 -98 61 -173q41 -78 110 -121q70 -44 160 -44q136 0 248 201z" />
    <glyph glyph-name="afii10054" unicode="&#x405;" horiz-adv-x="1202" 
d="M83 404l268 43q26 -102 92 -167q69 -67 177 -67q111 0 172 53q60 52 60 138q0 47 -19 84q-21 40 -47 62q-29 25 -76 48q-53 26 -90 41q-7 3 -44.5 17t-61.5 24q-71 29 -108 46q-49 24 -80 42q-28 17 -72 52q-38 31 -63 68q-23 35 -40 88q-16 51 -16 114q0 97 41 176
q42 82 109 128q67 47 155 73q84 25 180 25q167 0 296 -87q130 -87 173 -219l-273 -51q-50 116 -196 116q-94 0 -152 -37q-59 -38 -59 -124q0 -40 27 -74q25 -32 76 -60q44 -24 98 -46q83 -34 110 -44q71 -27 94 -38q50 -24 100 -53q42 -25 85 -63q41 -37 69 -80
q24 -37 42 -101q16 -57 16 -127q0 -197 -145 -315t-361 -118q-209 0 -358 119q-150 120 -179 314z" />
    <glyph glyph-name="afii10055" unicode="&#x406;" horiz-adv-x="555" 
d="M143 0v1456h269v-1456h-269z" />
    <glyph glyph-name="afii10056" unicode="&#x407;" horiz-adv-x="555" 
d="M-117 1757q0 68 48 116t116 48t116 -48t48 -116t-48 -116t-116 -48q-67 0 -116 49q-48 48 -48 115zM354 1757q0 68 48 116t116 48t116 -48t48 -116t-48 -116t-116 -48q-67 0 -116 49q-48 48 -48 115zM143 0v1456h269v-1456h-269z" />
    <glyph glyph-name="afii10057" unicode="&#x408;" horiz-adv-x="1251" 
d="M102 586h241q0 -69 14 -133q13 -60 45 -117q31 -55 85 -86q55 -31 129 -31q70 0 119 31q51 32 76 86q25 53 37 115q12 61 12 135v630h-371v240h639v-240v-630q0 -184 -56 -323q-56 -138 -173 -218q-118 -80 -283 -80q-106 0 -190 31q-88 32 -146 86q-59 54 -100 134
q-39 75 -59 170q-19 91 -19 200z" />
    <glyph glyph-name="afii10058" unicode="&#x409;" horiz-adv-x="1957" 
d="M595 1456h617v-239v-341h130q126 0 233 -35q102 -34 173 -95q68 -59 106 -140t38 -170q0 -93 -34 -170q-33 -76 -102 -138q-65 -59 -172 -94q-105 -34 -242 -34h-130h-268v1217h-125l-120 -820q-20 -134 -55 -193q-55 -92 -146 -148t-184 -56q-82 0 -140 20
q-54 18 -108 79l169 172q12 -17 38 -29q28 -13 52 -13q43 0 75 24l41 87zM1212 633v-394h130q276 0 276 197t-276 197h-130z" />
    <glyph glyph-name="afii10059" unicode="&#x40a;" horiz-adv-x="1717" 
d="M115 1456h268v-592h311v592h268h1v-580h129q126 0 233 -35q102 -34 173 -95q68 -59 106 -140t38 -170q0 -93 -34 -170q-33 -76 -102 -138q-65 -59 -172 -94q-105 -34 -242 -34h-129h-269v625h-311v-625h-268v1456zM963 239h129q276 0 276 197t-276 197h-129v-394z" />
    <glyph glyph-name="afii10060" unicode="&#x40b;" horiz-adv-x="1121" 
d="M377 0h-258v1214h-119v240h504v-240h-127v-302q44 81 133 136q87 54 190 54q57 0 110 -28q51 -27 100 -82t76 -137q28 -84 28 -187v-668h-258v537q0 88 -8 140q-9 59 -24 95q-16 39 -38 58q-25 22 -50 29q-27 8 -60 8t-62 -8q-27 -7 -54 -30q-26 -21 -44 -58
q-17 -35 -28 -95q-11 -63 -11 -140v-536z" />
    <glyph glyph-name="afii10061" unicode="&#x40c;" horiz-adv-x="1333" 
d="M115 1456h268v-623l543 623h335l-556 -648l585 -808h-336l-454 628l-117 -132v-496h-268v1456zM607 1533q-7 -5 -13 -5q-2 0 -10 2q-18 5 -36 20q-19 16 -31 31t-21 45q-6 20 -6 34q0 5 2 15q2 8 8 13l282 247q11 10 29 10q9 0 19 -3q23 -6 43 -21q19 -14 35 -33
q17 -20 24 -52q4 -16 4 -34q0 -14 -3 -26q-5 -20 -18 -30z" />
    <glyph glyph-name="afii10062" unicode="&#x40e;" horiz-adv-x="1314" 
d="M66 1456h284l310 -537l310 537h278l-452 -751l-286 -501q-55 -92 -146 -148t-184 -56q-82 0 -140 20q-54 18 -108 79l169 172q12 -17 38 -29q28 -13 52 -13q52 0 83 31l254 445zM267 1757q0 68 48 116t116 48t116 -48t48 -116t-48 -116t-116 -48q-67 0 -116 49
q-48 48 -48 115zM738 1757q0 68 48 116t116 48t116 -48t48 -116t-48 -116t-116 -48q-67 0 -116 49q-48 48 -48 115z" />
    <glyph glyph-name="afii10145" unicode="&#x40f;" horiz-adv-x="1238" 
d="M504 -240v240h-388v1456h268v-1217h484v1217h270v-1456h-394v-240h-240z" />
    <glyph glyph-name="afii10017" unicode="&#x410;" horiz-adv-x="1421" 
d="M726 1048l-159 -423h300zM942 379h-448l-136 -379h-311l563 1456h256l508 -1456h-307z" />
    <glyph glyph-name="afii10018" unicode="&#x411;" horiz-adv-x="1148" 
d="M121 0v1216v240h799v-240h-531v-340h130q126 0 233 -35q104 -34 174 -95q68 -59 106 -140q37 -78 37 -170q0 -91 -35 -170t-100 -138q-64 -58 -174 -94q-105 -34 -241 -34h-130h-268zM389 633v-394h130q276 0 276 197t-276 197h-130z" />
    <glyph glyph-name="afii10019" unicode="&#x412;" horiz-adv-x="1226" 
d="M387 639v-399h227q155 0 220 58t65 149q0 192 -285 192h-227zM387 1219v-342h168q137 0 197 51q59 50 59 121t-59 120q-61 50 -197 50h-168zM119 1456h436q90 0 169 -14q78 -14 130 -36q53 -23 94 -56q39 -32 64 -66q22 -30 38 -72q15 -40 20 -74q5 -37 5 -68
q0 -108 -56 -176q-56 -69 -149 -97q97 -23 166 -89q70 -67 98 -136q29 -72 29 -133q0 -50 -11 -105q-11 -56 -44 -116q-33 -61 -88 -108q-54 -46 -152 -78q-99 -32 -224 -32h-525v1456z" />
    <glyph glyph-name="afii10020" unicode="&#x413;" horiz-adv-x="1191" 
d="M383 1217v-1217h-268v1456h982v-239h-714z" />
    <glyph glyph-name="afii10021" unicode="&#x414;" horiz-adv-x="1676" 
d="M595 1456h741v-1216l240 -1v-480h-240v241h-1022v-241h-240v480l303 1q16 8 23 13l41 87zM1068 243l-1 974h-248l-120 -820q-15 -102 -38 -157z" />
    <glyph glyph-name="afii10022" unicode="&#x415;" horiz-adv-x="1211" 
d="M114 1456h982v-239h-714v-351h652v-239h-652v-387h714v-240h-982v1456z" />
    <glyph glyph-name="afii10024" unicode="&#x416;" horiz-adv-x="1669" 
d="M119 1456h309l267 -497v494l-1 3l1 -2v2h269h5l-5 -497l2 -4l269 501h309l-421 -729l427 -727h-337l-247 460l-2 -4v-456h-269v456l-245 -456h-337l427 727z" />
    <glyph glyph-name="afii10025" unicode="&#x417;" horiz-adv-x="1177" 
d="M93 323l258 70q37 -92 105 -136q67 -43 142 -43q101 0 168 62q65 61 65 153q0 91 -71 157q-69 65 -162 65h-165v213h142q75 0 130 60q55 59 55 130q0 97 -54 148t-137 51q-58 0 -103 -33q-44 -32 -64 -78l-250 66q108 282 416 282q91 0 166 -22q76 -22 140 -68t101 -123
t37 -181q0 -173 -145 -276q52 -34 84 -64q39 -35 72 -78q37 -48 57 -111q20 -65 20 -138q0 -90 -38 -175q-36 -81 -104 -146q-64 -61 -160 -99q-93 -37 -200 -37q-115 0 -208 34q-94 34 -174 116t-123 201z" />
    <glyph glyph-name="afii10026" unicode="&#x418;" horiz-adv-x="1343" 
d="M119 1456h268v-973l569 973h265v-1456h-269v940l-573 -940h-260v1456z" />
    <glyph glyph-name="afii10027" unicode="&#x419;" horiz-adv-x="1343" 
d="M119 1456h268v-973l569 973h265v-1456h-269v940l-573 -940h-260v1456zM733 1768q47 34 127 174h157q1 -10 1 -31q0 -117 -70 -235q-40 -68 -123 -115q-78 -45 -158 -45t-158 45q-83 47 -123 115q-70 118 -70 235q0 21 1 31h161q56 -129 122 -173q22 -15 71 -17
q42 2 62 16z" />
    <glyph glyph-name="afii10028" unicode="&#x41a;" horiz-adv-x="1333" 
d="M115 1456h268v-623l543 623h335l-556 -648l585 -808h-336l-454 628l-117 -132v-496h-268v1456z" />
    <glyph glyph-name="afii10029" unicode="&#x41b;" horiz-adv-x="1402" 
d="M595 1456h741v-1456h-269v1217h-248l-120 -820q-20 -134 -55 -193q-55 -92 -146 -148t-184 -56q-82 0 -140 20q-54 18 -108 79l169 172q12 -17 38 -29q28 -13 52 -13q43 0 75 24l41 87z" />
    <glyph glyph-name="afii10030" unicode="&#x41c;" horiz-adv-x="1548" 
d="M66 0v1456h360l349 -1032l357 1032h359v-1456h-262v999l-318 -999h-270l-313 988v-988h-262z" />
    <glyph glyph-name="afii10031" unicode="&#x41d;" horiz-adv-x="1253" 
d="M115 1456h268v-592h485v592h269v-1456h-269v625h-485v-625h-268v1456z" />
    <glyph glyph-name="afii10032" unicode="&#x41e;" horiz-adv-x="1409" 
d="M1047 754q0 89 -17 174t-52 158q-34 72 -104 118q-68 45 -159 45q-75 0 -133 -30q-56 -29 -94 -79q-40 -53 -62 -114q-26 -71 -34 -133q-9 -67 -9 -139q0 -82 10 -152q11 -75 34 -145q25 -74 61 -125q38 -53 96 -86t131 -33q75 0 133 33q57 32 94 86q40 58 62 125
q26 77 34 145q9 73 9 152zM100 754q0 98 20 200q19 95 67 196q45 95 116 172q69 75 175 121q105 46 237 46t237 -46q106 -46 175 -120q67 -71 115 -172t67 -197q20 -102 20 -200q0 -104 -20 -212q-19 -101 -67 -210q-46 -103 -116 -184q-68 -78 -175 -128q-105 -49 -236 -49
q-130 0 -235 49q-109 51 -176 128q-70 81 -116 183q-47 105 -68 210q-20 101 -20 213z" />
    <glyph glyph-name="afii10033" unicode="&#x41f;" horiz-adv-x="1253" 
d="M115 1456h1022v-1456h-269v1217h-485v-1217h-268v1456z" />
    <glyph glyph-name="afii10034" unicode="&#x420;" horiz-adv-x="1148" 
d="M389 823h130q276 0 276 197t-276 197h-130v-394zM121 1456h268h130q136 0 241 -34q110 -36 174 -94q65 -59 100 -138t35 -170q0 -92 -37 -170q-38 -81 -106 -140q-70 -61 -174 -95q-107 -35 -233 -35h-130v-580h-268v1456z" />
    <glyph glyph-name="afii10035" unicode="&#x421;" horiz-adv-x="1310" 
d="M1232 310q-159 -343 -507 -343q-137 0 -248 44q-110 44 -181 119q-70 75 -118 176q-49 103 -68 214q-20 114 -20 234q0 119 21 224q21 107 69 202q49 98 120 166q73 70 182 110q111 41 245 41q177 0 307 -91q129 -90 186 -219l-255 -89q-41 66 -107 112q-68 47 -131 47
q-79 0 -141 -27q-63 -28 -102 -74q-38 -46 -64 -112t-36 -136q-11 -74 -11 -154q0 -111 21 -207q22 -98 61 -173q41 -78 110 -121q70 -44 160 -44q136 0 248 201z" />
    <glyph glyph-name="afii10036" unicode="&#x422;" horiz-adv-x="1353" 
d="M78 1456h1202v-239h-457v-1217h-268v1217h-477v239z" />
    <glyph glyph-name="afii10037" unicode="&#x423;" horiz-adv-x="1314" 
d="M66 1456h284l310 -537l310 537h278l-452 -751l-286 -501q-55 -92 -146 -148t-184 -56q-82 0 -140 20q-54 18 -108 79l169 172q12 -17 38 -29q28 -13 52 -13q52 0 83 31l254 445z" />
    <glyph glyph-name="afii10038" unicode="&#x424;" horiz-adv-x="1558" 
d="M925 315v-315h-243v314q-52 6 -73 10q-99 17 -189 53q-94 37 -165 93q-73 57 -115 140q-44 86 -44 189q0 102 44 188q43 84 115 141q66 52 165 92q93 38 189 54q45 8 73 11v169h243v-171q21 -2 55 -8q90 -17 177 -54q88 -38 155 -93t109 -140q41 -83 41 -189t-41 -189
q-42 -86 -108 -141q-63 -53 -155 -92q-84 -36 -177 -53q-51 -8 -56 -9zM925 1057v-516q11 1 33 5q72 13 141 42q65 28 107 83q40 53 40 128q0 59 -27 106q-28 48 -71 76q-47 31 -103 49q-61 20 -119 27h-1zM682 539v519q-3 0 -9 -1t-9 -1q-67 -8 -131 -27q-65 -20 -112 -49
q-49 -30 -78 -76q-29 -45 -29 -105q0 -61 29 -106q31 -48 78 -76q52 -31 112 -49q64 -19 131 -27q3 -1 9 -1t9 -1z" />
    <glyph glyph-name="afii10039" unicode="&#x425;" horiz-adv-x="1298" 
d="M59 1456h309l269 -501l272 501h310l-424 -729l430 -727h-337l-251 460l-247 -460h-337l427 727z" />
    <glyph glyph-name="afii10040" unicode="&#x426;" horiz-adv-x="1253" 
d="M115 0v1456h268v-1217h485v1217h269v-1456h-1022z" />
    <glyph glyph-name="afii10041" unicode="&#x427;" horiz-adv-x="1121" 
d="M756 1455h258v-1455h-258v543q-45 -82 -132 -136t-191 -54q-54 0 -109 29q-58 31 -102 80q-45 51 -74 138t-29 187v245v423h258v-429v-108q0 -82 9 -140q10 -63 23 -95q15 -36 39 -57q27 -24 48 -30q27 -8 61 -8t63 8q27 8 54 30q26 21 44 58q17 34 28 96q10 57 10 139
v536z" />
    <glyph glyph-name="afii10042" unicode="&#x428;" horiz-adv-x="1644" 
d="M115 0v1456h268v-1217h291v1217h268v-1217h333v1217h269v-1456h-1429z" />
    <glyph glyph-name="afii10043" unicode="&#x429;" horiz-adv-x="1884" 
d="M115 0v1456h268v-1217h291v1217h268v-1217h333v1217h269v-1217l240 1v-468h-240v228h-1429z" />
    <glyph glyph-name="afii10044" unicode="&#x42a;" horiz-adv-x="1288" 
d="M310 0v1216h-280v240h548v-580h130q127 0 234 -35q102 -34 173 -95q68 -59 106 -140q37 -78 37 -170q0 -93 -34 -170t-101 -138q-65 -59 -173 -94q-105 -34 -242 -34h-130h-268zM578 633v-394h130q276 0 276 197t-276 197h-130z" />
    <glyph glyph-name="afii10045" unicode="&#x42b;" horiz-adv-x="1248" 
d="M322 633v-394h98q164 0 164 197t-164 197h-98zM121 0v1456h268v-580h31q95 0 174 -35t130 -95q52 -61 80 -140q28 -78 28 -170q0 -90 -26 -170q-25 -76 -76 -138q-49 -59 -129 -94q-78 -34 -181 -34h-98h-201zM879 0v1456h269v-1456h-269z" />
    <glyph glyph-name="afii10046" unicode="&#x42c;" horiz-adv-x="1148" 
d="M389 633v-394h130q276 0 276 197t-276 197h-130zM121 0v1456h268v-580h130q126 0 233 -35q104 -34 174 -95q68 -59 106 -140q37 -78 37 -170q0 -91 -35 -170t-100 -138q-64 -58 -174 -94q-105 -34 -241 -34h-130h-268z" />
    <glyph glyph-name="afii10047" unicode="&#x42d;" horiz-adv-x="1310" 
d="M90 310l259 100q113 -201 248 -201q90 0 160 44q69 43 110 121q39 75 61 173q21 96 21 207q0 80 -11 154q-10 70 -36 136t-64 112q-39 46 -102 74q-62 27 -141 27q-63 0 -131 -47q-66 -46 -107 -112l-255 89q57 129 186 219q130 91 307 91q134 0 245 -41
q109 -40 182 -110q71 -68 120 -166q48 -95 69 -202q21 -105 21 -224q0 -120 -20 -234q-19 -111 -68 -214q-48 -101 -118 -176q-71 -75 -181 -119q-111 -44 -248 -44q-348 0 -507 343z" />
    <glyph glyph-name="afii10048" unicode="&#x42e;" horiz-adv-x="1652" 
d="M143 0v1456h269v-550h150q24 239 128 390q134 194 375 194q238 0 369 -194q130 -193 130 -540q0 -231 -58 -406q-59 -178 -174 -278t-272 -100h-1q-157 0 -272 100q-114 99 -173 277q-48 146 -57 317h-145v-666h-269zM823 756q0 -98 7 -192q5 -74 22 -150q15 -67 42 -110
q28 -43 68 -66q42 -24 97 -24q71 0 117 34q48 35 73 107q27 77 37 167q10 91 10 234q0 275 -46 383q-46 109 -185 109q-140 0 -191 -111t-51 -381z" />
    <glyph glyph-name="afii10049" unicode="&#x42f;" horiz-adv-x="1210" 
d="M896 823v394h-128q-278 0 -278 -197t278 -197h128zM427 0h-306l372 627q-132 56 -205 164q-72 107 -72 229q0 93 34 170q33 76 102 138q65 59 173 94q105 34 243 34h128h268v-1456h-268v580h-38q-12 0 -30 -0.5t-23 -0.5q-43 0 -65 2z" />
    <glyph glyph-name="afii10065" unicode="&#x430;" horiz-adv-x="1080" 
d="M535 524q-89 0 -145 -50q-58 -52 -58 -118t57 -116q56 -49 146 -49q86 0 140 49q52 48 52 116q0 69 -52 118q-53 50 -140 50zM450 741q99 0 174 -51q76 -52 95 -114v82q0 58 -17 103q-17 44 -40 69q-25 27 -60 42t-66 20q-33 5 -64 5q-45 0 -90 -9t-66 -18
q-4 -1 -24.5 -10.5t-35.5 -15.5l-103 164q46 37 142 65q99 29 177 29q77 0 154 -16q72 -15 137 -52q69 -39 113 -92q47 -56 74 -141q28 -89 28 -192v-304v-305h-257v136q-20 -62 -95 -114q-74 -51 -172 -51q-153 0 -258 111q-106 112 -106 276t105 274q105 109 255 109z" />
    <glyph glyph-name="afii10066" unicode="&#x431;" horiz-adv-x="1105" 
d="M478 1514h431v-240h-431q-74 0 -94 -20q-33 -33 -33 -80v-118q89 44 214 44q225 0 348 -151q123 -152 123 -412t-123 -413t-348 -153q-226 0 -349 151q-124 153 -124 415q0 31 1 46v534q0 101 55 193t146 148t184 56zM344 527q3 -321 222 -321q222 0 222 331
q0 329 -222 329q-182 0 -215 -223v-116h-7z" />
    <glyph glyph-name="afii10067" unicode="&#x432;" horiz-adv-x="1000" 
d="M316 472v-295h161q115 0 162 43q48 44 48 110q0 142 -210 142h-161zM316 901v-253h117q101 0 145 38t44 90q0 50 -44 88q-43 37 -145 37h-117zM53 1076h445q71 0 125 -10q57 -10 96 -27q40 -17 69 -40t47 -49q19 -27 29 -54q13 -34 15 -54q3 -26 3 -51q0 -83 -41 -131
q-43 -51 -110 -71q71 -17 122 -66q54 -52 73 -100q21 -53 21 -99q0 -42 -7 -78q-7 -38 -33 -85q-26 -48 -65 -81q-38 -32 -112 -57q-72 -24 -167 -24h-510v1077z" />
    <glyph glyph-name="afii10068" unicode="&#x433;" horiz-adv-x="1114" 
d="M119 1074h895v-239h-627l-10 -835h-258v1074z" />
    <glyph glyph-name="afii10069" unicode="&#x434;" horiz-adv-x="1190" 
d="M1130 -228h-240v228h-582v-228h-240v468h112q10 6 14 9l42 87l98 737l556 1v-834h240v-468zM628 240v594h-70l-64 -441q-13 -90 -37 -153h171z" />
    <glyph glyph-name="afii10070" unicode="&#x435;" horiz-adv-x="1093" 
d="M352 651h414q-8 91 -62 153q-56 64 -146 64q-89 0 -144 -64q-56 -65 -62 -153zM568 201q100 0 154 66l228 -98q-61 -93 -169 -145q-109 -53 -213 -53q-101 0 -190 43q-90 44 -156 117q-68 75 -106 180q-38 104 -38 226q0 240 140 401q139 160 340 160q132 0 237 -72
q103 -71 163 -201q58 -126 58 -288v-68h-664q1 -80 24 -137q23 -58 58 -84q32 -24 68 -36q33 -11 66 -11z" />
    <glyph glyph-name="afii10072" unicode="&#x436;" horiz-adv-x="1449" 
d="M582 0v333l-1 2l-190 -335h-307l341 536l-323 537h290l190 -330v330h269v-325l187 325h290l-323 -537l341 -536h-307l-188 331v-331h-269z" />
    <glyph glyph-name="afii10073" unicode="&#x437;" horiz-adv-x="914" 
d="M86 234l239 60q21 -53 59 -76q41 -25 80 -25q56 0 94 35q37 34 37 86q0 50 -40 88q-38 37 -91 37h-93l-2 237h80q41 0 73 34q31 32 31 73q0 55 -30 83q-31 29 -77 29q-33 0 -58 -18t-36 -44l-221 65q81 211 312 211q69 0 124 -16t106 -51q48 -33 75 -92q28 -61 28 -136
q0 -128 -109 -207q36 -24 63 -48q29 -26 54 -59q29 -39 43 -83q15 -48 15 -103q0 -67 -29 -131q-30 -66 -77 -110q-50 -47 -120 -74q-73 -28 -151 -28q-83 0 -155 26q-71 25 -131 86q-59 59 -93 151z" />
    <glyph glyph-name="afii10074" unicode="&#x438;" horiz-adv-x="1121" 
d="M130 1077h216v-720l459 720h214v-1077h-217v696l-463 -696h-209v1077z" />
    <glyph glyph-name="afii10075" unicode="&#x439;" horiz-adv-x="1121" 
d="M130 1077h216v-720l459 720h214v-1077h-217v696l-463 -696h-209v1077zM628 1423q47 34 127 174h157q1 -10 1 -31q0 -117 -70 -235q-40 -68 -123 -115q-78 -45 -158 -45t-158 45q-83 47 -123 115q-70 118 -70 235q0 21 1 31h161q56 -129 122 -173q22 -15 71 -17
q42 2 62 16z" />
    <glyph glyph-name="afii10076" unicode="&#x43a;" horiz-adv-x="1029" 
d="M291 414v-415h-268v1075h268v-402l400 401h335l-507 -524l502 -549h-336z" />
    <glyph glyph-name="afii10077" unicode="&#x43b;" horiz-adv-x="1086" 
d="M1052 0h-262v834h-70l-64 -441q-20 -132 -56 -193q-55 -93 -145 -148q-91 -56 -185 -56q-81 0 -139 20q-55 19 -109 79l170 172q12 -17 38 -29q28 -13 52 -13q42 0 74 24l42 87l98 737l556 1v-1074z" />
    <glyph glyph-name="afii10078" unicode="&#x43c;" horiz-adv-x="1330" 
d="M63 0v1077h341l258 -763l264 763h341v-1077h-269v739l-235 -739h-200l-232 731v-731h-268z" />
    <glyph glyph-name="afii10079" unicode="&#x43d;" horiz-adv-x="1121" 
d="M119 1074h268l-4 -409h362l4 409h269l-4 -1074h-269v426h-362v-426h-268z" />
    <glyph glyph-name="afii10080" unicode="&#x43e;" horiz-adv-x="1105" 
d="M344 537q0 -331 222 -331t222 331q0 329 -222 329t-222 -329zM92 537q0 260 124 411q125 152 349 152q225 0 348 -151q123 -152 123 -412t-123 -413t-348 -153q-226 0 -349 151q-124 153 -124 415z" />
    <glyph glyph-name="afii10081" unicode="&#x43f;" horiz-adv-x="1470" 
d="M119 1073l823 1v-1074h-269v834h-286l-1 -835h-267v1074z" />
    <glyph glyph-name="afii10082" unicode="&#x440;" horiz-adv-x="1132" 
d="M377 -426h-258v1499h258v-156q52 82 136 133q82 50 171 50q95 0 170 -46t119 -124t67 -180q23 -103 23 -218t-23 -216q-23 -99 -68 -178q-44 -76 -119 -122q-72 -44 -169 -44q-84 0 -170 52q-85 52 -137 133v-583zM803 537q0 90 -19 154q-19 65 -51 103q-30 35 -67 54
q-36 18 -75 18q-40 0 -76 -16q-37 -16 -71 -52q-32 -33 -54 -104q-21 -68 -21 -157q0 -91 21 -159q21 -69 54 -103q36 -38 71 -53q36 -16 76 -16q37 0 73 21q37 22 68 60q33 41 52 105t19 145z" />
    <glyph glyph-name="afii10083" unicode="&#x441;" horiz-adv-x="1047" 
d="M766 756q-64 114 -180 114q-99 0 -168 -96q-70 -97 -70 -242q0 -148 74 -238q75 -91 184 -91q40 0 66 10q28 11 42 26q12 13 26 36t22 40l214 -111q-26 -43 -63 -85q-32 -36 -83 -74q-47 -35 -104 -54q-60 -20 -120 -20q-239 0 -380 153q-140 152 -140 408q0 253 141 410
q141 158 359 158q115 0 226 -64q108 -62 167 -168z" />
    <glyph glyph-name="afii10084" unicode="&#x442;" horiz-adv-x="1121" 
d="M119 1074h899v-239l-321 -1v-834h-268v834l-310 1v239z" />
    <glyph glyph-name="afii10085" unicode="&#x443;" horiz-adv-x="1106" 
d="M1003 -29q0 -80 -40 -159q-41 -81 -103 -140q-66 -63 -144 -99q-82 -38 -161 -38q-150 0 -259 70q-110 71 -156 171l204 112q20 -56 72 -88q54 -33 133 -33q84 0 140 47t56 127v220q-46 -82 -131 -135q-89 -55 -186 -55q-149 0 -234 143q-86 145 -86 421v538h258v-537
q0 -80 12 -140q13 -67 28 -96q17 -33 42 -57q22 -21 48 -29t50 -8q25 0 52 8q25 7 52 30q28 23 48 58q19 32 33 96q13 58 13 139v536h259v-1044v-58z" />
    <glyph glyph-name="afii10086" unicode="&#x444;" horiz-adv-x="1128" 
d="M92 537q0 260 124 411q88 108 225 139v367h243v-366q139 -30 229 -139q123 -152 123 -412t-123 -413q-89 -110 -229 -141v-379h-243v380q-138 32 -225 138q-124 153 -124 415zM441 828q-97 -73 -97 -291q0 -220 97 -293v584zM684 833v-594q104 72 104 298q0 225 -104 296
z" />
    <glyph glyph-name="afii10087" unicode="&#x445;" horiz-adv-x="1054" 
d="M1021 0h-307l-190 335l-190 -335h-307l341 536l-323 537h290l190 -330l187 330h314l-346 -528z" />
    <glyph glyph-name="afii10088" unicode="&#x446;" horiz-adv-x="1322" 
d="M1258 -228h-240v228h-899l2 1074h265l1 -835h362l-1 835h269v-834h241v-468z" />
    <glyph glyph-name="afii10089" unicode="&#x447;" horiz-adv-x="1121" 
d="M702 1073h240v-1073h-240v407q-41 -62 -115 -102t-168 -40q-49 0 -98 21q-47 20 -96 61q-46 38 -72 103q-25 62 -25 140v184v299h241v-303v-82q0 -62 7 -104t22 -72q13 -27 34 -43q20 -16 44 -22q23 -6 55 -6t56 6t49 23q23 16 35 43t21 72q10 50 10 104v384z" />
    <glyph glyph-name="afii10090" unicode="&#x448;" horiz-adv-x="1570" 
d="M647 1075h268v-835h286v834h269v-1074h-1351v1074h267l1 -835l258 2v834h2z" />
    <glyph glyph-name="afii10091" unicode="&#x449;" horiz-adv-x="1810" 
d="M647 1075h268v-835h286v834h269v-835l240 1v-468h-240v228h-1351v1074h267l1 -835l258 2v834h2z" />
    <glyph glyph-name="afii10092" unicode="&#x44a;" horiz-adv-x="1186" 
d="M494 473v-295h161q116 0 163 43q48 43 48 110q0 142 -211 142h-161zM28 1074h466v-240v-185h117q180 -1 283 -38q86 -30 138 -83q53 -54 73 -105q21 -52 21 -98q0 -36 -8 -78q-7 -38 -33 -85q-26 -48 -65 -81q-40 -34 -112 -58q-69 -23 -166 -23h-511v834h-203v240z" />
    <glyph glyph-name="afii10093" unicode="&#x44b;" horiz-adv-x="1198" 
d="M900 1073h258v-1073h-258v1073zM315 473v-295h86q74 0 121 43q48 43 48 110q0 142 -169 142h-86zM52 1074h263v-425h42q139 -2 242 -38q86 -30 137 -83q53 -54 73 -105q21 -52 21 -98q0 -36 -8 -78q-7 -38 -33 -85q-26 -48 -65 -81q-40 -34 -112 -58q-69 -23 -166 -23
h-394v1074z" />
    <glyph glyph-name="afii10094" unicode="&#x44c;" horiz-adv-x="1007" 
d="M315 473v-295h161q116 0 163 43q48 43 48 110q0 142 -211 142h-161zM52 1074h263v-425h117q180 -1 283 -38q87 -31 138 -83q53 -54 73 -105q21 -52 21 -98q0 -36 -8 -78q-7 -38 -33 -85q-26 -48 -65 -81q-40 -34 -112 -58q-69 -23 -166 -23h-511v1074z" />
    <glyph glyph-name="afii10095" unicode="&#x44d;" horiz-adv-x="1047" 
d="M299 756l-213 112q58 105 168 168q111 64 225 64q218 0 359 -158t141 -410q0 -255 -141 -408t-379 -153q-60 0 -120 20q-59 19 -105 54q-48 35 -82 74q-37 42 -63 85l214 111q11 -23 21 -40q10 -16 28 -36q14 -15 42 -26q26 -10 65 -10q108 0 183 91q46 57 64 132h-349
v240h343q-18 61 -52 108q-69 96 -169 96q-115 0 -180 -114z" />
    <glyph glyph-name="afii10096" unicode="&#x44e;" horiz-adv-x="1547" 
d="M139 0v1077h253v-407h141q23 178 120 289q127 144 353 144q223 0 346 -144q122 -143 122 -400q0 -171 -55 -300q-55 -130 -163 -205t-255 -75h-1q-148 0 -256 75t-163 204q-44 107 -53 235h-136v-493h-253zM778 559q0 -81 6 -141t21 -111q16 -53 39 -82q25 -31 64 -49
t92 -18q66 0 110 26t68 79q25 56 35 124q10 67 10 172q0 202 -44 284q-43 81 -173 81q-132 0 -180 -83t-48 -282z" />
    <glyph glyph-name="afii10097" unicode="&#x44f;" horiz-adv-x="1007" 
d="M946 0h-262v425h-97l-227 -425h-306l269 451q-28 8 -40 12q-85 29 -137 83q-53 55 -73 104q-21 52 -21 99q0 36 8 78q7 38 33 85q26 48 65 81q38 32 112 57q72 24 166 24h511zM684 601v295h-161q-116 0 -163 -43q-48 -43 -48 -110q0 -142 211 -142h161z" />
    <glyph glyph-name="afii10071" unicode="&#x451;" horiz-adv-x="1093" 
d="M151 1350q0 68 48 116t116 48t116 -48t48 -116t-48 -116t-116 -48t-116 48t-48 116zM622 1350q0 68 48 116t116 48t116 -48t48 -116t-48 -116t-116 -48t-116 48t-48 116zM352 651h414q-8 91 -62 153q-56 64 -146 64q-89 0 -144 -64q-56 -65 -62 -153zM568 201
q100 0 154 66l228 -98q-61 -93 -169 -145q-109 -53 -213 -53q-101 0 -190 43q-90 44 -156 117q-68 75 -106 180q-38 104 -38 226q0 240 140 401q139 160 340 160q132 0 237 -72q103 -71 163 -201q58 -126 58 -288v-68h-664q1 -80 24 -137q23 -58 58 -84q32 -24 68 -36
q33 -11 66 -11z" />
    <glyph glyph-name="afii10099" unicode="&#x452;" horiz-adv-x="1121" 
d="M377 0h-258v1454h258v-542q44 81 133 136q87 54 190 54q57 0 110 -28q51 -27 100 -82t76 -137q28 -84 28 -187v-668h-258v537q0 88 -8 140q-9 59 -24 95q-16 39 -38 58q-25 22 -50 29q-27 8 -60 8t-62 -8q-27 -7 -54 -30q-26 -21 -44 -58q-17 -35 -28 -95
q-11 -63 -11 -140v-536z" />
    <glyph glyph-name="afii10100" unicode="&#x453;" horiz-adv-x="1114" 
d="M119 1074h895v-239h-627l-10 -835h-258v1074zM494 1185q-7 -5 -13 -5q-2 0 -10 2q-18 5 -36 20q-19 16 -31 31t-21 45q-6 20 -6 34q0 5 2 15q2 8 8 13l282 247q11 10 29 10q8 0 19 -3q23 -6 43 -21q19 -14 35 -33q17 -20 24 -52q4 -16 4 -34q0 -14 -3 -26q-4 -20 -18 -30
z" />
    <glyph glyph-name="afii10101" unicode="&#x454;" horiz-adv-x="1047" 
d="M766 756q-64 114 -180 114q-99 0 -168 -96q-35 -49 -53 -108h343v-240h-349q18 -76 63 -132q75 -91 184 -91q40 0 66 10q28 11 42 26q12 13 26 36t22 40l214 -111q-26 -43 -63 -85q-32 -36 -83 -74q-47 -35 -104 -54q-60 -20 -120 -20q-239 0 -380 153q-140 152 -140 408
q0 253 141 410q141 158 359 158q115 0 226 -64q108 -62 167 -168z" />
    <glyph glyph-name="afii10102" unicode="&#x455;" horiz-adv-x="958" 
d="M342 491q-21 11 -78 45q-30 18 -60 45q-27 24 -45 57q-15 27 -25 74t-10 98q0 134 100 212t270 78q84 0 150 -26q71 -28 116 -70q49 -45 76 -96q29 -54 38 -107l-240 -43q-10 64 -44 88q-33 24 -92 24q-20 0 -48 -4q-20 -3 -40 -12t-28 -26q-10 -20 -10 -45q0 -26 14 -46
q15 -21 42 -35q20 -10 62 -26q9 -4 36.5 -14.5t45.5 -17.5q39 -15 93 -40q114 -55 167 -132t53 -202q0 -87 -55 -155q-57 -70 -146 -107q-90 -37 -199 -37q-162 0 -269 86q-106 85 -138 233l232 39q10 -59 60 -94q49 -34 113 -34q34 0 47 1q19 1 42 8q18 5 34 16q13 8 22 27
q9 18 9 42q0 26 -17 49q-18 25 -48 41q-33 18 -66 33q-11 5 -38.5 16t-43.5 18q-53 23 -82 39z" />
    <glyph glyph-name="afii10103" unicode="&#x456;" horiz-adv-x="534" 
d="M121 1334q0 65 43 112q44 48 104 48t104 -48q43 -47 43 -112t-43 -112q-44 -48 -104 -48t-104 48q-43 47 -43 112zM139 1073h258v-1073h-258v1073z" />
    <glyph glyph-name="afii10104" unicode="&#x457;" horiz-adv-x="534" 
d="M-133 1331q0 68 48 116t116 48t116 -48t48 -116t-48 -116t-116 -48q-67 0 -116 49q-48 48 -48 115zM338 1331q0 68 48 116t116 48t116 -48t48 -116t-48 -116t-116 -48q-67 0 -116 49q-48 48 -48 115zM139 1073h258v-1073h-258v1073z" />
    <glyph glyph-name="afii10105" unicode="&#x458;" horiz-adv-x="534" 
d="M121 1334q0 65 43 112q44 48 104 48t104 -48q43 -47 43 -112t-43 -112q-44 -48 -104 -48t-104 48q-43 47 -43 112zM-236 -333l169 172q12 -17 38 -29q28 -13 52 -13q51 0 83 31q33 32 33 80v1165h258v-1108q0 -101 -55 -193t-146 -148t-184 -56q-82 0 -140 20
q-54 18 -108 79z" />
    <glyph glyph-name="afii10106" unicode="&#x459;" horiz-adv-x="1590" 
d="M1052 473v-295h87q73 0 120 43q49 44 49 110q0 142 -169 142h-87zM496 1073h556v-424h43q136 -1 241 -38q86 -30 137 -83q53 -54 73 -105q22 -55 22 -98q0 -36 -8 -78q-7 -38 -33 -85q-26 -48 -65 -81q-40 -34 -112 -58q-69 -23 -167 -23h-393v834h-70l-64 -441
q-20 -132 -56 -193q-55 -93 -145 -148q-91 -56 -185 -56q-81 0 -139 20q-55 19 -109 79l170 172q12 -17 38 -29q28 -13 52 -13q42 0 74 24l42 87z" />
    <glyph glyph-name="afii10107" unicode="&#x45a;" horiz-adv-x="1121" 
d="M119 1074h268l-4 -409h362l4 409h269l-4 -1074h-269v426h-362v-426h-268z" />
    <glyph glyph-name="afii10108" unicode="&#x45b;" horiz-adv-x="1121" 
d="M377 0h-258v1214h-113v240h722v-240h-351v-302q44 81 133 136q87 54 190 54q57 0 110 -28q51 -27 100 -82t76 -137q28 -84 28 -187v-668h-258v537q0 88 -8 140q-9 59 -24 95q-16 39 -38 58q-25 22 -50 29q-27 8 -60 8t-62 -8q-27 -7 -54 -30q-26 -21 -44 -58
q-17 -35 -28 -95q-11 -63 -11 -140v-536z" />
    <glyph glyph-name="afii10109" unicode="&#x45c;" horiz-adv-x="1029" 
d="M291 414v-415h-268v1075h268v-402l400 401h335l-507 -524l502 -549h-336zM433 1184q-7 -5 -13 -5q-2 0 -10 2q-18 5 -36 20q-19 16 -31 31t-21 45q-6 19 -6 34q0 5 2 15q2 8 8 13l282 247q11 10 29 10q9 0 19 -3q23 -6 43 -21q19 -14 35 -33q17 -20 24 -52q4 -16 4 -34
q0 -14 -3 -26q-5 -19 -18 -30z" />
    <glyph glyph-name="afii10110" unicode="&#x45e;" horiz-adv-x="1106" 
d="M1003 -29q0 -80 -40 -159q-41 -81 -103 -140q-66 -63 -144 -99q-82 -38 -161 -38q-150 0 -259 70q-110 71 -156 171l204 112q20 -56 72 -88q54 -33 133 -33q84 0 140 47t56 127v220q-46 -82 -131 -135q-89 -55 -186 -55q-149 0 -234 143q-86 145 -86 421v538h258v-537
q0 -80 12 -140q13 -67 28 -96q17 -33 42 -57q22 -21 48 -29t50 -8q25 0 52 8q25 7 52 30q28 23 48 58q19 32 33 96q13 58 13 139v536h259v-1044v-58zM623 1423q47 34 127 174h157q1 -10 1 -31q0 -117 -70 -235q-40 -68 -123 -115q-78 -45 -158 -45t-158 45q-83 47 -123 115
q-70 118 -70 235q0 21 1 31h161q56 -129 122 -173q22 -15 71 -17q42 2 62 16z" />
    <glyph glyph-name="afii10193" unicode="&#x45f;" horiz-adv-x="1042" 
d="M411 -240v241h-292v1074h267l1 -835h286v834h269v-1073l-291 -1v-240h-240z" />
    <glyph glyph-name="Bdotaccent" unicode="&#x1e02;" horiz-adv-x="1226" 
d="M383 638v-398h227q281 0 281 199t-281 199h-227zM383 1216v-338h168q138 0 197 48.5t59 118.5q0 71 -59.5 121t-196.5 50h-168zM115 1456h436q93 0 170 -14t130 -36.5t94 -55t65 -66t39 -73t20.5 -73t5.5 -68.5q0 -109 -57.5 -176.5t-151.5 -96.5q96 -23 165.5 -89
t98.5 -136t29 -133q0 -53 -10.5 -105.5t-44.5 -115t-88 -109t-151.5 -78t-224.5 -31.5h-525v1456zM440 1757q0 68 48 116t116 48t116 -48t48 -116t-48 -116t-116 -48q-67 0 -116 49q-48 48 -48 115z" />
    <glyph glyph-name="bdotaccent" unicode="&#x1e03;" horiz-adv-x="1122" 
d="M377 0h-258v1454h258v-537q52 82 136 132.5t171 50.5q96 0 170 -45.5t119 -125t67.5 -180t22.5 -217.5t-23 -216.5t-68 -177t-119 -122t-169 -44.5q-86 0 -170.5 51.5t-136.5 133.5v-157zM803 537q0 88 -19 154t-51 103t-67.5 54.5t-74.5 17.5t-76 -16.5t-71 -52
t-54.5 -103t-20.5 -157.5q0 -91 20.5 -158.5t54.5 -103.5t71 -52.5t76 -16.5q36 0 72.5 21t68.5 60t51.5 104.5t19.5 145.5zM424 1757q0 68 48 116t116 48t116 -48t48 -116t-48 -116t-116 -48q-67 0 -116 49q-48 48 -48 115z" />
    <glyph glyph-name="Ddotaccent" unicode="&#x1e0a;" horiz-adv-x="1273" 
d="M913 752q0 204 -107 334.5t-284 130.5h-139v-977h139q179 0 285 139.5t106 372.5zM1196 752q0 -213 -77 -384.5t-217.5 -269.5t-319.5 -98h-467v1456h467q181 0 322 -95t216.5 -255t75.5 -354zM452 1757q0 68 48 116t116 48t116 -48t48 -116t-48 -116t-116 -48
q-67 0 -116 49q-48 48 -48 115z" />
    <glyph glyph-name="ddotaccent" unicode="&#x1e0b;" horiz-adv-x="1122" 
d="M760 0v157q-52 -82 -136.5 -133.5t-170.5 -51.5q-95 0 -169 44.5t-119 122t-68 177t-23 216.5t22.5 217.5t67.5 180t119 125t170 45.5q87 0 171 -50.5t136 -132.5v537h258v-1454h-258zM334 537q0 -80 19.5 -145.5t51.5 -104.5t68.5 -60t72.5 -21q39 0 76 16.5t71 52.5
t54.5 103.5t20.5 158.5q0 90 -20.5 157.5t-54.5 103t-71 52t-76 16.5t-74.5 -17.5t-67.5 -54.5t-51 -103t-19 -154zM412 1757q0 68 48 116t116 48t116 -48t48 -116t-48 -116t-116 -48q-67 0 -116 49q-48 48 -48 115z" />
    <glyph glyph-name="uni1E0C" unicode="&#x1e0c;" horiz-adv-x="1275" 
d="M474 -291q0 96 84 143q34 21 80 21q96 0 143 -84q21 -34 21 -80q0 -97 -84 -144q-33 -20 -80 -20q-98 0 -144 84q-20 33 -20 80zM914 752q0 254 -137 384q-83 82 -195 82h-199v-978h199q170 0 263 180q69 135 69 332zM1197 752q0 -344 -193 -561q-168 -191 -422 -191
h-467v1458h467q285 0 459 -224q156 -196 156 -482z" />
    <glyph glyph-name="uni1E0D" unicode="&#x1e0d;" horiz-adv-x="1082" 
d="M377 -291q0 96 84 143q35 21 80 21q98 0 144 -84q20 -33 20 -80q0 -97 -84 -144q-33 -20 -80 -20q-96 0 -143 84q-21 35 -21 80zM720 70q-94 -99 -193 -99q-177 0 -295 101q-168 146 -168 440q0 220 102 386q127 205 336 205q19 0 47 -2q103 -8 171 -92v447h258v-1456
h-258v70zM324 533q0 -131 45 -219q57 -113 152 -113q31 0 59 12q148 60 148 324q0 148 -68 242q-67 94 -164 94q-42 0 -86 -51q-86 -107 -86 -289z" />
    <glyph glyph-name="Fdotaccent" unicode="&#x1e1e;" horiz-adv-x="1191" 
d="M115 1456h982v-239h-714v-351h651v-239h-651v-627h-268v1456zM464 1757q0 68 48 116t116 48t116 -48t48 -116t-48 -116t-116 -48q-67 0 -116 49q-48 48 -48 115z" />
    <glyph glyph-name="fdotaccent" unicode="&#x1e1f;" horiz-adv-x="782" 
d="M471 844v-844h-258v844h-139v229h139v80q0 50 27.5 108.5t73 109.5t112 84.5t137.5 33.5q136 0 227 -89l-149 -179q-16 19 -42.5 29t-45.5 10q-43 0 -62.5 -21t-19.5 -66v-100h165v-229h-165zM304 1757q0 68 48 116t116 48t116 -48t48 -116t-48 -116t-116 -48
q-67 0 -116 49q-48 48 -48 115z" />
    <glyph glyph-name="uni1E24" unicode="&#x1e24;" horiz-adv-x="1254" 
d="M463 -291q0 96 84 143q35 21 80 21q97 0 144 -84q20 -33 20 -80q0 -97 -84 -144q-33 -20 -80 -20q-97 0 -143 84q-21 35 -21 80zM115 1458h268v-593h486v593h269v-1458h-269v625h-486v-625h-268v1458z" />
    <glyph glyph-name="uni1E25" unicode="&#x1e25;" horiz-adv-x="1051" 
d="M361 -291q0 96 84 143q35 21 80 21q97 0 143 -84q21 -34 21 -80q0 -97 -84 -144q-33 -20 -80 -20q-97 0 -144 84q-20 33 -20 80zM377 0h-258v1456h258v-503q83 150 297 150q197 0 269 -260q31 -121 31 -271v-572h-259v568q0 168 -69 262q-28 39 -62 39q-74 0 -141 -82
q-66 -79 -66 -182v-605z" />
    <glyph glyph-name="uni1E34" unicode="&#x1e34;" horiz-adv-x="1334" 
d="M281 -135h773v-240h-773v240zM115 1458h268v-624l544 624h315l-586 -700l636 -758h-337l-494 588l-78 -92v-496h-268v1458z" />
    <glyph glyph-name="uni1E35" unicode="&#x1e35;" horiz-adv-x="1000" 
d="M113 -135h773v-240h-773v240zM578 599l418 -599h-293l-311 467l-15 -22v-445h-258v1456h258v-738l281 356h316z" />
    <glyph glyph-name="uni1E36" unicode="&#x1e36;" horiz-adv-x="1221" 
d="M447 -291q0 96 84 143q35 21 80 21q97 0 143 -84q21 -34 21 -80q0 -97 -84 -144q-33 -20 -80 -20q-97 0 -144 84q-20 33 -20 80zM115 1458h268v-1218h767v-240h-1035v1458z" />
    <glyph glyph-name="uni1E37" unicode="&#x1e37;" horiz-adv-x="561" 
d="M117 -291q0 96 84 143q34 21 80 21q97 0 143 -84q21 -34 21 -80q0 -97 -84 -144q-33 -20 -80 -20q-97 0 -144 84q-20 33 -20 80zM398 281q0 -86 92 -86v-224q-236 0 -308 113q-43 67 -43 193v1179h259v-1175z" />
    <glyph glyph-name="uni1E38" unicode="&#x1e38;" horiz-adv-x="1221" 
d="M10 1792h773v-240h-773v240zM447 -291q0 96 84 143q35 21 80 21q97 0 143 -84q21 -34 21 -80q0 -97 -84 -144q-33 -20 -80 -20q-97 0 -144 84q-20 33 -20 80zM115 1458h268v-1218h767v-240h-1035v1458z" />
    <glyph glyph-name="uni1E39" unicode="&#x1e39;" horiz-adv-x="561" 
d="M-111 1792h773v-240h-773v240zM117 -291q0 96 84 143q34 21 80 21q97 0 143 -84q21 -34 21 -80q0 -97 -84 -144q-33 -20 -80 -20q-97 0 -144 84q-20 33 -20 80zM398 281q0 -86 92 -86v-224q-236 0 -308 113q-43 67 -43 193v1179h259v-1175z" />
    <glyph glyph-name="uni1E3A" unicode="&#x1e3a;" horiz-adv-x="1221" 
d="M223 -135h773v-240h-773v240zM115 1458h268v-1218h767v-240h-1035v1458z" />
    <glyph glyph-name="uni1E3B" unicode="&#x1e3b;" horiz-adv-x="561" 
d="M-107 -135h773v-240h-773v240zM398 281q0 -86 92 -86v-224q-236 0 -308 113q-43 67 -43 193v1179h259v-1175z" />
    <glyph glyph-name="Mdotaccent" unicode="&#x1e40;" horiz-adv-x="1548" 
d="M115 0v1456h360l350 -1032l356 1032h359v-1456h-268v962l-312 -962h-270l-307 962v-962h-268zM612 1757q0 68 48 116t116 48t116 -48t48 -116t-48 -116t-116 -48q-67 0 -116 49q-48 48 -48 115z" />
    <glyph glyph-name="mdotaccent" unicode="&#x1e41;" horiz-adv-x="1575" 
d="M924 0h-258v539q0 163 -32 246t-113 83q-82 0 -113 -82.5t-31 -246.5v-539h-258v1073h258v-158q17 30 41.5 59.5t58.5 60t78.5 49t90.5 18.5q48 0 88 -17t64.5 -40.5t44 -55.5t27.5 -56t15 -47l7 -24q26 52 66 103.5t102 94t122 42.5q132 0 210 -112.5t78 -321.5v-668
h-258v539q0 163 -31.5 246t-112.5 83t-112.5 -83t-31.5 -246v-539zM628 1349q0 68 48 116t116 48t116 -48t48 -116t-48 -116t-116 -48q-67 0 -116 49q-48 48 -48 115z" />
    <glyph glyph-name="uni1E42" unicode="&#x1e42;" horiz-adv-x="1549" 
d="M611 -291q0 96 84 143q35 21 80 21q97 0 143 -84q21 -34 21 -80q0 -97 -84 -144q-33 -20 -80 -20q-97 0 -144 84q-20 33 -20 80zM66 0v1458h360l349 -1034l359 1034h358v-1458h-262v1000l-318 -1002h-270l-314 990v-988h-262z" />
    <glyph glyph-name="uni1E43" unicode="&#x1e43;" horiz-adv-x="1588" 
d="M629 -291q0 96 84 143q35 21 80 21q97 0 144 -84q20 -33 20 -80q0 -97 -84 -144q-33 -20 -80 -20q-97 0 -143 84q-21 35 -21 80zM925 0h-259v568q-10 285 -102 301q-82 0 -142 -94q-45 -73 -45 -170v-605h-258v1074h258v-117q80 141 181 146q224 0 287 -146l4 -8
q112 154 322 154q234 0 285 -293q16 -96 16 -238v-572h-258v568q-10 285 -103 301q-81 0 -141 -94q-45 -73 -45 -170v-605z" />
    <glyph glyph-name="uni1E44" unicode="&#x1e44;" horiz-adv-x="1344" 
d="M508 1708q0 96 84 143q34 21 80 21q98 0 144 -84q20 -33 20 -80q0 -98 -84 -144q-33 -20 -80 -20q-96 0 -143 84q-21 34 -21 80zM119 0v1458h260l574 -941v941h269v-1458h-265l-570 974v-974h-268z" />
    <glyph glyph-name="uni1E45" unicode="&#x1e45;" horiz-adv-x="1051" 
d="M361 1328q0 98 84 144q33 20 80 20q97 0 143 -84q21 -35 21 -80q0 -96 -84 -143q-34 -21 -80 -21q-97 0 -144 84q-20 33 -20 80zM377 0h-258v1074h258v-92q93 121 297 121q197 0 269 -260q31 -121 31 -271v-572h-259v568q0 168 -69 262q-28 39 -62 39q-74 0 -141 -82
q-66 -79 -66 -182v-605z" />
    <glyph glyph-name="uni1E46" unicode="&#x1e46;" horiz-adv-x="1344" 
d="M508 -291q0 96 84 143q34 21 80 21q98 0 144 -84q20 -33 20 -80q0 -97 -84 -144q-33 -20 -80 -20q-96 0 -143 84q-21 35 -21 80zM119 0v1458h260l574 -941v941h269v-1458h-265l-570 974v-974h-268z" />
    <glyph glyph-name="uni1E47" unicode="&#x1e47;" horiz-adv-x="1051" 
d="M361 -291q0 96 84 143q35 21 80 21q97 0 143 -84q21 -34 21 -80q0 -97 -84 -144q-33 -20 -80 -20q-97 0 -144 84q-20 33 -20 80zM377 0h-258v1074h258v-92q93 121 297 121q197 0 269 -260q31 -121 31 -271v-572h-259v568q0 168 -69 262q-28 39 -62 39q-74 0 -141 -82
q-66 -79 -66 -182v-605z" />
    <glyph glyph-name="uni1E48" unicode="&#x1e48;" horiz-adv-x="1344" 
d="M285 -135h773v-240h-773v240zM119 0v1458h260l574 -941v941h269v-1458h-265l-570 974v-974h-268z" />
    <glyph glyph-name="uni1E49" unicode="&#x1e49;" horiz-adv-x="1051" 
d="M139 -135h773v-240h-773v240zM377 0h-258v1074h258v-92q93 121 297 121q197 0 269 -260q31 -121 31 -271v-572h-259v568q0 168 -69 262q-28 39 -62 39q-74 0 -141 -82q-66 -79 -66 -182v-605z" />
    <glyph glyph-name="Pdotaccent" unicode="&#x1e56;" horiz-adv-x="1148" 
d="M383 824h71q79 0 131.5 3.5t102.5 15t78.5 33t45.5 57t17 87.5t-17 87.5t-45.5 57t-78.5 33t-102.5 15t-131.5 3.5h-71v-392zM115 1456h268q80 0 130 -1.5t134 -10t138.5 -24.5t120.5 -48t105 -77t65.5 -115.5t26.5 -159.5t-26.5 -159t-65.5 -115t-104.5 -77.5
t-121 -48.5t-139 -24.5t-134 -10t-129.5 -1.5v-584h-268v1456zM388 1757q0 68 48 116t116 48t116 -48t48 -116t-48 -116t-116 -48q-67 0 -116 49q-48 48 -48 115z" />
    <glyph glyph-name="pdotaccent" unicode="&#x1e57;" horiz-adv-x="1132" 
d="M377 -426h-258v1499h258v-156q52 82 136 132.5t171 50.5q96 0 170 -45.5t119 -125t67.5 -180t22.5 -217.5t-23 -216.5t-68 -177t-119 -122t-169 -44.5q-86 0 -170.5 51.5t-136.5 133.5v-583zM803 537q0 88 -19 154t-51 103t-67.5 54.5t-74.5 17.5t-76 -16.5t-71 -52
t-54.5 -103t-20.5 -157.5q0 -91 20.5 -158.5t54.5 -103.5t71 -52.5t76 -16.5q36 0 72.5 21t68.5 60t51.5 104.5t19.5 145.5zM424 1353q0 68 48 116t116 48t116 -48t48 -116t-48 -116t-116 -48q-67 0 -116 49q-48 48 -48 115z" />
    <glyph glyph-name="uni1E5A" unicode="&#x1e5a;" horiz-adv-x="1211" 
d="M441 -291q0 96 84 143q35 21 80 21q97 0 143 -84q21 -34 21 -80q0 -97 -84 -144q-33 -20 -80 -20q-97 0 -144 84q-20 33 -20 80zM390 824h98q280 0 303 189q2 24 2 39q0 148 -233 164q-44 2 -72 2h-98v-394zM859 0l-385 580h-84v-580h-269v1458h269h98q363 0 510 -185
q74 -94 74 -221q0 -227 -199 -351q-69 -46 -155 -68l446 -633h-305z" />
    <glyph glyph-name="uni1E5B" unicode="&#x1e5b;" horiz-adv-x="838" 
d="M254 -291q0 96 84 143q34 21 80 21q98 0 144 -84q20 -33 20 -80q0 -97 -84 -144q-33 -20 -80 -20q-96 0 -143 84q-21 35 -21 80zM734 808q-107 61 -137 61q-97 0 -173 -115q-47 -74 -47 -139v-615h-258v1074h258v-115q99 144 209 144q93 0 199 -62q30 -19 45 -32z" />
    <glyph glyph-name="uni1E5C" unicode="&#x1e5c;" horiz-adv-x="1211" 
d="M176 1792h773v-240h-773v240zM441 -291q0 96 84 143q35 21 80 21q97 0 143 -84q21 -34 21 -80q0 -97 -84 -144q-33 -20 -80 -20q-97 0 -144 84q-20 33 -20 80zM390 824h98q280 0 303 189q2 24 2 39q0 148 -233 164q-44 2 -72 2h-98v-394zM859 0l-385 580h-84v-580h-269
v1458h269h98q363 0 510 -185q74 -94 74 -221q0 -227 -199 -351q-69 -46 -155 -68l446 -633h-305z" />
    <glyph glyph-name="uni1E5D" unicode="&#x1e5d;" horiz-adv-x="838" 
d="M33 1412h773v-239h-773v239zM254 -291q0 96 84 143q34 21 80 21q98 0 144 -84q20 -33 20 -80q0 -97 -84 -144q-33 -20 -80 -20q-96 0 -143 84q-21 35 -21 80zM734 808q-107 61 -137 61q-97 0 -173 -115q-47 -74 -47 -139v-615h-258v1074h258v-115q99 144 209 144
q93 0 199 -62q30 -19 45 -32z" />
    <glyph glyph-name="uni1E5E" unicode="&#x1e5e;" horiz-adv-x="1211" 
d="M219 -135h773v-240h-773v240zM390 824h98q280 0 303 189q2 24 2 39q0 148 -233 164q-44 2 -72 2h-98v-394zM859 0l-385 580h-84v-580h-269v1458h269h98q363 0 510 -185q74 -94 74 -221q0 -227 -199 -351q-69 -46 -155 -68l446 -633h-305z" />
    <glyph glyph-name="uni1E5F" unicode="&#x1e5f;" horiz-adv-x="838" 
d="M33 -135h773v-240h-773v240zM734 808q-107 61 -137 61q-97 0 -173 -115q-47 -74 -47 -139v-615h-258v1074h258v-115q99 144 209 144q93 0 199 -62q30 -19 45 -32z" />
    <glyph glyph-name="Sdotaccent" unicode="&#x1e60;" horiz-adv-x="1202" 
d="M83 404l268 43q25 -101 92 -167.5t177 -66.5q111 0 171.5 53t60.5 138q0 46 -19 83.5t-47.5 62t-76 49t-90 40.5t-105.5 41t-108 46q-60 29 -101 55.5t-83.5 69t-64.5 102.5t-22 137q0 98 40.5 176.5t109.5 127t154.5 73.5t180.5 25q168 0 296.5 -87t172.5 -219l-273 -51
q-49 116 -196 116q-93 0 -152 -37.5t-59 -123.5q0 -40 27 -74t76.5 -60.5t97 -46t110 -43t94.5 -38.5q57 -27 100 -53t85 -63.5t68.5 -80t42.5 -100.5t16 -127q0 -197 -145 -315t-361 -118q-209 0 -358.5 119.5t-178.5 313.5zM464 1757q0 68 48 116t116 48t116 -48t48 -116
t-48 -116t-116 -48q-67 0 -116 49q-48 48 -48 115z" />
    </font>
</defs>
</svg>
