<svg width="45" height="45" viewBox="0 0 45 45" fill="none" xmlns="http://www.w3.org/2000/svg">
<g clip-path="url(#clip0_238_484)">
<path d="M26.9561 28.5732L14.2734 33.4512C12.4893 34.1104 10.8896 32.4316 11.5488 30.7266L16.4268 18.0439C16.708 17.2969 17.2969 16.708 18.0439 16.4268L30.7266 11.5488C32.4316 10.8896 34.1104 12.4893 33.4512 14.2734L28.5732 26.9561C28.292 27.7031 27.7031 28.292 26.9561 28.5732ZM22.4209 19.6875C20.9443 19.6875 19.6084 20.9443 19.6084 22.5C19.6084 24.0557 20.9443 25.3125 22.4209 25.3125C24.0557 25.3125 25.3125 24.0557 25.3125 22.5C25.3125 20.9443 24.0557 19.6875 22.4209 19.6875ZM45 22.5C45 34.9277 34.9277 45 22.5 45C10.0723 45 0 34.9277 0 22.5C0 10.0723 10.0723 0 22.5 0C34.9277 0 45 10.0723 45 22.5ZM22.5 4.21875C12.4014 4.21875 4.21875 12.4014 4.21875 22.5C4.21875 32.5986 12.4014 40.7812 22.5 40.7812C32.5986 40.7812 40.7812 32.5986 40.7812 22.5C40.7812 12.4014 32.5986 4.21875 22.5 4.21875Z" fill="url(#paint0_linear_238_484)"/>
</g>
<defs>
<linearGradient id="paint0_linear_238_484" x1="22.5" y1="0" x2="22.5" y2="45" gradientUnits="userSpaceOnUse">
<stop stop-color="#2647C5"/>
<stop offset="1" stop-color="#349FDD"/>
</linearGradient>
<clipPath id="clip0_238_484">
<rect width="45" height="45" fill="white"/>
</clipPath>
</defs>
</svg>
