<svg width="45" height="40" viewBox="0 0 45 40" fill="none" xmlns="http://www.w3.org/2000/svg">
<path d="M42.1875 12.6562H30.9375C30.1916 12.6562 29.4762 12.9526 28.9488 13.48C28.4213 14.0075 28.125 14.7228 28.125 15.4688V36.5625C28.125 37.3084 28.4213 38.0238 28.9488 38.5512C29.4762 39.0787 30.1916 39.375 30.9375 39.375H42.1875C42.9334 39.375 43.6488 39.0787 44.1762 38.5512C44.7037 38.0238 45 37.3084 45 36.5625V15.4688C45 14.7228 44.7037 14.0075 44.1762 13.48C43.6488 12.9526 42.9334 12.6562 42.1875 12.6562ZM42.1875 15.4688V33.75H30.9375V15.4688H42.1875Z" fill="url(#paint0_linear_238_302)"/>
<path d="M36.5625 0H2.8125C2.06658 0 1.35121 0.296316 0.823762 0.823762C0.296316 1.35121 0 2.06658 0 2.8125V25.3125C0 26.0584 0.296316 26.7738 0.823762 27.3012C1.35121 27.8287 2.06658 28.125 2.8125 28.125H14.0625V30.9375H10.2937C9.86293 30.8885 9.42979 31.0073 9.08418 31.2691C8.73856 31.5309 8.50699 31.9158 8.4375 32.3438C8.50699 32.7717 8.73856 33.1566 9.08418 33.4184C9.42979 33.6802 9.86293 33.799 10.2937 33.75H25.2V33.2297H25.3125V25.3125H2.8125V2.8125H36.5625V9.84375H39.375V2.8125C39.375 2.06658 39.0787 1.35121 38.5512 0.823762C38.0238 0.296316 37.3084 0 36.5625 0Z" fill="url(#paint1_linear_238_302)"/>
<defs>
<linearGradient id="paint0_linear_238_302" x1="36.5625" y1="12.6562" x2="36.5625" y2="39.375" gradientUnits="userSpaceOnUse">
<stop stop-color="#2647C5"/>
<stop offset="1" stop-color="#349FDD"/>
</linearGradient>
<linearGradient id="paint1_linear_238_302" x1="19.6875" y1="0" x2="19.6875" y2="33.7608" gradientUnits="userSpaceOnUse">
<stop stop-color="#2647C5"/>
<stop offset="1" stop-color="#349FDD"/>
</linearGradient>
</defs>
</svg>
