<svg width="58" height="20" viewBox="0 0 58 20" fill="none" xmlns="http://www.w3.org/2000/svg">
<path d="M4.12793 4.54688V4.27832H0.79541L1.18604 3.91211L4.16455 1.22656H7.39941V19H4.12793V4.54688ZM13.3564 9.77148C13.3564 6.96387 13.9058 4.77067 15.0044 3.19189C16.103 1.60498 17.6289 0.811523 19.582 0.811523C21.527 0.811523 23.0285 1.60091 24.0864 3.17969C25.1444 4.75033 25.6733 6.94759 25.6733 9.77148C25.6733 11.6432 25.4333 13.2993 24.9531 14.7397C24.4811 16.172 23.7772 17.2992 22.8413 18.1211C21.9054 18.9349 20.7987 19.3418 19.521 19.3418H19.5088C18.2311 19.3418 17.1243 18.9349 16.1885 18.1211C15.2526 17.2992 14.5446 16.172 14.0645 14.7397C13.5924 13.3075 13.3564 11.6514 13.3564 9.77148ZM16.6279 9.77148C16.6279 10.6667 16.6523 11.4479 16.7012 12.1152C16.7581 12.7744 16.8477 13.3848 16.9697 13.9463C17.0999 14.4997 17.2708 14.9513 17.4824 15.3013C17.7021 15.6431 17.9788 15.9116 18.3125 16.1069C18.6543 16.2941 19.0531 16.3877 19.5088 16.3877C20.0785 16.3877 20.5545 16.2493 20.937 15.9727C21.3195 15.6878 21.6165 15.2524 21.8281 14.6665C22.0397 14.0806 22.1862 13.401 22.2676 12.6279C22.3571 11.8467 22.4019 10.8945 22.4019 9.77148C22.4019 7.54167 22.2106 5.98324 21.8281 5.09619C21.4538 4.20915 20.7051 3.76562 19.582 3.76562C18.4508 3.76562 17.6737 4.21729 17.2505 5.12061C16.8354 6.02393 16.6279 7.57422 16.6279 9.77148ZM27.7363 9.77148C27.7363 6.96387 28.2856 4.77067 29.3843 3.19189C30.4829 1.60498 32.0088 0.811523 33.9619 0.811523C35.9069 0.811523 37.4084 1.60091 38.4663 3.17969C39.5243 4.75033 40.0532 6.94759 40.0532 9.77148C40.0532 11.6432 39.8132 13.2993 39.333 14.7397C38.861 16.172 38.1571 17.2992 37.2212 18.1211C36.2853 18.9349 35.1785 19.3418 33.9009 19.3418H33.8887C32.611 19.3418 31.5042 18.9349 30.5684 18.1211C29.6325 17.2992 28.9245 16.172 28.4443 14.7397C27.9723 13.3075 27.7363 11.6514 27.7363 9.77148ZM31.0078 9.77148C31.0078 10.6667 31.0322 11.4479 31.0811 12.1152C31.138 12.7744 31.2275 13.3848 31.3496 13.9463C31.4798 14.4997 31.6507 14.9513 31.8623 15.3013C32.082 15.6431 32.3587 15.9116 32.6924 16.1069C33.0342 16.2941 33.4329 16.3877 33.8887 16.3877C34.4583 16.3877 34.9344 16.2493 35.3169 15.9727C35.6994 15.6878 35.9964 15.2524 36.208 14.6665C36.4196 14.0806 36.5661 13.401 36.6475 12.6279C36.737 11.8467 36.7817 10.8945 36.7817 9.77148C36.7817 7.54167 36.5905 5.98324 36.208 5.09619C35.8337 4.20915 35.085 3.76562 33.9619 3.76562C32.8307 3.76562 32.0535 4.21729 31.6304 5.12061C31.2153 6.02393 31.0078 7.57422 31.0078 9.77148ZM52.6143 14.4712C52.6143 14.8455 52.716 15.1466 52.9194 15.3745C53.1229 15.5942 53.3792 15.7041 53.6885 15.7041C53.9977 15.7041 54.25 15.5983 54.4453 15.3867C54.6406 15.167 54.7383 14.8618 54.7383 14.4712C54.7383 14.1131 54.6325 13.8039 54.4209 13.5435C54.2174 13.283 53.9652 13.1528 53.6641 13.1528C53.3792 13.1528 53.131 13.283 52.9194 13.5435C52.716 13.8039 52.6143 14.1131 52.6143 14.4712ZM49.9897 14.4834C49.9897 13.4173 50.3478 12.514 51.064 11.7734C51.7801 11.0247 52.6549 10.6504 53.6885 10.6504C54.7057 10.6504 55.5765 11.0247 56.3008 11.7734C57.0251 12.514 57.3872 13.4132 57.3872 14.4712C57.3872 15.5129 57.0251 16.3999 56.3008 17.1323C55.5765 17.8647 54.7057 18.231 53.6885 18.231C52.6549 18.231 51.7801 17.8688 51.064 17.1445C50.3478 16.4121 49.9897 15.5251 49.9897 14.4834ZM44.9116 5.87744C44.9116 6.25179 45.0133 6.54883 45.2168 6.76855C45.4202 6.98828 45.6766 7.09814 45.9858 7.09814C46.2951 7.09814 46.5474 6.99235 46.7427 6.78076C46.938 6.56917 47.0356 6.26807 47.0356 5.87744C47.0356 5.51937 46.9299 5.21012 46.7183 4.94971C46.5148 4.68115 46.2625 4.54688 45.9614 4.54688C45.6847 4.54688 45.4406 4.68115 45.229 4.94971C45.0174 5.21012 44.9116 5.51937 44.9116 5.87744ZM42.2871 5.86523C42.2871 4.80729 42.6452 3.90804 43.3613 3.16748C44.0856 2.41878 44.9604 2.04443 45.9858 2.04443C47.0194 2.04443 47.8983 2.41878 48.6226 3.16748C49.3468 3.91618 49.709 4.8195 49.709 5.87744C49.709 6.91911 49.3468 7.80615 48.6226 8.53857C47.8983 9.26286 47.0194 9.625 45.9858 9.625C44.9604 9.625 44.0856 9.26286 43.3613 8.53857C42.6452 7.80615 42.2871 6.91504 42.2871 5.86523ZM47.0601 17.5474H44.4966L52.6875 2.6792H55.1411L47.0601 17.5474Z" fill="url(#paint0_linear_245_280)"/>
<defs>
<linearGradient id="paint0_linear_245_280" x1="28.5" y1="-10" x2="28.5" y2="27" gradientUnits="userSpaceOnUse">
<stop stop-color="#2647C5"/>
<stop offset="1" stop-color="#349FDD"/>
</linearGradient>
</defs>
</svg>
