<svg width="45" height="37" viewBox="0 0 45 37" fill="none" xmlns="http://www.w3.org/2000/svg">
<path d="M45 31.25V32.5C44.9987 33.6599 44.5373 34.7719 43.7171 35.5921C42.8969 36.4123 41.7849 36.8737 40.625 36.875H4.375C3.21508 36.8737 2.10305 36.4123 1.28287 35.5921C0.462685 34.7719 0.00132335 33.6599 0 32.5V31.25C-3.66909e-09 31.0038 0.0484984 30.76 0.142726 30.5325C0.236954 30.305 0.375065 30.0983 0.549175 29.9242C0.723285 29.7501 0.929983 29.612 1.15747 29.5177C1.38495 29.4235 1.62877 29.375 1.875 29.375C2.12123 29.375 2.36505 29.4235 2.59253 29.5177C2.82002 29.612 3.02672 29.7501 3.20083 29.9242C3.37494 30.0983 3.51305 30.305 3.60727 30.5325C3.7015 30.76 3.75 31.0038 3.75 31.25V32.5C3.75 32.6658 3.81585 32.8247 3.93306 32.9419C4.05027 33.0592 4.20924 33.125 4.375 33.125H40.625C40.7908 33.125 40.9497 33.0592 41.0669 32.9419C41.1842 32.8247 41.25 32.6658 41.25 32.5V31.25C41.25 30.7527 41.4475 30.2758 41.7992 29.9242C42.1508 29.5725 42.6277 29.375 43.125 29.375C43.6223 29.375 44.0992 29.5725 44.4508 29.9242C44.8025 30.2758 45 30.7527 45 31.25ZM7.0825 17.815C8.97191 16.6462 11.1854 16.1118 13.4 16.29C14.325 16.34 15.25 16.475 16.15 16.695C16.0995 16.289 15.9468 15.9025 15.7064 15.5716C15.4659 15.2406 15.1455 14.976 14.775 14.8025C13.7882 14.3515 12.7054 14.1506 11.6225 14.2175C10.7028 14.2358 9.79561 14.4346 8.9525 14.8025C8.73221 14.9126 8.49238 14.9783 8.2467 14.9958C8.00103 15.0132 7.75432 14.9821 7.52066 14.9043C7.28701 14.8264 7.07098 14.7032 6.88492 14.5419C6.69885 14.3805 6.5464 14.184 6.43625 13.9637C6.3261 13.7435 6.26043 13.5036 6.24297 13.258C6.22551 13.0123 6.25661 12.7656 6.33449 12.5319C6.41238 12.2983 6.53552 12.0822 6.69689 11.8962C6.85827 11.7101 7.05471 11.5576 7.275 11.4475C8.60125 10.8349 10.0395 10.5022 11.5 10.47C13.2137 10.3788 14.9232 10.7146 16.475 11.4475C17.6453 12.0725 18.6045 13.0299 19.2318 14.199C19.8591 15.3682 20.1264 16.6968 20 18.0175V28.125C20.0186 28.6223 19.8388 29.1066 19.5003 29.4713C19.1618 29.8361 18.6923 30.0514 18.195 30.07C17.6977 30.0886 17.2134 29.9088 16.8487 29.5703C16.4839 29.2318 16.2686 28.7623 16.25 28.265C15.1883 28.9992 13.9856 29.5047 12.7182 29.7496C11.4508 29.9945 10.1463 29.9733 8.8875 29.6875C7.64767 29.3692 6.52883 28.6933 5.67026 27.744C4.8117 26.7946 4.25134 25.6136 4.05895 24.3481C3.86655 23.0826 4.05062 21.7885 4.58824 20.6269C5.12585 19.4652 5.99327 18.4873 7.0825 17.815ZM9.86 26.065C11.0484 26.203 12.2524 26.0472 13.3666 25.6113C14.4807 25.1755 15.4708 24.4728 16.25 23.565V20.625C15.2686 20.29 14.2456 20.0923 13.21 20.0375C11.7993 19.9027 10.3823 20.2187 9.1625 20.94C8.67586 21.2128 8.28255 21.6257 8.03373 22.1251C7.78491 22.6244 7.69208 23.187 7.76731 23.7398C7.84255 24.2926 8.08236 24.81 8.45558 25.2247C8.8288 25.6394 9.31815 25.9322 9.86 26.065ZM25 28.125V1.875C25 1.62877 25.0485 1.38495 25.1427 1.15747C25.237 0.929983 25.3751 0.723284 25.5492 0.549175C25.7233 0.375065 25.93 0.236953 26.1575 0.142726C26.385 0.0484981 26.6288 0 26.875 0C27.1212 0 27.365 0.0484981 27.5925 0.142726C27.82 0.236953 28.0267 0.375065 28.2008 0.549175C28.3749 0.723284 28.513 0.929983 28.6073 1.15747C28.7015 1.38495 28.75 1.62877 28.75 1.875V13.5175C29.967 12.4679 31.5179 11.8856 33.125 11.875C35.275 12.0531 37.2681 13.0717 38.6721 14.7096C40.0761 16.3476 40.7778 18.4731 40.625 20.625C40.7778 22.7769 40.0761 24.9024 38.6721 26.5404C37.2681 28.1783 35.275 29.1969 33.125 29.375C31.5181 29.363 29.9677 28.781 28.75 27.7325V28.125C28.75 28.3712 28.7015 28.615 28.6073 28.8425C28.513 29.07 28.3749 29.2767 28.2008 29.4508C28.0267 29.6249 27.82 29.763 27.5925 29.8573C27.365 29.9515 27.1212 30 26.875 30C26.6288 30 26.385 29.9515 26.1575 29.8573C25.93 29.763 25.7233 29.6249 25.5492 29.4508C25.3751 29.2767 25.237 29.07 25.1427 28.8425C25.0485 28.615 25 28.3712 25 28.125ZM29.375 20.625C29.2306 21.7818 29.5409 22.9496 30.2404 23.8822C30.9399 24.8149 31.974 25.4397 33.125 25.625C34.276 25.4397 35.3101 24.8149 36.0096 23.8822C36.7091 22.9496 37.0194 21.7818 36.875 20.625C37.0194 19.4682 36.7091 18.3004 36.0096 17.3678C35.3101 16.4351 34.276 15.8103 33.125 15.625C31.974 15.8103 30.9399 16.4351 30.2404 17.3678C29.5409 18.3004 29.2306 19.4682 29.375 20.625Z" fill="url(#paint0_linear_242_142)"/>
<defs>
<linearGradient id="paint0_linear_242_142" x1="22.5" y1="0" x2="22.5" y2="36.875" gradientUnits="userSpaceOnUse">
<stop stop-color="#2647C5"/>
<stop offset="1" stop-color="#349FDD"/>
</linearGradient>
</defs>
</svg>
