<svg width="40" height="40" viewBox="0 0 40 40" fill="none" xmlns="http://www.w3.org/2000/svg">
<path d="M0.898159 33.8417L10.4654 24.2736C8.97392 21.8254 8.18721 19.0129 8.19194 16.1461C8.19194 7.4945 15.6882 2.04735e-07 24.339 2.04735e-07C26.3957 -0.000332388 28.4324 0.404563 30.3326 1.19156C32.2328 1.97855 33.9594 3.13223 35.4137 4.58669C36.8681 6.04116 38.0216 7.76791 38.8086 9.66832C39.5955 11.5687 40.0003 13.6056 40 15.6625C40 24.3115 32.5037 31.8086 23.8555 31.8086C21.0834 31.8111 18.3609 31.0733 15.9693 29.6716L6.3514 39.2955C5.89912 39.7466 5.28639 40 4.64758 40C4.00878 40 3.39605 39.7466 2.94376 39.2955L0.556381 36.9079C-0.382874 35.9685 -0.0410957 34.7811 0.898159 33.8417ZM35.1797 15.6625C35.18 14.2385 34.8999 12.8284 34.3552 11.5128C33.8106 10.1971 33.0121 9.00162 32.0054 7.99461C30.9987 6.9876 29.8036 6.18878 28.4881 5.64377C27.1727 5.09877 25.7628 4.81825 24.339 4.81825C18.349 4.81825 13.0123 10.153 13.0123 16.1461C13.0129 19.0219 14.1556 21.7798 16.1889 23.8134C18.2222 25.8469 20.9799 26.9896 23.8555 26.9903C29.8454 26.9878 35.1797 21.6505 35.1797 15.6625Z" fill="url(#paint0_linear_284_3)"/>
<defs>
<linearGradient id="paint0_linear_284_3" x1="20" y1="0" x2="20" y2="40" gradientUnits="userSpaceOnUse">
<stop stop-color="#2647C5"/>
<stop offset="1" stop-color="#349FDD"/>
</linearGradient>
</defs>
</svg>
