<svg width="45" height="45" viewBox="0 0 45 45" fill="none" xmlns="http://www.w3.org/2000/svg">
<path d="M8.04375 0.167179C8.33021 0.304878 8.57194 0.520659 8.74112 0.789677C8.91029 1.05869 9.00003 1.37001 9 1.68778C9 3.55478 9.702 4.62999 10.5818 5.93914L10.647 6.03362C11.394 7.14482 12.375 8.60019 12.375 10.6854C12.375 12.8133 11.3018 14.6893 9.666 15.8028C10.0958 16.1627 10.476 16.6058 10.8045 17.1367C11.8755 18.8687 12.375 21.5162 12.375 25.3177C12.375 29.1687 11.8575 33.7935 11.0138 37.487C10.5953 39.3225 10.0755 41.0163 9.45675 42.2872C9.16463 42.9196 8.77767 43.5037 8.30925 44.0193C7.84575 44.4939 7.1325 45 6.1875 45C5.2425 45 4.52925 44.4939 4.068 44.0193C3.59822 43.5047 3.21112 42.9204 2.9205 42.2872C2.2995 41.0141 1.77975 39.3225 1.36125 37.4848C0.483632 33.487 0.0273913 29.4083 2.16788e-06 25.3155C2.16788e-06 21.514 0.499502 18.8687 1.5705 17.1367C1.87605 16.6339 2.26045 16.1835 2.709 15.8028C1.87374 15.2358 1.19011 14.473 0.717869 13.5809C0.245628 12.6888 -0.000843312 11.6947 2.16788e-06 10.6854C2.16788e-06 9.8576 1.9446e-06 8.43373 0.861752 6.59597C1.7055 4.79645 3.30975 2.72925 6.25725 0.369626C6.50567 0.170968 6.8052 0.0465549 7.12129 0.0107355C7.43738 -0.025084 7.75716 0.0291486 8.04375 0.167179V0.167179ZM3.375 10.6831V10.6854C3.375 11.4311 3.67132 12.1463 4.19876 12.6736C4.72621 13.2009 5.44158 13.4971 6.1875 13.4971C6.93342 13.4971 7.64879 13.2009 8.17624 12.6736C8.70369 12.1463 9 11.4311 9 10.6854C9 9.69789 8.58375 9.01408 7.7805 7.81964L7.7535 7.77916C7.23825 7.01436 6.6285 6.10785 6.1965 4.94491C4.97475 6.18658 4.29975 7.2168 3.9195 8.02659C3.375 9.18728 3.375 10.0128 3.375 10.6809V10.6831ZM4.4415 18.9092C3.8835 19.8135 3.375 21.667 3.375 25.3177C3.375 28.919 3.8655 33.2919 4.65075 36.7357C5.04675 38.4677 5.49675 39.8736 5.9535 40.8094C6.03675 40.9826 6.1155 41.1265 6.1875 41.248C6.2595 41.1265 6.33825 40.9826 6.4215 40.8094C6.87825 39.8736 7.32825 38.4655 7.72425 36.7357C8.51175 33.2941 9 28.9213 9 25.3177C9 21.667 8.4915 19.8135 7.9335 18.9092C7.76522 18.6048 7.51085 18.3567 7.20225 18.1961C6.88272 18.057 6.53571 17.9924 6.1875 18.0072C5.7375 18.0072 5.41575 18.0769 5.17275 18.1961C4.86415 18.3567 4.60979 18.6048 4.4415 18.9092V18.9092ZM18 29.0585C16.808 28.8586 15.6485 28.4984 14.553 27.9878C14.6189 26.712 14.6376 25.4342 14.6093 24.157C15.624 24.8386 16.7693 25.3402 18 25.6192V19.1206C18 18.2258 18.3556 17.3676 18.9885 16.7348C19.6214 16.102 20.4799 15.7465 21.375 15.7465H30.375C30.3749 13.8586 29.8467 12.0083 28.85 10.4047C27.8533 8.80116 26.4279 7.5082 24.7348 6.67195C23.0417 5.8357 21.1485 5.48948 19.2689 5.67242C17.3894 5.85535 15.5984 6.56015 14.0985 7.70717C13.6485 6.46326 13.0073 5.51176 12.5618 4.85043L12.4718 4.71547C14.4933 3.2908 16.8674 2.44872 19.3351 2.28114C21.8027 2.11356 24.269 2.62693 26.4647 3.76521C28.6603 4.90349 30.501 6.62293 31.7858 8.73582C33.0705 10.8487 33.75 13.2739 33.75 15.7465H41.625C42.5201 15.7465 43.3785 16.102 44.0115 16.7348C44.6444 17.3676 45 18.2258 45 19.1206V39.3653C45 40.2601 44.6444 41.1183 44.0115 41.7511C43.3785 42.3839 42.5201 42.7394 41.625 42.7394H21.375C20.4799 42.7394 19.6214 42.3839 18.9885 41.7511C18.3556 41.1183 18 40.2601 18 39.3653V29.0562V29.0585ZM21.375 29.2002V39.3675H41.625V19.1229H33.3225C32.6215 21.8335 31.0952 24.2592 28.9548 26.0646C26.8144 27.87 24.1656 28.9657 21.375 29.2002V29.2002ZM29.799 19.1229H21.375V25.8104C23.2654 25.5985 25.0581 24.8589 26.5478 23.6763C28.0375 22.4936 29.1642 20.9157 29.799 19.1229V19.1229Z" fill="url(#paint0_linear_238_289)"/>
<defs>
<linearGradient id="paint0_linear_238_289" x1="22.5" y1="0" x2="22.5" y2="45" gradientUnits="userSpaceOnUse">
<stop stop-color="#2647C5"/>
<stop offset="1" stop-color="#349FDD"/>
</linearGradient>
</defs>
</svg>
