<svg width="45" height="45" viewBox="0 0 45 45" fill="none" xmlns="http://www.w3.org/2000/svg">
<path d="M24.75 36H27C27.5967 36 28.169 36.2371 28.591 36.659C29.0129 37.081 29.25 37.6533 29.25 38.25H45V42.75H29.25C29.25 43.3467 29.0129 43.919 28.591 44.341C28.169 44.7629 27.5967 45 27 45H18C17.4033 45 16.831 44.7629 16.409 44.341C15.9871 43.919 15.75 43.3467 15.75 42.75H0V38.25H15.75C15.75 37.6533 15.9871 37.081 16.409 36.659C16.831 36.2371 17.4033 36 18 36H20.25V31.5H4.5C3.90326 31.5 3.33097 31.2629 2.90901 30.841C2.48705 30.419 2.25 29.8467 2.25 29.25V20.25C2.25 19.6533 2.48705 19.081 2.90901 18.659C3.33097 18.2371 3.90326 18 4.5 18H40.5C41.0967 18 41.669 18.2371 42.091 18.659C42.5129 19.081 42.75 19.6533 42.75 20.25V29.25C42.75 29.8467 42.5129 30.419 42.091 30.841C41.669 31.2629 41.0967 31.5 40.5 31.5H24.75V36ZM4.5 0H40.5C41.0967 0 41.669 0.237053 42.091 0.65901C42.5129 1.08097 42.75 1.65326 42.75 2.25V11.25C42.75 11.8467 42.5129 12.419 42.091 12.841C41.669 13.2629 41.0967 13.5 40.5 13.5H4.5C3.90326 13.5 3.33097 13.2629 2.90901 12.841C2.48705 12.419 2.25 11.8467 2.25 11.25V2.25C2.25 1.65326 2.48705 1.08097 2.90901 0.65901C3.33097 0.237053 3.90326 0 4.5 0ZM15.75 9H18V4.5H15.75V9ZM15.75 27H18V22.5H15.75V27ZM6.75 4.5V9H11.25V4.5H6.75ZM6.75 22.5V27H11.25V22.5H6.75Z" fill="url(#paint0_linear_245_268)"/>
<defs>
<linearGradient id="paint0_linear_245_268" x1="22.5" y1="0" x2="22.5" y2="45" gradientUnits="userSpaceOnUse">
<stop stop-color="#2647C5"/>
<stop offset="1" stop-color="#349FDD"/>
</linearGradient>
</defs>
</svg>
