<svg width="45" height="36" viewBox="0 0 45 36" fill="none" xmlns="http://www.w3.org/2000/svg">
<path d="M41.3503 10.2137L38.5782 14.383C39.9151 17.0493 40.5695 20.0055 40.483 22.9869C40.3965 25.9683 39.5716 28.8816 38.0824 31.4659H6.84653C4.91101 28.1081 4.10899 24.2161 4.55937 20.3667C5.00976 16.5173 6.68857 12.9155 9.34694 10.0952C12.0053 7.275 15.5017 5.38645 19.3178 4.70957C23.1338 4.03269 27.0665 4.60351 30.5326 6.33741L34.7019 3.56539C30.4571 0.84344 25.422 -0.376273 20.4021 0.101351C15.3822 0.578975 10.6675 2.72634 7.01216 6.19996C3.35681 9.67358 0.972026 14.2727 0.239257 19.2618C-0.493512 24.2509 0.468079 29.3415 2.97022 33.7195C3.36351 34.4008 3.92823 34.9672 4.60826 35.3626C5.28828 35.7579 6.05994 35.9684 6.84653 35.9732H38.0599C38.8541 35.9763 39.6351 35.7696 40.3237 35.3738C41.0123 34.9781 41.5842 34.4074 41.9813 33.7195C44.0578 30.1225 45.0998 26.0216 44.9925 21.8696C44.8851 17.7176 43.6324 13.6761 41.3728 10.1912L41.3503 10.2137Z" fill="url(#paint0_linear_238_483)"/>
<path d="M19.2863 25.6288C19.7049 26.0479 20.202 26.3803 20.7492 26.6072C21.2964 26.834 21.8829 26.9507 22.4752 26.9507C23.0676 26.9507 23.6541 26.834 24.2013 26.6072C24.7485 26.3803 25.2456 26.0479 25.6642 25.6288L38.42 6.49512L19.2863 19.2509C18.8672 19.6695 18.5348 20.1666 18.3079 20.7138C18.0811 21.261 17.9644 21.8475 17.9644 22.4398C17.9644 23.0322 18.0811 23.6187 18.3079 24.1659C18.5348 24.7131 18.8672 25.2102 19.2863 25.6288Z" fill="url(#paint1_linear_238_483)"/>
<defs>
<linearGradient id="paint0_linear_238_483" x1="0" y1="17.9866" x2="45" y2="17.9866" gradientUnits="userSpaceOnUse">
<stop stop-color="#2647C5"/>
<stop offset="1" stop-color="#349FDD"/>
</linearGradient>
<linearGradient id="paint1_linear_238_483" x1="17.9644" y1="16.7229" x2="38.42" y2="16.7229" gradientUnits="userSpaceOnUse">
<stop stop-color="#2647C5"/>
<stop offset="1" stop-color="#349FDD"/>
</linearGradient>
</defs>
</svg>
