<svg width="45" height="35" viewBox="0 0 45 35" fill="none" xmlns="http://www.w3.org/2000/svg">
<path d="M32.8053 14.5739H44.2713C44.4098 14.5739 44.5454 14.6135 44.6623 14.6878C44.7792 14.7622 44.8724 14.8683 44.9312 14.9937C44.9899 15.1192 45.0117 15.2588 44.994 15.3962C44.9763 15.5335 44.9198 15.663 44.8311 15.7695L39.0982 22.6514C39.0298 22.7334 38.9441 22.7994 38.8474 22.8447C38.7506 22.89 38.6451 22.9135 38.5383 22.9135C38.4315 22.9135 38.3259 22.89 38.2292 22.8447C38.1324 22.7994 38.0468 22.7334 37.9784 22.6514L32.2455 15.7695C32.1568 15.663 32.1003 15.5335 32.0826 15.3962C32.0649 15.2588 32.0867 15.1192 32.1454 14.9937C32.2041 14.8683 32.2974 14.7622 32.4143 14.6878C32.5312 14.6135 32.6668 14.5739 32.8053 14.5739ZM0.728741 20.406H12.1947C12.3332 20.4059 12.4688 20.3664 12.5857 20.2921C12.7026 20.2177 12.7959 20.1116 12.8546 19.9862C12.9133 19.8607 12.9351 19.7211 12.9174 19.5837C12.8997 19.4463 12.8432 19.3168 12.7545 19.2104L7.02158 12.3285C6.95317 12.2465 6.86755 12.1805 6.7708 12.1352C6.67405 12.0899 6.56853 12.0664 6.4617 12.0664C6.35487 12.0664 6.24935 12.0899 6.1526 12.1352C6.05585 12.1805 5.97024 12.2465 5.90182 12.3285L0.168858 19.2104C0.0802036 19.3168 0.0237088 19.4463 0.00598937 19.5837C-0.0117301 19.7211 0.0100593 19.8607 0.0688061 19.9862C0.127553 20.1116 0.220825 20.2177 0.337701 20.2921C0.454577 20.3664 0.590218 20.4059 0.728741 20.406Z" fill="url(#paint0_linear_238_313)"/>
<path fill-rule="evenodd" clip-rule="evenodd" d="M22.4997 2.90961C17.9739 2.90961 13.9265 4.97126 11.2524 8.211C11.133 8.36576 10.9837 8.49494 10.8134 8.59084C10.6431 8.68675 10.4552 8.74742 10.2609 8.76926C10.0667 8.7911 9.87004 8.77366 9.68267 8.71797C9.4953 8.66228 9.32104 8.56949 9.17025 8.4451C9.01946 8.32072 8.89522 8.16728 8.80492 7.99391C8.71462 7.82055 8.6601 7.6308 8.64461 7.43594C8.62911 7.24108 8.65296 7.0451 8.71472 6.85964C8.77649 6.67419 8.87492 6.50304 9.00416 6.35639C11.1393 3.77139 13.9719 1.85403 17.1652 0.832379C20.3585 -0.189276 23.7781 -0.272239 27.0171 0.59336C30.2562 1.45896 33.1785 3.23669 35.4365 5.71511C37.6944 8.19353 39.193 11.2683 39.7539 14.5738H36.7883C36.1151 11.281 34.3253 8.32179 31.7218 6.19643C29.1182 4.07107 25.8606 2.91002 22.4997 2.90961ZM8.21099 20.4059C8.76303 23.1022 10.0666 25.5872 11.9712 27.574C13.8757 29.5608 16.3035 30.9682 18.974 31.6336C21.6446 32.299 24.4489 32.1953 27.063 31.3345C29.6771 30.4736 31.9943 28.8908 33.7469 26.7688C33.8663 26.614 34.0156 26.4848 34.1859 26.3889C34.3562 26.293 34.5441 26.2323 34.7384 26.2105C34.9326 26.1887 35.1293 26.2061 35.3166 26.2618C35.504 26.3175 35.6783 26.4103 35.8291 26.5347C35.9799 26.6591 36.1041 26.8125 36.1944 26.9859C36.2847 27.1592 36.3392 27.349 36.3547 27.5438C36.3702 27.7387 36.3463 27.9347 36.2846 28.1201C36.2228 28.3056 36.1244 28.4767 35.9952 28.6234C33.86 31.2084 31.0274 33.1257 27.8341 34.1474C24.6408 35.169 21.2213 35.252 17.9822 34.3864C14.7431 33.5208 11.8208 31.7431 9.56284 29.2647C7.30489 26.7862 5.80632 23.7114 5.24536 20.4059H8.21099Z" fill="url(#paint1_linear_238_313)"/>
<defs>
<linearGradient id="paint0_linear_238_313" x1="22.5" y1="12.0664" x2="22.5" y2="22.9135" gradientUnits="userSpaceOnUse">
<stop stop-color="#2647C5"/>
<stop offset="1" stop-color="#349FDD"/>
</linearGradient>
<linearGradient id="paint1_linear_238_313" x1="22.4997" y1="0" x2="22.4997" y2="34.9798" gradientUnits="userSpaceOnUse">
<stop stop-color="#2647C5"/>
<stop offset="1" stop-color="#349FDD"/>
</linearGradient>
</defs>
</svg>
