<svg width="45" height="45" viewBox="0 0 45 45" fill="none" xmlns="http://www.w3.org/2000/svg">
<path d="M43.8811 15.5358C45.4458 20.3442 45.3456 25.5395 43.5968 30.2839C41.848 35.0283 38.5525 39.0451 34.242 41.6864C29.9314 44.3278 24.857 45.4396 19.8373 44.8426C14.8177 44.2456 10.1454 41.9746 6.57406 38.3959C3.00276 34.8172 0.740688 30.1394 0.152709 25.1171C-0.43527 20.0948 0.685127 15.0208 3.33318 10.7134C5.98124 6.40615 10.0026 3.1167 14.7485 1.37568C19.4945 -0.365332 24.6883 -0.456401 29.4924 1.11717L26.5454 4.06222C26.3823 4.22255 26.2361 4.39976 26.1012 4.5826C22.2546 3.80597 18.2604 4.28829 14.7091 5.95822C11.1579 7.62814 8.23816 10.397 6.3818 13.8553C4.52544 17.3136 3.831 21.2777 4.40119 25.1614C4.97139 29.0451 6.77593 32.6421 9.54794 35.4204C12.32 38.1987 15.9123 40.0109 19.7936 40.5889C23.6749 41.1669 27.6391 40.48 31.0999 38.6299C34.5608 36.7797 37.3345 33.8645 39.0108 30.3154C40.6872 26.7663 41.1772 22.7717 40.4084 18.9225C40.6008 18.786 40.7814 18.6335 40.9483 18.4668L43.8783 15.5358H43.8811ZM36.2748 19.7017C36.8785 22.664 36.5118 25.7421 35.2292 28.4797C33.9465 31.2172 31.8162 33.4684 29.1539 34.8996C26.4917 36.3307 23.4393 36.8656 20.4492 36.425C17.4591 35.9844 14.6906 34.5916 12.5541 32.4533C10.4175 30.315 9.02664 27.5448 8.58767 24.5536C8.14871 21.5624 8.68502 18.5093 10.1171 15.8469C11.5492 13.1845 13.8007 11.0546 16.5381 9.77299C19.2754 8.49133 22.3527 8.12614 25.3138 8.73155V13.0802C23.2151 12.4535 20.9674 12.545 18.9266 13.3401C16.8857 14.1353 15.1683 15.5887 14.0463 17.4703C12.9243 19.3518 12.4617 21.554 12.7319 23.7282C13.002 25.9023 13.9895 27.9243 15.5378 29.4738C17.0862 31.0233 19.107 32.0119 21.2804 32.2831C23.4538 32.5543 25.6555 32.0925 27.5369 30.9709C29.4183 29.8493 30.872 28.132 31.6678 26.0908C32.4636 24.0497 32.5559 21.8013 31.9303 19.7017H36.2748ZM22.4962 26.7338C23.1431 26.7341 23.7814 26.5856 24.3617 26.2998C24.942 26.0139 25.4488 25.5984 25.843 25.0853C26.2371 24.5723 26.508 23.9754 26.6347 23.3408C26.7614 22.7063 26.7404 22.0511 26.5736 21.4259L31.0221 16.9732L31.1064 16.8888H37.9676C38.1524 16.8891 38.3354 16.853 38.5062 16.7826C38.677 16.7121 38.8322 16.6087 38.963 16.4781L44.5869 10.8524C44.7841 10.6557 44.9184 10.4049 44.9728 10.1318C45.0273 9.85861 44.9995 9.57543 44.8928 9.31813C44.7862 9.06083 44.6056 8.84099 44.3739 8.68649C44.1423 8.53198 43.8699 8.44977 43.5915 8.45026H36.5616V1.41814C36.5616 1.14019 36.4792 0.868487 36.3249 0.637343C36.1705 0.406198 35.9512 0.225977 35.6946 0.119436C35.4379 0.0128944 35.1555 -0.0151891 34.8829 0.0387313C34.6103 0.0926516 34.3598 0.226158 34.163 0.422392L28.5391 6.04809C28.4081 6.17871 28.3042 6.3339 28.2333 6.50477C28.1623 6.67564 28.1258 6.85882 28.1258 7.04384V13.9072C28.0969 13.9345 28.0687 13.9627 28.0414 13.9916L23.5929 18.4359C22.9674 18.268 22.3117 18.2463 21.6765 18.3726C21.0413 18.4988 20.4437 18.7696 19.9299 19.1639C19.4161 19.5582 18.9999 20.0655 18.7135 20.6465C18.4271 21.2276 18.2782 21.8667 18.2783 22.5145C18.2783 23.6335 18.7227 24.7067 19.5137 25.498C20.3047 26.2893 21.3776 26.7338 22.4962 26.7338Z" fill="url(#paint0_linear_238_285)"/>
<defs>
<linearGradient id="paint0_linear_238_285" x1="22.5" y1="0" x2="22.5" y2="45" gradientUnits="userSpaceOnUse">
<stop stop-color="#2647C5"/>
<stop offset="1" stop-color="#349FDD"/>
</linearGradient>
</defs>
</svg>
