<svg width="45" height="45" viewBox="0 0 45 45" fill="none" xmlns="http://www.w3.org/2000/svg">
<g clip-path="url(#clip0_245_278)">
<path d="M43.4747 36.2216L36.7986 29.5455C34.9246 27.6715 31.8862 27.6715 30.0121 29.5455L28.9676 30.59C28.1271 31.4285 27.543 32.4893 27.2839 33.648C25.021 33.6903 22.4619 33.3055 20.273 31.8855C18.9286 30.8861 17.659 29.7898 16.4745 28.6053C15.4738 27.6052 14.5356 26.5446 13.665 25.4295C11.9591 23.1376 11.5089 20.3563 11.5545 17.9187C12.7132 17.6596 13.774 17.0756 14.6125 16.235L15.657 15.1905C17.531 13.3165 17.531 10.2781 15.657 8.404L8.98094 1.72792C7.73158 0.478552 5.70596 0.478552 4.45668 1.72792L3.3105 2.87436C1.84115 4.34372 1.08898 6.25745 1.04987 8.18304C0.673608 12.2458 1.4517 16.7182 3.30013 21.1169C4.52058 24.0211 6.19622 26.8569 8.23695 29.4927C8.2627 29.5272 8.28713 29.5621 8.31324 29.5965L8.31622 29.5942C9.35813 30.9308 10.4815 32.2019 11.6799 33.4002C12.9184 34.6396 14.2344 35.7993 15.6198 36.8721L15.6064 36.8898C15.8372 37.0648 16.0726 37.2336 16.3124 37.3961C22.1361 41.7036 28.7185 44.1237 34.8439 44.1234C35.2017 44.1233 35.5584 44.1131 35.9131 44.0965C38.1946 44.3769 40.577 43.6437 42.3284 41.8923L43.4748 40.7459C44.724 39.4965 44.724 37.4709 43.4747 36.2216Z" fill="url(#paint0_linear_245_278)"/>
</g>
<defs>
<linearGradient id="paint0_linear_245_278" x1="22.6846" y1="0.790894" x2="22.6846" y2="44.1547" gradientUnits="userSpaceOnUse">
<stop stop-color="#2647C5"/>
<stop offset="1" stop-color="#349FDD"/>
</linearGradient>
<clipPath id="clip0_245_278">
<rect width="45" height="45" fill="white"/>
</clipPath>
</defs>
</svg>
