<svg width="48" height="32" viewBox="0 0 48 32" fill="none" xmlns="http://www.w3.org/2000/svg">
<path d="M38.7 12.08C38.0282 8.67544 36.1952 5.60972 33.5141 3.40649C30.8331 1.20327 27.4702 -0.000784485 24 3.83473e-07C18.22 3.83473e-07 13.2 3.28 10.7 8.08C7.76047 8.39766 5.04201 9.79042 3.06698 11.9906C1.09194 14.1909 -0.000343404 17.0434 8.09855e-08 20C8.09855e-08 26.62 5.38 32 12 32H38C43.52 32 48 27.52 48 22C48 16.72 43.9 12.44 38.7 12.08ZM28 18V26H20V18H14L24 8L34 18H28Z" fill="url(#paint0_linear_245_265)"/>
<defs>
<linearGradient id="paint0_linear_245_265" x1="24" y1="0" x2="24" y2="32" gradientUnits="userSpaceOnUse">
<stop stop-color="#2647C5"/>
<stop offset="1" stop-color="#349FDD"/>
</linearGradient>
</defs>
</svg>
