<svg width="40" height="46" viewBox="0 0 40 46" fill="none" xmlns="http://www.w3.org/2000/svg">
<path d="M5.33252 17.3307C5.33252 16.9771 5.47297 16.638 5.72298 16.388C5.97299 16.138 6.31208 15.9975 6.66565 15.9975H25.3295C25.683 15.9975 26.0221 16.138 26.2721 16.388C26.5221 16.638 26.6626 16.9771 26.6626 17.3307C26.6626 17.6842 26.5221 18.0233 26.2721 18.2733C26.0221 18.5234 25.683 18.6638 25.3295 18.6638H6.66565C6.31208 18.6638 5.97299 18.5234 5.72298 18.2733C5.47297 18.0233 5.33252 17.6842 5.33252 17.3307ZM6.66565 23.9963C6.31208 23.9963 5.97299 24.1368 5.72298 24.3868C5.47297 24.6368 5.33252 24.9759 5.33252 25.3295C5.33252 25.683 5.47297 26.0221 5.72298 26.2721C5.97299 26.5221 6.31208 26.6626 6.66565 26.6626H14.6644C15.018 26.6626 15.3571 26.5221 15.6071 26.2721C15.8571 26.0221 15.9975 25.683 15.9975 25.3295C15.9975 24.9759 15.8571 24.6368 15.6071 24.3868C15.3571 24.1368 15.018 23.9963 14.6644 23.9963H6.66565ZM5.33252 33.3282C5.33252 32.9747 5.47297 32.6356 5.72298 32.3856C5.97299 32.1356 6.31208 31.9951 6.66565 31.9951H18.5145L16.7281 33.7815C16.4524 34.057 16.1959 34.3509 15.9602 34.6614H6.66565C6.31208 34.6614 5.97299 34.5209 5.72298 34.2709C5.47297 34.0209 5.33252 33.6818 5.33252 33.3282ZM13.9205 39.9939H3.99939C3.64582 39.9939 3.30673 39.8534 3.05672 39.6034C2.80671 39.3534 2.66626 39.0143 2.66626 38.6607V6.66565C2.66626 6.31208 2.80671 5.97299 3.05672 5.72298C3.30673 5.47297 3.64582 5.33252 3.99939 5.33252H8.22541C8.50121 6.11261 9.01217 6.78795 9.68787 7.26548C10.3636 7.74301 11.1708 7.99921 11.9982 7.99878H19.9969C20.8243 7.99921 21.6315 7.74301 22.3072 7.26548C22.9829 6.78795 23.4939 6.11261 23.7697 5.33252H27.9957C28.3493 5.33252 28.6884 5.47297 28.9384 5.72298C29.1884 5.97299 29.3288 6.31208 29.3288 6.66565V21.1808L29.6035 20.9061C30.3127 20.1969 31.1259 19.653 31.9951 19.2824V6.66565C31.9951 5.60494 31.5737 4.58768 30.8237 3.83765C30.0737 3.08762 29.0564 2.66626 27.9957 2.66626H23.7697C23.4939 1.88617 22.9829 1.21082 22.3072 0.733296C21.6315 0.255768 20.8243 -0.000433214 19.9969 5.4988e-07H11.9982C11.1708 -0.000433214 10.3636 0.255768 9.68787 0.733296C9.01217 1.21082 8.50121 1.88617 8.22541 2.66626H3.99939C2.93868 2.66626 1.92142 3.08762 1.17139 3.83765C0.421362 4.58768 0 5.60494 0 6.66565V38.6607C0 39.7214 0.421362 40.7387 1.17139 41.4887C1.92142 42.2388 2.93868 42.6601 3.99939 42.6601H13.342C13.3619 42.348 13.4101 42.0383 13.4859 41.7349L13.9205 39.9939ZM21.3301 3.99939C21.3301 4.35296 21.1896 4.69204 20.9396 4.94205C20.6896 5.19206 20.3505 5.33252 19.9969 5.33252H11.9982C11.6446 5.33252 11.3055 5.19206 11.0555 4.94205C10.8055 4.69204 10.665 4.35296 10.665 3.99939C10.665 3.64582 10.8055 3.30673 11.0555 3.05672C11.3055 2.80671 11.6446 2.66626 11.9982 2.66626H19.9969C20.3505 2.66626 20.6896 2.80671 20.9396 3.05672C21.1896 3.30673 21.3301 3.64582 21.3301 3.99939ZM18.6105 35.6665L31.4885 22.7885C32.424 21.8537 33.6926 21.3288 35.0152 21.3293C36.3377 21.3298 37.6059 21.8556 38.5408 22.7912C39.4756 23.7267 40.0005 24.9953 40 26.3179C39.9995 27.6404 39.4736 28.9086 38.5381 29.8434L25.6601 42.7188C24.9099 43.4693 23.9699 44.002 22.9405 44.2599L18.9464 45.2571C18.5493 45.356 18.1333 45.3506 17.7389 45.2413C17.3444 45.132 16.985 44.9225 16.6954 44.6332C16.4059 44.344 16.1961 43.9847 16.0864 43.5904C15.9768 43.1961 15.9709 42.7801 16.0695 42.3828L17.0694 38.3888C17.3251 37.3585 17.8581 36.418 18.6105 35.6692V35.6665Z" fill="url(#paint0_linear_242_146)"/>
<defs>
<linearGradient id="paint0_linear_242_146" x1="20" y1="0" x2="20" y2="45.3275" gradientUnits="userSpaceOnUse">
<stop stop-color="#2647C5"/>
<stop offset="1" stop-color="#349FDD"/>
</linearGradient>
</defs>
</svg>
