<svg width="176" height="263" viewBox="0 0 176 263" fill="none" xmlns="http://www.w3.org/2000/svg">
<path d="M28.3766 221.672L22.3376 228.252C19.1579 226.389 16.8705 225.457 15.475 225.457C14.4 225.457 13.4735 225.866 12.6957 226.684C11.9179 227.48 11.5291 228.434 11.5291 229.547C11.5291 231.752 13.5421 233.662 17.568 235.278C20.519 236.528 22.7494 237.664 24.259 238.687C25.7689 239.687 27.0271 241.084 28.0336 242.881C29.0629 244.677 29.5776 246.62 29.5776 248.712C29.5776 252.553 28.0108 255.896 24.8768 258.737C21.7658 261.579 18.0828 263 13.828 263C9.16152 263 4.55214 260.818 0 256.454L6.38219 249.053C9.24159 251.986 11.9179 253.452 14.4114 253.452C15.5779 253.452 16.699 252.94 17.774 251.917C18.8492 250.871 19.3867 249.781 19.3867 248.644C19.3867 246.303 16.9047 244.244 11.9408 242.472C9.10436 241.449 7.09133 240.494 5.90177 239.607C4.71228 238.697 3.70576 237.391 2.8823 235.686C2.08167 233.957 1.68132 232.196 1.68132 230.401C1.68132 226.422 2.9852 223.194 5.59298 220.717C8.20075 218.239 11.6092 217 15.8183 217C20.805 217 24.9911 218.557 28.3766 221.672Z" fill="url(#paint0_linear_234_101)"/>
<path d="M38.1887 217.613H53.5953C57.7355 217.613 61.0754 218.819 63.6146 221.229C66.1537 223.615 67.4237 226.763 67.4237 230.673C67.4237 233.242 66.7942 235.686 65.5362 238.005C64.3008 240.301 62.4251 242.017 59.9088 243.153C57.3925 244.29 55.2423 244.882 53.4581 244.927L47.8307 245.063V262.386H38.1887V217.613ZM47.6934 225.661V237.118H51.4678C53.092 237.118 54.476 236.538 55.6197 235.379C56.7863 234.22 57.3697 232.844 57.3697 231.254C57.3697 229.434 56.7177 228.026 55.4138 227.025C54.1098 226.025 52.2571 225.525 49.8552 225.525L47.6934 225.661Z" fill="url(#paint1_linear_234_101)"/>
<path d="M76.24 217.613H85.9163V262.386H76.24V217.613Z" fill="url(#paint2_linear_234_101)"/>
<path d="M130.041 220.001V230.946C125.169 228.013 120.902 226.548 117.242 226.548C113.582 226.548 110.654 227.798 108.459 230.298C106.262 232.798 105.164 236.163 105.164 240.391C105.164 244.393 106.32 247.598 108.63 250.008C110.94 252.394 114.028 253.588 117.894 253.588C121.28 253.588 125.328 252.235 130.041 249.531V260.374C124.757 262.124 120.353 263 116.831 263C110.769 263 105.621 260.795 101.39 256.383C97.1577 251.95 95.0417 246.552 95.0417 240.187C95.0417 233.708 97.1924 228.229 101.493 223.751C105.817 219.25 111.066 217 117.242 217C121.223 217 125.489 218 130.041 220.001Z" fill="url(#paint3_linear_234_101)"/>
<path d="M136.388 217.979H146.57L155.501 231.763L164.735 217.979H174.613L160.575 239.409L176 263H166.089L155.568 246.987L145.048 263H134.933L150.528 239.478L136.388 217.979Z" fill="url(#paint4_linear_234_101)"/>
<g clip-path="url(#clip0_234_101)">
<path d="M68.2767 34.7918C67.8332 36.5434 67.5969 38.3774 67.5969 40.2653C67.5969 45.7265 69.5615 50.7303 72.8277 54.6168H72.8235L72.8525 54.6459C73.7022 55.6557 74.639 56.5872 75.6544 57.4321L108.146 89.7419C114.908 96.4664 114.908 107.369 108.146 114.093L70.3283 76.4865L68.086 74.2567L66.627 72.8061L57.3924 63.6229C57.3878 63.6174 57.3829 63.6116 57.3783 63.6063C52.6317 57.0326 49.8364 48.9753 49.8364 40.2653C49.8364 37.611 50.0975 35.0184 50.5908 32.5083C51.3783 28.5103 52.7668 24.7224 54.6568 21.2478C57.6121 15.803 61.8025 11.1208 66.8467 7.5638C69.6196 5.61011 72.6536 3.99441 75.8824 2.78263C80.6572 0.986402 85.8615 0.0680963 91.3023 0.223484C112.497 0.829783 129.742 17.962 130.377 39.0379C130.539 44.4657 129.616 49.6574 127.804 54.415L112.614 39.3089C112.125 27.7024 102.749 18.3791 91.0773 17.8927C90.7582 17.8804 90.4389 17.8721 90.1155 17.8721C86.3769 17.8721 82.8456 18.7789 79.7412 20.3864C74.1001 23.3004 69.86 28.5185 68.2767 34.7918Z" fill="url(#paint5_linear_234_101)"/>
<path d="M128.042 109.341L129.087 110.379C135.645 116.901 135.645 127.475 129.087 133.997L85.1654 177.673C72.1316 190.634 49.8462 181.455 49.8462 163.125V70.0903L68.0958 88.2381V152.475C68.0958 158.556 75.4888 161.601 79.8128 157.301L85.4624 151.683L108.044 129.224L115.765 121.549C115.836 121.479 115.906 121.409 115.972 121.339C121.806 115.421 123.375 108.949 121.728 104.116C121.6 103.742 122.062 103.452 122.344 103.73L128.042 109.341Z" fill="url(#paint6_linear_234_101)"/>
<path d="M117.582 73.4113C115.027 75.569 112.243 77.4667 109.272 79.0637L99.7109 69.5535C96.7653 66.6234 97.2281 61.6814 100.749 59.4656C103.131 57.9665 105.262 56.1074 107.063 53.9653C108.312 52.4806 109.406 50.8529 110.312 49.1213L118.289 57.2498C122.785 61.8312 122.489 69.2682 117.582 73.4113Z" fill="url(#paint7_linear_234_101)"/>
<path d="M96.9812 39.4461C96.9812 42.6758 94.3486 45.294 91.1007 45.294C87.8528 45.294 85.2197 42.6758 85.2197 39.4461C85.2197 36.2163 87.8528 33.5981 91.1007 33.5981C94.3486 33.5981 96.9812 36.2163 96.9812 39.4461Z" fill="url(#paint8_linear_234_101)"/>
</g>
<defs>
<linearGradient id="paint0_linear_234_101" x1="14.7888" y1="217" x2="14.7888" y2="263" gradientUnits="userSpaceOnUse">
<stop stop-color="#349FDD"/>
<stop offset="0.9999" stop-color="#2647C5"/>
<stop offset="1" stop-color="#2A60CC"/>
</linearGradient>
<linearGradient id="paint1_linear_234_101" x1="52.8062" y1="217.613" x2="52.8062" y2="262.386" gradientUnits="userSpaceOnUse">
<stop stop-color="#349FDD"/>
<stop offset="0.9999" stop-color="#2647C5"/>
<stop offset="1" stop-color="#2A60CC"/>
</linearGradient>
<linearGradient id="paint2_linear_234_101" x1="81.0782" y1="217.613" x2="81.0782" y2="262.386" gradientUnits="userSpaceOnUse">
<stop stop-color="#349FDD"/>
<stop offset="0.9999" stop-color="#2647C5"/>
<stop offset="1" stop-color="#2A60CC"/>
</linearGradient>
<linearGradient id="paint3_linear_234_101" x1="112.541" y1="217" x2="112.541" y2="263" gradientUnits="userSpaceOnUse">
<stop stop-color="#349FDD"/>
<stop offset="0.9999" stop-color="#2647C5"/>
<stop offset="1" stop-color="#2A60CC"/>
</linearGradient>
<linearGradient id="paint4_linear_234_101" x1="155.95" y1="202.808" x2="155.95" y2="279.051" gradientUnits="userSpaceOnUse">
<stop stop-color="#349FDD"/>
<stop offset="1" stop-color="#2647C5"/>
</linearGradient>
<linearGradient id="paint5_linear_234_101" x1="90.1158" y1="114.093" x2="90.1158" y2="0.206543" gradientUnits="userSpaceOnUse">
<stop stop-color="#2647C5"/>
<stop offset="1" stop-color="#349FDD"/>
</linearGradient>
<linearGradient id="paint6_linear_234_101" x1="91.9258" y1="183.74" x2="91.9258" y2="70.0903" gradientUnits="userSpaceOnUse">
<stop stop-color="#2647C5"/>
<stop offset="1" stop-color="#349FDD"/>
</linearGradient>
<linearGradient id="paint7_linear_234_101" x1="109.622" y1="79.0637" x2="109.622" y2="49.1213" gradientUnits="userSpaceOnUse">
<stop stop-color="#2647C5"/>
<stop offset="1" stop-color="#349FDD"/>
</linearGradient>
<linearGradient id="paint8_linear_234_101" x1="91.1005" y1="45.294" x2="91.1005" y2="33.5981" gradientUnits="userSpaceOnUse">
<stop stop-color="#2647C5"/>
<stop offset="1" stop-color="#349FDD"/>
</linearGradient>
<clipPath id="clip0_234_101">
<rect width="84.4848" height="183.879" fill="white" transform="translate(49.7576)"/>
</clipPath>
</defs>
</svg>
