<svg width="100" height="160" viewBox="0 0 100 160" fill="none" xmlns="http://www.w3.org/2000/svg">
<path d="M17.1725 134.837L13.5179 138.832C11.5937 137.701 10.2094 137.135 9.36492 137.135C8.71435 137.135 8.15366 137.383 7.68301 137.88C7.21232 138.363 6.97699 138.942 6.97699 139.618C6.97699 140.957 8.1952 142.117 10.6315 143.097C12.4174 143.856 13.7671 144.547 14.6807 145.168C15.5944 145.775 16.3558 146.623 16.9649 147.714C17.5878 148.805 17.8993 149.984 17.8993 151.254C17.8993 153.586 16.9511 155.617 15.0545 157.341C13.1719 159.067 10.943 159.93 8.36821 159.93C5.54423 159.93 2.75479 158.605 0 155.955L3.86227 151.461C5.59268 153.242 7.21231 154.132 8.72126 154.132C9.42719 154.132 10.1056 153.822 10.7562 153.201C11.4068 152.565 11.7322 151.903 11.7322 151.213C11.7322 149.792 10.2301 148.542 7.22613 147.466C5.50963 146.845 4.29142 146.265 3.57154 145.726C2.8517 145.174 2.24259 144.381 1.74426 143.346C1.25975 142.296 1.01747 141.226 1.01747 140.137C1.01747 137.721 1.80654 135.761 3.38467 134.257C4.9628 132.752 7.02545 132 9.57265 132C12.5905 132 15.1237 132.946 17.1725 134.837Z" fill="url(#paint0_linear_330_2)"/>
<path d="M23.1105 132.372H32.434C34.9395 132.372 36.9607 133.104 38.4973 134.567C40.0339 136.016 40.8024 137.928 40.8024 140.302C40.8024 141.861 40.4215 143.346 39.6602 144.753C38.9126 146.147 37.7774 147.189 36.2547 147.879C34.7319 148.57 33.4307 148.929 32.3509 148.957L28.9454 149.039V159.557H23.1105V132.372ZM28.8624 137.259V144.215H31.1465C32.1294 144.215 32.967 143.863 33.6591 143.159C34.3651 142.455 34.7181 141.62 34.7181 140.654C34.7181 139.55 34.3235 138.694 33.5345 138.087C32.7454 137.479 31.6241 137.176 30.1706 137.176L28.8624 137.259Z" fill="url(#paint1_linear_330_2)"/>
<path d="M46.1377 132.372H51.9935V159.557H46.1377V132.372Z" fill="url(#paint2_linear_330_2)"/>
<path d="M78.6961 133.822V140.468C75.7476 138.687 73.1657 137.797 70.9511 137.797C68.736 137.797 66.964 138.556 65.6354 140.074C64.3063 141.592 63.6416 143.635 63.6416 146.202C63.6416 148.632 64.3409 150.578 65.739 152.041C67.1371 153.49 69.0058 154.215 71.3455 154.215C73.3944 154.215 75.8443 153.394 78.6961 151.752V158.335C75.4984 159.398 72.8337 159.93 70.7018 159.93C67.0335 159.93 63.9184 158.591 61.3575 155.912C58.7965 153.221 57.516 149.943 57.516 146.078C57.516 142.145 58.8175 138.818 61.42 136.099C64.0365 133.366 67.2132 132 70.9511 132C73.3598 132 75.9414 132.607 78.6961 133.822Z" fill="url(#paint3_linear_330_2)"/>
<path d="M99.2736 134.837L95.6189 138.832C93.6946 137.701 92.3101 137.135 91.466 137.135C90.8153 137.135 90.2546 137.383 89.7836 137.88C89.3131 138.363 89.0778 138.942 89.0778 139.618C89.0778 140.957 90.2962 142.117 92.7325 143.097C94.5181 143.856 95.8681 144.547 96.7817 145.168C97.6953 145.775 98.4567 146.623 99.0659 147.714C99.6886 148.805 100 149.984 100 151.254C100 153.586 99.0519 155.617 97.1552 157.341C95.2729 159.067 93.0439 159.93 90.4694 159.93C87.6451 159.93 84.8559 158.605 82.1007 155.955L85.9632 151.461C87.6937 153.242 89.3131 154.132 90.8223 154.132C91.5281 154.132 92.2064 153.822 92.8572 153.201C93.5075 152.565 93.8328 151.903 93.8328 151.213C93.8328 149.792 92.3311 148.542 89.3271 147.466C87.6106 146.845 86.3922 146.265 85.6723 145.726C84.9525 145.174 84.3437 144.381 83.8452 143.346C83.3606 142.296 83.1184 141.226 83.1184 140.137C83.1184 137.721 83.9073 135.761 85.4856 134.257C87.0635 132.752 89.1263 132 91.6733 132C94.6913 132 97.2247 132.946 99.2736 134.837Z" fill="url(#paint4_linear_330_2)"/>
<g clip-path="url(#clip0_330_2)">
<path d="M35.3984 21.1917C35.1254 22.2586 34.98 23.3757 34.98 24.5257C34.98 27.852 36.1892 30.8998 38.1995 33.2671H38.197L38.2148 33.2848C38.7378 33.8999 39.3144 34.4673 39.9394 34.9819L59.9375 54.6617C64.0997 58.7576 64.0997 65.3981 59.9375 69.4938L36.6612 46.5879L35.281 45.2297L34.3831 44.3461L28.6992 38.7527C28.6964 38.7493 28.6933 38.7458 28.6905 38.7426C25.769 34.7386 24.0485 29.8308 24.0485 24.5257C24.0485 22.9089 24.2092 21.3298 24.5128 19.8009C24.9975 17.3657 25.8522 15.0585 27.0155 12.9421C28.8344 9.62576 31.4136 6.77381 34.5183 4.60726C36.225 3.41727 38.0924 2.43316 40.0797 1.69507C43.0186 0.600986 46.2218 0.0416491 49.5706 0.136295C62.6159 0.50559 73.2302 10.9408 73.6206 23.778C73.7208 27.0841 73.1524 30.2463 72.0373 33.1442L62.6876 23.9431C62.3866 16.8736 56.6159 11.1948 49.4321 10.8986C49.2357 10.8911 49.0391 10.886 48.8401 10.886C46.539 10.886 44.3655 11.4383 42.4547 12.4174C38.9827 14.1924 36.3729 17.3707 35.3984 21.1917Z" fill="url(#paint5_linear_330_2)"/>
<path d="M72.1837 66.5992L72.8267 67.2318C76.8633 71.2043 76.8633 77.6447 72.8267 81.617L45.7934 108.22C37.7712 116.115 24.0546 110.523 24.0546 99.3591V42.6919L35.2871 53.7456V92.8721C35.2871 96.576 39.8376 98.4307 42.4989 95.8118L45.9762 92.3896L59.8748 78.7099L64.6274 74.0353C64.6707 73.9927 64.7142 73.95 64.7549 73.9072C68.3454 70.3026 69.3115 66.3607 68.2975 63.4169C68.2188 63.1889 68.5029 63.0127 68.6765 63.1819L72.1837 66.5992Z" fill="url(#paint6_linear_330_2)"/>
<path d="M65.7457 44.7144C64.1729 46.0286 62.4594 47.1845 60.6311 48.1573L54.7461 42.3646C52.9331 40.5799 53.218 37.5697 55.3851 36.2201C56.8513 35.307 58.1629 34.1746 59.2712 32.8699C60.0399 31.9655 60.7136 30.9741 61.2708 29.9194L66.1807 34.8704C68.9478 37.661 68.766 42.1908 65.7457 44.7144Z" fill="url(#paint7_linear_330_2)"/>
<path d="M53.0659 24.0263C53.0659 25.9936 51.4456 27.5883 49.4465 27.5883C47.4474 27.5883 45.8268 25.9936 45.8268 24.0263C45.8268 22.0591 47.4474 20.4644 49.4465 20.4644C51.4456 20.4644 53.0659 22.0591 53.0659 24.0263Z" fill="url(#paint8_linear_330_2)"/>
</g>
<defs>
<linearGradient id="paint0_linear_330_2" x1="8.94966" y1="132" x2="8.94966" y2="159.93" gradientUnits="userSpaceOnUse">
<stop stop-color="#349FDD"/>
<stop offset="0.9999" stop-color="#2647C5"/>
<stop offset="1" stop-color="#2A60CC"/>
</linearGradient>
<linearGradient id="paint1_linear_330_2" x1="31.9564" y1="132.372" x2="31.9564" y2="159.557" gradientUnits="userSpaceOnUse">
<stop stop-color="#349FDD"/>
<stop offset="0.9999" stop-color="#2647C5"/>
<stop offset="1" stop-color="#2A60CC"/>
</linearGradient>
<linearGradient id="paint2_linear_330_2" x1="49.0656" y1="132.372" x2="49.0656" y2="159.557" gradientUnits="userSpaceOnUse">
<stop stop-color="#349FDD"/>
<stop offset="0.9999" stop-color="#2647C5"/>
<stop offset="1" stop-color="#2A60CC"/>
</linearGradient>
<linearGradient id="paint3_linear_330_2" x1="68.106" y1="132" x2="68.106" y2="159.93" gradientUnits="userSpaceOnUse">
<stop stop-color="#349FDD"/>
<stop offset="0.9999" stop-color="#2647C5"/>
<stop offset="1" stop-color="#2A60CC"/>
</linearGradient>
<linearGradient id="paint4_linear_330_2" x1="91.0504" y1="132" x2="91.0504" y2="159.93" gradientUnits="userSpaceOnUse">
<stop stop-color="#349FDD"/>
<stop offset="0.9999" stop-color="#2647C5"/>
<stop offset="1" stop-color="#2A60CC"/>
</linearGradient>
<linearGradient id="paint5_linear_330_2" x1="48.8403" y1="69.4938" x2="48.8403" y2="0.125977" gradientUnits="userSpaceOnUse">
<stop stop-color="#2647C5"/>
<stop offset="1" stop-color="#349FDD"/>
</linearGradient>
<linearGradient id="paint6_linear_330_2" x1="49.9544" y1="111.916" x2="49.9544" y2="42.6919" gradientUnits="userSpaceOnUse">
<stop stop-color="#2647C5"/>
<stop offset="1" stop-color="#349FDD"/>
</linearGradient>
<linearGradient id="paint7_linear_330_2" x1="60.8463" y1="48.1573" x2="60.8463" y2="29.9194" gradientUnits="userSpaceOnUse">
<stop stop-color="#2647C5"/>
<stop offset="1" stop-color="#349FDD"/>
</linearGradient>
<linearGradient id="paint8_linear_330_2" x1="49.4463" y1="27.5883" x2="49.4463" y2="20.4644" gradientUnits="userSpaceOnUse">
<stop stop-color="#2647C5"/>
<stop offset="1" stop-color="#349FDD"/>
</linearGradient>
<clipPath id="clip0_330_2">
<rect width="52" height="112" fill="white" transform="translate(24)"/>
</clipPath>
</defs>
</svg>
