<svg width="40" height="40" viewBox="0 0 40 40" fill="none" xmlns="http://www.w3.org/2000/svg">
<circle cx="20" cy="20" r="20" fill="white"/>
<path d="M15.3333 32.9999C17.7253 32.9999 19.6667 31.0586 19.6667 28.6666V24.3333H15.3333C12.9413 24.3333 11 26.2746 11 28.6666C11 31.0586 12.9413 32.9999 15.3333 32.9999Z" fill="#0ACF83"/>
<path d="M11 20.0001C11 17.6081 12.9413 15.6667 15.3333 15.6667H19.6667V24.3334H15.3333C12.9413 24.3334 11 22.3921 11 20.0001Z" fill="#A259FF"/>
<path d="M11 11.3333C11 8.94133 12.9413 7 15.3333 7H19.6667V15.6667H15.3333C12.9413 15.6667 11 13.7253 11 11.3333Z" fill="#F24E1E"/>
<path d="M19.6667 7H24C26.392 7 28.3334 8.94133 28.3334 11.3333C28.3334 13.7253 26.392 15.6667 24 15.6667H19.6667V7Z" fill="#FF7262"/>
<path d="M28.3334 20.0001C28.3334 22.3921 26.392 24.3334 24 24.3334C21.608 24.3334 19.6667 22.3921 19.6667 20.0001C19.6667 17.6081 21.608 15.6667 24 15.6667C26.392 15.6667 28.3334 17.6081 28.3334 20.0001Z" fill="#1ABCFE"/>
</svg>
