<svg width="40" height="40" viewBox="0 0 40 40" fill="none" xmlns="http://www.w3.org/2000/svg">
<circle cx="20" cy="20" r="20" fill="white"/>
<path d="M11.0104 28.9779L14.2106 8.50007C14.2497 8.24893 14.445 8.05095 14.6956 8.00838C14.9462 7.96581 15.1959 8.08828 15.3157 8.31243L18.6253 14.4853L19.9445 11.9736C20.0467 11.7794 20.2481 11.6578 20.4675 11.6578C20.687 11.6578 20.8884 11.7794 20.9906 11.9736L29.9219 28.9779H11.0104V28.9779Z" fill="#FFA000"/>
<path d="M22.0663 21.0011L18.6238 14.4824L11.0104 28.978L22.0663 21.0011Z" fill="#F57C00"/>
<path d="M29.9221 28.978L27.4709 13.8102C27.4339 13.5924 27.2785 13.4134 27.0679 13.346C26.8574 13.2785 26.627 13.3347 26.4707 13.4908L11.0104 28.9777L19.565 33.7751C20.1022 34.0751 20.7564 34.0751 21.2936 33.7751L29.9221 28.9777V28.978Z" fill="#FFCA28"/>
<path d="M27.4709 13.81C27.4338 13.5922 27.2784 13.4133 27.0679 13.3458C26.8574 13.2784 26.627 13.3345 26.4706 13.4907L23.4021 16.567L20.9892 11.9734C20.887 11.7792 20.6856 11.6576 20.4662 11.6576C20.2467 11.6576 20.0453 11.7792 19.9431 11.9734L18.6239 14.4851L15.3142 8.31233C15.1942 8.08813 14.9442 7.96585 14.6933 8.00874C14.4424 8.05163 14.2477 8.2501 14.209 8.50144L11.0103 28.9778H11L11.0103 28.9896L11.0945 29.031L26.4662 13.6416C26.6224 13.4846 26.8534 13.4281 27.0645 13.4954C27.2755 13.5626 27.4313 13.7423 27.4679 13.9607L29.8984 28.9926L29.922 28.9778L27.4709 13.81L27.4709 13.81ZM11.0384 28.9497L14.2105 8.64626C14.2492 8.39492 14.4443 8.19644 14.695 8.15355C14.9456 8.11067 15.1957 8.2329 15.3159 8.45715L18.6253 14.63L19.9445 12.1183C20.0466 11.9241 20.248 11.8025 20.4675 11.8025C20.6869 11.8025 20.8883 11.9241 20.9905 12.1183L23.3545 16.6143L11.0382 28.9497H11.0384Z" fill="white" fill-opacity="0.2"/>
<path opacity="0.2" d="M21.2936 33.6305C20.7564 33.9304 20.1022 33.9304 19.565 33.6305L11.0311 28.8464L11.0104 28.978L19.565 33.7739C20.1022 34.0738 20.7564 34.0738 21.2936 33.7739L29.9221 28.978L29.8999 28.842L21.2936 33.6305V33.6305Z" fill="#A52714"/>
<path d="M27.4463 13.8134C27.4094 13.5956 27.2545 13.4166 27.0447 13.3496C26.835 13.2825 26.6054 13.3382 26.4496 13.4944L23.3916 16.5691L20.9873 11.9777C20.8855 11.7835 20.6848 11.662 20.4661 11.662C20.2475 11.662 20.0468 11.7835 19.9449 11.9777L18.6302 14.4883L15.3322 8.31806C15.2126 8.09396 14.9635 7.9717 14.7137 8.01461C14.4639 8.05752 14.2694 8.25583 14.2309 8.50711L11.0433 28.9745L19.568 33.7683C20.1033 34.0681 20.7553 34.0681 21.2906 33.7683L29.8889 28.9745L27.4463 13.8133V13.8134Z" fill="url(#paint0_linear_159_250)"/>
<defs>
<linearGradient id="paint0_linear_159_250" x1="10.3856" y1="12.4291" x2="33.9032" y2="24.8344" gradientUnits="userSpaceOnUse">
<stop stop-color="white" stop-opacity="0.1"/>
<stop offset="0.14" stop-color="white" stop-opacity="0.08"/>
<stop offset="0.61" stop-color="white" stop-opacity="0.02"/>
<stop offset="1" stop-color="white" stop-opacity="0"/>
</linearGradient>
</defs>
</svg>
