<svg width="40" height="40" viewBox="0 0 40 40" fill="none" xmlns="http://www.w3.org/2000/svg">
<circle cx="20" cy="20" r="20" fill="white"/>
<path d="M26.3442 17.1428C24.8691 10.6354 21.7946 8.903 21.0103 7.6784C20.6869 7.13894 20.4004 6.57819 20.1528 6C20.1114 6.57809 20.0353 6.94229 19.5439 7.38068C18.5573 8.26035 14.367 11.675 14.0144 19.0688C13.6858 25.9626 19.0824 30.2135 19.7953 30.6528C20.3436 30.9226 21.0113 30.6586 21.3369 30.411C23.9384 28.6256 27.4927 23.866 26.3471 17.1428" fill="#10AA50"/>
<path d="M20.3763 26.9819C20.2405 28.6883 20.1431 29.6797 19.7982 30.6548C19.7982 30.6548 20.0246 32.2792 20.1836 34H20.7463C20.8805 32.7882 21.0854 31.5854 21.36 30.3975C20.6316 30.0391 20.4043 28.4792 20.3763 26.9819Z" fill="#B8C4C2"/>
<path d="M21.359 30.3985C20.6229 30.0584 20.41 28.4657 20.3773 26.982C20.5593 24.5344 20.6124 22.0789 20.5362 19.6257C20.4977 18.3385 20.5545 7.70349 20.2192 6.14648C20.4486 6.67382 20.7129 7.18529 21.0103 7.67747C21.7945 8.90303 24.87 10.6354 26.3441 17.1428C27.4926 23.8545 23.9576 28.6016 21.359 30.3985Z" fill="#12924F"/>
</svg>
