<svg width="40" height="40" viewBox="0 0 40 40" fill="none" xmlns="http://www.w3.org/2000/svg">
<circle cx="20" cy="20" r="20" fill="white"/>
<g clip-path="url(#clip0_320_10)">
<path d="M20.5 22.6045C21.9275 22.6045 23.0848 21.4384 23.0848 19.9999C23.0848 18.5614 21.9275 17.3953 20.5 17.3953C19.0725 17.3953 17.9152 18.5614 17.9152 19.9999C17.9152 21.4384 19.0725 22.6045 20.5 22.6045Z" fill="#61DAFB"/>
<path d="M20.5 25.3365C28.1599 25.3365 34.3696 22.9473 34.3696 20.0002C34.3696 17.053 28.1599 14.6638 20.5 14.6638C12.84 14.6638 6.63043 17.053 6.63043 20.0002C6.63043 22.9473 12.84 25.3365 20.5 25.3365Z" stroke="#61DAFB"/>
<path d="M15.9138 22.6683C19.7438 29.353 24.9019 33.5774 27.4348 32.1038C29.9676 30.6302 28.9161 24.0166 25.0861 17.3319C21.2562 10.6473 16.0981 6.42285 13.5652 7.89644C11.0323 9.37003 12.0838 15.9836 15.9138 22.6683Z" stroke="#61DAFB"/>
<path d="M15.9138 17.332C12.0838 24.0167 11.0323 30.6303 13.5652 32.1039C16.0981 33.5775 21.2562 29.353 25.0862 22.6684C28.9161 15.9837 29.9676 9.37012 27.4348 7.89653C24.9019 6.42294 19.7438 10.6474 15.9138 17.332Z" stroke="#61DAFB"/>
</g>
<defs>
<clipPath id="clip0_320_10">
<rect width="29" height="26" fill="white" transform="translate(6 7)"/>
</clipPath>
</defs>
</svg>
