<svg width="40" height="40" viewBox="0 0 40 40" fill="none" xmlns="http://www.w3.org/2000/svg">
<circle cx="20" cy="20" r="20" fill="white"/>
<path d="M8.8479 19.9996C8.8479 24.4139 11.4132 28.2287 15.1332 30.0365L9.81343 15.4609C9.19464 16.8479 8.8479 18.3828 8.8479 19.9996Z" fill="#464342"/>
<path d="M27.5288 19.4369C27.5288 18.0587 27.0337 17.1042 26.6091 16.3612C26.0438 15.4426 25.5139 14.6647 25.5139 13.746C25.5139 12.7209 26.2914 11.7666 27.3866 11.7666C27.4361 11.7666 27.483 11.7727 27.5311 11.7755C25.547 9.95773 22.9036 8.8479 20.0002 8.8479C16.1041 8.8479 12.6763 10.8469 10.6823 13.8746C10.9439 13.8825 11.1905 13.888 11.3999 13.888C12.5664 13.888 14.3721 13.7464 14.3721 13.7464C14.9732 13.711 15.0441 14.594 14.4436 14.6651C14.4436 14.6651 13.8394 14.7362 13.1672 14.7714L17.2284 26.8512L19.6689 19.5316L17.9314 14.771C17.3308 14.7357 16.7619 14.6647 16.7619 14.6647C16.161 14.6294 16.2314 13.7106 16.8324 13.746C16.8324 13.746 18.6741 13.8876 19.7699 13.8876C20.9362 13.8876 22.7421 13.746 22.7421 13.746C23.3437 13.7106 23.4143 14.5936 22.8136 14.6647C22.8136 14.6647 22.2082 14.7357 21.5372 14.771L25.5674 26.7593L26.6798 23.0421C27.1619 21.4996 27.5288 20.3916 27.5288 19.4369Z" fill="#464342"/>
<path d="M20.1958 20.9751L16.8497 30.6981C17.8488 30.9918 18.9054 31.1525 20.0001 31.1525C21.2988 31.1525 22.5443 30.9279 23.7035 30.5203C23.6736 30.4725 23.6464 30.4218 23.6242 30.3667L20.1958 20.9751Z" fill="#464342"/>
<path d="M29.7857 14.6492C29.8337 15.0044 29.8608 15.3857 29.8608 15.7959C29.8608 16.9276 29.6495 18.1998 29.0129 19.7905L25.6063 29.6395C28.9218 27.7061 31.1519 24.1142 31.1519 19.9999C31.1521 18.061 30.6568 16.2377 29.7857 14.6492Z" fill="#464342"/>
<path d="M20.0001 7C12.832 7 7 12.8316 7 19.9997C7 27.1686 12.832 33 20.0001 33C27.168 33 33.0008 27.1686 33.0008 19.9997C33.0006 12.8316 27.168 7 20.0001 7ZM20.0001 32.4041C13.1607 32.4041 7.59608 26.8395 7.59608 19.9997C7.59608 13.1603 13.1605 7.59608 20.0001 7.59608C26.8393 7.59608 32.4035 13.1603 32.4035 19.9997C32.4035 26.8395 26.8393 32.4041 20.0001 32.4041Z" fill="#464342"/>
</svg>
