<?xml version="1.0" standalone="no"?>
<!DOCTYPE svg PUBLIC "-//W3C//DTD SVG 20010904//EN"
 "http://www.w3.org/TR/2001/REC-SVG-20010904/DTD/svg10.dtd">
<svg version="1.0" xmlns="http://www.w3.org/2000/svg"
 width="1392.000000pt" height="1392.000000pt" viewBox="0 0 1392.000000 1392.000000"
 preserveAspectRatio="xMidYMid meet">
<metadata>
Created by potrace 1.14, written by Peter Selinger 2001-2017
</metadata>
<g transform="translate(0.000000,1392.000000) scale(0.100000,-0.100000)"
fill="#000000" stroke="none">
<path d="M6717 13904 c-1 -1 -55 -5 -120 -9 -65 -3 -128 -9 -140 -11 -12 -3
-35 -7 -52 -8 -38 -4 -103 -15 -135 -22 -14 -3 -36 -7 -50 -9 -85 -11 -369
-93 -457 -131 -17 -8 -38 -14 -47 -14 -9 0 -16 -5 -16 -12 0 -6 -3 -9 -6 -6
-9 10 -206 -81 -359 -165 -84 -47 -341 -215 -368 -241 -6 -6 -34 -29 -61 -51
-201 -162 -418 -395 -577 -620 -50 -71 -149 -233 -149 -244 0 -5 -4 -11 -8
-13 -18 -7 -192 -383 -192 -414 0 -8 -4 -14 -8 -14 -5 0 -9 -6 -9 -12 0 -7
-15 -58 -33 -113 -17 -55 -33 -104 -34 -110 -2 -5 -8 -28 -14 -50 -6 -22 -13
-51 -16 -65 -3 -14 -8 -36 -11 -50 -3 -14 -7 -36 -10 -50 -3 -14 -7 -36 -10
-50 -7 -29 -12 -67 -20 -130 -3 -24 -7 -55 -10 -68 -8 -43 -19 -253 -18 -357
0 -222 30 -479 82 -700 5 -22 12 -50 15 -63 9 -40 67 -226 76 -247 5 -11 20
-49 33 -85 43 -117 184 -408 207 -430 3 -3 19 -27 35 -55 16 -27 49 -79 74
-115 29 -42 724 -744 1952 -1972 1049 -1050 1911 -1908 1916 -1908 10 0 85 84
131 149 36 49 125 199 129 216 1 5 15 42 31 80 28 69 56 165 67 235 3 19 9 58
13 85 9 57 8 261 -2 320 -4 22 -9 56 -12 75 -24 153 -142 422 -230 526 -13 15
-24 31 -24 36 0 9 -2497 2509 -2620 2624 -30 28 -80 79 -110 114 -30 34 -61
68 -67 75 -7 8 -13 18 -13 23 0 6 -4 12 -8 14 -27 11 -186 289 -221 388 -7 19
-16 44 -21 55 -11 29 -37 116 -46 150 -7 32 -9 40 -19 95 -3 19 -8 46 -11 60
-17 86 -23 321 -12 440 8 79 45 267 59 291 5 10 8 22 8 26 -1 4 1 17 6 28 4
11 19 49 32 85 31 82 103 231 120 248 7 7 13 19 13 27 0 7 3 15 8 17 4 2 30
37 58 78 28 41 66 93 85 114 51 60 182 188 219 216 19 14 42 32 51 41 9 9 20
18 25 20 5 2 34 20 64 40 30 20 69 45 85 55 42 26 137 74 149 74 5 0 17 7 26
15 9 8 25 16 36 18 10 1 24 5 29 8 12 8 150 53 150 50 0 -1 13 2 28 8 15 6 42
13 60 16 18 4 50 10 73 15 101 23 363 31 494 16 121 -14 319 -61 405 -97 17
-7 32 -13 35 -14 50 -17 134 -58 138 -67 2 -5 9 -8 15 -8 14 0 151 -81 155
-92 2 -4 8 -8 13 -8 11 0 123 -85 165 -125 17 -16 42 -39 55 -51 74 -64 188
-205 263 -323 110 -172 199 -401 232 -600 3 -18 8 -43 10 -55 2 -11 7 -55 10
-96 l6 -75 571 -572 c314 -315 573 -571 574 -569 2 2 6 12 8 22 3 11 18 57 34
104 27 78 72 242 86 315 52 265 60 348 59 630 0 121 -3 247 -7 280 -9 88 -17
147 -22 175 -3 14 -7 43 -10 65 -3 22 -14 78 -25 125 -11 47 -23 98 -26 113
-9 44 -89 284 -124 372 -48 120 -176 373 -221 437 -11 14 -19 31 -19 37 0 6
-4 11 -8 11 -5 0 -15 12 -23 28 -27 53 -181 259 -254 342 -40 44 -249 254
-291 292 -71 63 -228 183 -315 240 -109 72 -255 158 -268 158 -5 0 -11 3 -13
8 -3 8 -216 106 -308 142 -58 23 -194 70 -220 76 -8 2 -55 14 -103 28 -48 14
-104 27 -124 31 -19 3 -38 7 -42 9 -3 3 -27 7 -51 11 -49 7 -83 12 -131 20
-32 6 -108 14 -194 21 -56 4 -325 11 -328 8z"/>
<path d="M6838 11375 c-2 -2 -16 -5 -33 -8 -83 -14 -188 -74 -244 -139 -154
-179 -145 -440 21 -607 48 -49 145 -105 198 -116 152 -31 295 3 402 96 42 36
109 126 115 153 1 6 9 30 17 52 37 101 20 247 -39 348 -57 98 -161 179 -264
206 -40 11 -166 21 -173 15z"/>
<path d="M8322 10169 c-38 -70 -158 -248 -212 -314 -94 -114 -218 -235 -328
-320 -7 -5 -21 -17 -30 -25 -9 -8 -38 -29 -64 -45 -27 -17 -48 -34 -48 -38 0
-5 -4 -6 -9 -2 -14 8 -154 -134 -173 -175 -63 -136 -78 -237 -52 -346 12 -55
53 -151 76 -181 29 -37 774 -783 782 -783 15 0 270 152 286 170 3 3 21 16 41
28 20 12 52 34 71 49 20 16 49 37 64 48 57 41 210 170 233 198 14 16 30 34 36
41 36 37 135 217 135 245 0 6 4 19 9 29 30 57 48 285 29 378 -5 27 -11 58 -12
69 -2 11 -8 33 -14 48 -7 16 -12 33 -12 38 0 5 -4 17 -10 27 -5 9 -18 37 -29
62 -47 106 -97 161 -666 743 l-86 88 -17 -32z"/>
<path d="M3788 8602 c-5 -11 0 -7141 5 -7182 3 -19 8 -62 12 -95 4 -33 11 -67
16 -76 4 -9 6 -18 4 -21 -3 -3 2 -29 11 -58 9 -30 17 -61 20 -69 9 -39 57
-159 93 -229 104 -208 258 -395 437 -528 43 -32 81 -62 82 -66 2 -5 7 -8 12
-8 4 0 38 -18 74 -40 126 -77 319 -154 440 -176 16 -2 33 -7 38 -10 5 -3 27
-8 51 -10 23 -3 56 -8 72 -11 46 -8 344 -8 400 0 56 8 90 15 90 17 0 1 12 3
27 5 32 4 179 45 193 53 6 4 15 7 20 8 20 3 160 68 187 86 14 10 30 18 34 18
7 0 139 86 160 105 7 5 24 19 40 30 15 11 46 37 68 58 90 83 3391 3386 3434
3435 58 66 152 201 152 218 0 7 4 14 9 16 16 6 97 207 116 288 1 7 14 70 20
99 26 136 20 347 -16 496 -5 22 -11 48 -14 58 -25 107 -107 276 -188 390 -64
89 -91 118 -337 362 -122 121 -243 241 -268 267 -30 30 -50 44 -61 40 -26 -9
-29 -21 -15 -62 48 -139 49 -368 2 -535 -6 -22 -13 -47 -14 -56 -7 -32 -84
-211 -118 -272 -41 -74 -139 -220 -167 -251 -11 -11 -30 -34 -42 -50 -26 -34
-2853 -2863 -2888 -2889 -105 -81 -273 -113 -424 -82 -58 11 -171 72 -224 121
-53 48 -124 146 -124 171 0 7 -4 13 -8 13 -4 0 -11 15 -15 32 -4 18 -10 40
-12 48 -5 13 -15 1375 -12 1514 1 28 3 53 6 57 2 4 0 10 -5 14 -6 3 -7 16 -3
28 4 12 6 37 4 55 -3 39 -4 81 -3 165 0 6 1 35 1 62 1 127 1 149 6 156 2 4 0
10 -5 14 -6 3 -7 16 -3 28 4 12 6 37 4 55 -3 39 -4 81 -3 165 0 6 1 35 1 62 1
127 1 149 6 156 2 4 0 10 -5 14 -6 3 -7 16 -3 28 4 12 6 37 4 55 -3 39 -4 81
-3 165 0 6 1 35 1 62 1 127 1 149 6 156 2 4 0 10 -5 14 -6 3 -7 16 -3 28 4 12
6 37 4 55 -3 39 -4 81 -3 165 0 6 1 35 1 62 1 127 1 149 6 156 2 4 0 10 -5 14
-6 3 -7 16 -3 28 4 12 6 37 4 55 -3 39 -4 81 -3 165 0 6 1 35 1 62 1 127 1
149 6 156 2 4 0 10 -5 14 -6 3 -7 16 -3 28 4 12 6 37 4 55 -3 39 -4 81 -3 165
0 6 1 35 1 62 1 127 1 149 6 156 2 4 0 10 -5 14 -6 3 -7 16 -3 28 4 12 6 37 4
55 -3 39 -4 81 -3 165 0 6 1 35 1 62 0 28 1 73 1 100 1 52 1 57 -3 91 -3 22
-1364 1389 -1370 1376z"/>
</g>
</svg>
