<svg width="15" height="15" viewBox="0 0 15 15" fill="none" xmlns="http://www.w3.org/2000/svg">
<path d="M0 1.66667C0 1.22464 0.175595 0.800716 0.488155 0.488155C0.800716 0.175595 1.22464 0 1.66667 0L13.3333 0C13.7754 0 14.1993 0.175595 14.5118 0.488155C14.8244 0.800716 15 1.22464 15 1.66667V13.3333C15 13.7754 14.8244 14.1993 14.5118 14.5118C14.1993 14.8244 13.7754 15 13.3333 15H1.66667C1.22464 15 0.800716 14.8244 0.488155 14.5118C0.175595 14.1993 0 13.7754 0 13.3333V1.66667Z" fill="#3B88C3"/>
<path d="M8.54666 3.36287C8.54666 3.94412 8.08208 4.43496 7.50041 4.43496C6.945 4.43496 6.45416 3.93121 6.45416 3.36287C6.45416 2.83329 6.945 2.34204 7.50041 2.34204C8.05583 2.34246 8.54666 2.82037 8.54666 3.36287ZM6.57 6.16621C6.57 5.54621 6.95791 5.13246 7.5 5.13246C8.0425 5.13246 8.43 5.54579 8.43 6.16621V11.127C8.43 11.747 8.0425 12.1604 7.5 12.1604C6.9575 12.1604 6.57 11.747 6.57 11.127V6.16621Z" fill="white"/>
</svg>
