<svg width="22" height="21" viewBox="0 0 22 21" fill="none" xmlns="http://www.w3.org/2000/svg">
<path d="M10.9973 6.71286C9.14799 6.71286 7.6388 8.22207 7.6388 10.0714C7.6388 11.9208 9.14799 13.43 10.9973 13.43C12.8466 13.43 14.3558 11.9208 14.3558 10.0714C14.3558 8.22207 12.8466 6.71286 10.9973 6.71286ZM21.0703 10.0714C21.0703 8.68063 21.0829 7.30243 21.0048 5.91416C20.9267 4.30164 20.5589 2.87053 19.3797 1.69137C18.1981 0.5097 16.7695 0.144364 15.157 0.0662579C13.7663 -0.0118484 12.3881 0.000749428 10.9998 0.000749428C9.60906 0.000749428 8.23089 -0.0118484 6.84263 0.0662579C5.23015 0.144364 3.79906 0.51222 2.61993 1.69137C1.43828 2.87305 1.07295 4.30164 0.994846 5.91416C0.916741 7.30495 0.929338 8.68315 0.929338 10.0714C0.929338 11.4597 0.916741 12.8404 0.994846 14.2287C1.07295 15.8412 1.4408 17.2723 2.61993 18.4515C3.80158 19.6332 5.23015 19.9985 6.84263 20.0766C8.23341 20.1547 9.61158 20.1421 10.9998 20.1421C12.3906 20.1421 13.7688 20.1547 15.157 20.0766C16.7695 19.9985 18.2006 19.6306 19.3797 18.4515C20.5614 17.2698 20.9267 15.8412 21.0048 14.2287C21.0854 12.8404 21.0703 11.4622 21.0703 10.0714ZM10.9973 15.239C8.13766 15.239 5.82979 12.9311 5.82979 10.0714C5.82979 7.21173 8.13766 4.90381 10.9973 4.90381C13.857 4.90381 16.1648 7.21173 16.1648 10.0714C16.1648 12.9311 13.857 15.239 10.9973 15.239ZM16.3765 5.89904C15.7088 5.89904 15.1696 5.35985 15.1696 4.69217C15.1696 4.02449 15.7088 3.4853 16.3765 3.4853C17.0441 3.4853 17.5833 4.02449 17.5833 4.69217C17.5835 4.85071 17.5524 5.00774 17.4919 5.15425C17.4313 5.30077 17.3424 5.43389 17.2303 5.546C17.1182 5.65811 16.9851 5.747 16.8385 5.80758C16.692 5.86816 16.535 5.89924 16.3765 5.89904Z" fill="white"/>
</svg>
