<svg width="21" height="21" viewBox="0 0 21 21" fill="none" xmlns="http://www.w3.org/2000/svg">
<path fill-rule="evenodd" clip-rule="evenodd" d="M0.857178 1.68285C0.857178 1.23653 1.03448 0.80849 1.35007 0.492896C1.66567 0.177301 2.0937 2.24347e-06 2.54002 2.24347e-06H19.3154C19.5365 -0.000359002 19.7556 0.0429092 19.9601 0.12733C20.1645 0.21175 20.3503 0.335664 20.5068 0.491979C20.6632 0.648293 20.7874 0.833938 20.872 1.03828C20.9566 1.24263 21.0002 1.46166 21 1.68285V18.4582C21.0003 18.6794 20.9569 18.8985 20.8724 19.103C20.7879 19.3074 20.6639 19.4932 20.5075 19.6496C20.3511 19.8061 20.1654 19.9302 19.961 20.0148C19.7566 20.0995 19.5375 20.143 19.3163 20.1429H2.54002C2.31895 20.1429 2.10005 20.0993 1.89581 20.0147C1.69158 19.93 1.50603 19.806 1.34975 19.6496C1.19347 19.4933 1.06953 19.3077 0.985014 19.1034C0.900497 18.8991 0.857058 18.6802 0.857178 18.4591V1.68285ZM8.83009 7.67992H11.5576V9.04964C11.9513 8.26224 12.9585 7.55357 14.4719 7.55357C17.3734 7.55357 18.061 9.12197 18.061 11.9997V17.3302H15.1247V12.6552C15.1247 11.0163 14.731 10.0916 13.7312 10.0916C12.3441 10.0916 11.7673 11.0886 11.7673 12.6552V17.3302H8.83009V7.67992ZM3.79437 17.2047H6.73157V7.55357H3.79437V17.2038V17.2047ZM7.15182 4.40579C7.15736 4.65728 7.11261 4.90734 7.0202 5.1413C6.92778 5.37525 6.78957 5.5884 6.61367 5.76821C6.43777 5.94803 6.22772 6.0909 5.99585 6.18844C5.76399 6.28598 5.51497 6.33623 5.26343 6.33623C5.01188 6.33623 4.76287 6.28598 4.531 6.18844C4.29914 6.0909 4.08909 5.94803 3.91319 5.76821C3.73728 5.5884 3.59907 5.37525 3.50666 5.1413C3.41425 4.90734 3.3695 4.65728 3.37503 4.40579C3.38591 3.91216 3.58963 3.44241 3.94259 3.09714C4.29555 2.75187 4.76968 2.55853 5.26343 2.55853C5.75718 2.55853 6.2313 2.75187 6.58426 3.09714C6.93722 3.44241 7.14095 3.91216 7.15182 4.40579Z" fill="white"/>
</svg>
