<svg width="230" height="80" viewBox="0 0 230 80" fill="none" xmlns="http://www.w3.org/2000/svg">
<path d="M118.183 24.8294L113.249 30.2231C110.652 28.6959 108.783 27.932 107.643 27.932C106.764 27.932 106.007 28.2669 105.372 28.9378C104.737 29.5904 104.419 30.372 104.419 31.2847C104.419 33.092 106.064 34.6575 109.353 35.9816C111.763 37.0062 113.586 37.9378 114.819 38.7764C116.052 39.5962 117.08 40.7409 117.903 42.2139C118.744 43.6863 119.164 45.2788 119.164 46.9932C119.164 50.1417 117.884 52.8823 115.324 55.2105C112.782 57.5404 109.773 58.705 106.297 58.705C102.485 58.705 98.719 56.9166 95 53.339L100.214 47.2727C102.55 49.6767 104.737 50.8785 106.774 50.8785C107.727 50.8785 108.643 50.4595 109.521 49.6208C110.399 48.7634 110.838 47.8694 110.838 46.9378C110.838 45.0187 108.811 43.3315 104.755 41.879C102.438 41.0404 100.793 40.2577 99.8216 39.5303C98.8498 38.7847 98.0275 37.7142 97.3548 36.3165C96.7007 34.8993 96.3736 33.4557 96.3736 31.9845C96.3736 28.723 97.4388 26.077 99.5693 24.0467C101.7 22.0158 104.484 21 107.923 21C111.997 21 115.417 22.2765 118.183 24.8294Z" fill="white"/>
<path d="M126.199 21.502H138.786C142.168 21.502 144.897 22.4907 146.971 24.4657C149.046 26.4219 150.083 29.0019 150.083 32.2075C150.083 34.3126 149.569 36.3165 148.541 38.2168C147.532 40.0988 146 41.5053 143.944 42.4369C141.888 43.3685 140.131 43.8535 138.674 43.8911L134.076 44.0024V58.2013H126.199V21.502ZM133.964 28.0992V37.49H137.048C138.375 37.49 139.505 37.0144 140.44 36.0646C141.393 35.1141 141.869 33.9866 141.869 32.683C141.869 31.1918 141.337 30.0371 140.271 29.2167C139.206 28.3969 137.693 27.9874 135.73 27.9874L133.964 28.0992Z" fill="white"/>
<path d="M157.286 21.502H165.191V58.2013H157.286V21.502Z" fill="white"/>
<path d="M201.24 23.46V32.4312C197.259 30.0271 193.774 28.826 190.784 28.826C187.794 28.826 185.402 29.8505 183.608 31.9003C181.814 33.9495 180.916 36.7072 180.916 40.173C180.916 43.4533 181.86 46.0804 183.748 48.0554C185.635 50.0116 188.158 50.9903 191.317 50.9903C194.083 50.9903 197.39 49.8815 201.24 47.6646V56.5529C196.923 57.987 193.326 58.705 190.448 58.705C185.495 58.705 181.29 56.8977 177.833 53.2813C174.375 49.6479 172.647 45.2229 172.647 40.0058C172.647 34.6951 174.404 30.2042 177.917 26.5337C181.449 22.8444 185.738 21 190.784 21C194.036 21 197.521 21.8198 201.24 23.46Z" fill="white"/>
<path d="M229.019 24.8294L224.085 30.2231C221.488 28.6959 219.619 27.932 218.479 27.932C217.601 27.932 216.844 28.2669 216.208 28.9378C215.573 29.5904 215.255 30.372 215.255 31.2847C215.255 33.092 216.9 34.6575 220.189 35.9816C222.599 37.0062 224.422 37.9378 225.655 38.7764C226.889 39.5962 227.916 40.7409 228.739 42.2139C229.58 43.6863 230 45.2788 230 46.9932C230 50.1417 228.72 52.8823 226.159 55.2105C223.618 57.5404 220.609 58.705 217.134 58.705C213.321 58.705 209.555 56.9166 205.836 53.339L211.05 47.2727C213.386 49.6767 215.573 50.8785 217.61 50.8785C218.563 50.8785 219.479 50.4595 220.357 49.6208C221.235 48.7634 221.674 47.8694 221.674 46.9378C221.674 45.0187 219.647 43.3315 215.592 41.879C213.274 41.0404 211.629 40.2577 210.658 39.5303C209.686 38.7847 208.864 37.7142 208.191 36.3165C207.537 34.8993 207.21 33.4557 207.21 31.9845C207.21 28.723 208.275 26.077 210.406 24.0467C212.536 22.0158 215.321 21 218.759 21C222.833 21 226.253 22.2765 229.019 24.8294Z" fill="white"/>
<path d="M30.4753 16.9269C30.2971 17.6341 30.2023 18.3746 30.2023 19.1369C30.2023 21.3418 30.9911 23.362 32.3025 24.9312H32.3008L32.3124 24.9429C32.6535 25.3506 33.0296 25.7267 33.4374 26.0678L46.4823 39.1128C49.1973 41.8277 49.1973 46.2294 46.4823 48.9443L31.299 33.761L30.3987 32.8607L29.813 32.275L26.1054 28.5674C26.1034 28.5651 26.1015 28.5628 26.0996 28.5606C24.1939 25.9066 23.0717 22.6534 23.0717 19.1369C23.0717 18.0652 23.1765 17.0185 23.3745 16.005C23.6906 14.3908 24.2482 12.8614 25.007 11.4587C26.1935 9.26036 27.8759 7.36993 29.9011 5.93381C31.0144 5.14502 32.2325 4.49269 33.5289 4.00344C35.446 3.27823 37.5354 2.90746 39.7199 2.9702C48.2294 3.21499 55.1533 10.132 55.4079 18.6413C55.4733 20.8328 55.1025 22.9289 54.3751 24.8497L48.2762 18.7507C48.0799 14.0646 44.3156 10.3004 39.6295 10.1041C39.5014 10.0991 39.3732 10.0957 39.2434 10.0957C37.7424 10.0957 36.3246 10.4618 35.0782 11.1108C32.8133 12.2874 31.1109 14.3941 30.4753 16.9269Z" fill="white"/>
<path d="M54.4707 47.0257L54.8901 47.445C57.5232 50.0782 57.5232 54.3473 54.8901 56.9804L37.2561 74.6144C32.0231 79.8474 23.0757 76.1412 23.0757 68.7408V31.1786L30.4027 38.5056V64.4409C30.4027 66.896 33.371 68.1254 35.107 66.3894L37.3753 64.1211L46.4414 55.0533L49.5416 51.9548C49.5699 51.9265 49.5982 51.8982 49.6248 51.8699C51.9669 49.4805 52.5971 46.8676 51.9356 44.9163C51.8843 44.7651 52.0696 44.6483 52.1829 44.7605L54.4707 47.0257Z" fill="white"/>
<path d="M50.271 32.5194C49.2451 33.3905 48.1274 34.1567 46.9347 34.8015L43.0959 30.9618C41.9133 29.7788 42.0991 27.7835 43.5127 26.8889C44.4691 26.2836 45.3247 25.533 46.0477 24.6682C46.5491 24.0687 46.9886 23.4115 47.352 22.7124L50.5548 25.9942C52.3598 27.844 52.2412 30.8466 50.271 32.5194Z" fill="white"/>
<path d="M41.9998 18.8061C41.9998 20.1101 40.9429 21.1671 39.6389 21.1671C38.3349 21.1671 37.2777 20.1101 37.2777 18.8061C37.2777 17.5021 38.3349 16.445 39.6389 16.445C40.9429 16.445 41.9998 17.5021 41.9998 18.8061Z" fill="white"/>
</svg>
