<svg width="750" height="750" viewBox="0 0 750 750" fill="none" xmlns="http://www.w3.org/2000/svg">
<path d="M285.706 158.69C284.036 165.32 283.147 172.262 283.147 179.408C283.147 200.079 290.542 219.019 302.836 233.73H302.82L302.929 233.84C306.127 237.662 309.653 241.188 313.476 244.386L435.772 366.682C461.225 392.135 461.225 433.401 435.772 458.853L293.428 316.509L284.988 308.069L279.497 302.578L244.738 267.819C244.72 267.798 244.702 267.776 244.684 267.756C226.818 242.874 216.297 212.376 216.297 179.408C216.297 169.361 217.28 159.548 219.136 150.047C222.1 134.914 227.327 120.576 234.441 107.425C245.564 86.8158 261.337 69.093 280.323 55.6294C290.76 48.2345 302.18 42.1189 314.334 37.5322C332.306 30.7333 351.895 27.2574 372.374 27.8456C452.151 30.1405 517.062 94.9876 519.449 174.762C520.062 195.307 516.586 214.958 509.767 232.966L452.59 175.788C450.749 131.856 415.459 96.5664 371.527 94.7255C370.326 94.6787 369.124 94.6475 367.907 94.6475C353.835 94.6475 340.543 98.0797 328.858 104.164C307.625 115.194 291.665 134.945 285.706 158.69Z" fill="white"/>
<path d="M510.662 440.866L514.594 444.797C539.279 469.483 539.279 509.506 514.594 534.191L349.275 699.51C300.216 748.569 216.334 713.824 216.334 644.445V292.299L285.025 360.99V604.133C285.025 627.15 312.853 638.676 329.128 622.401L350.393 601.135L435.388 516.125L464.452 487.076C464.717 486.811 464.983 486.546 465.232 486.28C487.189 463.88 493.097 439.384 486.896 421.09C486.415 419.673 488.152 418.578 489.214 419.63L510.662 440.866Z" fill="white"/>
<path d="M471.291 304.869C461.673 313.036 451.194 320.219 440.013 326.264L404.024 290.267C392.937 279.176 394.679 260.47 407.932 252.083C416.898 246.409 424.919 239.372 431.697 231.264C436.398 225.644 440.518 219.483 443.925 212.929L473.951 243.696C490.873 261.037 489.761 289.187 471.291 304.869Z" fill="white"/>
<path d="M393.749 176.307C393.749 188.532 383.84 198.442 371.615 198.442C359.39 198.442 349.479 188.532 349.479 176.307C349.479 164.082 359.39 154.172 371.615 154.172C383.84 154.172 393.749 164.082 393.749 176.307Z" fill="white"/>
</svg>
