<svg width="319" height="114" viewBox="0 0 319 114" fill="none" xmlns="http://www.w3.org/2000/svg">
<path d="M135.053 35.4364L128.018 43.0935C124.314 40.9255 121.65 39.841 120.025 39.841C118.773 39.841 117.694 40.3164 116.788 41.2689C115.882 42.1953 115.429 43.3048 115.429 44.6007C115.429 47.1665 117.774 49.3888 122.463 51.2686C125.9 52.7231 128.497 54.0457 130.256 55.2362C132.015 56.4 133.48 58.025 134.653 60.1162C135.851 62.2065 136.451 64.4673 136.451 66.901C136.451 71.3708 134.626 75.2616 130.976 78.5668C127.352 81.8743 123.063 83.5278 118.107 83.5278C112.671 83.5278 107.302 80.9889 102 75.91L109.434 67.2979C112.764 70.7108 115.882 72.4169 118.786 72.4169C120.145 72.4169 121.451 71.8219 122.703 70.6315C123.956 69.4142 124.581 68.1452 124.581 66.8226C124.581 64.0981 121.69 61.7028 115.908 59.6408C112.605 58.4502 110.26 57.3391 108.874 56.3065C107.489 55.2479 106.316 53.7282 105.357 51.744C104.425 49.7322 103.958 47.6827 103.958 45.5941C103.958 40.9639 105.477 37.2076 108.515 34.3253C111.552 31.4421 115.522 30 120.425 30C126.233 30 131.109 31.8122 135.053 35.4364Z" fill="white"/>
<path d="M146.481 30.7132H164.426C169.249 30.7132 173.139 32.1167 176.096 34.9206C179.054 37.6976 180.533 41.3604 180.533 45.9112C180.533 48.8996 179.8 51.7445 178.335 54.4422C176.895 57.114 174.711 59.1108 171.78 60.4333C168.849 61.7559 166.345 62.4443 164.266 62.4977L157.712 62.6557V82.8131H146.481V30.7132ZM157.551 40.0788V53.4104H161.949C163.84 53.4104 165.452 52.7353 166.784 51.3869C168.143 50.0376 168.823 48.4368 168.823 46.5862C168.823 44.4691 168.063 42.8299 166.544 41.6653C165.026 40.5015 162.868 39.9201 160.07 39.9201L157.551 40.0788Z" fill="white"/>
<path d="M190.802 30.7132H202.073V82.8131H190.802V30.7132Z" fill="white"/>
<path d="M253.468 33.4923V46.2281C247.792 42.8153 242.823 41.1101 238.561 41.1101C234.298 41.1101 230.887 42.5647 228.33 45.4745C225.772 48.3837 224.492 52.2988 224.492 57.2188C224.492 61.8757 225.838 65.6052 228.529 68.4091C231.22 71.1862 234.817 72.5755 239.32 72.5755C243.263 72.5755 247.979 71.0016 253.468 67.8544V80.4725C247.313 82.5085 242.185 83.5278 238.081 83.5278C231.02 83.5278 225.025 80.9621 220.096 75.8281C215.167 70.6698 212.702 64.388 212.702 56.9815C212.702 49.4422 215.207 43.0668 220.217 37.8559C225.253 32.6184 231.366 30 238.561 30C243.197 30 248.166 31.1638 253.468 33.4923Z" fill="white"/>
<path d="M260.861 31.1389H272.721L283.123 47.1788L293.879 31.1389H305.385L289.033 56.0765L307 83.5278H295.455L283.202 64.8944L270.947 83.5278H259.167L277.331 56.1563L260.861 31.1389Z" fill="white"/>
<path d="M11.3985 21.5699C11.1255 22.6559 10.9801 23.7929 10.9801 24.9634C10.9801 28.3491 12.1893 31.4514 14.1996 33.8609H14.1971L14.2149 33.879C14.7379 34.505 15.3145 35.0825 15.9395 35.6063L35.9376 55.6376C40.0998 59.8066 40.0998 66.5657 35.9376 70.7345L12.6613 47.4196L11.2811 46.0372L10.3832 45.1378L4.69925 39.4445C4.69644 39.4411 4.69338 39.4374 4.69058 39.4342C1.76905 35.3587 0.048584 30.3633 0.048584 24.9634C0.048584 23.3178 0.209304 21.7104 0.512886 20.1542C0.997596 17.6756 1.85222 15.3272 3.01551 13.173C4.83447 9.79741 7.41363 6.89454 10.5184 4.6893C12.2251 3.47806 14.0925 2.47637 16.0798 1.7251C19.0187 0.611483 22.2219 0.0421572 25.5707 0.138494C38.616 0.514383 49.2303 11.1359 49.6207 24.2024C49.7209 27.5675 49.1525 30.7862 48.0374 33.7358L38.6877 24.3704C38.3867 17.1747 32.616 11.3945 25.4322 11.093C25.2358 11.0853 25.0392 11.0802 24.8402 11.0802C22.5391 11.0802 20.3656 11.6424 18.4548 12.6389C14.9828 14.4456 12.373 17.6806 11.3985 21.5699Z" fill="white"/>
<path d="M48.1838 67.7884L48.8268 68.4323C52.8634 72.4757 52.8634 79.0312 48.8268 83.0744L21.7935 110.153C13.7713 118.188 0.0546875 112.497 0.0546875 101.133V43.4542L11.2872 54.7053V94.5304C11.2872 98.3004 15.8377 100.188 18.499 97.5226L21.9763 94.0394L35.8749 80.1153L40.6275 75.3573C40.6708 75.3139 40.7143 75.2705 40.755 75.2269C44.3455 71.5579 45.3116 67.5457 44.2976 64.5492C44.2189 64.3171 44.503 64.1378 44.6766 64.3101L48.1838 67.7884Z" fill="white"/>
<path d="M41.7457 45.513C40.1729 46.8507 38.4594 48.0273 36.6311 49.0174L30.7461 43.1213C28.9331 41.3047 29.218 38.2408 31.3851 36.867C32.8513 35.9377 34.1629 34.7851 35.2712 33.457C36.0399 32.5365 36.7136 31.5274 37.2708 30.4539L42.1807 35.4933C44.9478 38.3336 44.766 42.9444 41.7457 45.513Z" fill="white"/>
<path d="M29.066 24.4555C29.066 26.4578 27.4457 28.081 25.4466 28.081C23.4475 28.081 21.8269 26.4578 21.8269 24.4555C21.8269 22.4531 23.4475 20.8299 25.4466 20.8299C27.4457 20.8299 29.066 22.4531 29.066 24.4555Z" fill="white"/>
</svg>
