<svg width="60" height="60" viewBox="0 0 60 60" fill="none" xmlns="http://www.w3.org/2000/svg">
<path d="M21.6735 12.0357C15.3278 19.1553 10.973 29.3839 10.5686 30.3476L3.53864 27.3319C1.51674 26.4614 1.01905 23.8188 2.57435 22.2643L11.9373 12.9062C13.3993 11.445 15.5145 10.7921 17.5675 11.1962L21.6735 12.0357ZM26.3083 43.6231C27.2415 44.5558 28.6101 44.8045 29.7921 44.2449C33.4005 42.566 41.1459 38.6176 46.1539 33.6121C60.4316 19.3418 60.556 7.71418 59.7162 2.73979C59.6061 2.12876 59.3117 1.56599 58.8724 1.12698C58.4332 0.687971 57.8701 0.393712 57.2588 0.283681C52.2818 -0.555747 40.6482 -0.431388 26.3705 13.8389C21.3624 18.8444 17.443 26.5858 15.7322 30.1922C15.1723 31.3736 15.4523 32.7727 16.3543 33.6743L26.3083 43.6231ZM47.9892 38.3378C40.8659 44.6801 30.632 49.0327 29.6677 49.4369L32.685 56.4632C33.556 58.484 36.2 58.9815 37.7553 57.427L47.1182 48.0689C48.5802 46.6077 49.2334 44.4936 48.8291 42.4416L47.9892 38.3378ZM20.8958 46.4211C21.1974 47.9269 21.1225 49.4837 20.6775 50.9535C20.2325 52.4233 19.4314 53.7605 18.3451 54.8465C15.95 57.2405 8.51561 59.0126 3.69417 59.9453C1.54785 60.3494 -0.349619 58.453 0.0547598 56.3078C0.987941 51.4888 2.72988 44.0583 5.15615 41.6644C6.2427 40.5787 7.58064 39.778 9.05118 39.3332C10.5217 38.8885 12.0794 38.8135 13.5859 39.115C17.2253 39.799 20.2115 42.7836 20.8958 46.4211ZM33.5249 20.2745C33.5249 16.8546 36.3244 14.0565 39.7461 14.0565C43.1678 14.0565 45.9673 16.8546 45.9673 20.2745C45.9673 23.6944 43.1678 26.4925 39.7461 26.4925C36.3244 26.4925 33.5249 23.6944 33.5249 20.2745Z" fill="url(#paint0_linear_143_185)"/>
<defs>
<linearGradient id="paint0_linear_143_185" x1="0" y1="30" x2="60" y2="30" gradientUnits="userSpaceOnUse">
<stop stop-color="#84C3E8"/>
<stop offset="1" stop-color="#8193DA"/>
</linearGradient>
</defs>
</svg>
