<svg width="60" height="119" viewBox="0 0 60 119" fill="none" xmlns="http://www.w3.org/2000/svg">
<path d="M48.5415 51.899C52.4029 53.3603 55.2781 55.7643 57.1668 59.1111C59.0556 62.4108 60 70.1886 60 82.4444C60 91.5421 59.0766 98.6128 57.2298 103.657C55.383 108.653 52.1931 112.471 47.66 115.111C43.127 117.704 37.3137 119 30.2204 119C22.1616 119 15.8237 117.492 11.2067 114.475C6.63169 111.411 3.60965 107.687 2.14061 103.303C0.713536 98.8721 0 91.2121 0 80.3232V71.2727H25.4355V89.8687C25.4355 94.8182 25.6873 97.9764 26.191 99.3434C26.7366 100.663 27.9119 101.323 29.7167 101.323C31.6894 101.323 32.9906 100.475 33.6201 98.7778C34.2497 97.0808 34.5645 92.6498 34.5645 85.4848V77.5657C34.5645 73.1818 34.1238 69.9764 33.2424 67.9495C32.361 65.9226 31.0598 64.6027 29.3389 63.9899C27.618 63.33 24.2812 62.9529 19.3284 62.8586V46.2424C25.3725 46.2424 29.1081 45.9832 30.5352 45.4646C31.9622 44.9461 32.9906 43.8148 33.6201 42.0707C34.2497 40.3266 34.5645 37.5926 34.5645 33.8687V27.5051C34.5645 23.4983 34.1868 20.8586 33.4313 19.5859C32.7177 18.3131 31.5845 17.6768 30.0315 17.6768C28.2686 17.6768 27.0514 18.3603 26.3799 19.7273C25.7503 21.0471 25.4355 23.899 25.4355 28.2828V37.6869H0V27.9293C0 16.9933 2.22455 9.61616 6.67366 5.79798C11.1228 1.93266 18.1952 0 27.8909 0C40.021 0 48.2476 2.6633 52.5708 7.9899C56.894 13.3165 59.0556 20.7172 59.0556 30.1919C59.0556 36.6027 58.2791 41.2458 56.7261 44.1212C55.1731 46.9495 52.4449 49.5421 48.5415 51.899Z" fill="url(#paint0_linear_153_126)"/>
<defs>
<linearGradient id="paint0_linear_153_126" x1="30" y1="0" x2="30" y2="119" gradientUnits="userSpaceOnUse">
<stop stop-color="#2647C5" stop-opacity="0.2"/>
<stop offset="1" stop-color="#349FDD" stop-opacity="0.2"/>
</linearGradient>
</defs>
</svg>
