<svg width="60" height="117" viewBox="0 0 60 117" fill="none" xmlns="http://www.w3.org/2000/svg">
<path d="M57.6649 97.4291V117H0V100.62C17.0811 70.0818 27.2216 51.1964 30.4216 43.9636C33.6649 36.6836 35.2865 31.0109 35.2865 26.9455C35.2865 23.8255 34.7892 21.5091 33.7946 19.9964C32.8432 18.4364 31.373 17.6564 29.3838 17.6564C27.3946 17.6564 25.9027 18.5073 24.9081 20.2091C23.9568 21.9109 23.4811 25.2909 23.4811 30.3491V41.2691H0V37.0855C0 30.6564 0.302703 25.5982 0.908108 21.9109C1.51351 18.1764 3.00541 14.5127 5.38378 10.92C7.76216 7.32727 10.8541 4.60909 14.6595 2.76545C18.4649 0.921818 23.027 0 28.3459 0C38.7676 0 46.6378 2.83636 51.9568 8.50909C57.3189 14.1345 60 21.2727 60 29.9236C60 36.4945 58.4865 43.4436 55.4595 50.7709C52.4757 58.0982 43.6324 73.6509 28.9297 97.4291H57.6649Z" fill="url(#paint0_linear_153_127)"/>
<defs>
<linearGradient id="paint0_linear_153_127" x1="30" y1="0" x2="30" y2="117" gradientUnits="userSpaceOnUse">
<stop stop-color="#2647C5" stop-opacity="0.2"/>
<stop offset="1" stop-color="#349FDD" stop-opacity="0.2"/>
</linearGradient>
</defs>
</svg>
