<svg width="329" height="719" viewBox="0 0 329 719" fill="none" xmlns="http://www.w3.org/2000/svg">
<path d="M256.15 135.489C257.879 142.351 258.799 149.536 258.799 156.932C258.799 178.326 251.143 197.929 238.415 213.154H238.431L238.318 213.268C235.006 217.224 231.356 220.873 227.398 224.183L100.778 350.758C74.4246 377.102 74.4246 419.811 100.778 446.154L248.155 298.83L256.893 290.094L262.579 284.411L298.567 248.436C298.585 248.414 298.604 248.392 298.622 248.371C317.12 222.618 328.013 191.053 328.013 156.932C328.013 146.533 326.996 136.377 325.074 126.543C322.005 110.881 316.593 96.0416 309.228 82.4298C297.711 61.0999 281.381 42.757 261.723 28.8223C250.917 21.1687 239.093 14.8391 226.51 10.0919C207.902 3.05513 187.621 -0.54237 166.417 0.0663669C83.8195 2.44157 16.6133 69.5576 14.1419 152.123C13.5072 173.387 17.1061 193.726 24.1662 212.364L83.365 153.185C85.2711 107.716 121.809 71.1916 167.294 69.2863C168.538 69.2379 169.782 69.2056 171.042 69.2056C185.612 69.2056 199.374 72.7579 211.472 79.0551C233.456 90.471 249.98 110.913 256.15 135.489Z" fill="#205DB7" fill-opacity="0.05"/>
<path d="M23.2394 427.537L19.1684 431.606C-6.38949 457.156 -6.38949 498.579 19.1684 524.128L190.333 695.231C241.127 746.006 327.975 710.046 327.975 638.239V273.772L256.855 344.867V596.517C256.855 620.339 228.043 632.268 211.192 615.424L189.175 593.414L101.175 505.43L71.0834 475.364C70.809 475.09 70.5336 474.816 70.2758 474.54C47.5424 451.357 41.4255 426.004 47.8457 407.07C48.3438 405.603 46.5453 404.47 45.4458 405.559L23.2394 427.537Z" fill="#205DB7" fill-opacity="0.05"/>
<path d="M64.0026 286.782C73.9607 295.235 84.8102 302.669 96.3866 308.926L133.648 271.669C145.127 260.19 143.324 240.83 129.602 232.149C120.319 226.277 112.014 218.994 104.997 210.602C100.129 204.785 95.8637 198.409 92.3363 191.625L61.2486 223.469C43.7282 241.417 44.8795 270.552 64.0026 286.782Z" fill="#205DB7" fill-opacity="0.05"/>
<path d="M144.286 153.722C144.286 166.375 154.546 176.632 167.203 176.632C179.86 176.632 190.122 166.375 190.122 153.722C190.122 141.069 179.86 130.813 167.203 130.813C154.546 130.813 144.286 141.069 144.286 153.722Z" fill="#205DB7" fill-opacity="0.05"/>
</svg>
