<svg width="148" height="324" viewBox="0 0 148 324" fill="none" xmlns="http://www.w3.org/2000/svg">
<path d="M115.429 61.0547C116.208 64.1469 116.622 67.3846 116.622 70.7175C116.622 80.3583 113.172 89.1917 107.436 96.0528H107.444L107.393 96.1041C105.901 97.8867 104.256 99.5312 102.472 101.023L45.4133 158.061C33.5379 169.932 33.5379 189.178 45.4133 201.048L111.826 134.66L115.763 130.724L118.326 128.163L134.543 111.952C134.551 111.942 134.56 111.932 134.568 111.922C142.903 100.318 147.812 86.0935 147.812 70.7175C147.812 66.0316 147.354 61.4549 146.488 57.0237C145.105 49.9658 142.666 43.2788 139.347 37.145C134.157 27.5332 126.798 19.2674 117.94 12.9881C113.07 9.53915 107.742 6.68688 102.072 4.54768C93.6867 1.37672 84.5472 -0.244406 74.9925 0.0299066C37.7715 1.10023 7.48639 31.3444 6.3727 68.5506C6.0867 78.1326 7.70848 87.2977 10.89 95.6965L37.5666 69.0291C38.4256 48.5396 54.8906 32.0808 75.3876 31.2222C75.948 31.2004 76.5088 31.1858 77.0766 31.1858C83.6421 31.1858 89.8436 32.7866 95.2954 35.6243C105.202 40.7685 112.648 49.9803 115.429 61.0547Z" fill="white" fill-opacity="0.15"/>
<path d="M10.4723 192.659L8.63779 194.493C-2.87932 206.006 -2.87932 224.673 8.63779 236.186L85.7695 313.289C108.659 336.17 147.795 319.965 147.795 287.607V123.369L115.746 155.406V268.806C115.746 279.541 102.763 284.917 95.1694 277.326L85.2479 267.408L45.5924 227.76L32.0322 214.211C31.9086 214.088 31.7845 213.964 31.6683 213.84C21.424 203.393 18.6675 191.968 21.5607 183.436C21.7851 182.775 20.9746 182.265 20.4792 182.755L10.4723 192.659Z" fill="white" fill-opacity="0.15"/>
<path d="M28.8415 129.231C33.3289 133.041 38.218 136.391 43.4346 139.21L60.2257 122.421C65.3985 117.248 64.5858 108.524 58.4024 104.613C54.2192 101.966 50.4769 98.6842 47.3145 94.9027C45.1212 92.2816 43.199 89.4081 41.6094 86.3514L27.6004 100.701C19.7052 108.789 20.224 121.918 28.8415 129.231Z" fill="white" fill-opacity="0.15"/>
<path d="M65.0197 69.2712C65.0197 74.9728 69.6429 79.5948 75.3466 79.5948C81.0503 79.5948 85.6744 74.9728 85.6744 69.2712C85.6744 63.5695 81.0503 58.9476 75.3466 58.9476C69.6429 58.9476 65.0197 63.5695 65.0197 69.2712Z" fill="white" fill-opacity="0.15"/>
</svg>
