<svg width="303" height="1161" viewBox="0 0 303 1161" fill="none" xmlns="http://www.w3.org/2000/svg">
<path d="M-110.96 218.78C-113.75 229.86 -115.237 241.462 -115.237 253.404C-115.237 287.951 -102.874 319.604 -82.3211 344.189H-82.3472L-82.1647 344.373C-76.8178 350.761 -70.923 356.654 -64.5329 361.998L139.927 566.384C182.481 608.922 182.481 677.888 139.927 720.424L-98.0488 482.533L-112.159 468.428L-121.34 459.251L-179.452 401.16C-179.481 401.125 -179.512 401.088 -179.54 401.055C-209.41 359.471 -227 308.502 -227 253.404C-227 236.613 -225.357 220.214 -222.253 204.335C-217.297 179.044 -208.56 155.082 -196.666 133.103C-178.069 98.6606 -151.7 69.0415 -119.958 46.5406C-102.509 34.182 -83.4165 23.9613 -63.0983 16.2959C-33.0513 4.93324 -0.301697 -0.875787 33.9359 0.107165C167.31 3.9425 275.831 112.318 279.822 245.64C280.847 279.975 275.035 312.817 263.635 342.913L168.044 247.354C164.966 173.934 105.967 114.956 32.5199 111.88C30.512 111.801 28.5024 111.749 26.4678 111.749C2.94168 111.749 -19.2804 117.485 -38.8159 127.654C-74.3139 146.087 -100.996 179.096 -110.96 218.78Z" fill="#205DB7" fill-opacity="0.05"/>
<path d="M265.132 690.363L271.705 696.933C312.975 738.189 312.975 805.077 271.705 846.331L-4.6817 1122.62C-86.7008 1204.61 -226.938 1146.54 -226.938 1030.59V442.072L-112.097 556.871V963.221C-112.097 1001.69 -65.5741 1020.95 -38.3642 993.751L-2.81256 958.211L139.285 816.139L187.876 767.591C188.319 767.148 188.764 766.705 189.18 766.261C225.888 728.825 235.766 687.886 225.399 657.312C224.594 654.944 227.498 653.114 229.274 654.872L265.132 690.363Z" fill="#205DB7" fill-opacity="0.05"/>
<path d="M199.309 463.08C183.23 476.729 165.71 488.733 147.018 498.836L86.8497 438.676C68.314 420.14 71.2263 388.878 93.3832 374.861C108.373 365.379 121.783 353.618 133.115 340.068C140.974 330.676 147.862 320.379 153.558 309.426L203.756 360.845C232.047 389.826 230.188 436.871 199.309 463.08Z" fill="#205DB7" fill-opacity="0.05"/>
<path d="M69.6716 248.222C69.6716 268.653 53.1054 285.215 32.6671 285.215C12.2289 285.215 -4.3407 268.653 -4.3407 248.222C-4.3407 227.791 12.2289 211.229 32.6671 211.229C53.1054 211.229 69.6716 227.791 69.6716 248.222Z" fill="#205DB7" fill-opacity="0.05"/>
</svg>
